<svg width="1432" height="1097" viewBox="0 0 1432 1097" fill="none" xmlns="http://www.w3.org/2000/svg">
<g opacity="0.09">
<path d="M1118.8 549.48C1978.21 1289.77 877.773 2613.06 -6.72486 1903.17C-866.082 1162.93 234.36 -160.355 1118.8 549.48Z" stroke="#1E2221" stroke-width="2" stroke-linecap="round" stroke-dasharray="7.53 7.53"/>
<path d="M914.912 565.044C1628.1 1179.3 714.916 2277.37 -19.0235 1688.31C-732.155 1074.11 181.031 -23.9656 914.912 565.044Z" stroke="#1E2221" stroke-width="2" stroke-linecap="round" stroke-dasharray="7.53 7.53"/>
<path d="M698.538 589.779C1261.7 1074.93 535.765 1947.79 -43.8096 1482.62C-606.909 997.513 118.963 124.609 698.538 589.779Z" stroke="#1E2221" stroke-width="2" stroke-linecap="round"/>
<path d="M464.147 618.984C866.475 965.452 356.096 1579.18 -57.9266 1246.89C-460.255 900.426 50.1246 286.7 464.147 618.984Z" stroke="#1E2221" stroke-width="2" stroke-linecap="round"/>
<path d="M228.904 637.754C462.946 839.337 163.288 1199.74 -77.6272 1006.43C-311.669 804.842 -12.011 444.436 228.904 637.754Z" fill="#F2F6F3" stroke="#1E2221" stroke-width="2" stroke-linecap="round"/>
</g>
</svg>
