<svg width="375" height="343" viewBox="0 0 375 343" fill="none" xmlns="http://www.w3.org/2000/svg">
<path d="M-155.612 634.32C-141.763 634.38 -141.763 655.45 -155.612 655.51C-169.462 655.45 -169.462 634.38 -155.612 634.32Z" fill="#007A4E" fill-opacity="0.6"/>
<path d="M164.388 634.32C178.237 634.38 178.237 655.45 164.388 655.51C150.538 655.45 150.538 634.38 164.388 634.32Z" fill="#007A4E" fill-opacity="0.6"/>
<path d="M-155.612 607.86C-141.783 607.921 -141.783 628.95 -155.612 629.01C-169.442 628.95 -169.442 607.92 -155.612 607.86Z" fill="#007A4E" fill-opacity="0.6"/>
<path d="M164.388 607.86C178.217 607.92 178.217 628.95 164.388 629.01C150.558 628.95 150.558 607.92 164.388 607.86Z" fill="#007A4E" fill-opacity="0.6"/>
<path d="M-120.612 592.32C-106.763 592.38 -106.763 613.45 -120.612 613.51C-134.462 613.45 -134.462 592.38 -120.612 592.32Z" fill="#007A4E" fill-opacity="0.6"/>
<path d="M-50.6125 592.32C-36.763 592.38 -36.763 613.45 -50.6125 613.51C-64.4625 613.45 -64.4625 592.38 -50.6125 592.32Z" fill="#007A4E" fill-opacity="0.6"/>
<path d="M124.388 592.32C138.237 592.38 138.237 613.45 124.388 613.51C110.538 613.45 110.538 592.38 124.388 592.32Z" fill="#007A4E" fill-opacity="0.6"/>
<path d="M-155.612 581.8C-142.433 581.611 -142.433 602.319 -155.612 602.12C-168.792 602.31 -168.792 581.6 -155.612 581.8Z" fill="#007A4E" fill-opacity="0.6"/>
<path d="M164.388 581.8C177.567 581.601 177.567 602.309 164.388 602.12C151.208 602.32 151.208 581.611 164.388 581.8Z" fill="#007A4E" fill-opacity="0.6"/>
<path d="M-120.612 565.86C-106.783 565.921 -106.783 586.95 -120.612 587.01C-134.442 586.95 -134.442 565.92 -120.612 565.86Z" fill="#007A4E" fill-opacity="0.6"/>
<path d="M-50.6125 565.86C-36.7832 565.921 -36.7832 586.95 -50.6125 587.01C-64.4425 586.95 -64.4425 565.92 -50.6125 565.86Z" fill="#007A4E" fill-opacity="0.6"/>
<path d="M124.388 565.86C138.217 565.92 138.217 586.95 124.388 587.01C110.558 586.95 110.558 565.92 124.388 565.86Z" fill="#007A4E" fill-opacity="0.6"/>
<path d="M-155.612 555.48C-142.643 555.291 -142.643 575.67 -155.612 575.48C-168.583 575.67 -168.583 555.29 -155.612 555.48Z" fill="#007A4E" fill-opacity="0.6"/>
<path d="M164.388 555.48C177.357 555.29 177.357 575.67 164.388 575.48C151.418 575.67 151.418 555.29 164.388 555.48Z" fill="#007A4E" fill-opacity="0.6"/>
<path d="M-85.6125 550.32C-71.763 550.38 -71.763 571.45 -85.6125 571.51C-99.4625 571.45 -99.4625 550.38 -85.6125 550.32Z" fill="#007A4E" fill-opacity="0.6"/>
<path d="M-15.6125 550.32C-1.76302 550.38 -1.76302 571.45 -15.6125 571.51C-29.4625 571.45 -29.4625 550.38 -15.6125 550.32Z" fill="#007A4E" fill-opacity="0.6"/>
<path d="M89.3875 550.32C103.237 550.38 103.237 571.45 89.3875 571.51C75.5378 571.45 75.5378 550.38 89.3875 550.32Z" fill="#007A4E" fill-opacity="0.6"/>
<path d="M-120.612 539.8C-107.433 539.611 -107.433 560.319 -120.612 560.12C-133.792 560.31 -133.792 539.6 -120.612 539.8Z" fill="#007A4E" fill-opacity="0.6"/>
<path d="M-50.6125 539.8C-37.4331 539.611 -37.4331 560.319 -50.6125 560.12C-63.7925 560.31 -63.7925 539.6 -50.6125 539.8Z" fill="#007A4E" fill-opacity="0.6"/>
<path d="M124.388 539.8C137.567 539.601 137.567 560.309 124.388 560.12C111.208 560.32 111.208 539.611 124.388 539.8Z" fill="#007A4E" fill-opacity="0.6"/>
<path d="M-155.612 529.55C-143.343 529.371 -143.343 548.65 -155.612 548.47C-167.882 548.65 -167.882 529.37 -155.612 529.55Z" fill="#007A4E" fill-opacity="0.6"/>
<path d="M164.388 529.55C176.657 529.371 176.657 548.65 164.388 548.47C152.118 548.65 152.118 529.371 164.388 529.55Z" fill="#007A4E" fill-opacity="0.6"/>
<path d="M-85.6125 523.86C-71.7832 523.921 -71.7832 544.95 -85.6125 545.01C-99.4425 544.95 -99.4425 523.92 -85.6125 523.86Z" fill="#007A4E" fill-opacity="0.6"/>
<path d="M-15.6125 523.86C-1.78317 523.921 -1.78317 544.95 -15.6125 545.01C-29.4425 544.95 -29.4425 523.92 -15.6125 523.86Z" fill="#007A4E" fill-opacity="0.6"/>
<path d="M89.3875 523.86C103.217 523.92 103.217 544.95 89.3875 545.01C75.5579 544.95 75.5579 523.92 89.3875 523.86Z" fill="#007A4E" fill-opacity="0.6"/>
<path d="M-120.612 513.48C-107.643 513.291 -107.643 533.67 -120.612 533.48C-133.583 533.67 -133.583 513.29 -120.612 513.48Z" fill="#007A4E" fill-opacity="0.6"/>
<path d="M-50.6125 513.48C-37.6431 513.291 -37.6431 533.67 -50.6125 533.48C-63.5825 533.67 -63.5825 513.29 -50.6125 513.48Z" fill="#007A4E" fill-opacity="0.6"/>
<path d="M124.388 513.48C137.357 513.29 137.357 533.67 124.388 533.48C111.418 533.67 111.418 513.29 124.388 513.48Z" fill="#007A4E" fill-opacity="0.6"/>
<path d="M19.3875 508.32C33.237 508.38 33.237 529.45 19.3875 529.51C5.53749 529.45 5.53749 508.38 19.3875 508.32Z" fill="#007A4E" fill-opacity="0.6"/>
<path d="M54.3875 508.32C68.2371 508.38 68.2371 529.45 54.3875 529.51C40.5378 529.45 40.5378 508.38 54.3875 508.32Z" fill="#007A4E" fill-opacity="0.6"/>
<path d="M-155.612 503.39C-143.763 503.221 -143.763 521.829 -155.612 521.66C-167.462 521.83 -167.462 503.22 -155.612 503.39Z" fill="#007A4E" fill-opacity="0.6"/>
<path d="M164.388 503.39C176.237 503.221 176.237 521.83 164.388 521.66C152.538 521.83 152.538 503.22 164.388 503.39Z" fill="#007A4E" fill-opacity="0.6"/>
<path d="M-85.6125 497.8C-72.4331 497.611 -72.4331 518.319 -85.6125 518.12C-98.7925 518.31 -98.7925 497.6 -85.6125 497.8Z" fill="#007A4E" fill-opacity="0.6"/>
<path d="M-15.6125 497.8C-2.43309 497.611 -2.43309 518.319 -15.6125 518.12C-28.7925 518.31 -28.7925 497.6 -15.6125 497.8Z" fill="#007A4E" fill-opacity="0.6"/>
<path d="M89.3875 497.8C102.567 497.601 102.567 518.309 89.3875 518.12C76.2078 518.32 76.2078 497.611 89.3875 497.8Z" fill="#007A4E" fill-opacity="0.6"/>
<path d="M-120.612 487.55C-108.343 487.371 -108.343 506.65 -120.612 506.47C-132.882 506.65 -132.882 487.37 -120.612 487.55Z" fill="#007A4E" fill-opacity="0.6"/>
<path d="M-50.6125 487.55C-38.3433 487.371 -38.3433 506.65 -50.6125 506.47C-62.8825 506.65 -62.8825 487.37 -50.6125 487.55Z" fill="#007A4E" fill-opacity="0.6"/>
<path d="M124.388 487.55C136.657 487.371 136.657 506.65 124.388 506.47C112.118 506.65 112.118 487.371 124.388 487.55Z" fill="#007A4E" fill-opacity="0.6"/>
<path d="M19.3875 481.86C33.2168 481.921 33.2168 502.95 19.3875 503.01C5.5575 502.95 5.5575 481.92 19.3875 481.86Z" fill="#007A4E" fill-opacity="0.6"/>
<path d="M54.3875 481.86C68.2171 481.92 68.2171 502.95 54.3875 503.01C40.5579 502.95 40.5579 481.92 54.3875 481.86Z" fill="#007A4E" fill-opacity="0.6"/>
<path d="M-155.603 477.461C-144.453 477.301 -144.453 494.81 -155.603 494.65C-166.753 494.81 -166.753 477.301 -155.603 477.461Z" fill="#007A4E" fill-opacity="0.6"/>
<path d="M164.378 477.461C175.527 477.301 175.527 494.81 164.378 494.65C153.228 494.81 153.228 477.301 164.378 477.461Z" fill="#007A4E" fill-opacity="0.6"/>
<path d="M-85.6125 471.48C-72.6431 471.291 -72.6431 491.67 -85.6125 491.48C-98.5825 491.67 -98.5825 471.29 -85.6125 471.48Z" fill="#007A4E" fill-opacity="0.6"/>
<path d="M-15.6125 471.48C-2.64314 471.291 -2.64314 491.67 -15.6125 491.48C-28.5825 491.67 -28.5825 471.29 -15.6125 471.48Z" fill="#007A4E" fill-opacity="0.6"/>
<path d="M89.3875 471.48C102.357 471.29 102.357 491.67 89.3875 491.48C76.4179 491.67 76.4179 471.29 89.3875 471.48Z" fill="#007A4E" fill-opacity="0.6"/>
<path d="M-120.612 461.39C-108.763 461.221 -108.763 479.829 -120.612 479.66C-132.462 479.83 -132.462 461.22 -120.612 461.39Z" fill="#007A4E" fill-opacity="0.6"/>
<path d="M-50.6125 461.39C-38.763 461.221 -38.763 479.829 -50.6125 479.66C-62.4625 479.83 -62.4625 461.22 -50.6125 461.39Z" fill="#007A4E" fill-opacity="0.6"/>
<path d="M124.388 461.39C136.237 461.221 136.237 479.829 124.388 479.66C112.538 479.83 112.538 461.22 124.388 461.39Z" fill="#007A4E" fill-opacity="0.6"/>
<path d="M19.3875 455.8C32.5669 455.611 32.5669 476.319 19.3875 476.12C6.2075 476.31 6.2075 455.6 19.3875 455.8Z" fill="#007A4E" fill-opacity="0.6"/>
<path d="M54.3875 455.8C67.5671 455.601 67.5671 476.309 54.3875 476.12C41.2078 476.32 41.2078 455.611 54.3875 455.8Z" fill="#007A4E" fill-opacity="0.6"/>
<path d="M-155.612 451.84C-145.563 451.691 -145.563 467.48 -155.612 467.331C-165.663 467.481 -165.663 451.69 -155.612 451.84Z" fill="#007A4E" fill-opacity="0.6"/>
<path d="M164.388 451.84C174.437 451.691 174.437 467.48 164.388 467.331C154.338 467.48 154.338 451.691 164.388 451.84Z" fill="#007A4E" fill-opacity="0.6"/>
<path d="M-85.6125 445.55C-73.3433 445.371 -73.3433 464.65 -85.6125 464.47C-97.8825 464.65 -97.8825 445.37 -85.6125 445.55Z" fill="#007A4E" fill-opacity="0.6"/>
<path d="M-15.6125 445.55C-3.34326 445.371 -3.34328 464.65 -15.6125 464.47C-27.8825 464.65 -27.8825 445.37 -15.6125 445.55Z" fill="#007A4E" fill-opacity="0.6"/>
<path d="M89.3875 445.55C101.657 445.371 101.657 464.65 89.3875 464.47C77.118 464.65 77.118 445.371 89.3875 445.55Z" fill="#007A4E" fill-opacity="0.6"/>
<path d="M-120.603 435.461C-109.453 435.301 -109.453 452.81 -120.603 452.65C-131.753 452.81 -131.753 435.301 -120.603 435.461Z" fill="#007A4E" fill-opacity="0.6"/>
<path d="M-50.6027 435.461C-39.4531 435.301 -39.4531 452.81 -50.6027 452.65C-61.7527 452.81 -61.7527 435.301 -50.6027 435.461Z" fill="#007A4E" fill-opacity="0.6"/>
<path d="M124.378 435.461C135.527 435.301 135.527 452.81 124.378 452.65C113.228 452.81 113.228 435.301 124.378 435.461Z" fill="#007A4E" fill-opacity="0.6"/>
<path d="M19.3875 429.48C32.3569 429.291 32.3569 449.67 19.3875 449.48C6.4175 449.67 6.4175 429.29 19.3875 429.48Z" fill="#007A4E" fill-opacity="0.6"/>
<path d="M54.3875 429.48C67.3571 429.29 67.3571 449.67 54.3875 449.48C41.4179 449.67 41.4179 429.29 54.3875 429.48Z" fill="#007A4E" fill-opacity="0.6"/>
<path d="M-155.612 427.48C-148.323 427.371 -148.323 438.83 -155.612 438.72C-162.902 438.83 -162.902 427.37 -155.612 427.48Z" fill="#007A4E" fill-opacity="0.6"/>
<path d="M164.388 427.48C171.677 427.37 171.677 438.83 164.388 438.72C157.098 438.83 157.098 427.37 164.388 427.48Z" fill="#007A4E" fill-opacity="0.6"/>
<path d="M-85.6125 419.39C-73.763 419.221 -73.763 437.829 -85.6125 437.66C-97.4625 437.83 -97.4625 419.22 -85.6125 419.39Z" fill="#007A4E" fill-opacity="0.6"/>
<path d="M-15.6125 419.39C-3.76302 419.221 -3.76302 437.829 -15.6125 437.66C-27.4625 437.83 -27.4625 419.22 -15.6125 419.39Z" fill="#007A4E" fill-opacity="0.6"/>
<path d="M89.3875 419.39C101.237 419.221 101.237 437.829 89.3875 437.66C77.5378 437.83 77.5378 419.22 89.3875 419.39Z" fill="#007A4E" fill-opacity="0.6"/>
<path d="M-120.612 409.84C-110.563 409.691 -110.563 425.48 -120.612 425.331C-130.662 425.481 -130.662 409.69 -120.612 409.84Z" fill="#007A4E" fill-opacity="0.6"/>
<path d="M-50.6125 409.84C-40.5632 409.691 -40.5632 425.48 -50.6125 425.331C-60.6625 425.481 -60.6625 409.69 -50.6125 409.84Z" fill="#007A4E" fill-opacity="0.6"/>
<path d="M124.388 409.84C134.437 409.691 134.437 425.48 124.388 425.331C114.338 425.48 114.338 409.691 124.388 409.84Z" fill="#007A4E" fill-opacity="0.6"/>
<path d="M19.3875 403.55C31.6567 403.371 31.6567 422.65 19.3875 422.47C7.11749 422.65 7.11749 403.37 19.3875 403.55Z" fill="#007A4E" fill-opacity="0.6"/>
<path d="M54.3875 403.55C66.6571 403.371 66.6571 422.65 54.3875 422.47C42.118 422.65 42.118 403.371 54.3875 403.55Z" fill="#007A4E" fill-opacity="0.6"/>
<path d="M-155.603 402.251C-149.923 402.171 -149.923 411.09 -155.603 411.001C-161.283 411.081 -161.283 402.161 -155.603 402.251Z" fill="#007A4E" fill-opacity="0.6"/>
<path d="M164.378 402.251C170.057 402.161 170.057 411.08 164.378 411.001C158.698 411.091 158.698 402.171 164.378 402.251Z" fill="#007A4E" fill-opacity="0.6"/>
<path d="M-85.6027 393.461C-74.4531 393.301 -74.4531 410.81 -85.6027 410.65C-96.7527 410.81 -96.7527 393.301 -85.6027 393.461Z" fill="#007A4E" fill-opacity="0.6"/>
<path d="M-15.6027 393.461C-4.45305 393.301 -4.45306 410.81 -15.6027 410.65C-26.7527 410.81 -26.7527 393.301 -15.6027 393.461Z" fill="#007A4E" fill-opacity="0.6"/>
<path d="M89.3777 393.461C100.527 393.301 100.527 410.81 89.3777 410.65C78.2278 410.81 78.2278 393.301 89.3777 393.461Z" fill="#007A4E" fill-opacity="0.6"/>
<path d="M-120.612 385.48C-113.323 385.371 -113.323 396.83 -120.612 396.72C-127.903 396.83 -127.903 385.37 -120.612 385.48Z" fill="#007A4E" fill-opacity="0.6"/>
<path d="M-50.6125 385.48C-43.3231 385.371 -43.3231 396.83 -50.6125 396.72C-57.9025 396.83 -57.9025 385.37 -50.6125 385.48Z" fill="#007A4E" fill-opacity="0.6"/>
<path d="M124.388 385.48C131.677 385.37 131.677 396.83 124.388 396.72C117.098 396.83 117.098 385.37 124.388 385.48Z" fill="#007A4E" fill-opacity="0.6"/>
<path d="M19.3875 377.39C31.237 377.221 31.237 395.829 19.3875 395.66C7.53749 395.83 7.53749 377.22 19.3875 377.39Z" fill="#007A4E" fill-opacity="0.6"/>
<path d="M54.3875 377.39C66.2371 377.221 66.2371 395.829 54.3875 395.66C42.5378 395.83 42.5378 377.22 54.3875 377.39Z" fill="#007A4E" fill-opacity="0.6"/>
<path d="M-85.6125 367.84C-75.5632 367.691 -75.5632 383.48 -85.6125 383.331C-95.6625 383.481 -95.6625 367.69 -85.6125 367.84Z" fill="#007A4E" fill-opacity="0.6"/>
<path d="M-15.6125 367.84C-5.56322 367.691 -5.56323 383.48 -15.6125 383.331C-25.6625 383.481 -25.6625 367.69 -15.6125 367.84Z" fill="#007A4E" fill-opacity="0.6"/>
<path d="M89.3875 367.84C99.4371 367.691 99.4371 383.48 89.3875 383.331C79.338 383.48 79.338 367.691 89.3875 367.84Z" fill="#007A4E" fill-opacity="0.6"/>
<path d="M-155.612 377.001C-151.523 376.941 -151.523 383.36 -155.612 383.3C-159.702 383.36 -159.702 376.941 -155.612 377.001Z" fill="#007A4E" fill-opacity="0.6"/>
<path d="M164.388 377.001C168.477 376.941 168.477 383.36 164.388 383.3C160.298 383.36 160.298 376.941 164.388 377.001Z" fill="#007A4E" fill-opacity="0.6"/>
<path d="M-120.603 360.251C-114.923 360.171 -114.923 369.09 -120.603 369.001C-126.283 369.081 -126.283 360.161 -120.603 360.251Z" fill="#007A4E" fill-opacity="0.6"/>
<path d="M-50.6027 360.251C-44.923 360.171 -44.923 369.09 -50.6027 369.001C-56.2827 369.081 -56.2827 360.161 -50.6027 360.251Z" fill="#007A4E" fill-opacity="0.6"/>
<path d="M124.378 360.251C130.057 360.161 130.057 369.08 124.378 369.001C118.698 369.091 118.698 360.171 124.378 360.251Z" fill="#007A4E" fill-opacity="0.6"/>
<path d="M19.3973 351.461C30.547 351.301 30.5469 368.81 19.3973 368.65C8.24727 368.81 8.24727 351.301 19.3973 351.461Z" fill="#007A4E" fill-opacity="0.6"/>
<path d="M54.3777 351.461C65.5273 351.301 65.5273 368.81 54.3777 368.65C43.2278 368.81 43.2278 351.301 54.3777 351.461Z" fill="#007A4E" fill-opacity="0.6"/>
<path d="M-85.6125 343.48C-78.3231 343.371 -78.3231 354.83 -85.6125 354.72C-92.9025 354.83 -92.9025 343.37 -85.6125 343.48Z" fill="#007A4E" fill-opacity="0.6"/>
<path d="M-15.6125 343.48C-8.32312 343.371 -8.32314 354.83 -15.6125 354.72C-22.9025 354.83 -22.9025 343.37 -15.6125 343.48Z" fill="#007A4E" fill-opacity="0.6"/>
<path d="M89.3875 343.48C96.6771 343.37 96.6771 354.83 89.3875 354.72C82.0979 354.83 82.0979 343.37 89.3875 343.48Z" fill="#007A4E" fill-opacity="0.6"/>
<path d="M19.3875 325.84C29.4368 325.691 29.4368 341.48 19.3875 341.331C9.33749 341.481 9.33749 325.69 19.3875 325.84Z" fill="#007A4E" fill-opacity="0.6"/>
<path d="M54.3875 325.84C64.4371 325.691 64.4371 341.48 54.3875 341.331C44.338 341.48 44.338 325.691 54.3875 325.84Z" fill="#007A4E" fill-opacity="0.6"/>
<path d="M-120.612 335.001C-116.523 334.941 -116.523 341.36 -120.612 341.3C-124.702 341.36 -124.702 334.941 -120.612 335.001Z" fill="#007A4E" fill-opacity="0.6"/>
<path d="M-50.6125 335.001C-46.5232 334.941 -46.5233 341.36 -50.6125 341.3C-54.7025 341.36 -54.7025 334.941 -50.6125 335.001Z" fill="#007A4E" fill-opacity="0.6"/>
<path d="M124.388 335.001C128.477 334.941 128.477 341.36 124.388 341.3C120.298 341.36 120.298 334.941 124.388 335.001Z" fill="#007A4E" fill-opacity="0.6"/>
<path d="M-85.6027 318.251C-79.923 318.171 -79.923 327.09 -85.6027 327.001C-91.2827 327.081 -91.2827 318.161 -85.6027 318.251Z" fill="#007A4E" fill-opacity="0.6"/>
<path d="M-15.6027 318.251C-9.923 318.171 -9.92302 327.09 -15.6027 327.001C-21.2827 327.081 -21.2827 318.161 -15.6027 318.251Z" fill="#007A4E" fill-opacity="0.6"/>
<path d="M89.3777 318.251C95.0574 318.161 95.0573 327.08 89.3777 327.001C83.6978 327.091 83.6977 318.171 89.3777 318.251Z" fill="#007A4E" fill-opacity="0.6"/>
<path d="M19.3875 301.48C26.6769 301.371 26.6769 312.83 19.3875 312.72C12.0975 312.83 12.0975 301.37 19.3875 301.48Z" fill="#007A4E" fill-opacity="0.6"/>
<path d="M54.3875 301.48C61.6771 301.37 61.6771 312.83 54.3875 312.72C47.0979 312.83 47.0979 301.37 54.3875 301.48Z" fill="#007A4E" fill-opacity="0.6"/>
<path d="M-85.6125 293.001C-81.5232 292.941 -81.5233 299.36 -85.6125 299.3C-89.7025 299.36 -89.7025 292.941 -85.6125 293.001Z" fill="#007A4E" fill-opacity="0.6"/>
<path d="M-15.6125 293.001C-11.5233 292.941 -11.5233 299.36 -15.6125 299.3C-19.7025 299.36 -19.7025 292.941 -15.6125 293.001Z" fill="#007A4E" fill-opacity="0.6"/>
<path d="M89.3875 293.001C93.4771 292.941 93.4771 299.36 89.3875 299.3C85.298 299.36 85.298 292.941 89.3875 293.001Z" fill="#007A4E" fill-opacity="0.6"/>
<path d="M19.3973 276.251C25.077 276.171 25.077 285.09 19.3973 285.001C13.7173 285.081 13.7173 276.161 19.3973 276.251Z" fill="#007A4E" fill-opacity="0.6"/>
<path d="M54.3777 276.251C60.0573 276.161 60.0573 285.08 54.3777 285.001C48.6978 285.091 48.6977 276.171 54.3777 276.251Z" fill="#007A4E" fill-opacity="0.6"/>
<path d="M19.3875 251.001C23.4767 250.941 23.4767 257.36 19.3875 257.3C15.2975 257.36 15.2975 250.941 19.3875 251.001Z" fill="#007A4E" fill-opacity="0.6"/>
<path d="M54.3875 251.001C58.4771 250.941 58.4771 257.36 54.3875 257.3C50.298 257.36 50.298 250.941 54.3875 251.001Z" fill="#007A4E" fill-opacity="0.6"/>
<path d="M723.388 836.32C737.237 836.38 737.237 857.45 723.388 857.51C709.538 857.45 709.538 836.38 723.388 836.32Z" fill="#007A4E" fill-opacity="0.6"/>
<path d="M1043.39 836.32C1057.24 836.38 1057.24 857.45 1043.39 857.51C1029.54 857.45 1029.54 836.38 1043.39 836.32Z" fill="#007A4E" fill-opacity="0.6"/>
<path d="M723.388 809.86C737.217 809.921 737.217 830.95 723.388 831.01C709.557 830.95 709.557 809.92 723.388 809.86Z" fill="#007A4E" fill-opacity="0.6"/>
<path d="M1043.39 809.86C1057.22 809.92 1057.22 830.95 1043.39 831.01C1029.56 830.95 1029.56 809.92 1043.39 809.86Z" fill="#007A4E" fill-opacity="0.6"/>
<path d="M758.388 794.32C772.237 794.38 772.237 815.45 758.388 815.51C744.538 815.45 744.538 794.38 758.388 794.32Z" fill="#007A4E" fill-opacity="0.6"/>
<path d="M828.388 794.32C842.237 794.38 842.237 815.45 828.388 815.51C814.538 815.45 814.538 794.38 828.388 794.32Z" fill="#007A4E" fill-opacity="0.6"/>
<path d="M1003.39 794.32C1017.24 794.38 1017.24 815.45 1003.39 815.51C989.538 815.45 989.538 794.38 1003.39 794.32Z" fill="#007A4E" fill-opacity="0.6"/>
<path d="M723.388 783.8C736.567 783.611 736.567 804.319 723.388 804.12C710.208 804.31 710.208 783.6 723.388 783.8Z" fill="#007A4E" fill-opacity="0.6"/>
<path d="M1043.39 783.8C1056.57 783.601 1056.57 804.309 1043.39 804.12C1030.21 804.32 1030.21 783.611 1043.39 783.8Z" fill="#007A4E" fill-opacity="0.6"/>
<path d="M758.388 767.86C772.217 767.921 772.217 788.95 758.388 789.01C744.557 788.95 744.557 767.92 758.388 767.86Z" fill="#007A4E" fill-opacity="0.6"/>
<path d="M828.388 767.86C842.217 767.921 842.217 788.95 828.388 789.01C814.557 788.95 814.557 767.92 828.388 767.86Z" fill="#007A4E" fill-opacity="0.6"/>
<path d="M1003.39 767.86C1017.22 767.92 1017.22 788.95 1003.39 789.01C989.558 788.95 989.558 767.92 1003.39 767.86Z" fill="#007A4E" fill-opacity="0.6"/>
<path d="M723.388 757.48C736.357 757.291 736.357 777.67 723.388 777.48C710.417 777.67 710.417 757.29 723.388 757.48Z" fill="#007A4E" fill-opacity="0.6"/>
<path d="M1043.39 757.48C1056.36 757.29 1056.36 777.67 1043.39 777.48C1030.42 777.67 1030.42 757.29 1043.39 757.48Z" fill="#007A4E" fill-opacity="0.6"/>
<path d="M793.388 752.32C807.237 752.38 807.237 773.45 793.388 773.51C779.538 773.45 779.538 752.38 793.388 752.32Z" fill="#007A4E" fill-opacity="0.6"/>
<path d="M863.387 752.32C877.237 752.38 877.237 773.45 863.387 773.51C849.537 773.45 849.537 752.38 863.387 752.32Z" fill="#007A4E" fill-opacity="0.6"/>
<path d="M968.387 752.32C982.237 752.38 982.237 773.45 968.387 773.51C954.538 773.45 954.538 752.38 968.387 752.32Z" fill="#007A4E" fill-opacity="0.6"/>
<path d="M758.388 741.8C771.567 741.611 771.567 762.319 758.388 762.12C745.208 762.31 745.208 741.6 758.388 741.8Z" fill="#007A4E" fill-opacity="0.6"/>
<path d="M828.388 741.8C841.567 741.611 841.567 762.319 828.388 762.12C815.208 762.31 815.208 741.6 828.388 741.8Z" fill="#007A4E" fill-opacity="0.6"/>
<path d="M1003.39 741.8C1016.57 741.601 1016.57 762.309 1003.39 762.12C990.208 762.32 990.208 741.611 1003.39 741.8Z" fill="#007A4E" fill-opacity="0.6"/>
<path d="M723.388 731.55C735.657 731.371 735.657 750.65 723.388 750.47C711.117 750.65 711.117 731.37 723.388 731.55Z" fill="#007A4E" fill-opacity="0.6"/>
<path d="M1043.39 731.55C1055.66 731.371 1055.66 750.65 1043.39 750.47C1031.12 750.65 1031.12 731.371 1043.39 731.55Z" fill="#007A4E" fill-opacity="0.6"/>
<path d="M793.388 725.86C807.217 725.921 807.217 746.95 793.388 747.01C779.557 746.95 779.557 725.92 793.388 725.86Z" fill="#007A4E" fill-opacity="0.6"/>
<path d="M863.387 725.86C877.217 725.921 877.217 746.95 863.387 747.01C849.557 746.95 849.557 725.92 863.387 725.86Z" fill="#007A4E" fill-opacity="0.6"/>
<path d="M968.387 725.86C982.217 725.92 982.217 746.95 968.387 747.01C954.558 746.95 954.558 725.92 968.387 725.86Z" fill="#007A4E" fill-opacity="0.6"/>
<path d="M758.388 715.48C771.357 715.291 771.357 735.67 758.388 735.48C745.417 735.67 745.417 715.29 758.388 715.48Z" fill="#007A4E" fill-opacity="0.6"/>
<path d="M828.388 715.48C841.357 715.291 841.357 735.67 828.388 735.48C815.417 735.67 815.417 715.29 828.388 715.48Z" fill="#007A4E" fill-opacity="0.6"/>
<path d="M1003.39 715.48C1016.36 715.29 1016.36 735.67 1003.39 735.48C990.418 735.67 990.418 715.29 1003.39 715.48Z" fill="#007A4E" fill-opacity="0.6"/>
<path d="M898.387 710.32C912.237 710.38 912.237 731.45 898.387 731.51C884.537 731.45 884.537 710.38 898.387 710.32Z" fill="#007A4E" fill-opacity="0.6"/>
<path d="M933.387 710.32C947.237 710.38 947.237 731.45 933.387 731.51C919.538 731.45 919.538 710.38 933.387 710.32Z" fill="#007A4E" fill-opacity="0.6"/>
<path d="M723.388 705.39C735.237 705.221 735.237 723.829 723.388 723.66C711.538 723.83 711.538 705.22 723.388 705.39Z" fill="#007A4E" fill-opacity="0.6"/>
<path d="M1043.39 705.39C1055.24 705.221 1055.24 723.83 1043.39 723.66C1031.54 723.83 1031.54 705.22 1043.39 705.39Z" fill="#007A4E" fill-opacity="0.6"/>
<path d="M793.388 699.8C806.567 699.611 806.567 720.319 793.388 720.12C780.208 720.31 780.208 699.6 793.388 699.8Z" fill="#007A4E" fill-opacity="0.6"/>
<path d="M863.387 699.8C876.567 699.611 876.567 720.319 863.387 720.12C850.207 720.31 850.207 699.6 863.387 699.8Z" fill="#007A4E" fill-opacity="0.6"/>
<path d="M968.387 699.8C981.567 699.601 981.567 720.309 968.387 720.12C955.208 720.32 955.208 699.611 968.387 699.8Z" fill="#007A4E" fill-opacity="0.6"/>
<path d="M758.388 689.55C770.657 689.371 770.657 708.65 758.388 708.47C746.117 708.65 746.117 689.37 758.388 689.55Z" fill="#007A4E" fill-opacity="0.6"/>
<path d="M828.388 689.55C840.657 689.371 840.657 708.65 828.388 708.47C816.117 708.65 816.117 689.37 828.388 689.55Z" fill="#007A4E" fill-opacity="0.6"/>
<path d="M1003.39 689.55C1015.66 689.371 1015.66 708.65 1003.39 708.47C991.118 708.65 991.118 689.371 1003.39 689.55Z" fill="#007A4E" fill-opacity="0.6"/>
<path d="M898.387 683.86C912.217 683.92 912.217 704.95 898.387 705.01C884.557 704.95 884.557 683.92 898.387 683.86Z" fill="#007A4E" fill-opacity="0.6"/>
<path d="M933.387 683.86C947.217 683.92 947.217 704.95 933.387 705.01C919.558 704.95 919.558 683.92 933.387 683.86Z" fill="#007A4E" fill-opacity="0.6"/>
<path d="M723.397 679.461C734.547 679.301 734.547 696.81 723.397 696.65C712.247 696.81 712.247 679.301 723.397 679.461Z" fill="#007A4E" fill-opacity="0.6"/>
<path d="M1043.38 679.461C1054.53 679.301 1054.53 696.81 1043.38 696.65C1032.23 696.81 1032.23 679.301 1043.38 679.461Z" fill="#007A4E" fill-opacity="0.6"/>
<path d="M793.388 673.48C806.357 673.291 806.357 693.67 793.388 693.48C780.417 693.67 780.417 673.29 793.388 673.48Z" fill="#007A4E" fill-opacity="0.6"/>
<path d="M863.387 673.48C876.357 673.291 876.357 693.67 863.387 693.48C850.417 693.67 850.417 673.29 863.387 673.48Z" fill="#007A4E" fill-opacity="0.6"/>
<path d="M968.387 673.48C981.357 673.29 981.357 693.67 968.387 693.48C955.418 693.67 955.418 673.29 968.387 673.48Z" fill="#007A4E" fill-opacity="0.6"/>
<path d="M758.388 663.39C770.237 663.221 770.237 681.829 758.388 681.66C746.538 681.83 746.538 663.22 758.388 663.39Z" fill="#007A4E" fill-opacity="0.6"/>
<path d="M828.388 663.39C840.237 663.221 840.237 681.829 828.388 681.66C816.538 681.83 816.538 663.22 828.388 663.39Z" fill="#007A4E" fill-opacity="0.6"/>
<path d="M1003.39 663.39C1015.24 663.221 1015.24 681.829 1003.39 681.66C991.538 681.83 991.538 663.22 1003.39 663.39Z" fill="#007A4E" fill-opacity="0.6"/>
<path d="M898.387 657.8C911.567 657.611 911.567 678.319 898.387 678.12C885.208 678.31 885.208 657.6 898.387 657.8Z" fill="#007A4E" fill-opacity="0.6"/>
<path d="M933.387 657.8C946.567 657.601 946.567 678.309 933.387 678.12C920.208 678.319 920.208 657.611 933.387 657.8Z" fill="#007A4E" fill-opacity="0.6"/>
<path d="M723.388 653.84C733.437 653.691 733.437 669.48 723.388 669.331C713.338 669.481 713.338 653.69 723.388 653.84Z" fill="#007A4E" fill-opacity="0.6"/>
<path d="M1043.39 653.84C1053.44 653.691 1053.44 669.48 1043.39 669.331C1033.34 669.48 1033.34 653.691 1043.39 653.84Z" fill="#007A4E" fill-opacity="0.6"/>
<path d="M793.388 647.55C805.657 647.371 805.657 666.65 793.388 666.47C781.117 666.65 781.117 647.37 793.388 647.55Z" fill="#007A4E" fill-opacity="0.6"/>
<path d="M863.387 647.55C875.657 647.371 875.657 666.65 863.387 666.47C851.117 666.65 851.117 647.37 863.387 647.55Z" fill="#007A4E" fill-opacity="0.6"/>
<path d="M968.387 647.55C980.657 647.371 980.657 666.65 968.387 666.47C956.118 666.65 956.118 647.371 968.387 647.55Z" fill="#007A4E" fill-opacity="0.6"/>
<path d="M758.397 637.461C769.547 637.301 769.547 654.81 758.397 654.65C747.247 654.81 747.247 637.301 758.397 637.461Z" fill="#007A4E" fill-opacity="0.6"/>
<path d="M828.397 637.461C839.547 637.301 839.547 654.81 828.397 654.65C817.247 654.81 817.247 637.301 828.397 637.461Z" fill="#007A4E" fill-opacity="0.6"/>
<path d="M1003.38 637.461C1014.53 637.301 1014.53 654.81 1003.38 654.65C992.228 654.81 992.228 637.301 1003.38 637.461Z" fill="#007A4E" fill-opacity="0.6"/>
<path d="M898.387 631.48C911.357 631.291 911.357 651.67 898.387 651.48C885.417 651.67 885.417 631.29 898.387 631.48Z" fill="#007A4E" fill-opacity="0.6"/>
<path d="M933.387 631.48C946.357 631.29 946.357 651.67 933.387 651.48C920.418 651.67 920.418 631.29 933.387 631.48Z" fill="#007A4E" fill-opacity="0.6"/>
<path d="M723.388 629.48C730.677 629.371 730.677 640.83 723.388 640.72C716.098 640.83 716.098 629.37 723.388 629.48Z" fill="#007A4E" fill-opacity="0.6"/>
<path d="M1043.39 629.48C1050.68 629.37 1050.68 640.83 1043.39 640.72C1036.1 640.83 1036.1 629.37 1043.39 629.48Z" fill="#007A4E" fill-opacity="0.6"/>
<path d="M793.388 621.39C805.237 621.221 805.237 639.829 793.388 639.66C781.538 639.83 781.538 621.22 793.388 621.39Z" fill="#007A4E" fill-opacity="0.6"/>
<path d="M863.387 621.39C875.237 621.221 875.237 639.829 863.387 639.66C851.537 639.83 851.537 621.22 863.387 621.39Z" fill="#007A4E" fill-opacity="0.6"/>
<path d="M968.387 621.39C980.237 621.221 980.237 639.829 968.387 639.66C956.538 639.83 956.538 621.22 968.387 621.39Z" fill="#007A4E" fill-opacity="0.6"/>
<path d="M758.388 611.84C768.437 611.691 768.437 627.48 758.388 627.331C748.338 627.481 748.338 611.69 758.388 611.84Z" fill="#007A4E" fill-opacity="0.6"/>
<path d="M828.388 611.84C838.437 611.691 838.437 627.48 828.388 627.331C818.338 627.481 818.338 611.69 828.388 611.84Z" fill="#007A4E" fill-opacity="0.6"/>
<path d="M1003.39 611.84C1013.44 611.691 1013.44 627.48 1003.39 627.331C993.338 627.48 993.338 611.691 1003.39 611.84Z" fill="#007A4E" fill-opacity="0.6"/>
<path d="M898.387 605.55C910.657 605.371 910.657 624.65 898.387 624.47C886.117 624.65 886.117 605.37 898.387 605.55Z" fill="#007A4E" fill-opacity="0.6"/>
<path d="M933.387 605.55C945.657 605.371 945.657 624.65 933.387 624.47C921.118 624.65 921.118 605.371 933.387 605.55Z" fill="#007A4E" fill-opacity="0.6"/>
<path d="M723.397 604.251C729.077 604.171 729.077 613.09 723.397 613.001C717.717 613.081 717.717 604.161 723.397 604.251Z" fill="#007A4E" fill-opacity="0.6"/>
<path d="M1043.38 604.251C1049.06 604.161 1049.06 613.08 1043.38 613.001C1037.7 613.091 1037.7 604.171 1043.38 604.251Z" fill="#007A4E" fill-opacity="0.6"/>
<path d="M793.397 595.461C804.547 595.301 804.547 612.81 793.397 612.65C782.247 612.81 782.247 595.301 793.397 595.461Z" fill="#007A4E" fill-opacity="0.6"/>
<path d="M863.397 595.461C874.547 595.301 874.547 612.81 863.397 612.65C852.247 612.81 852.247 595.301 863.397 595.461Z" fill="#007A4E" fill-opacity="0.6"/>
<path d="M968.378 595.461C979.527 595.301 979.527 612.81 968.378 612.65C957.228 612.81 957.228 595.301 968.378 595.461Z" fill="#007A4E" fill-opacity="0.6"/>
<path d="M758.388 587.48C765.677 587.371 765.677 598.83 758.388 598.72C751.098 598.83 751.098 587.37 758.388 587.48Z" fill="#007A4E" fill-opacity="0.6"/>
<path d="M828.388 587.48C835.677 587.371 835.677 598.83 828.388 598.72C821.098 598.83 821.098 587.37 828.388 587.48Z" fill="#007A4E" fill-opacity="0.6"/>
<path d="M1003.39 587.48C1010.68 587.37 1010.68 598.83 1003.39 598.72C996.098 598.83 996.098 587.37 1003.39 587.48Z" fill="#007A4E" fill-opacity="0.6"/>
<path d="M898.387 579.39C910.237 579.221 910.237 597.829 898.387 597.66C886.537 597.83 886.537 579.22 898.387 579.39Z" fill="#007A4E" fill-opacity="0.6"/>
<path d="M933.387 579.39C945.237 579.221 945.237 597.829 933.387 597.66C921.538 597.83 921.538 579.22 933.387 579.39Z" fill="#007A4E" fill-opacity="0.6"/>
<path d="M793.388 569.84C803.437 569.691 803.437 585.48 793.388 585.331C783.338 585.481 783.338 569.69 793.388 569.84Z" fill="#007A4E" fill-opacity="0.6"/>
<path d="M863.387 569.84C873.437 569.691 873.437 585.48 863.387 585.331C853.337 585.481 853.337 569.69 863.387 569.84Z" fill="#007A4E" fill-opacity="0.6"/>
<path d="M968.387 569.84C978.437 569.691 978.437 585.48 968.387 585.331C958.338 585.48 958.338 569.691 968.387 569.84Z" fill="#007A4E" fill-opacity="0.6"/>
<path d="M723.388 579.001C727.477 578.941 727.477 585.36 723.388 585.3C719.297 585.36 719.297 578.941 723.388 579.001Z" fill="#007A4E" fill-opacity="0.6"/>
<path d="M1043.39 579.001C1047.48 578.941 1047.48 585.36 1043.39 585.3C1039.3 585.36 1039.3 578.941 1043.39 579.001Z" fill="#007A4E" fill-opacity="0.6"/>
<path d="M758.397 562.251C764.077 562.171 764.077 571.09 758.397 571.001C752.717 571.081 752.717 562.161 758.397 562.251Z" fill="#007A4E" fill-opacity="0.6"/>
<path d="M828.397 562.251C834.077 562.171 834.077 571.09 828.397 571.001C822.717 571.081 822.717 562.161 828.397 562.251Z" fill="#007A4E" fill-opacity="0.6"/>
<path d="M1003.38 562.251C1009.06 562.161 1009.06 571.08 1003.38 571.001C997.698 571.091 997.698 562.171 1003.38 562.251Z" fill="#007A4E" fill-opacity="0.6"/>
<path d="M898.397 553.461C909.547 553.301 909.547 570.81 898.397 570.65C887.247 570.81 887.247 553.301 898.397 553.461Z" fill="#007A4E" fill-opacity="0.6"/>
<path d="M933.378 553.461C944.527 553.301 944.527 570.81 933.378 570.65C922.228 570.81 922.228 553.301 933.378 553.461Z" fill="#007A4E" fill-opacity="0.6"/>
<path d="M793.388 545.48C800.677 545.371 800.677 556.83 793.388 556.72C786.098 556.83 786.098 545.37 793.388 545.48Z" fill="#007A4E" fill-opacity="0.6"/>
<path d="M863.387 545.48C870.677 545.371 870.677 556.83 863.387 556.72C856.097 556.83 856.097 545.37 863.387 545.48Z" fill="#007A4E" fill-opacity="0.6"/>
<path d="M968.387 545.48C975.677 545.37 975.677 556.83 968.387 556.72C961.098 556.83 961.098 545.37 968.387 545.48Z" fill="#007A4E" fill-opacity="0.6"/>
<path d="M898.387 527.84C908.437 527.691 908.437 543.48 898.387 543.331C888.337 543.481 888.337 527.69 898.387 527.84Z" fill="#007A4E" fill-opacity="0.6"/>
<path d="M933.387 527.84C943.437 527.691 943.437 543.48 933.387 543.331C923.338 543.48 923.338 527.691 933.387 527.84Z" fill="#007A4E" fill-opacity="0.6"/>
<path d="M758.388 537.001C762.477 536.941 762.477 543.36 758.388 543.3C754.297 543.36 754.297 536.941 758.388 537.001Z" fill="#007A4E" fill-opacity="0.6"/>
<path d="M828.388 537.001C832.477 536.941 832.477 543.36 828.388 543.3C824.297 543.36 824.297 536.941 828.388 537.001Z" fill="#007A4E" fill-opacity="0.6"/>
<path d="M1003.39 537.001C1007.48 536.941 1007.48 543.36 1003.39 543.3C999.298 543.36 999.298 536.941 1003.39 537.001Z" fill="#007A4E" fill-opacity="0.6"/>
<path d="M793.397 520.251C799.077 520.171 799.077 529.09 793.397 529.001C787.717 529.081 787.717 520.161 793.397 520.251Z" fill="#007A4E" fill-opacity="0.6"/>
<path d="M863.397 520.251C869.077 520.171 869.077 529.09 863.397 529.001C857.717 529.081 857.717 520.161 863.397 520.251Z" fill="#007A4E" fill-opacity="0.6"/>
<path d="M968.378 520.251C974.057 520.161 974.057 529.08 968.378 529.001C962.698 529.091 962.698 520.171 968.378 520.251Z" fill="#007A4E" fill-opacity="0.6"/>
<path d="M898.387 503.48C905.677 503.371 905.677 514.83 898.387 514.72C891.097 514.83 891.097 503.37 898.387 503.48Z" fill="#007A4E" fill-opacity="0.6"/>
<path d="M933.387 503.48C940.677 503.37 940.677 514.83 933.387 514.72C926.098 514.83 926.098 503.37 933.387 503.48Z" fill="#007A4E" fill-opacity="0.6"/>
<path d="M793.388 495.001C797.477 494.941 797.477 501.36 793.388 501.3C789.297 501.36 789.297 494.941 793.388 495.001Z" fill="#007A4E" fill-opacity="0.6"/>
<path d="M863.387 495.001C867.477 494.941 867.477 501.36 863.387 501.3C859.297 501.36 859.297 494.941 863.387 495.001Z" fill="#007A4E" fill-opacity="0.6"/>
<path d="M968.387 495.001C972.477 494.941 972.477 501.36 968.387 501.3C964.298 501.36 964.298 494.941 968.387 495.001Z" fill="#007A4E" fill-opacity="0.6"/>
<path d="M898.397 478.251C904.077 478.171 904.077 487.09 898.397 487.001C892.717 487.081 892.717 478.161 898.397 478.251Z" fill="#007A4E" fill-opacity="0.6"/>
<path d="M933.378 478.251C939.057 478.161 939.057 487.08 933.378 487.001C927.698 487.091 927.698 478.171 933.378 478.251Z" fill="#007A4E" fill-opacity="0.6"/>
<path d="M898.387 453.001C902.477 452.941 902.477 459.36 898.387 459.3C894.297 459.36 894.297 452.941 898.387 453.001Z" fill="#007A4E" fill-opacity="0.6"/>
<path d="M933.387 453.001C937.477 452.941 937.477 459.36 933.387 459.3C929.298 459.36 929.298 452.941 933.387 453.001Z" fill="#007A4E" fill-opacity="0.6"/>
<path d="M1165.39 21.1904C1179.24 21.13 1179.24 0.0603943 1165.39 0C1151.54 0.0599976 1151.54 21.1304 1165.39 21.1904Z" fill="#007A4E" fill-opacity="0.6"/>
<path d="M1485.39 21.1904C1499.24 21.1301 1499.24 0.0603027 1485.39 0C1471.54 0.0601807 1471.54 21.1302 1485.39 21.1904Z" fill="#007A4E" fill-opacity="0.6"/>
<path d="M1165.39 47.6504C1179.22 47.5899 1179.22 26.5605 1165.39 26.5C1151.56 26.56 1151.56 47.5904 1165.39 47.6504Z" fill="#007A4E" fill-opacity="0.6"/>
<path d="M1485.39 47.6504C1499.22 47.5901 1499.22 26.5603 1485.39 26.5C1471.56 26.5603 1471.56 47.5901 1485.39 47.6504Z" fill="#007A4E" fill-opacity="0.6"/>
<path d="M1200.39 63.1904C1214.24 63.13 1214.24 42.0604 1200.39 42C1186.54 42.06 1186.54 63.1304 1200.39 63.1904Z" fill="#007A4E" fill-opacity="0.6"/>
<path d="M1270.39 63.1904C1284.24 63.13 1284.24 42.0604 1270.39 42C1256.54 42.06 1256.54 63.1304 1270.39 63.1904Z" fill="#007A4E" fill-opacity="0.6"/>
<path d="M1445.39 63.1904C1459.24 63.1301 1459.24 42.0603 1445.39 42C1431.54 42.0602 1431.54 63.1302 1445.39 63.1904Z" fill="#007A4E" fill-opacity="0.6"/>
<path d="M1165.39 73.71C1178.57 73.8995 1178.57 53.1911 1165.39 53.3906C1152.21 53.2006 1152.21 73.91 1165.39 73.71Z" fill="#007A4E" fill-opacity="0.6"/>
<path d="M1485.39 73.71C1498.57 73.9097 1498.57 53.201 1485.39 53.3906C1472.21 53.1909 1472.21 73.8997 1485.39 73.71Z" fill="#007A4E" fill-opacity="0.6"/>
<path d="M1200.39 89.6504C1214.22 89.5899 1214.22 68.5605 1200.39 68.5C1186.56 68.56 1186.56 89.5904 1200.39 89.6504Z" fill="#007A4E" fill-opacity="0.6"/>
<path d="M1270.39 89.6504C1284.22 89.5899 1284.22 68.5605 1270.39 68.5C1256.56 68.56 1256.56 89.5904 1270.39 89.6504Z" fill="#007A4E" fill-opacity="0.6"/>
<path d="M1445.39 89.6504C1459.22 89.5901 1459.22 68.5603 1445.39 68.5C1431.56 68.5603 1431.56 89.5901 1445.39 89.6504Z" fill="#007A4E" fill-opacity="0.6"/>
<path d="M1165.39 100.03C1178.36 100.22 1178.36 79.8408 1165.39 80.0303C1152.42 79.8403 1152.42 100.22 1165.39 100.03Z" fill="#007A4E" fill-opacity="0.6"/>
<path d="M1485.39 100.03C1498.36 100.22 1498.36 79.8406 1485.39 80.0303C1472.42 79.8406 1472.42 100.22 1485.39 100.03Z" fill="#007A4E" fill-opacity="0.6"/>
<path d="M1235.39 105.19C1249.24 105.13 1249.24 84.0604 1235.39 84C1221.54 84.06 1221.54 105.13 1235.39 105.19Z" fill="#007A4E" fill-opacity="0.6"/>
<path d="M1305.39 105.19C1319.24 105.13 1319.24 84.0604 1305.39 84C1291.54 84.06 1291.54 105.13 1305.39 105.19Z" fill="#007A4E" fill-opacity="0.6"/>
<path d="M1410.39 105.19C1424.24 105.13 1424.24 84.0603 1410.39 84C1396.54 84.0602 1396.54 105.13 1410.39 105.19Z" fill="#007A4E" fill-opacity="0.6"/>
<path d="M1200.39 115.71C1213.57 115.9 1213.57 95.1911 1200.39 95.3906C1187.21 95.2006 1187.21 115.91 1200.39 115.71Z" fill="#007A4E" fill-opacity="0.6"/>
<path d="M1270.39 115.71C1283.57 115.9 1283.57 95.1911 1270.39 95.3906C1257.21 95.2006 1257.21 115.91 1270.39 115.71Z" fill="#007A4E" fill-opacity="0.6"/>
<path d="M1445.39 115.71C1458.57 115.91 1458.57 95.201 1445.39 95.3906C1432.21 95.1909 1432.21 115.9 1445.39 115.71Z" fill="#007A4E" fill-opacity="0.6"/>
<path d="M1165.39 125.96C1177.66 126.139 1177.66 106.861 1165.39 107.04C1153.12 106.86 1153.12 126.14 1165.39 125.96Z" fill="#007A4E" fill-opacity="0.6"/>
<path d="M1485.39 125.96C1497.66 126.14 1497.66 106.86 1485.39 107.04C1473.12 106.86 1473.12 126.14 1485.39 125.96Z" fill="#007A4E" fill-opacity="0.6"/>
<path d="M1235.39 131.65C1249.22 131.59 1249.22 110.56 1235.39 110.5C1221.56 110.56 1221.56 131.59 1235.39 131.65Z" fill="#007A4E" fill-opacity="0.6"/>
<path d="M1305.39 131.65C1319.22 131.59 1319.22 110.56 1305.39 110.5C1291.56 110.56 1291.56 131.59 1305.39 131.65Z" fill="#007A4E" fill-opacity="0.6"/>
<path d="M1410.39 131.65C1424.22 131.59 1424.22 110.56 1410.39 110.5C1396.56 110.56 1396.56 131.59 1410.39 131.65Z" fill="#007A4E" fill-opacity="0.6"/>
<path d="M1200.39 142.03C1213.36 142.22 1213.36 121.841 1200.39 122.03C1187.42 121.84 1187.42 142.22 1200.39 142.03Z" fill="#007A4E" fill-opacity="0.6"/>
<path d="M1270.39 142.03C1283.36 142.22 1283.36 121.841 1270.39 122.03C1257.42 121.84 1257.42 142.22 1270.39 142.03Z" fill="#007A4E" fill-opacity="0.6"/>
<path d="M1445.39 142.03C1458.36 142.22 1458.36 121.841 1445.39 122.03C1432.42 121.841 1432.42 142.22 1445.39 142.03Z" fill="#007A4E" fill-opacity="0.6"/>
<path d="M1340.39 147.19C1354.24 147.13 1354.24 126.06 1340.39 126C1326.54 126.06 1326.54 147.13 1340.39 147.19Z" fill="#007A4E" fill-opacity="0.6"/>
<path d="M1375.39 147.19C1389.24 147.13 1389.24 126.06 1375.39 126C1361.54 126.06 1361.54 147.13 1375.39 147.19Z" fill="#007A4E" fill-opacity="0.6"/>
<path d="M1165.39 152.12C1177.24 152.29 1177.24 133.681 1165.39 133.851C1153.54 133.681 1153.54 152.29 1165.39 152.12Z" fill="#007A4E" fill-opacity="0.6"/>
<path d="M1485.39 152.12C1497.24 152.29 1497.24 133.681 1485.39 133.851C1473.54 133.681 1473.54 152.29 1485.39 152.12Z" fill="#007A4E" fill-opacity="0.6"/>
<path d="M1235.39 157.71C1248.57 157.9 1248.57 137.191 1235.39 137.391C1222.21 137.201 1222.21 157.91 1235.39 157.71Z" fill="#007A4E" fill-opacity="0.6"/>
<path d="M1305.39 157.71C1318.57 157.9 1318.57 137.191 1305.39 137.391C1292.21 137.201 1292.21 157.91 1305.39 157.71Z" fill="#007A4E" fill-opacity="0.6"/>
<path d="M1410.39 157.71C1423.57 157.91 1423.57 137.201 1410.39 137.391C1397.21 137.191 1397.21 157.9 1410.39 157.71Z" fill="#007A4E" fill-opacity="0.6"/>
<path d="M1200.39 167.96C1212.66 168.139 1212.66 148.861 1200.39 149.04C1188.12 148.86 1188.12 168.14 1200.39 167.96Z" fill="#007A4E" fill-opacity="0.6"/>
<path d="M1270.39 167.96C1282.66 168.139 1282.66 148.861 1270.39 149.04C1258.12 148.86 1258.12 168.14 1270.39 167.96Z" fill="#007A4E" fill-opacity="0.6"/>
<path d="M1445.39 167.96C1457.66 168.14 1457.66 148.86 1445.39 149.04C1433.12 148.86 1433.12 168.14 1445.39 167.96Z" fill="#007A4E" fill-opacity="0.6"/>
<path d="M1340.39 173.65C1354.22 173.59 1354.22 152.561 1340.39 152.5C1326.56 152.56 1326.56 173.59 1340.39 173.65Z" fill="#007A4E" fill-opacity="0.6"/>
<path d="M1375.39 173.65C1389.22 173.59 1389.22 152.56 1375.39 152.5C1361.56 152.56 1361.56 173.59 1375.39 173.65Z" fill="#007A4E" fill-opacity="0.6"/>
<path d="M1165.4 178.05C1176.55 178.21 1176.55 160.701 1165.4 160.86C1154.25 160.7 1154.25 178.21 1165.4 178.05Z" fill="#007A4E" fill-opacity="0.6"/>
<path d="M1485.38 178.05C1496.53 178.21 1496.53 160.701 1485.38 160.86C1474.23 160.7 1474.23 178.21 1485.38 178.05Z" fill="#007A4E" fill-opacity="0.6"/>
<path d="M1235.39 184.03C1248.36 184.22 1248.36 163.841 1235.39 164.03C1222.42 163.84 1222.42 184.22 1235.39 184.03Z" fill="#007A4E" fill-opacity="0.6"/>
<path d="M1305.39 184.03C1318.36 184.22 1318.36 163.841 1305.39 164.03C1292.42 163.84 1292.42 184.22 1305.39 184.03Z" fill="#007A4E" fill-opacity="0.6"/>
<path d="M1410.39 184.03C1423.36 184.22 1423.36 163.841 1410.39 164.03C1397.42 163.841 1397.42 184.22 1410.39 184.03Z" fill="#007A4E" fill-opacity="0.6"/>
<path d="M1200.39 194.12C1212.24 194.29 1212.24 175.681 1200.39 175.851C1188.54 175.681 1188.54 194.29 1200.39 194.12Z" fill="#007A4E" fill-opacity="0.6"/>
<path d="M1270.39 194.12C1282.24 194.29 1282.24 175.681 1270.39 175.851C1258.54 175.681 1258.54 194.29 1270.39 194.12Z" fill="#007A4E" fill-opacity="0.6"/>
<path d="M1445.39 194.12C1457.24 194.29 1457.24 175.681 1445.39 175.851C1433.54 175.681 1433.54 194.29 1445.39 194.12Z" fill="#007A4E" fill-opacity="0.6"/>
<path d="M1340.39 199.71C1353.57 199.9 1353.57 179.191 1340.39 179.391C1327.21 179.201 1327.21 199.91 1340.39 199.71Z" fill="#007A4E" fill-opacity="0.6"/>
<path d="M1375.39 199.71C1388.57 199.91 1388.57 179.201 1375.39 179.391C1362.21 179.191 1362.21 199.9 1375.39 199.71Z" fill="#007A4E" fill-opacity="0.6"/>
<path d="M1165.39 203.67C1175.44 203.819 1175.44 188.03 1165.39 188.18C1155.34 188.03 1155.34 203.82 1165.39 203.67Z" fill="#007A4E" fill-opacity="0.6"/>
<path d="M1485.39 203.67C1495.44 203.82 1495.44 188.03 1485.39 188.18C1475.34 188.03 1475.34 203.82 1485.39 203.67Z" fill="#007A4E" fill-opacity="0.6"/>
<path d="M1235.39 209.96C1247.66 210.139 1247.66 190.861 1235.39 191.04C1223.12 190.86 1223.12 210.14 1235.39 209.96Z" fill="#007A4E" fill-opacity="0.6"/>
<path d="M1305.39 209.96C1317.66 210.139 1317.66 190.861 1305.39 191.04C1293.12 190.86 1293.12 210.14 1305.39 209.96Z" fill="#007A4E" fill-opacity="0.6"/>
<path d="M1410.39 209.96C1422.66 210.14 1422.66 190.86 1410.39 191.04C1398.12 190.86 1398.12 210.14 1410.39 209.96Z" fill="#007A4E" fill-opacity="0.6"/>
<path d="M1200.4 220.05C1211.55 220.21 1211.55 202.701 1200.4 202.86C1189.25 202.7 1189.25 220.21 1200.4 220.05Z" fill="#007A4E" fill-opacity="0.6"/>
<path d="M1270.4 220.05C1281.55 220.21 1281.55 202.701 1270.4 202.86C1259.25 202.7 1259.25 220.21 1270.4 220.05Z" fill="#007A4E" fill-opacity="0.6"/>
<path d="M1445.38 220.05C1456.53 220.21 1456.53 202.701 1445.38 202.86C1434.23 202.7 1434.23 220.21 1445.38 220.05Z" fill="#007A4E" fill-opacity="0.6"/>
<path d="M1340.39 226.03C1353.36 226.22 1353.36 205.841 1340.39 206.03C1327.42 205.84 1327.42 226.22 1340.39 226.03Z" fill="#007A4E" fill-opacity="0.6"/>
<path d="M1375.39 226.03C1388.36 226.22 1388.36 205.841 1375.39 206.03C1362.42 205.841 1362.42 226.22 1375.39 226.03Z" fill="#007A4E" fill-opacity="0.6"/>
<path d="M1165.39 228.03C1172.68 228.14 1172.68 216.681 1165.39 216.79C1158.1 216.68 1158.1 228.14 1165.39 228.03Z" fill="#007A4E" fill-opacity="0.6"/>
<path d="M1485.39 228.03C1492.68 228.14 1492.68 216.68 1485.39 216.79C1478.1 216.68 1478.1 228.14 1485.39 228.03Z" fill="#007A4E" fill-opacity="0.6"/>
<path d="M1235.39 236.12C1247.24 236.29 1247.24 217.681 1235.39 217.851C1223.54 217.681 1223.54 236.29 1235.39 236.12Z" fill="#007A4E" fill-opacity="0.6"/>
<path d="M1305.39 236.12C1317.24 236.29 1317.24 217.681 1305.39 217.851C1293.54 217.681 1293.54 236.29 1305.39 236.12Z" fill="#007A4E" fill-opacity="0.6"/>
<path d="M1410.39 236.12C1422.24 236.29 1422.24 217.681 1410.39 217.851C1398.54 217.681 1398.54 236.29 1410.39 236.12Z" fill="#007A4E" fill-opacity="0.6"/>
<path d="M1200.39 245.67C1210.44 245.819 1210.44 230.03 1200.39 230.18C1190.34 230.03 1190.34 245.82 1200.39 245.67Z" fill="#007A4E" fill-opacity="0.6"/>
<path d="M1270.39 245.67C1280.44 245.819 1280.44 230.03 1270.39 230.18C1260.34 230.03 1260.34 245.82 1270.39 245.67Z" fill="#007A4E" fill-opacity="0.6"/>
<path d="M1445.39 245.67C1455.44 245.82 1455.44 230.03 1445.39 230.18C1435.34 230.03 1435.34 245.82 1445.39 245.67Z" fill="#007A4E" fill-opacity="0.6"/>
<path d="M1340.39 251.96C1352.66 252.139 1352.66 232.861 1340.39 233.04C1328.12 232.86 1328.12 252.14 1340.39 251.96Z" fill="#007A4E" fill-opacity="0.6"/>
<path d="M1375.39 251.96C1387.66 252.14 1387.66 232.86 1375.39 233.04C1363.12 232.86 1363.12 252.14 1375.39 251.96Z" fill="#007A4E" fill-opacity="0.6"/>
<path d="M1165.4 253.26C1171.08 253.34 1171.08 244.42 1165.4 244.51C1159.72 244.43 1159.72 253.35 1165.4 253.26Z" fill="#007A4E" fill-opacity="0.6"/>
<path d="M1485.38 253.26C1491.06 253.349 1491.06 244.43 1485.38 244.51C1479.7 244.42 1479.7 253.34 1485.38 253.26Z" fill="#007A4E" fill-opacity="0.6"/>
<path d="M1235.4 262.05C1246.55 262.21 1246.55 244.701 1235.4 244.86C1224.25 244.7 1224.25 262.21 1235.4 262.05Z" fill="#007A4E" fill-opacity="0.6"/>
<path d="M1305.4 262.05C1316.55 262.21 1316.55 244.701 1305.4 244.86C1294.25 244.7 1294.25 262.21 1305.4 262.05Z" fill="#007A4E" fill-opacity="0.6"/>
<path d="M1410.38 262.05C1421.53 262.21 1421.53 244.701 1410.38 244.86C1399.23 244.7 1399.23 262.21 1410.38 262.05Z" fill="#007A4E" fill-opacity="0.6"/>
<path d="M1200.39 270.03C1207.68 270.14 1207.68 258.681 1200.39 258.79C1193.1 258.68 1193.1 270.14 1200.39 270.03Z" fill="#007A4E" fill-opacity="0.6"/>
<path d="M1270.39 270.03C1277.68 270.14 1277.68 258.681 1270.39 258.79C1263.1 258.68 1263.1 270.14 1270.39 270.03Z" fill="#007A4E" fill-opacity="0.6"/>
<path d="M1445.39 270.03C1452.68 270.14 1452.68 258.68 1445.39 258.79C1438.1 258.68 1438.1 270.14 1445.39 270.03Z" fill="#007A4E" fill-opacity="0.6"/>
<path d="M1340.39 278.12C1352.24 278.29 1352.24 259.681 1340.39 259.851C1328.54 259.681 1328.54 278.29 1340.39 278.12Z" fill="#007A4E" fill-opacity="0.6"/>
<path d="M1375.39 278.12C1387.24 278.29 1387.24 259.681 1375.39 259.851C1363.54 259.681 1363.54 278.29 1375.39 278.12Z" fill="#007A4E" fill-opacity="0.6"/>
<path d="M1235.39 287.67C1245.44 287.819 1245.44 272.03 1235.39 272.18C1225.34 272.03 1225.34 287.82 1235.39 287.67Z" fill="#007A4E" fill-opacity="0.6"/>
<path d="M1305.39 287.67C1315.44 287.819 1315.44 272.03 1305.39 272.18C1295.34 272.03 1295.34 287.82 1305.39 287.67Z" fill="#007A4E" fill-opacity="0.6"/>
<path d="M1410.39 287.67C1420.44 287.82 1420.44 272.03 1410.39 272.18C1400.34 272.03 1400.34 287.82 1410.39 287.67Z" fill="#007A4E" fill-opacity="0.6"/>
<path d="M1165.39 278.51C1169.48 278.569 1169.48 272.151 1165.39 272.21C1161.3 272.15 1161.3 278.57 1165.39 278.51Z" fill="#007A4E" fill-opacity="0.6"/>
<path d="M1485.39 278.51C1489.48 278.569 1489.48 272.15 1485.39 272.21C1481.3 272.15 1481.3 278.569 1485.39 278.51Z" fill="#007A4E" fill-opacity="0.6"/>
<path d="M1200.4 295.26C1206.08 295.34 1206.08 286.42 1200.4 286.51C1194.72 286.43 1194.72 295.35 1200.4 295.26Z" fill="#007A4E" fill-opacity="0.6"/>
<path d="M1270.4 295.26C1276.08 295.34 1276.08 286.42 1270.4 286.51C1264.72 286.43 1264.72 295.35 1270.4 295.26Z" fill="#007A4E" fill-opacity="0.6"/>
<path d="M1445.38 295.26C1451.06 295.349 1451.06 286.43 1445.38 286.51C1439.7 286.42 1439.7 295.34 1445.38 295.26Z" fill="#007A4E" fill-opacity="0.6"/>
<path d="M1340.4 304.05C1351.55 304.21 1351.55 286.701 1340.4 286.86C1329.25 286.7 1329.25 304.21 1340.4 304.05Z" fill="#007A4E" fill-opacity="0.6"/>
<path d="M1375.38 304.05C1386.53 304.21 1386.53 286.701 1375.38 286.86C1364.23 286.7 1364.23 304.21 1375.38 304.05Z" fill="#007A4E" fill-opacity="0.6"/>
<path d="M1235.39 312.03C1242.68 312.14 1242.68 300.681 1235.39 300.79C1228.1 300.68 1228.1 312.14 1235.39 312.03Z" fill="#007A4E" fill-opacity="0.6"/>
<path d="M1305.39 312.03C1312.68 312.14 1312.68 300.681 1305.39 300.79C1298.1 300.68 1298.1 312.14 1305.39 312.03Z" fill="#007A4E" fill-opacity="0.6"/>
<path d="M1410.39 312.03C1417.68 312.14 1417.68 300.68 1410.39 300.79C1403.1 300.68 1403.1 312.14 1410.39 312.03Z" fill="#007A4E" fill-opacity="0.6"/>
<path d="M1340.39 329.67C1350.44 329.819 1350.44 314.03 1340.39 314.18C1330.34 314.03 1330.34 329.82 1340.39 329.67Z" fill="#007A4E" fill-opacity="0.6"/>
<path d="M1375.39 329.67C1385.44 329.82 1385.44 314.03 1375.39 314.18C1365.34 314.03 1365.34 329.82 1375.39 329.67Z" fill="#007A4E" fill-opacity="0.6"/>
<path d="M1200.39 320.51C1204.48 320.569 1204.48 314.151 1200.39 314.21C1196.3 314.15 1196.3 320.57 1200.39 320.51Z" fill="#007A4E" fill-opacity="0.6"/>
<path d="M1270.39 320.51C1274.48 320.569 1274.48 314.151 1270.39 314.21C1266.3 314.15 1266.3 320.57 1270.39 320.51Z" fill="#007A4E" fill-opacity="0.6"/>
<path d="M1445.39 320.51C1449.48 320.569 1449.48 314.15 1445.39 314.21C1441.3 314.15 1441.3 320.569 1445.39 320.51Z" fill="#007A4E" fill-opacity="0.6"/>
<path d="M1235.4 337.26C1241.08 337.34 1241.08 328.42 1235.4 328.51C1229.72 328.43 1229.72 337.35 1235.4 337.26Z" fill="#007A4E" fill-opacity="0.6"/>
<path d="M1305.4 337.26C1311.08 337.34 1311.08 328.42 1305.4 328.51C1299.72 328.43 1299.72 337.35 1305.4 337.26Z" fill="#007A4E" fill-opacity="0.6"/>
<path d="M1410.38 337.26C1416.06 337.349 1416.06 328.43 1410.38 328.51C1404.7 328.42 1404.7 337.34 1410.38 337.26Z" fill="#007A4E" fill-opacity="0.6"/>
<path d="M1340.39 354.03C1347.68 354.14 1347.68 342.681 1340.39 342.79C1333.1 342.68 1333.1 354.14 1340.39 354.03Z" fill="#007A4E" fill-opacity="0.6"/>
<path d="M1375.39 354.03C1382.68 354.14 1382.68 342.68 1375.39 342.79C1368.1 342.68 1368.1 354.14 1375.39 354.03Z" fill="#007A4E" fill-opacity="0.6"/>
<path d="M1235.39 362.51C1239.48 362.569 1239.48 356.151 1235.39 356.21C1231.3 356.15 1231.3 362.57 1235.39 362.51Z" fill="#007A4E" fill-opacity="0.6"/>
<path d="M1305.39 362.51C1309.48 362.569 1309.48 356.151 1305.39 356.21C1301.3 356.15 1301.3 362.57 1305.39 362.51Z" fill="#007A4E" fill-opacity="0.6"/>
<path d="M1410.39 362.51C1414.48 362.569 1414.48 356.15 1410.39 356.21C1406.3 356.15 1406.3 362.569 1410.39 362.51Z" fill="#007A4E" fill-opacity="0.6"/>
<path d="M1340.4 379.26C1346.08 379.34 1346.08 370.42 1340.4 370.51C1334.72 370.43 1334.72 379.35 1340.4 379.26Z" fill="#007A4E" fill-opacity="0.6"/>
<path d="M1375.38 379.26C1381.06 379.349 1381.06 370.43 1375.38 370.51C1369.7 370.42 1369.7 379.34 1375.38 379.26Z" fill="#007A4E" fill-opacity="0.6"/>
<path d="M1340.39 404.51C1344.48 404.569 1344.48 398.151 1340.39 398.21C1336.3 398.15 1336.3 404.57 1340.39 404.51Z" fill="#007A4E" fill-opacity="0.6"/>
<path d="M1375.39 404.51C1379.48 404.569 1379.48 398.15 1375.39 398.21C1371.3 398.15 1371.3 404.569 1375.39 404.51Z" fill="#007A4E" fill-opacity="0.6"/>
</svg>
