<svg width="1439" height="365" viewBox="0 0 1439 365" fill="none" xmlns="http://www.w3.org/2000/svg">
<path d="M-110.612 634.32C-96.763 634.38 -96.763 655.45 -110.612 655.51C-124.462 655.45 -124.462 634.38 -110.612 634.32Z" fill="#007A4E" fill-opacity="0.6"/>
<path d="M209.388 634.32C223.237 634.38 223.237 655.45 209.388 655.51C195.538 655.45 195.538 634.38 209.388 634.32Z" fill="#007A4E" fill-opacity="0.6"/>
<path d="M-110.612 607.86C-96.7832 607.921 -96.7832 628.95 -110.612 629.01C-124.442 628.95 -124.442 607.92 -110.612 607.86Z" fill="#007A4E" fill-opacity="0.6"/>
<path d="M209.388 607.86C223.217 607.92 223.217 628.95 209.388 629.01C195.558 628.95 195.558 607.92 209.388 607.86Z" fill="#007A4E" fill-opacity="0.6"/>
<path d="M-75.6125 592.32C-61.763 592.38 -61.763 613.45 -75.6125 613.51C-89.4625 613.45 -89.4625 592.38 -75.6125 592.32Z" fill="#007A4E" fill-opacity="0.6"/>
<path d="M-5.6125 592.32C8.23698 592.38 8.23698 613.45 -5.6125 613.51C-19.4625 613.45 -19.4625 592.38 -5.6125 592.32Z" fill="#007A4E" fill-opacity="0.6"/>
<path d="M169.388 592.32C183.237 592.38 183.237 613.45 169.388 613.51C155.538 613.45 155.538 592.38 169.388 592.32Z" fill="#007A4E" fill-opacity="0.6"/>
<path d="M-110.612 581.8C-97.4331 581.611 -97.4331 602.319 -110.612 602.12C-123.792 602.31 -123.792 581.6 -110.612 581.8Z" fill="#007A4E" fill-opacity="0.6"/>
<path d="M209.388 581.8C222.567 581.601 222.567 602.309 209.388 602.12C196.208 602.32 196.208 581.611 209.388 581.8Z" fill="#007A4E" fill-opacity="0.6"/>
<path d="M-75.6125 565.86C-61.7832 565.921 -61.7832 586.95 -75.6125 587.01C-89.4425 586.95 -89.4425 565.92 -75.6125 565.86Z" fill="#007A4E" fill-opacity="0.6"/>
<path d="M-5.6125 565.86C8.21683 565.921 8.21683 586.95 -5.6125 587.01C-19.4425 586.95 -19.4425 565.92 -5.6125 565.86Z" fill="#007A4E" fill-opacity="0.6"/>
<path d="M169.388 565.86C183.217 565.92 183.217 586.95 169.388 587.01C155.558 586.95 155.558 565.92 169.388 565.86Z" fill="#007A4E" fill-opacity="0.6"/>
<path d="M-110.612 555.48C-97.6431 555.291 -97.6431 575.67 -110.612 575.48C-123.583 575.67 -123.583 555.29 -110.612 555.48Z" fill="#007A4E" fill-opacity="0.6"/>
<path d="M209.388 555.48C222.357 555.29 222.357 575.67 209.388 575.48C196.418 575.67 196.418 555.29 209.388 555.48Z" fill="#007A4E" fill-opacity="0.6"/>
<path d="M-40.6125 550.32C-26.763 550.38 -26.763 571.45 -40.6125 571.51C-54.4625 571.45 -54.4625 550.38 -40.6125 550.32Z" fill="#007A4E" fill-opacity="0.6"/>
<path d="M29.3875 550.32C43.237 550.38 43.237 571.45 29.3875 571.51C15.5375 571.45 15.5375 550.38 29.3875 550.32Z" fill="#007A4E" fill-opacity="0.6"/>
<path d="M134.387 550.32C148.237 550.38 148.237 571.45 134.387 571.51C120.538 571.45 120.538 550.38 134.387 550.32Z" fill="#007A4E" fill-opacity="0.6"/>
<path d="M-75.6125 539.8C-62.4331 539.611 -62.4331 560.319 -75.6125 560.12C-88.7925 560.31 -88.7925 539.6 -75.6125 539.8Z" fill="#007A4E" fill-opacity="0.6"/>
<path d="M-5.6125 539.8C7.56691 539.611 7.56691 560.319 -5.6125 560.12C-18.7925 560.31 -18.7925 539.6 -5.6125 539.8Z" fill="#007A4E" fill-opacity="0.6"/>
<path d="M169.388 539.8C182.567 539.601 182.567 560.309 169.388 560.12C156.208 560.32 156.208 539.611 169.388 539.8Z" fill="#007A4E" fill-opacity="0.6"/>
<path d="M-110.612 529.55C-98.3433 529.371 -98.3433 548.65 -110.612 548.47C-122.882 548.65 -122.882 529.37 -110.612 529.55Z" fill="#007A4E" fill-opacity="0.6"/>
<path d="M209.388 529.55C221.657 529.371 221.657 548.65 209.388 548.47C197.118 548.65 197.118 529.371 209.388 529.55Z" fill="#007A4E" fill-opacity="0.6"/>
<path d="M-40.6125 523.86C-26.7832 523.921 -26.7832 544.95 -40.6125 545.01C-54.4425 544.95 -54.4425 523.92 -40.6125 523.86Z" fill="#007A4E" fill-opacity="0.6"/>
<path d="M29.3875 523.86C43.2168 523.921 43.2168 544.95 29.3875 545.01C15.5575 544.95 15.5575 523.92 29.3875 523.86Z" fill="#007A4E" fill-opacity="0.6"/>
<path d="M134.387 523.86C148.217 523.92 148.217 544.95 134.387 545.01C120.558 544.95 120.558 523.92 134.387 523.86Z" fill="#007A4E" fill-opacity="0.6"/>
<path d="M-75.6125 513.48C-62.6431 513.291 -62.6431 533.67 -75.6125 533.48C-88.5825 533.67 -88.5825 513.29 -75.6125 513.48Z" fill="#007A4E" fill-opacity="0.6"/>
<path d="M-5.6125 513.48C7.35686 513.291 7.35686 533.67 -5.6125 533.48C-18.5825 533.67 -18.5825 513.29 -5.6125 513.48Z" fill="#007A4E" fill-opacity="0.6"/>
<path d="M169.388 513.48C182.357 513.29 182.357 533.67 169.388 533.48C156.418 533.67 156.418 513.29 169.388 513.48Z" fill="#007A4E" fill-opacity="0.6"/>
<path d="M64.3875 508.32C78.237 508.38 78.237 529.45 64.3875 529.51C50.5375 529.45 50.5375 508.38 64.3875 508.32Z" fill="#007A4E" fill-opacity="0.6"/>
<path d="M99.3875 508.32C113.237 508.38 113.237 529.45 99.3875 529.51C85.5378 529.45 85.5378 508.38 99.3875 508.32Z" fill="#007A4E" fill-opacity="0.6"/>
<path d="M-110.612 503.39C-98.763 503.221 -98.763 521.829 -110.612 521.66C-122.462 521.83 -122.462 503.22 -110.612 503.39Z" fill="#007A4E" fill-opacity="0.6"/>
<path d="M209.388 503.39C221.237 503.221 221.237 521.83 209.388 521.66C197.538 521.83 197.538 503.22 209.388 503.39Z" fill="#007A4E" fill-opacity="0.6"/>
<path d="M-40.6125 497.8C-27.4331 497.611 -27.4331 518.319 -40.6125 518.12C-53.7925 518.31 -53.7925 497.6 -40.6125 497.8Z" fill="#007A4E" fill-opacity="0.6"/>
<path d="M29.3875 497.8C42.5669 497.611 42.5669 518.319 29.3875 518.12C16.2075 518.31 16.2075 497.6 29.3875 497.8Z" fill="#007A4E" fill-opacity="0.6"/>
<path d="M134.387 497.8C147.567 497.601 147.567 518.309 134.387 518.12C121.208 518.32 121.208 497.611 134.387 497.8Z" fill="#007A4E" fill-opacity="0.6"/>
<path d="M-75.6125 487.55C-63.3433 487.371 -63.3433 506.65 -75.6125 506.47C-87.8825 506.65 -87.8825 487.37 -75.6125 487.55Z" fill="#007A4E" fill-opacity="0.6"/>
<path d="M-5.6125 487.55C6.65674 487.371 6.65672 506.65 -5.6125 506.47C-17.8825 506.65 -17.8825 487.37 -5.6125 487.55Z" fill="#007A4E" fill-opacity="0.6"/>
<path d="M169.388 487.55C181.657 487.371 181.657 506.65 169.388 506.47C157.118 506.65 157.118 487.371 169.388 487.55Z" fill="#007A4E" fill-opacity="0.6"/>
<path d="M64.3875 481.86C78.2168 481.921 78.2168 502.95 64.3875 503.01C50.5575 502.95 50.5575 481.92 64.3875 481.86Z" fill="#007A4E" fill-opacity="0.6"/>
<path d="M99.3875 481.86C113.217 481.92 113.217 502.95 99.3875 503.01C85.5579 502.95 85.5579 481.92 99.3875 481.86Z" fill="#007A4E" fill-opacity="0.6"/>
<path d="M-110.603 477.461C-99.4531 477.301 -99.4531 494.81 -110.603 494.65C-121.753 494.81 -121.753 477.301 -110.603 477.461Z" fill="#007A4E" fill-opacity="0.6"/>
<path d="M209.378 477.461C220.527 477.301 220.527 494.81 209.378 494.65C198.228 494.81 198.228 477.301 209.378 477.461Z" fill="#007A4E" fill-opacity="0.6"/>
<path d="M-40.6125 471.48C-27.6431 471.291 -27.6431 491.67 -40.6125 491.48C-53.5825 491.67 -53.5825 471.29 -40.6125 471.48Z" fill="#007A4E" fill-opacity="0.6"/>
<path d="M29.3875 471.48C42.3569 471.291 42.3569 491.67 29.3875 491.48C16.4175 491.67 16.4175 471.29 29.3875 471.48Z" fill="#007A4E" fill-opacity="0.6"/>
<path d="M134.387 471.48C147.357 471.29 147.357 491.67 134.387 491.48C121.418 491.67 121.418 471.29 134.387 471.48Z" fill="#007A4E" fill-opacity="0.6"/>
<path d="M-75.6125 461.39C-63.763 461.221 -63.763 479.829 -75.6125 479.66C-87.4625 479.83 -87.4625 461.22 -75.6125 461.39Z" fill="#007A4E" fill-opacity="0.6"/>
<path d="M-5.6125 461.39C6.23698 461.221 6.23698 479.829 -5.6125 479.66C-17.4625 479.83 -17.4625 461.22 -5.6125 461.39Z" fill="#007A4E" fill-opacity="0.6"/>
<path d="M169.388 461.39C181.237 461.221 181.237 479.829 169.388 479.66C157.538 479.83 157.538 461.22 169.388 461.39Z" fill="#007A4E" fill-opacity="0.6"/>
<path d="M64.3875 455.8C77.5669 455.611 77.5669 476.319 64.3875 476.12C51.2075 476.31 51.2075 455.6 64.3875 455.8Z" fill="#007A4E" fill-opacity="0.6"/>
<path d="M99.3875 455.8C112.567 455.601 112.567 476.309 99.3875 476.12C86.2078 476.32 86.2078 455.611 99.3875 455.8Z" fill="#007A4E" fill-opacity="0.6"/>
<path d="M-110.612 451.84C-100.563 451.691 -100.563 467.48 -110.612 467.331C-120.663 467.481 -120.663 451.69 -110.612 451.84Z" fill="#007A4E" fill-opacity="0.6"/>
<path d="M209.388 451.84C219.437 451.691 219.437 467.48 209.388 467.331C199.338 467.48 199.338 451.691 209.388 451.84Z" fill="#007A4E" fill-opacity="0.6"/>
<path d="M-40.6125 445.55C-28.3433 445.371 -28.3433 464.65 -40.6125 464.47C-52.8825 464.65 -52.8825 445.37 -40.6125 445.55Z" fill="#007A4E" fill-opacity="0.6"/>
<path d="M29.3875 445.55C41.6567 445.371 41.6567 464.65 29.3875 464.47C17.1175 464.65 17.1175 445.37 29.3875 445.55Z" fill="#007A4E" fill-opacity="0.6"/>
<path d="M134.387 445.55C146.657 445.371 146.657 464.65 134.387 464.47C122.118 464.65 122.118 445.371 134.387 445.55Z" fill="#007A4E" fill-opacity="0.6"/>
<path d="M-75.6027 435.461C-64.453 435.301 -64.4531 452.81 -75.6027 452.65C-86.7527 452.81 -86.7527 435.301 -75.6027 435.461Z" fill="#007A4E" fill-opacity="0.6"/>
<path d="M-5.60274 435.461C5.54694 435.301 5.54694 452.81 -5.60274 452.65C-16.7527 452.81 -16.7527 435.301 -5.60274 435.461Z" fill="#007A4E" fill-opacity="0.6"/>
<path d="M169.378 435.461C180.527 435.301 180.527 452.81 169.378 452.65C158.228 452.81 158.228 435.301 169.378 435.461Z" fill="#007A4E" fill-opacity="0.6"/>
<path d="M64.3875 429.48C77.3569 429.291 77.3569 449.67 64.3875 449.48C51.4175 449.67 51.4175 429.29 64.3875 429.48Z" fill="#007A4E" fill-opacity="0.6"/>
<path d="M99.3875 429.48C112.357 429.29 112.357 449.67 99.3875 449.48C86.4179 449.67 86.4179 429.29 99.3875 429.48Z" fill="#007A4E" fill-opacity="0.6"/>
<path d="M-110.612 427.48C-103.323 427.371 -103.323 438.83 -110.612 438.72C-117.902 438.83 -117.902 427.37 -110.612 427.48Z" fill="#007A4E" fill-opacity="0.6"/>
<path d="M209.388 427.48C216.677 427.37 216.677 438.83 209.388 438.72C202.098 438.83 202.098 427.37 209.388 427.48Z" fill="#007A4E" fill-opacity="0.6"/>
<path d="M-40.6125 419.39C-28.763 419.221 -28.763 437.829 -40.6125 437.66C-52.4625 437.83 -52.4625 419.22 -40.6125 419.39Z" fill="#007A4E" fill-opacity="0.6"/>
<path d="M29.3875 419.39C41.237 419.221 41.237 437.829 29.3875 437.66C17.5375 437.83 17.5375 419.22 29.3875 419.39Z" fill="#007A4E" fill-opacity="0.6"/>
<path d="M134.387 419.39C146.237 419.221 146.237 437.829 134.387 437.66C122.538 437.83 122.538 419.22 134.387 419.39Z" fill="#007A4E" fill-opacity="0.6"/>
<path d="M-75.6125 409.84C-65.5632 409.691 -65.5632 425.48 -75.6125 425.331C-85.6625 425.481 -85.6625 409.69 -75.6125 409.84Z" fill="#007A4E" fill-opacity="0.6"/>
<path d="M-5.6125 409.84C4.43679 409.691 4.43678 425.48 -5.6125 425.331C-15.6625 425.481 -15.6625 409.69 -5.6125 409.84Z" fill="#007A4E" fill-opacity="0.6"/>
<path d="M169.388 409.84C179.437 409.691 179.437 425.48 169.388 425.331C159.338 425.48 159.338 409.691 169.388 409.84Z" fill="#007A4E" fill-opacity="0.6"/>
<path d="M64.3875 403.55C76.6567 403.371 76.6567 422.65 64.3875 422.47C52.1175 422.65 52.1175 403.37 64.3875 403.55Z" fill="#007A4E" fill-opacity="0.6"/>
<path d="M99.3875 403.55C111.657 403.371 111.657 422.65 99.3875 422.47C87.118 422.65 87.118 403.371 99.3875 403.55Z" fill="#007A4E" fill-opacity="0.6"/>
<path d="M-110.603 402.251C-104.923 402.171 -104.923 411.09 -110.603 411.001C-116.283 411.081 -116.283 402.161 -110.603 402.251Z" fill="#007A4E" fill-opacity="0.6"/>
<path d="M209.378 402.251C215.057 402.161 215.057 411.08 209.378 411.001C203.698 411.091 203.698 402.171 209.378 402.251Z" fill="#007A4E" fill-opacity="0.6"/>
<path d="M-40.6027 393.461C-29.4531 393.301 -29.4531 410.81 -40.6027 410.65C-51.7527 410.81 -51.7527 393.301 -40.6027 393.461Z" fill="#007A4E" fill-opacity="0.6"/>
<path d="M29.3973 393.461C40.547 393.301 40.5469 410.81 29.3973 410.65C18.2473 410.81 18.2473 393.301 29.3973 393.461Z" fill="#007A4E" fill-opacity="0.6"/>
<path d="M134.378 393.461C145.527 393.301 145.527 410.81 134.378 410.65C123.228 410.81 123.228 393.301 134.378 393.461Z" fill="#007A4E" fill-opacity="0.6"/>
<path d="M-75.6125 385.48C-68.3231 385.371 -68.3231 396.83 -75.6125 396.72C-82.9025 396.83 -82.9025 385.37 -75.6125 385.48Z" fill="#007A4E" fill-opacity="0.6"/>
<path d="M-5.6125 385.48C1.67687 385.371 1.67686 396.83 -5.6125 396.72C-12.9025 396.83 -12.9025 385.37 -5.6125 385.48Z" fill="#007A4E" fill-opacity="0.6"/>
<path d="M169.388 385.48C176.677 385.37 176.677 396.83 169.388 396.72C162.098 396.83 162.098 385.37 169.388 385.48Z" fill="#007A4E" fill-opacity="0.6"/>
<path d="M64.3875 377.39C76.237 377.221 76.237 395.829 64.3875 395.66C52.5375 395.83 52.5375 377.22 64.3875 377.39Z" fill="#007A4E" fill-opacity="0.6"/>
<path d="M99.3875 377.39C111.237 377.221 111.237 395.829 99.3875 395.66C87.5378 395.83 87.5378 377.22 99.3875 377.39Z" fill="#007A4E" fill-opacity="0.6"/>
<path d="M-40.6125 367.84C-30.5632 367.691 -30.5632 383.48 -40.6125 383.331C-50.6625 383.481 -50.6625 367.69 -40.6125 367.84Z" fill="#007A4E" fill-opacity="0.6"/>
<path d="M29.3875 367.84C39.4368 367.691 39.4368 383.48 29.3875 383.331C19.3375 383.481 19.3375 367.69 29.3875 367.84Z" fill="#007A4E" fill-opacity="0.6"/>
<path d="M134.387 367.84C144.437 367.691 144.437 383.48 134.387 383.331C124.338 383.48 124.338 367.691 134.387 367.84Z" fill="#007A4E" fill-opacity="0.6"/>
<path d="M-110.612 377.001C-106.523 376.941 -106.523 383.36 -110.612 383.3C-114.702 383.36 -114.702 376.941 -110.612 377.001Z" fill="#007A4E" fill-opacity="0.6"/>
<path d="M209.388 377.001C213.477 376.941 213.477 383.36 209.388 383.3C205.298 383.36 205.298 376.941 209.388 377.001Z" fill="#007A4E" fill-opacity="0.6"/>
<path d="M-75.6027 360.251C-69.923 360.171 -69.923 369.09 -75.6027 369.001C-81.2827 369.081 -81.2827 360.161 -75.6027 360.251Z" fill="#007A4E" fill-opacity="0.6"/>
<path d="M-5.60274 360.251C0.0769958 360.171 0.0769806 369.09 -5.60274 369.001C-11.2827 369.081 -11.2827 360.161 -5.60274 360.251Z" fill="#007A4E" fill-opacity="0.6"/>
<path d="M169.378 360.251C175.057 360.161 175.057 369.08 169.378 369.001C163.698 369.091 163.698 360.171 169.378 360.251Z" fill="#007A4E" fill-opacity="0.6"/>
<path d="M64.3973 351.461C75.547 351.301 75.5469 368.81 64.3973 368.65C53.2473 368.81 53.2473 351.301 64.3973 351.461Z" fill="#007A4E" fill-opacity="0.6"/>
<path d="M99.3777 351.461C110.527 351.301 110.527 368.81 99.3777 368.65C88.2278 368.81 88.2278 351.301 99.3777 351.461Z" fill="#007A4E" fill-opacity="0.6"/>
<path d="M-40.6125 343.48C-33.3231 343.371 -33.3231 354.83 -40.6125 354.72C-47.9025 354.83 -47.9025 343.37 -40.6125 343.48Z" fill="#007A4E" fill-opacity="0.6"/>
<path d="M29.3875 343.48C36.6769 343.371 36.6769 354.83 29.3875 354.72C22.0975 354.83 22.0975 343.37 29.3875 343.48Z" fill="#007A4E" fill-opacity="0.6"/>
<path d="M134.387 343.48C141.677 343.37 141.677 354.83 134.387 354.72C127.098 354.83 127.098 343.37 134.387 343.48Z" fill="#007A4E" fill-opacity="0.6"/>
<path d="M64.3875 325.84C74.4368 325.691 74.4368 341.48 64.3875 341.331C54.3375 341.481 54.3375 325.69 64.3875 325.84Z" fill="#007A4E" fill-opacity="0.6"/>
<path d="M99.3875 325.84C109.437 325.691 109.437 341.48 99.3875 341.331C89.338 341.48 89.338 325.691 99.3875 325.84Z" fill="#007A4E" fill-opacity="0.6"/>
<path d="M-75.6125 335.001C-71.5232 334.941 -71.5233 341.36 -75.6125 341.3C-79.7025 341.36 -79.7025 334.941 -75.6125 335.001Z" fill="#007A4E" fill-opacity="0.6"/>
<path d="M-5.6125 335.001C-1.52325 334.941 -1.52326 341.36 -5.6125 341.3C-9.7025 341.36 -9.7025 334.941 -5.6125 335.001Z" fill="#007A4E" fill-opacity="0.6"/>
<path d="M169.388 335.001C173.477 334.941 173.477 341.36 169.388 341.3C165.298 341.36 165.298 334.941 169.388 335.001Z" fill="#007A4E" fill-opacity="0.6"/>
<path d="M-40.6027 318.251C-34.923 318.171 -34.923 327.09 -40.6027 327.001C-46.2827 327.081 -46.2827 318.161 -40.6027 318.251Z" fill="#007A4E" fill-opacity="0.6"/>
<path d="M29.3973 318.251C35.077 318.171 35.077 327.09 29.3973 327.001C23.7173 327.081 23.7173 318.161 29.3973 318.251Z" fill="#007A4E" fill-opacity="0.6"/>
<path d="M134.378 318.251C140.057 318.161 140.057 327.08 134.378 327.001C128.698 327.091 128.698 318.171 134.378 318.251Z" fill="#007A4E" fill-opacity="0.6"/>
<path d="M64.3875 301.48C71.6769 301.371 71.6769 312.83 64.3875 312.72C57.0975 312.83 57.0975 301.37 64.3875 301.48Z" fill="#007A4E" fill-opacity="0.6"/>
<path d="M99.3875 301.48C106.677 301.37 106.677 312.83 99.3875 312.72C92.0979 312.83 92.0979 301.37 99.3875 301.48Z" fill="#007A4E" fill-opacity="0.6"/>
<path d="M-40.6125 293.001C-36.5232 292.941 -36.5233 299.36 -40.6125 299.3C-44.7025 299.36 -44.7025 292.941 -40.6125 293.001Z" fill="#007A4E" fill-opacity="0.6"/>
<path d="M29.3875 293.001C33.4767 292.941 33.4767 299.36 29.3875 299.3C25.2975 299.36 25.2975 292.941 29.3875 293.001Z" fill="#007A4E" fill-opacity="0.6"/>
<path d="M134.387 293.001C138.477 292.941 138.477 299.36 134.387 299.3C130.298 299.36 130.298 292.941 134.387 293.001Z" fill="#007A4E" fill-opacity="0.6"/>
<path d="M64.3973 276.251C70.077 276.171 70.077 285.09 64.3973 285.001C58.7173 285.081 58.7173 276.161 64.3973 276.251Z" fill="#007A4E" fill-opacity="0.6"/>
<path d="M99.3777 276.251C105.057 276.161 105.057 285.08 99.3777 285.001C93.6978 285.091 93.6977 276.171 99.3777 276.251Z" fill="#007A4E" fill-opacity="0.6"/>
<path d="M64.3875 251.001C68.4767 250.941 68.4767 257.36 64.3875 257.3C60.2975 257.36 60.2975 250.941 64.3875 251.001Z" fill="#007A4E" fill-opacity="0.6"/>
<path d="M99.3875 251.001C103.477 250.941 103.477 257.36 99.3875 257.3C95.298 257.36 95.298 250.941 99.3875 251.001Z" fill="#007A4E" fill-opacity="0.6"/>
<path d="M768.388 836.32C782.237 836.38 782.237 857.45 768.388 857.51C754.538 857.45 754.538 836.38 768.388 836.32Z" fill="#007A4E" fill-opacity="0.6"/>
<path d="M1088.39 836.32C1102.24 836.38 1102.24 857.45 1088.39 857.51C1074.54 857.45 1074.54 836.38 1088.39 836.32Z" fill="#007A4E" fill-opacity="0.6"/>
<path d="M768.388 809.86C782.217 809.921 782.217 830.95 768.388 831.01C754.557 830.95 754.557 809.92 768.388 809.86Z" fill="#007A4E" fill-opacity="0.6"/>
<path d="M1088.39 809.86C1102.22 809.92 1102.22 830.95 1088.39 831.01C1074.56 830.95 1074.56 809.92 1088.39 809.86Z" fill="#007A4E" fill-opacity="0.6"/>
<path d="M803.388 794.32C817.237 794.38 817.237 815.45 803.388 815.51C789.538 815.45 789.538 794.38 803.388 794.32Z" fill="#007A4E" fill-opacity="0.6"/>
<path d="M873.388 794.32C887.237 794.38 887.237 815.45 873.388 815.51C859.538 815.45 859.538 794.38 873.388 794.32Z" fill="#007A4E" fill-opacity="0.6"/>
<path d="M1048.39 794.32C1062.24 794.38 1062.24 815.45 1048.39 815.51C1034.54 815.45 1034.54 794.38 1048.39 794.32Z" fill="#007A4E" fill-opacity="0.6"/>
<path d="M768.388 783.8C781.567 783.611 781.567 804.319 768.388 804.12C755.208 804.31 755.208 783.6 768.388 783.8Z" fill="#007A4E" fill-opacity="0.6"/>
<path d="M1088.39 783.8C1101.57 783.601 1101.57 804.309 1088.39 804.12C1075.21 804.32 1075.21 783.611 1088.39 783.8Z" fill="#007A4E" fill-opacity="0.6"/>
<path d="M803.388 767.86C817.217 767.921 817.217 788.95 803.388 789.01C789.557 788.95 789.557 767.92 803.388 767.86Z" fill="#007A4E" fill-opacity="0.6"/>
<path d="M873.388 767.86C887.217 767.921 887.217 788.95 873.388 789.01C859.557 788.95 859.557 767.92 873.388 767.86Z" fill="#007A4E" fill-opacity="0.6"/>
<path d="M1048.39 767.86C1062.22 767.92 1062.22 788.95 1048.39 789.01C1034.56 788.95 1034.56 767.92 1048.39 767.86Z" fill="#007A4E" fill-opacity="0.6"/>
<path d="M768.388 757.48C781.357 757.291 781.357 777.67 768.388 777.48C755.417 777.67 755.417 757.29 768.388 757.48Z" fill="#007A4E" fill-opacity="0.6"/>
<path d="M1088.39 757.48C1101.36 757.29 1101.36 777.67 1088.39 777.48C1075.42 777.67 1075.42 757.29 1088.39 757.48Z" fill="#007A4E" fill-opacity="0.6"/>
<path d="M838.388 752.32C852.237 752.38 852.237 773.45 838.388 773.51C824.538 773.45 824.538 752.38 838.388 752.32Z" fill="#007A4E" fill-opacity="0.6"/>
<path d="M908.387 752.32C922.237 752.38 922.237 773.45 908.387 773.51C894.537 773.45 894.537 752.38 908.387 752.32Z" fill="#007A4E" fill-opacity="0.6"/>
<path d="M1013.39 752.32C1027.24 752.38 1027.24 773.45 1013.39 773.51C999.538 773.45 999.538 752.38 1013.39 752.32Z" fill="#007A4E" fill-opacity="0.6"/>
<path d="M803.388 741.8C816.567 741.611 816.567 762.319 803.388 762.12C790.208 762.31 790.208 741.6 803.388 741.8Z" fill="#007A4E" fill-opacity="0.6"/>
<path d="M873.388 741.8C886.567 741.611 886.567 762.319 873.388 762.12C860.208 762.31 860.208 741.6 873.388 741.8Z" fill="#007A4E" fill-opacity="0.6"/>
<path d="M1048.39 741.8C1061.57 741.601 1061.57 762.309 1048.39 762.12C1035.21 762.32 1035.21 741.611 1048.39 741.8Z" fill="#007A4E" fill-opacity="0.6"/>
<path d="M768.388 731.55C780.657 731.371 780.657 750.65 768.388 750.47C756.117 750.65 756.117 731.37 768.388 731.55Z" fill="#007A4E" fill-opacity="0.6"/>
<path d="M1088.39 731.55C1100.66 731.371 1100.66 750.65 1088.39 750.47C1076.12 750.65 1076.12 731.371 1088.39 731.55Z" fill="#007A4E" fill-opacity="0.6"/>
<path d="M838.388 725.86C852.217 725.921 852.217 746.95 838.388 747.01C824.557 746.95 824.557 725.92 838.388 725.86Z" fill="#007A4E" fill-opacity="0.6"/>
<path d="M908.387 725.86C922.217 725.921 922.217 746.95 908.387 747.01C894.557 746.95 894.557 725.92 908.387 725.86Z" fill="#007A4E" fill-opacity="0.6"/>
<path d="M1013.39 725.86C1027.22 725.92 1027.22 746.95 1013.39 747.01C999.558 746.95 999.558 725.92 1013.39 725.86Z" fill="#007A4E" fill-opacity="0.6"/>
<path d="M803.388 715.48C816.357 715.291 816.357 735.67 803.388 735.48C790.417 735.67 790.417 715.29 803.388 715.48Z" fill="#007A4E" fill-opacity="0.6"/>
<path d="M873.388 715.48C886.357 715.291 886.357 735.67 873.388 735.48C860.417 735.67 860.417 715.29 873.388 715.48Z" fill="#007A4E" fill-opacity="0.6"/>
<path d="M1048.39 715.48C1061.36 715.29 1061.36 735.67 1048.39 735.48C1035.42 735.67 1035.42 715.29 1048.39 715.48Z" fill="#007A4E" fill-opacity="0.6"/>
<path d="M943.387 710.32C957.237 710.38 957.237 731.45 943.387 731.51C929.537 731.45 929.537 710.38 943.387 710.32Z" fill="#007A4E" fill-opacity="0.6"/>
<path d="M978.387 710.32C992.237 710.38 992.237 731.45 978.387 731.51C964.538 731.45 964.538 710.38 978.387 710.32Z" fill="#007A4E" fill-opacity="0.6"/>
<path d="M768.388 705.39C780.237 705.221 780.237 723.829 768.388 723.66C756.538 723.83 756.538 705.22 768.388 705.39Z" fill="#007A4E" fill-opacity="0.6"/>
<path d="M1088.39 705.39C1100.24 705.221 1100.24 723.83 1088.39 723.66C1076.54 723.83 1076.54 705.22 1088.39 705.39Z" fill="#007A4E" fill-opacity="0.6"/>
<path d="M838.388 699.8C851.567 699.611 851.567 720.319 838.388 720.12C825.208 720.31 825.208 699.6 838.388 699.8Z" fill="#007A4E" fill-opacity="0.6"/>
<path d="M908.387 699.8C921.567 699.611 921.567 720.319 908.387 720.12C895.207 720.31 895.207 699.6 908.387 699.8Z" fill="#007A4E" fill-opacity="0.6"/>
<path d="M1013.39 699.8C1026.57 699.601 1026.57 720.309 1013.39 720.12C1000.21 720.32 1000.21 699.611 1013.39 699.8Z" fill="#007A4E" fill-opacity="0.6"/>
<path d="M803.388 689.55C815.657 689.371 815.657 708.65 803.388 708.47C791.117 708.65 791.117 689.37 803.388 689.55Z" fill="#007A4E" fill-opacity="0.6"/>
<path d="M873.388 689.55C885.657 689.371 885.657 708.65 873.388 708.47C861.117 708.65 861.117 689.37 873.388 689.55Z" fill="#007A4E" fill-opacity="0.6"/>
<path d="M1048.39 689.55C1060.66 689.371 1060.66 708.65 1048.39 708.47C1036.12 708.65 1036.12 689.371 1048.39 689.55Z" fill="#007A4E" fill-opacity="0.6"/>
<path d="M943.387 683.86C957.217 683.92 957.217 704.95 943.387 705.01C929.557 704.95 929.557 683.92 943.387 683.86Z" fill="#007A4E" fill-opacity="0.6"/>
<path d="M978.387 683.86C992.217 683.92 992.217 704.95 978.387 705.01C964.558 704.95 964.558 683.92 978.387 683.86Z" fill="#007A4E" fill-opacity="0.6"/>
<path d="M768.397 679.461C779.547 679.301 779.547 696.81 768.397 696.65C757.247 696.81 757.247 679.301 768.397 679.461Z" fill="#007A4E" fill-opacity="0.6"/>
<path d="M1088.38 679.461C1099.53 679.301 1099.53 696.81 1088.38 696.65C1077.23 696.81 1077.23 679.301 1088.38 679.461Z" fill="#007A4E" fill-opacity="0.6"/>
<path d="M838.388 673.48C851.357 673.291 851.357 693.67 838.388 693.48C825.417 693.67 825.417 673.29 838.388 673.48Z" fill="#007A4E" fill-opacity="0.6"/>
<path d="M908.387 673.48C921.357 673.291 921.357 693.67 908.387 693.48C895.417 693.67 895.417 673.29 908.387 673.48Z" fill="#007A4E" fill-opacity="0.6"/>
<path d="M1013.39 673.48C1026.36 673.29 1026.36 693.67 1013.39 693.48C1000.42 693.67 1000.42 673.29 1013.39 673.48Z" fill="#007A4E" fill-opacity="0.6"/>
<path d="M803.388 663.39C815.237 663.221 815.237 681.829 803.388 681.66C791.538 681.83 791.538 663.22 803.388 663.39Z" fill="#007A4E" fill-opacity="0.6"/>
<path d="M873.388 663.39C885.237 663.221 885.237 681.829 873.388 681.66C861.538 681.83 861.538 663.22 873.388 663.39Z" fill="#007A4E" fill-opacity="0.6"/>
<path d="M1048.39 663.39C1060.24 663.221 1060.24 681.829 1048.39 681.66C1036.54 681.83 1036.54 663.22 1048.39 663.39Z" fill="#007A4E" fill-opacity="0.6"/>
<path d="M943.387 657.8C956.567 657.611 956.567 678.319 943.387 678.12C930.208 678.31 930.208 657.6 943.387 657.8Z" fill="#007A4E" fill-opacity="0.6"/>
<path d="M978.387 657.8C991.567 657.601 991.567 678.309 978.387 678.12C965.208 678.319 965.208 657.611 978.387 657.8Z" fill="#007A4E" fill-opacity="0.6"/>
<path d="M768.388 653.84C778.437 653.691 778.437 669.48 768.388 669.331C758.338 669.481 758.338 653.69 768.388 653.84Z" fill="#007A4E" fill-opacity="0.6"/>
<path d="M1088.39 653.84C1098.44 653.691 1098.44 669.48 1088.39 669.331C1078.34 669.48 1078.34 653.691 1088.39 653.84Z" fill="#007A4E" fill-opacity="0.6"/>
<path d="M838.388 647.55C850.657 647.371 850.657 666.65 838.388 666.47C826.117 666.65 826.117 647.37 838.388 647.55Z" fill="#007A4E" fill-opacity="0.6"/>
<path d="M908.387 647.55C920.657 647.371 920.657 666.65 908.387 666.47C896.117 666.65 896.117 647.37 908.387 647.55Z" fill="#007A4E" fill-opacity="0.6"/>
<path d="M1013.39 647.55C1025.66 647.371 1025.66 666.65 1013.39 666.47C1001.12 666.65 1001.12 647.371 1013.39 647.55Z" fill="#007A4E" fill-opacity="0.6"/>
<path d="M803.397 637.461C814.547 637.301 814.547 654.81 803.397 654.65C792.247 654.81 792.247 637.301 803.397 637.461Z" fill="#007A4E" fill-opacity="0.6"/>
<path d="M873.397 637.461C884.547 637.301 884.547 654.81 873.397 654.65C862.247 654.81 862.247 637.301 873.397 637.461Z" fill="#007A4E" fill-opacity="0.6"/>
<path d="M1048.38 637.461C1059.53 637.301 1059.53 654.81 1048.38 654.65C1037.23 654.81 1037.23 637.301 1048.38 637.461Z" fill="#007A4E" fill-opacity="0.6"/>
<path d="M943.387 631.48C956.357 631.291 956.357 651.67 943.387 651.48C930.417 651.67 930.417 631.29 943.387 631.48Z" fill="#007A4E" fill-opacity="0.6"/>
<path d="M978.387 631.48C991.357 631.29 991.357 651.67 978.387 651.48C965.418 651.67 965.418 631.29 978.387 631.48Z" fill="#007A4E" fill-opacity="0.6"/>
<path d="M768.388 629.48C775.677 629.371 775.677 640.83 768.388 640.72C761.098 640.83 761.098 629.37 768.388 629.48Z" fill="#007A4E" fill-opacity="0.6"/>
<path d="M1088.39 629.48C1095.68 629.37 1095.68 640.83 1088.39 640.72C1081.1 640.83 1081.1 629.37 1088.39 629.48Z" fill="#007A4E" fill-opacity="0.6"/>
<path d="M838.388 621.39C850.237 621.221 850.237 639.829 838.388 639.66C826.538 639.83 826.538 621.22 838.388 621.39Z" fill="#007A4E" fill-opacity="0.6"/>
<path d="M908.387 621.39C920.237 621.221 920.237 639.829 908.387 639.66C896.537 639.83 896.537 621.22 908.387 621.39Z" fill="#007A4E" fill-opacity="0.6"/>
<path d="M1013.39 621.39C1025.24 621.221 1025.24 639.829 1013.39 639.66C1001.54 639.83 1001.54 621.22 1013.39 621.39Z" fill="#007A4E" fill-opacity="0.6"/>
<path d="M803.388 611.84C813.437 611.691 813.437 627.48 803.388 627.331C793.338 627.481 793.338 611.69 803.388 611.84Z" fill="#007A4E" fill-opacity="0.6"/>
<path d="M873.388 611.84C883.437 611.691 883.437 627.48 873.388 627.331C863.338 627.481 863.338 611.69 873.388 611.84Z" fill="#007A4E" fill-opacity="0.6"/>
<path d="M1048.39 611.84C1058.44 611.691 1058.44 627.48 1048.39 627.331C1038.34 627.48 1038.34 611.691 1048.39 611.84Z" fill="#007A4E" fill-opacity="0.6"/>
<path d="M943.387 605.55C955.657 605.371 955.657 624.65 943.387 624.47C931.117 624.65 931.117 605.37 943.387 605.55Z" fill="#007A4E" fill-opacity="0.6"/>
<path d="M978.387 605.55C990.657 605.371 990.657 624.65 978.387 624.47C966.118 624.65 966.118 605.371 978.387 605.55Z" fill="#007A4E" fill-opacity="0.6"/>
<path d="M768.397 604.251C774.077 604.171 774.077 613.09 768.397 613.001C762.717 613.081 762.717 604.161 768.397 604.251Z" fill="#007A4E" fill-opacity="0.6"/>
<path d="M1088.38 604.251C1094.06 604.161 1094.06 613.08 1088.38 613.001C1082.7 613.091 1082.7 604.171 1088.38 604.251Z" fill="#007A4E" fill-opacity="0.6"/>
<path d="M838.397 595.461C849.547 595.301 849.547 612.81 838.397 612.65C827.247 612.81 827.247 595.301 838.397 595.461Z" fill="#007A4E" fill-opacity="0.6"/>
<path d="M908.397 595.461C919.547 595.301 919.547 612.81 908.397 612.65C897.247 612.81 897.247 595.301 908.397 595.461Z" fill="#007A4E" fill-opacity="0.6"/>
<path d="M1013.38 595.461C1024.53 595.301 1024.53 612.81 1013.38 612.65C1002.23 612.81 1002.23 595.301 1013.38 595.461Z" fill="#007A4E" fill-opacity="0.6"/>
<path d="M803.388 587.48C810.677 587.371 810.677 598.83 803.388 598.72C796.098 598.83 796.098 587.37 803.388 587.48Z" fill="#007A4E" fill-opacity="0.6"/>
<path d="M873.388 587.48C880.677 587.371 880.677 598.83 873.388 598.72C866.098 598.83 866.098 587.37 873.388 587.48Z" fill="#007A4E" fill-opacity="0.6"/>
<path d="M1048.39 587.48C1055.68 587.37 1055.68 598.83 1048.39 598.72C1041.1 598.83 1041.1 587.37 1048.39 587.48Z" fill="#007A4E" fill-opacity="0.6"/>
<path d="M943.387 579.39C955.237 579.221 955.237 597.829 943.387 597.66C931.537 597.83 931.537 579.22 943.387 579.39Z" fill="#007A4E" fill-opacity="0.6"/>
<path d="M978.387 579.39C990.237 579.221 990.237 597.829 978.387 597.66C966.538 597.83 966.538 579.22 978.387 579.39Z" fill="#007A4E" fill-opacity="0.6"/>
<path d="M838.388 569.84C848.437 569.691 848.437 585.48 838.388 585.331C828.338 585.481 828.338 569.69 838.388 569.84Z" fill="#007A4E" fill-opacity="0.6"/>
<path d="M908.387 569.84C918.437 569.691 918.437 585.48 908.387 585.331C898.337 585.481 898.337 569.69 908.387 569.84Z" fill="#007A4E" fill-opacity="0.6"/>
<path d="M1013.39 569.84C1023.44 569.691 1023.44 585.48 1013.39 585.331C1003.34 585.48 1003.34 569.691 1013.39 569.84Z" fill="#007A4E" fill-opacity="0.6"/>
<path d="M768.388 579.001C772.477 578.941 772.477 585.36 768.388 585.3C764.297 585.36 764.297 578.941 768.388 579.001Z" fill="#007A4E" fill-opacity="0.6"/>
<path d="M1088.39 579.001C1092.48 578.941 1092.48 585.36 1088.39 585.3C1084.3 585.36 1084.3 578.941 1088.39 579.001Z" fill="#007A4E" fill-opacity="0.6"/>
<path d="M803.397 562.251C809.077 562.171 809.077 571.09 803.397 571.001C797.717 571.081 797.717 562.161 803.397 562.251Z" fill="#007A4E" fill-opacity="0.6"/>
<path d="M873.397 562.251C879.077 562.171 879.077 571.09 873.397 571.001C867.717 571.081 867.717 562.161 873.397 562.251Z" fill="#007A4E" fill-opacity="0.6"/>
<path d="M1048.38 562.251C1054.06 562.161 1054.06 571.08 1048.38 571.001C1042.7 571.091 1042.7 562.171 1048.38 562.251Z" fill="#007A4E" fill-opacity="0.6"/>
<path d="M943.397 553.461C954.547 553.301 954.547 570.81 943.397 570.65C932.247 570.81 932.247 553.301 943.397 553.461Z" fill="#007A4E" fill-opacity="0.6"/>
<path d="M978.378 553.461C989.527 553.301 989.527 570.81 978.378 570.65C967.228 570.81 967.228 553.301 978.378 553.461Z" fill="#007A4E" fill-opacity="0.6"/>
<path d="M838.388 545.48C845.677 545.371 845.677 556.83 838.388 556.72C831.098 556.83 831.098 545.37 838.388 545.48Z" fill="#007A4E" fill-opacity="0.6"/>
<path d="M908.387 545.48C915.677 545.371 915.677 556.83 908.387 556.72C901.097 556.83 901.097 545.37 908.387 545.48Z" fill="#007A4E" fill-opacity="0.6"/>
<path d="M1013.39 545.48C1020.68 545.37 1020.68 556.83 1013.39 556.72C1006.1 556.83 1006.1 545.37 1013.39 545.48Z" fill="#007A4E" fill-opacity="0.6"/>
<path d="M943.387 527.84C953.437 527.691 953.437 543.48 943.387 543.331C933.337 543.481 933.337 527.69 943.387 527.84Z" fill="#007A4E" fill-opacity="0.6"/>
<path d="M978.387 527.84C988.437 527.691 988.437 543.48 978.387 543.331C968.338 543.48 968.338 527.691 978.387 527.84Z" fill="#007A4E" fill-opacity="0.6"/>
<path d="M803.388 537.001C807.477 536.941 807.477 543.36 803.388 543.3C799.297 543.36 799.297 536.941 803.388 537.001Z" fill="#007A4E" fill-opacity="0.6"/>
<path d="M873.388 537.001C877.477 536.941 877.477 543.36 873.388 543.3C869.297 543.36 869.297 536.941 873.388 537.001Z" fill="#007A4E" fill-opacity="0.6"/>
<path d="M1048.39 537.001C1052.48 536.941 1052.48 543.36 1048.39 543.3C1044.3 543.36 1044.3 536.941 1048.39 537.001Z" fill="#007A4E" fill-opacity="0.6"/>
<path d="M838.397 520.251C844.077 520.171 844.077 529.09 838.397 529.001C832.717 529.081 832.717 520.161 838.397 520.251Z" fill="#007A4E" fill-opacity="0.6"/>
<path d="M908.397 520.251C914.077 520.171 914.077 529.09 908.397 529.001C902.717 529.081 902.717 520.161 908.397 520.251Z" fill="#007A4E" fill-opacity="0.6"/>
<path d="M1013.38 520.251C1019.06 520.161 1019.06 529.08 1013.38 529.001C1007.7 529.091 1007.7 520.171 1013.38 520.251Z" fill="#007A4E" fill-opacity="0.6"/>
<path d="M943.387 503.48C950.677 503.371 950.677 514.83 943.387 514.72C936.097 514.83 936.097 503.37 943.387 503.48Z" fill="#007A4E" fill-opacity="0.6"/>
<path d="M978.387 503.48C985.677 503.37 985.677 514.83 978.387 514.72C971.098 514.83 971.098 503.37 978.387 503.48Z" fill="#007A4E" fill-opacity="0.6"/>
<path d="M838.388 495.001C842.477 494.941 842.477 501.36 838.388 501.3C834.297 501.36 834.297 494.941 838.388 495.001Z" fill="#007A4E" fill-opacity="0.6"/>
<path d="M908.387 495.001C912.477 494.941 912.477 501.36 908.387 501.3C904.297 501.36 904.297 494.941 908.387 495.001Z" fill="#007A4E" fill-opacity="0.6"/>
<path d="M1013.39 495.001C1017.48 494.941 1017.48 501.36 1013.39 501.3C1009.3 501.36 1009.3 494.941 1013.39 495.001Z" fill="#007A4E" fill-opacity="0.6"/>
<path d="M943.397 478.251C949.077 478.171 949.077 487.09 943.397 487.001C937.717 487.081 937.717 478.161 943.397 478.251Z" fill="#007A4E" fill-opacity="0.6"/>
<path d="M978.378 478.251C984.057 478.161 984.057 487.08 978.378 487.001C972.698 487.091 972.698 478.171 978.378 478.251Z" fill="#007A4E" fill-opacity="0.6"/>
<path d="M943.387 453.001C947.477 452.941 947.477 459.36 943.387 459.3C939.297 459.36 939.297 452.941 943.387 453.001Z" fill="#007A4E" fill-opacity="0.6"/>
<path d="M978.387 453.001C982.477 452.941 982.477 459.36 978.387 459.3C974.298 459.36 974.298 452.941 978.387 453.001Z" fill="#007A4E" fill-opacity="0.6"/>
<path d="M1210.39 21.1904C1224.24 21.13 1224.24 0.0603943 1210.39 0C1196.54 0.0599976 1196.54 21.1304 1210.39 21.1904Z" fill="#007A4E" fill-opacity="0.6"/>
<path d="M1530.39 21.1904C1544.24 21.1301 1544.24 0.0603027 1530.39 0C1516.54 0.0601807 1516.54 21.1302 1530.39 21.1904Z" fill="#007A4E" fill-opacity="0.6"/>
<path d="M1210.39 47.6504C1224.22 47.5899 1224.22 26.5605 1210.39 26.5C1196.56 26.56 1196.56 47.5904 1210.39 47.6504Z" fill="#007A4E" fill-opacity="0.6"/>
<path d="M1530.39 47.6504C1544.22 47.5901 1544.22 26.5603 1530.39 26.5C1516.56 26.5603 1516.56 47.5901 1530.39 47.6504Z" fill="#007A4E" fill-opacity="0.6"/>
<path d="M1245.39 63.1904C1259.24 63.13 1259.24 42.0604 1245.39 42C1231.54 42.06 1231.54 63.1304 1245.39 63.1904Z" fill="#007A4E" fill-opacity="0.6"/>
<path d="M1315.39 63.1904C1329.24 63.13 1329.24 42.0604 1315.39 42C1301.54 42.06 1301.54 63.1304 1315.39 63.1904Z" fill="#007A4E" fill-opacity="0.6"/>
<path d="M1490.39 63.1904C1504.24 63.1301 1504.24 42.0603 1490.39 42C1476.54 42.0602 1476.54 63.1302 1490.39 63.1904Z" fill="#007A4E" fill-opacity="0.6"/>
<path d="M1210.39 73.71C1223.57 73.8995 1223.57 53.1911 1210.39 53.3906C1197.21 53.2006 1197.21 73.91 1210.39 73.71Z" fill="#007A4E" fill-opacity="0.6"/>
<path d="M1530.39 73.71C1543.57 73.9097 1543.57 53.201 1530.39 53.3906C1517.21 53.1909 1517.21 73.8997 1530.39 73.71Z" fill="#007A4E" fill-opacity="0.6"/>
<path d="M1245.39 89.6504C1259.22 89.5899 1259.22 68.5605 1245.39 68.5C1231.56 68.56 1231.56 89.5904 1245.39 89.6504Z" fill="#007A4E" fill-opacity="0.6"/>
<path d="M1315.39 89.6504C1329.22 89.5899 1329.22 68.5605 1315.39 68.5C1301.56 68.56 1301.56 89.5904 1315.39 89.6504Z" fill="#007A4E" fill-opacity="0.6"/>
<path d="M1490.39 89.6504C1504.22 89.5901 1504.22 68.5603 1490.39 68.5C1476.56 68.5603 1476.56 89.5901 1490.39 89.6504Z" fill="#007A4E" fill-opacity="0.6"/>
<path d="M1210.39 100.03C1223.36 100.22 1223.36 79.8408 1210.39 80.0303C1197.42 79.8403 1197.42 100.22 1210.39 100.03Z" fill="#007A4E" fill-opacity="0.6"/>
<path d="M1530.39 100.03C1543.36 100.22 1543.36 79.8406 1530.39 80.0303C1517.42 79.8406 1517.42 100.22 1530.39 100.03Z" fill="#007A4E" fill-opacity="0.6"/>
<path d="M1280.39 105.19C1294.24 105.13 1294.24 84.0604 1280.39 84C1266.54 84.06 1266.54 105.13 1280.39 105.19Z" fill="#007A4E" fill-opacity="0.6"/>
<path d="M1350.39 105.19C1364.24 105.13 1364.24 84.0604 1350.39 84C1336.54 84.06 1336.54 105.13 1350.39 105.19Z" fill="#007A4E" fill-opacity="0.6"/>
<path d="M1455.39 105.19C1469.24 105.13 1469.24 84.0603 1455.39 84C1441.54 84.0602 1441.54 105.13 1455.39 105.19Z" fill="#007A4E" fill-opacity="0.6"/>
<path d="M1245.39 115.71C1258.57 115.9 1258.57 95.1911 1245.39 95.3906C1232.21 95.2006 1232.21 115.91 1245.39 115.71Z" fill="#007A4E" fill-opacity="0.6"/>
<path d="M1315.39 115.71C1328.57 115.9 1328.57 95.1911 1315.39 95.3906C1302.21 95.2006 1302.21 115.91 1315.39 115.71Z" fill="#007A4E" fill-opacity="0.6"/>
<path d="M1490.39 115.71C1503.57 115.91 1503.57 95.201 1490.39 95.3906C1477.21 95.1909 1477.21 115.9 1490.39 115.71Z" fill="#007A4E" fill-opacity="0.6"/>
<path d="M1210.39 125.96C1222.66 126.139 1222.66 106.861 1210.39 107.04C1198.12 106.86 1198.12 126.14 1210.39 125.96Z" fill="#007A4E" fill-opacity="0.6"/>
<path d="M1530.39 125.96C1542.66 126.14 1542.66 106.86 1530.39 107.04C1518.12 106.86 1518.12 126.14 1530.39 125.96Z" fill="#007A4E" fill-opacity="0.6"/>
<path d="M1280.39 131.65C1294.22 131.59 1294.22 110.56 1280.39 110.5C1266.56 110.56 1266.56 131.59 1280.39 131.65Z" fill="#007A4E" fill-opacity="0.6"/>
<path d="M1350.39 131.65C1364.22 131.59 1364.22 110.56 1350.39 110.5C1336.56 110.56 1336.56 131.59 1350.39 131.65Z" fill="#007A4E" fill-opacity="0.6"/>
<path d="M1455.39 131.65C1469.22 131.59 1469.22 110.56 1455.39 110.5C1441.56 110.56 1441.56 131.59 1455.39 131.65Z" fill="#007A4E" fill-opacity="0.6"/>
<path d="M1245.39 142.03C1258.36 142.22 1258.36 121.841 1245.39 122.03C1232.42 121.84 1232.42 142.22 1245.39 142.03Z" fill="#007A4E" fill-opacity="0.6"/>
<path d="M1315.39 142.03C1328.36 142.22 1328.36 121.841 1315.39 122.03C1302.42 121.84 1302.42 142.22 1315.39 142.03Z" fill="#007A4E" fill-opacity="0.6"/>
<path d="M1490.39 142.03C1503.36 142.22 1503.36 121.841 1490.39 122.03C1477.42 121.841 1477.42 142.22 1490.39 142.03Z" fill="#007A4E" fill-opacity="0.6"/>
<path d="M1385.39 147.19C1399.24 147.13 1399.24 126.06 1385.39 126C1371.54 126.06 1371.54 147.13 1385.39 147.19Z" fill="#007A4E" fill-opacity="0.6"/>
<path d="M1420.39 147.19C1434.24 147.13 1434.24 126.06 1420.39 126C1406.54 126.06 1406.54 147.13 1420.39 147.19Z" fill="#007A4E" fill-opacity="0.6"/>
<path d="M1210.39 152.12C1222.24 152.29 1222.24 133.681 1210.39 133.851C1198.54 133.681 1198.54 152.29 1210.39 152.12Z" fill="#007A4E" fill-opacity="0.6"/>
<path d="M1530.39 152.12C1542.24 152.29 1542.24 133.681 1530.39 133.851C1518.54 133.681 1518.54 152.29 1530.39 152.12Z" fill="#007A4E" fill-opacity="0.6"/>
<path d="M1280.39 157.71C1293.57 157.9 1293.57 137.191 1280.39 137.391C1267.21 137.201 1267.21 157.91 1280.39 157.71Z" fill="#007A4E" fill-opacity="0.6"/>
<path d="M1350.39 157.71C1363.57 157.9 1363.57 137.191 1350.39 137.391C1337.21 137.201 1337.21 157.91 1350.39 157.71Z" fill="#007A4E" fill-opacity="0.6"/>
<path d="M1455.39 157.71C1468.57 157.91 1468.57 137.201 1455.39 137.391C1442.21 137.191 1442.21 157.9 1455.39 157.71Z" fill="#007A4E" fill-opacity="0.6"/>
<path d="M1245.39 167.96C1257.66 168.139 1257.66 148.861 1245.39 149.04C1233.12 148.86 1233.12 168.14 1245.39 167.96Z" fill="#007A4E" fill-opacity="0.6"/>
<path d="M1315.39 167.96C1327.66 168.139 1327.66 148.861 1315.39 149.04C1303.12 148.86 1303.12 168.14 1315.39 167.96Z" fill="#007A4E" fill-opacity="0.6"/>
<path d="M1490.39 167.96C1502.66 168.14 1502.66 148.86 1490.39 149.04C1478.12 148.86 1478.12 168.14 1490.39 167.96Z" fill="#007A4E" fill-opacity="0.6"/>
<path d="M1385.39 173.65C1399.22 173.59 1399.22 152.561 1385.39 152.5C1371.56 152.56 1371.56 173.59 1385.39 173.65Z" fill="#007A4E" fill-opacity="0.6"/>
<path d="M1420.39 173.65C1434.22 173.59 1434.22 152.56 1420.39 152.5C1406.56 152.56 1406.56 173.59 1420.39 173.65Z" fill="#007A4E" fill-opacity="0.6"/>
<path d="M1210.4 178.05C1221.55 178.21 1221.55 160.701 1210.4 160.86C1199.25 160.7 1199.25 178.21 1210.4 178.05Z" fill="#007A4E" fill-opacity="0.6"/>
<path d="M1530.38 178.05C1541.53 178.21 1541.53 160.701 1530.38 160.86C1519.23 160.7 1519.23 178.21 1530.38 178.05Z" fill="#007A4E" fill-opacity="0.6"/>
<path d="M1280.39 184.03C1293.36 184.22 1293.36 163.841 1280.39 164.03C1267.42 163.84 1267.42 184.22 1280.39 184.03Z" fill="#007A4E" fill-opacity="0.6"/>
<path d="M1350.39 184.03C1363.36 184.22 1363.36 163.841 1350.39 164.03C1337.42 163.84 1337.42 184.22 1350.39 184.03Z" fill="#007A4E" fill-opacity="0.6"/>
<path d="M1455.39 184.03C1468.36 184.22 1468.36 163.841 1455.39 164.03C1442.42 163.841 1442.42 184.22 1455.39 184.03Z" fill="#007A4E" fill-opacity="0.6"/>
<path d="M1245.39 194.12C1257.24 194.29 1257.24 175.681 1245.39 175.851C1233.54 175.681 1233.54 194.29 1245.39 194.12Z" fill="#007A4E" fill-opacity="0.6"/>
<path d="M1315.39 194.12C1327.24 194.29 1327.24 175.681 1315.39 175.851C1303.54 175.681 1303.54 194.29 1315.39 194.12Z" fill="#007A4E" fill-opacity="0.6"/>
<path d="M1490.39 194.12C1502.24 194.29 1502.24 175.681 1490.39 175.851C1478.54 175.681 1478.54 194.29 1490.39 194.12Z" fill="#007A4E" fill-opacity="0.6"/>
<path d="M1385.39 199.71C1398.57 199.9 1398.57 179.191 1385.39 179.391C1372.21 179.201 1372.21 199.91 1385.39 199.71Z" fill="#007A4E" fill-opacity="0.6"/>
<path d="M1420.39 199.71C1433.57 199.91 1433.57 179.201 1420.39 179.391C1407.21 179.191 1407.21 199.9 1420.39 199.71Z" fill="#007A4E" fill-opacity="0.6"/>
<path d="M1210.39 203.67C1220.44 203.819 1220.44 188.03 1210.39 188.18C1200.34 188.03 1200.34 203.82 1210.39 203.67Z" fill="#007A4E" fill-opacity="0.6"/>
<path d="M1530.39 203.67C1540.44 203.82 1540.44 188.03 1530.39 188.18C1520.34 188.03 1520.34 203.82 1530.39 203.67Z" fill="#007A4E" fill-opacity="0.6"/>
<path d="M1280.39 209.96C1292.66 210.139 1292.66 190.861 1280.39 191.04C1268.12 190.86 1268.12 210.14 1280.39 209.96Z" fill="#007A4E" fill-opacity="0.6"/>
<path d="M1350.39 209.96C1362.66 210.139 1362.66 190.861 1350.39 191.04C1338.12 190.86 1338.12 210.14 1350.39 209.96Z" fill="#007A4E" fill-opacity="0.6"/>
<path d="M1455.39 209.96C1467.66 210.14 1467.66 190.86 1455.39 191.04C1443.12 190.86 1443.12 210.14 1455.39 209.96Z" fill="#007A4E" fill-opacity="0.6"/>
<path d="M1245.4 220.05C1256.55 220.21 1256.55 202.701 1245.4 202.86C1234.25 202.7 1234.25 220.21 1245.4 220.05Z" fill="#007A4E" fill-opacity="0.6"/>
<path d="M1315.4 220.05C1326.55 220.21 1326.55 202.701 1315.4 202.86C1304.25 202.7 1304.25 220.21 1315.4 220.05Z" fill="#007A4E" fill-opacity="0.6"/>
<path d="M1490.38 220.05C1501.53 220.21 1501.53 202.701 1490.38 202.86C1479.23 202.7 1479.23 220.21 1490.38 220.05Z" fill="#007A4E" fill-opacity="0.6"/>
<path d="M1385.39 226.03C1398.36 226.22 1398.36 205.841 1385.39 206.03C1372.42 205.84 1372.42 226.22 1385.39 226.03Z" fill="#007A4E" fill-opacity="0.6"/>
<path d="M1420.39 226.03C1433.36 226.22 1433.36 205.841 1420.39 206.03C1407.42 205.841 1407.42 226.22 1420.39 226.03Z" fill="#007A4E" fill-opacity="0.6"/>
<path d="M1210.39 228.03C1217.68 228.14 1217.68 216.681 1210.39 216.79C1203.1 216.68 1203.1 228.14 1210.39 228.03Z" fill="#007A4E" fill-opacity="0.6"/>
<path d="M1530.39 228.03C1537.68 228.14 1537.68 216.68 1530.39 216.79C1523.1 216.68 1523.1 228.14 1530.39 228.03Z" fill="#007A4E" fill-opacity="0.6"/>
<path d="M1280.39 236.12C1292.24 236.29 1292.24 217.681 1280.39 217.851C1268.54 217.681 1268.54 236.29 1280.39 236.12Z" fill="#007A4E" fill-opacity="0.6"/>
<path d="M1350.39 236.12C1362.24 236.29 1362.24 217.681 1350.39 217.851C1338.54 217.681 1338.54 236.29 1350.39 236.12Z" fill="#007A4E" fill-opacity="0.6"/>
<path d="M1455.39 236.12C1467.24 236.29 1467.24 217.681 1455.39 217.851C1443.54 217.681 1443.54 236.29 1455.39 236.12Z" fill="#007A4E" fill-opacity="0.6"/>
<path d="M1245.39 245.67C1255.44 245.819 1255.44 230.03 1245.39 230.18C1235.34 230.03 1235.34 245.82 1245.39 245.67Z" fill="#007A4E" fill-opacity="0.6"/>
<path d="M1315.39 245.67C1325.44 245.819 1325.44 230.03 1315.39 230.18C1305.34 230.03 1305.34 245.82 1315.39 245.67Z" fill="#007A4E" fill-opacity="0.6"/>
<path d="M1490.39 245.67C1500.44 245.82 1500.44 230.03 1490.39 230.18C1480.34 230.03 1480.34 245.82 1490.39 245.67Z" fill="#007A4E" fill-opacity="0.6"/>
<path d="M1385.39 251.96C1397.66 252.139 1397.66 232.861 1385.39 233.04C1373.12 232.86 1373.12 252.14 1385.39 251.96Z" fill="#007A4E" fill-opacity="0.6"/>
<path d="M1420.39 251.96C1432.66 252.14 1432.66 232.86 1420.39 233.04C1408.12 232.86 1408.12 252.14 1420.39 251.96Z" fill="#007A4E" fill-opacity="0.6"/>
<path d="M1210.4 253.26C1216.08 253.34 1216.08 244.42 1210.4 244.51C1204.72 244.43 1204.72 253.35 1210.4 253.26Z" fill="#007A4E" fill-opacity="0.6"/>
<path d="M1530.38 253.26C1536.06 253.349 1536.06 244.43 1530.38 244.51C1524.7 244.42 1524.7 253.34 1530.38 253.26Z" fill="#007A4E" fill-opacity="0.6"/>
<path d="M1280.4 262.05C1291.55 262.21 1291.55 244.701 1280.4 244.86C1269.25 244.7 1269.25 262.21 1280.4 262.05Z" fill="#007A4E" fill-opacity="0.6"/>
<path d="M1350.4 262.05C1361.55 262.21 1361.55 244.701 1350.4 244.86C1339.25 244.7 1339.25 262.21 1350.4 262.05Z" fill="#007A4E" fill-opacity="0.6"/>
<path d="M1455.38 262.05C1466.53 262.21 1466.53 244.701 1455.38 244.86C1444.23 244.7 1444.23 262.21 1455.38 262.05Z" fill="#007A4E" fill-opacity="0.6"/>
<path d="M1245.39 270.03C1252.68 270.14 1252.68 258.681 1245.39 258.79C1238.1 258.68 1238.1 270.14 1245.39 270.03Z" fill="#007A4E" fill-opacity="0.6"/>
<path d="M1315.39 270.03C1322.68 270.14 1322.68 258.681 1315.39 258.79C1308.1 258.68 1308.1 270.14 1315.39 270.03Z" fill="#007A4E" fill-opacity="0.6"/>
<path d="M1490.39 270.03C1497.68 270.14 1497.68 258.68 1490.39 258.79C1483.1 258.68 1483.1 270.14 1490.39 270.03Z" fill="#007A4E" fill-opacity="0.6"/>
<path d="M1385.39 278.12C1397.24 278.29 1397.24 259.681 1385.39 259.851C1373.54 259.681 1373.54 278.29 1385.39 278.12Z" fill="#007A4E" fill-opacity="0.6"/>
<path d="M1420.39 278.12C1432.24 278.29 1432.24 259.681 1420.39 259.851C1408.54 259.681 1408.54 278.29 1420.39 278.12Z" fill="#007A4E" fill-opacity="0.6"/>
<path d="M1280.39 287.67C1290.44 287.819 1290.44 272.03 1280.39 272.18C1270.34 272.03 1270.34 287.82 1280.39 287.67Z" fill="#007A4E" fill-opacity="0.6"/>
<path d="M1350.39 287.67C1360.44 287.819 1360.44 272.03 1350.39 272.18C1340.34 272.03 1340.34 287.82 1350.39 287.67Z" fill="#007A4E" fill-opacity="0.6"/>
<path d="M1455.39 287.67C1465.44 287.82 1465.44 272.03 1455.39 272.18C1445.34 272.03 1445.34 287.82 1455.39 287.67Z" fill="#007A4E" fill-opacity="0.6"/>
<path d="M1210.39 278.51C1214.48 278.569 1214.48 272.151 1210.39 272.21C1206.3 272.15 1206.3 278.57 1210.39 278.51Z" fill="#007A4E" fill-opacity="0.6"/>
<path d="M1530.39 278.51C1534.48 278.569 1534.48 272.15 1530.39 272.21C1526.3 272.15 1526.3 278.569 1530.39 278.51Z" fill="#007A4E" fill-opacity="0.6"/>
<path d="M1245.4 295.26C1251.08 295.34 1251.08 286.42 1245.4 286.51C1239.72 286.43 1239.72 295.35 1245.4 295.26Z" fill="#007A4E" fill-opacity="0.6"/>
<path d="M1315.4 295.26C1321.08 295.34 1321.08 286.42 1315.4 286.51C1309.72 286.43 1309.72 295.35 1315.4 295.26Z" fill="#007A4E" fill-opacity="0.6"/>
<path d="M1490.38 295.26C1496.06 295.349 1496.06 286.43 1490.38 286.51C1484.7 286.42 1484.7 295.34 1490.38 295.26Z" fill="#007A4E" fill-opacity="0.6"/>
<path d="M1385.4 304.05C1396.55 304.21 1396.55 286.701 1385.4 286.86C1374.25 286.7 1374.25 304.21 1385.4 304.05Z" fill="#007A4E" fill-opacity="0.6"/>
<path d="M1420.38 304.05C1431.53 304.21 1431.53 286.701 1420.38 286.86C1409.23 286.7 1409.23 304.21 1420.38 304.05Z" fill="#007A4E" fill-opacity="0.6"/>
<path d="M1280.39 312.03C1287.68 312.14 1287.68 300.681 1280.39 300.79C1273.1 300.68 1273.1 312.14 1280.39 312.03Z" fill="#007A4E" fill-opacity="0.6"/>
<path d="M1350.39 312.03C1357.68 312.14 1357.68 300.681 1350.39 300.79C1343.1 300.68 1343.1 312.14 1350.39 312.03Z" fill="#007A4E" fill-opacity="0.6"/>
<path d="M1455.39 312.03C1462.68 312.14 1462.68 300.68 1455.39 300.79C1448.1 300.68 1448.1 312.14 1455.39 312.03Z" fill="#007A4E" fill-opacity="0.6"/>
<path d="M1385.39 329.67C1395.44 329.819 1395.44 314.03 1385.39 314.18C1375.34 314.03 1375.34 329.82 1385.39 329.67Z" fill="#007A4E" fill-opacity="0.6"/>
<path d="M1420.39 329.67C1430.44 329.82 1430.44 314.03 1420.39 314.18C1410.34 314.03 1410.34 329.82 1420.39 329.67Z" fill="#007A4E" fill-opacity="0.6"/>
<path d="M1245.39 320.51C1249.48 320.569 1249.48 314.151 1245.39 314.21C1241.3 314.15 1241.3 320.57 1245.39 320.51Z" fill="#007A4E" fill-opacity="0.6"/>
<path d="M1315.39 320.51C1319.48 320.569 1319.48 314.151 1315.39 314.21C1311.3 314.15 1311.3 320.57 1315.39 320.51Z" fill="#007A4E" fill-opacity="0.6"/>
<path d="M1490.39 320.51C1494.48 320.569 1494.48 314.15 1490.39 314.21C1486.3 314.15 1486.3 320.569 1490.39 320.51Z" fill="#007A4E" fill-opacity="0.6"/>
<path d="M1280.4 337.26C1286.08 337.34 1286.08 328.42 1280.4 328.51C1274.72 328.43 1274.72 337.35 1280.4 337.26Z" fill="#007A4E" fill-opacity="0.6"/>
<path d="M1350.4 337.26C1356.08 337.34 1356.08 328.42 1350.4 328.51C1344.72 328.43 1344.72 337.35 1350.4 337.26Z" fill="#007A4E" fill-opacity="0.6"/>
<path d="M1455.38 337.26C1461.06 337.349 1461.06 328.43 1455.38 328.51C1449.7 328.42 1449.7 337.34 1455.38 337.26Z" fill="#007A4E" fill-opacity="0.6"/>
<path d="M1385.39 354.03C1392.68 354.14 1392.68 342.681 1385.39 342.79C1378.1 342.68 1378.1 354.14 1385.39 354.03Z" fill="#007A4E" fill-opacity="0.6"/>
<path d="M1420.39 354.03C1427.68 354.14 1427.68 342.68 1420.39 342.79C1413.1 342.68 1413.1 354.14 1420.39 354.03Z" fill="#007A4E" fill-opacity="0.6"/>
<path d="M1280.39 362.51C1284.48 362.569 1284.48 356.151 1280.39 356.21C1276.3 356.15 1276.3 362.57 1280.39 362.51Z" fill="#007A4E" fill-opacity="0.6"/>
<path d="M1350.39 362.51C1354.48 362.569 1354.48 356.151 1350.39 356.21C1346.3 356.15 1346.3 362.57 1350.39 362.51Z" fill="#007A4E" fill-opacity="0.6"/>
<path d="M1455.39 362.51C1459.48 362.569 1459.48 356.15 1455.39 356.21C1451.3 356.15 1451.3 362.569 1455.39 362.51Z" fill="#007A4E" fill-opacity="0.6"/>
<path d="M1385.4 379.26C1391.08 379.34 1391.08 370.42 1385.4 370.51C1379.72 370.43 1379.72 379.35 1385.4 379.26Z" fill="#007A4E" fill-opacity="0.6"/>
<path d="M1420.38 379.26C1426.06 379.349 1426.06 370.43 1420.38 370.51C1414.7 370.42 1414.7 379.34 1420.38 379.26Z" fill="#007A4E" fill-opacity="0.6"/>
<path d="M1385.39 404.51C1389.48 404.569 1389.48 398.151 1385.39 398.21C1381.3 398.15 1381.3 404.57 1385.39 404.51Z" fill="#007A4E" fill-opacity="0.6"/>
<path d="M1420.39 404.51C1424.48 404.569 1424.48 398.15 1420.39 398.21C1416.3 398.15 1416.3 404.569 1420.39 404.51Z" fill="#007A4E" fill-opacity="0.6"/>
</svg>
