<svg width="226" height="228" viewBox="0 0 226 228" fill="none" xmlns="http://www.w3.org/2000/svg">
<path d="M113.567 1.00015C262.107 3.54015 262.087 224.48 113.567 227C-34.9628 224.46 -34.9427 3.52015 113.567 1.00015Z" stroke="#1E2221" stroke-width="2" stroke-linecap="round" stroke-dasharray="7.53 7.53"/>
<path d="M94.3372 19.2701C217.597 21.37 217.577 204.71 94.3372 206.8C-28.9128 204.7 -28.8928 21.36 94.3372 19.2701Z" stroke="#1E2221" stroke-width="2" stroke-linecap="round" stroke-dasharray="7.53 7.53"/>
<path d="M74.6173 39.4701C171.957 41.1401 171.937 186.88 74.6173 188.53C-22.7127 186.86 -22.7027 41.1201 74.6173 39.4701Z" stroke="#1E2221" stroke-width="2" stroke-linecap="round"/>
<path d="M53.4572 61.5901C122.987 62.7701 122.977 165.24 53.4572 166.42C-16.0728 165.24 -16.0628 62.7701 53.4572 61.5901Z" stroke="#1E2221" stroke-width="2" stroke-linecap="round"/>
<path d="M31.3375 82.7502C71.7875 83.4402 71.7875 143.61 31.3375 144.3C-9.1125 143.61 -9.1125 83.4402 31.3375 82.7502Z" fill="#F2F6F3" stroke="#1E2221" stroke-width="2" stroke-linecap="round"/>
<path d="M117.348 58.2101C117.238 50.4201 129.478 50.4201 129.358 58.2101C129.468 66.0001 117.228 66.0001 117.348 58.2101Z" fill="#00D180" stroke="#1E2221" stroke-width="2"/>
<path d="M40.5775 140.2C40.4675 132.41 52.7075 132.41 52.5875 140.2C52.6975 147.99 40.4575 147.99 40.5775 140.2Z" fill="#00D180" stroke="#1E2221" stroke-width="2"/>
</svg>
