<svg width="171" height="1193" viewBox="0 0 171 1193" fill="none" xmlns="http://www.w3.org/2000/svg">
<g clip-path="url(#clip0_2968_11080)">
<path d="M383.32 1209.61C383.38 1195.76 404.45 1195.76 404.51 1209.61C404.45 1223.46 383.38 1223.46 383.32 1209.61Z" fill="#DEEBE5"/>
<path d="M383.32 889.612C383.38 875.763 404.45 875.763 404.51 889.612C404.45 903.462 383.38 903.462 383.32 889.612Z" fill="#DEEBE5"/>
<path d="M356.86 1209.61C356.921 1195.78 377.949 1195.78 378.01 1209.61C377.95 1223.44 356.92 1223.44 356.86 1209.61Z" fill="#DEEBE5"/>
<path d="M356.86 889.612C356.92 875.783 377.95 875.783 378.01 889.612C377.95 903.442 356.92 903.442 356.86 889.612Z" fill="#DEEBE5"/>
<path d="M341.32 1174.61C341.38 1160.76 362.45 1160.76 362.51 1174.61C362.45 1188.46 341.38 1188.46 341.32 1174.61Z" fill="#DEEBE5"/>
<path d="M341.32 1104.61C341.38 1090.76 362.45 1090.76 362.51 1104.61C362.45 1118.46 341.38 1118.46 341.32 1104.61Z" fill="#DEEBE5"/>
<path d="M341.32 929.612C341.38 915.763 362.45 915.763 362.51 929.612C362.45 943.462 341.38 943.462 341.32 929.612Z" fill="#DEEBE5"/>
<path d="M330.8 1209.61C330.611 1196.43 351.319 1196.43 351.12 1209.61C351.31 1222.79 330.6 1222.79 330.8 1209.61Z" fill="#DEEBE5"/>
<path d="M330.8 889.612C330.601 876.433 351.309 876.433 351.12 889.612C351.319 902.792 330.611 902.792 330.8 889.612Z" fill="#DEEBE5"/>
<path d="M314.86 1174.61C314.921 1160.78 335.949 1160.78 336.01 1174.61C335.95 1188.44 314.92 1188.44 314.86 1174.61Z" fill="#DEEBE5"/>
<path d="M314.86 1104.61C314.921 1090.78 335.949 1090.78 336.01 1104.61C335.95 1118.44 314.92 1118.44 314.86 1104.61Z" fill="#DEEBE5"/>
<path d="M314.86 929.612C314.92 915.783 335.95 915.783 336.01 929.612C335.95 943.442 314.92 943.442 314.86 929.612Z" fill="#DEEBE5"/>
<path d="M304.48 1209.61C304.291 1196.64 324.669 1196.64 324.48 1209.61C324.67 1222.58 304.29 1222.58 304.48 1209.61Z" fill="#DEEBE5"/>
<path d="M304.48 889.612C304.29 876.643 324.669 876.643 324.48 889.612C324.67 902.582 304.29 902.582 304.48 889.612Z" fill="#DEEBE5"/>
<path d="M299.32 1139.61C299.38 1125.76 320.45 1125.76 320.51 1139.61C320.45 1153.46 299.38 1153.46 299.32 1139.61Z" fill="#DEEBE5"/>
<path d="M299.32 1069.61C299.38 1055.76 320.45 1055.76 320.51 1069.61C320.45 1083.46 299.38 1083.46 299.32 1069.61Z" fill="#DEEBE5"/>
<path d="M299.32 964.613C299.38 950.763 320.45 950.763 320.51 964.613C320.45 978.462 299.38 978.462 299.32 964.613Z" fill="#DEEBE5"/>
<path d="M288.8 1174.61C288.611 1161.43 309.319 1161.43 309.12 1174.61C309.31 1187.79 288.6 1187.79 288.8 1174.61Z" fill="#DEEBE5"/>
<path d="M288.8 1104.61C288.611 1091.43 309.319 1091.43 309.12 1104.61C309.31 1117.79 288.6 1117.79 288.8 1104.61Z" fill="#DEEBE5"/>
<path d="M288.8 929.612C288.601 916.433 309.309 916.433 309.12 929.612C309.319 942.792 288.611 942.792 288.8 929.612Z" fill="#DEEBE5"/>
<path d="M278.55 1209.61C278.371 1197.34 297.649 1197.34 297.47 1209.61C297.65 1221.88 278.37 1221.88 278.55 1209.61Z" fill="#DEEBE5"/>
<path d="M278.55 889.612C278.371 877.343 297.65 877.343 297.47 889.612C297.65 901.882 278.371 901.882 278.55 889.612Z" fill="#DEEBE5"/>
<path d="M272.86 1139.61C272.921 1125.78 293.949 1125.78 294.01 1139.61C293.95 1153.44 272.92 1153.44 272.86 1139.61Z" fill="#DEEBE5"/>
<path d="M272.86 1069.61C272.921 1055.78 293.949 1055.78 294.01 1069.61C293.95 1083.44 272.92 1083.44 272.86 1069.61Z" fill="#DEEBE5"/>
<path d="M272.86 964.613C272.92 950.783 293.95 950.783 294.01 964.613C293.95 978.442 272.92 978.442 272.86 964.613Z" fill="#DEEBE5"/>
<path d="M262.48 1174.61C262.291 1161.64 282.669 1161.64 282.48 1174.61C282.67 1187.58 262.29 1187.58 262.48 1174.61Z" fill="#DEEBE5"/>
<path d="M262.48 1104.61C262.291 1091.64 282.669 1091.64 282.48 1104.61C282.67 1117.58 262.29 1117.58 262.48 1104.61Z" fill="#DEEBE5"/>
<path d="M262.48 929.612C262.29 916.643 282.669 916.643 282.48 929.612C282.67 942.582 262.29 942.582 262.48 929.612Z" fill="#DEEBE5"/>
<path d="M257.32 1034.61C257.38 1020.76 278.45 1020.76 278.51 1034.61C278.45 1048.46 257.38 1048.46 257.32 1034.61Z" fill="#DEEBE5"/>
<path d="M257.32 999.613C257.38 985.763 278.45 985.763 278.51 999.613C278.449 1013.46 257.38 1013.46 257.32 999.613Z" fill="#DEEBE5"/>
<path d="M252.39 1209.61C252.221 1197.76 270.829 1197.76 270.66 1209.61C270.83 1221.46 252.22 1221.46 252.39 1209.61Z" fill="#DEEBE5"/>
<path d="M252.39 889.612C252.221 877.763 270.829 877.763 270.66 889.612C270.829 901.462 252.22 901.462 252.39 889.612Z" fill="#DEEBE5"/>
<path d="M246.8 1139.61C246.611 1126.43 267.319 1126.43 267.12 1139.61C267.31 1152.79 246.6 1152.79 246.8 1139.61Z" fill="#DEEBE5"/>
<path d="M246.8 1069.61C246.611 1056.43 267.319 1056.43 267.12 1069.61C267.31 1082.79 246.6 1082.79 246.8 1069.61Z" fill="#DEEBE5"/>
<path d="M246.8 964.613C246.601 951.433 267.309 951.433 267.12 964.613C267.319 977.792 246.61 977.792 246.8 964.613Z" fill="#DEEBE5"/>
<path d="M236.55 1174.61C236.371 1162.34 255.649 1162.34 255.47 1174.61C255.65 1186.88 236.37 1186.88 236.55 1174.61Z" fill="#DEEBE5"/>
<path d="M236.55 1104.61C236.371 1092.34 255.649 1092.34 255.47 1104.61C255.65 1116.88 236.37 1116.88 236.55 1104.61Z" fill="#DEEBE5"/>
<path d="M236.55 929.612C236.371 917.343 255.65 917.343 255.47 929.612C255.65 941.882 236.371 941.882 236.55 929.612Z" fill="#DEEBE5"/>
<path d="M230.86 1034.61C230.92 1020.78 251.949 1020.78 252.01 1034.61C251.95 1048.44 230.92 1048.44 230.86 1034.61Z" fill="#DEEBE5"/>
<path d="M230.86 999.613C230.92 985.783 251.95 985.783 252.01 999.613C251.949 1013.44 230.921 1013.44 230.86 999.613Z" fill="#DEEBE5"/>
<path d="M226.46 1209.6C226.301 1198.45 243.809 1198.45 243.65 1209.6C243.81 1220.75 226.3 1220.75 226.46 1209.6Z" fill="#DEEBE5"/>
<path d="M226.46 889.622C226.301 878.473 243.809 878.473 243.65 889.622C243.81 900.772 226.3 900.772 226.46 889.622Z" fill="#DEEBE5"/>
<path d="M220.48 1139.61C220.291 1126.64 240.669 1126.64 240.48 1139.61C240.67 1152.58 220.29 1152.58 220.48 1139.61Z" fill="#DEEBE5"/>
<path d="M220.48 1069.61C220.291 1056.64 240.669 1056.64 240.48 1069.61C240.67 1082.58 220.29 1082.58 220.48 1069.61Z" fill="#DEEBE5"/>
<path d="M220.48 964.613C220.29 951.643 240.669 951.643 240.48 964.613C240.67 977.582 220.29 977.582 220.48 964.613Z" fill="#DEEBE5"/>
<path d="M210.39 1174.61C210.221 1162.76 228.829 1162.76 228.66 1174.61C228.83 1186.46 210.22 1186.46 210.39 1174.61Z" fill="#DEEBE5"/>
<path d="M210.39 1104.61C210.221 1092.76 228.829 1092.76 228.66 1104.61C228.83 1116.46 210.22 1116.46 210.39 1104.61Z" fill="#DEEBE5"/>
<path d="M210.39 929.612C210.221 917.763 228.829 917.763 228.66 929.612C228.829 941.462 210.22 941.462 210.39 929.612Z" fill="#DEEBE5"/>
<path d="M204.8 1034.61C204.611 1021.43 225.319 1021.43 225.12 1034.61C225.31 1047.79 204.6 1047.79 204.8 1034.61Z" fill="#DEEBE5"/>
<path d="M204.8 999.613C204.6 986.433 225.31 986.433 225.12 999.613C225.319 1012.79 204.611 1012.79 204.8 999.613Z" fill="#DEEBE5"/>
<path d="M200.84 1209.61C200.691 1199.56 216.48 1199.56 216.33 1209.61C216.48 1219.66 200.69 1219.66 200.84 1209.61Z" fill="#DEEBE5"/>
<path d="M200.84 889.612C200.691 879.563 216.48 879.563 216.33 889.612C216.48 899.662 200.691 899.662 200.84 889.612Z" fill="#DEEBE5"/>
<path d="M194.55 1139.61C194.371 1127.34 213.649 1127.34 213.47 1139.61C213.65 1151.88 194.37 1151.88 194.55 1139.61Z" fill="#DEEBE5"/>
<path d="M194.55 1069.61C194.371 1057.34 213.649 1057.34 213.47 1069.61C213.65 1081.88 194.37 1081.88 194.55 1069.61Z" fill="#DEEBE5"/>
<path d="M194.55 964.613C194.371 952.343 213.65 952.343 213.47 964.613C213.65 976.882 194.371 976.882 194.55 964.613Z" fill="#DEEBE5"/>
<path d="M184.46 1174.6C184.301 1163.45 201.809 1163.45 201.65 1174.6C201.81 1185.75 184.3 1185.75 184.46 1174.6Z" fill="#DEEBE5"/>
<path d="M184.46 1104.6C184.301 1093.45 201.809 1093.45 201.65 1104.6C201.81 1115.75 184.3 1115.75 184.46 1104.6Z" fill="#DEEBE5"/>
<path d="M184.46 929.622C184.301 918.473 201.809 918.473 201.65 929.622C201.81 940.772 184.3 940.772 184.46 929.622Z" fill="#DEEBE5"/>
<path d="M178.48 1034.61C178.291 1021.64 198.669 1021.64 198.48 1034.61C198.67 1047.58 178.29 1047.58 178.48 1034.61Z" fill="#DEEBE5"/>
<path d="M178.48 999.613C178.29 986.643 198.67 986.643 198.48 999.613C198.669 1012.58 178.291 1012.58 178.48 999.613Z" fill="#DEEBE5"/>
<path d="M176.48 1209.61C176.371 1202.32 187.829 1202.32 187.72 1209.61C187.83 1216.9 176.37 1216.9 176.48 1209.61Z" fill="#DEEBE5"/>
<path d="M176.48 889.612C176.37 882.323 187.83 882.323 187.72 889.612C187.83 896.902 176.37 896.902 176.48 889.612Z" fill="#DEEBE5"/>
<path d="M168.39 1139.61C168.221 1127.76 186.829 1127.76 186.66 1139.61C186.83 1151.46 168.22 1151.46 168.39 1139.61Z" fill="#DEEBE5"/>
<path d="M168.39 1069.61C168.221 1057.76 186.829 1057.76 186.66 1069.61C186.83 1081.46 168.22 1081.46 168.39 1069.61Z" fill="#DEEBE5"/>
<path d="M168.39 964.613C168.221 952.763 186.829 952.763 186.66 964.613C186.829 976.462 168.22 976.462 168.39 964.613Z" fill="#DEEBE5"/>
<path d="M158.84 1174.61C158.691 1164.56 174.48 1164.56 174.33 1174.61C174.48 1184.66 158.69 1184.66 158.84 1174.61Z" fill="#DEEBE5"/>
<path d="M158.84 1104.61C158.691 1094.56 174.48 1094.56 174.33 1104.61C174.48 1114.66 158.69 1114.66 158.84 1104.61Z" fill="#DEEBE5"/>
<path d="M158.84 929.612C158.691 919.563 174.48 919.563 174.33 929.612C174.48 939.662 158.691 939.662 158.84 929.612Z" fill="#DEEBE5"/>
<path d="M152.55 1034.61C152.371 1022.34 171.649 1022.34 171.47 1034.61C171.65 1046.88 152.37 1046.88 152.55 1034.61Z" fill="#DEEBE5"/>
<path d="M152.55 999.613C152.37 987.343 171.65 987.343 171.47 999.613C171.649 1011.88 152.371 1011.88 152.55 999.613Z" fill="#DEEBE5"/>
<path d="M151.25 1209.6C151.171 1203.92 160.09 1203.92 160 1209.6C160.08 1215.28 151.16 1215.28 151.25 1209.6Z" fill="#DEEBE5"/>
<path d="M151.25 889.622C151.161 883.943 160.08 883.943 160 889.622C160.09 895.302 151.17 895.302 151.25 889.622Z" fill="#DEEBE5"/>
<path d="M142.46 1139.6C142.301 1128.45 159.809 1128.45 159.65 1139.6C159.81 1150.75 142.3 1150.75 142.46 1139.6Z" fill="#DEEBE5"/>
<path d="M142.46 1069.6C142.301 1058.45 159.809 1058.45 159.65 1069.6C159.81 1080.75 142.3 1080.75 142.46 1069.6Z" fill="#DEEBE5"/>
<path d="M142.46 964.622C142.301 953.473 159.809 953.473 159.65 964.622C159.81 975.772 142.3 975.772 142.46 964.622Z" fill="#DEEBE5"/>
<path d="M134.48 1174.61C134.371 1167.32 145.829 1167.32 145.72 1174.61C145.83 1181.9 134.37 1181.9 134.48 1174.61Z" fill="#DEEBE5"/>
<path d="M134.48 1104.61C134.371 1097.32 145.829 1097.32 145.72 1104.61C145.83 1111.9 134.37 1111.9 134.48 1104.61Z" fill="#DEEBE5"/>
<path d="M134.48 929.612C134.37 922.323 145.83 922.323 145.72 929.612C145.83 936.902 134.37 936.902 134.48 929.612Z" fill="#DEEBE5"/>
<path d="M126.39 1034.61C126.221 1022.76 144.829 1022.76 144.66 1034.61C144.83 1046.46 126.22 1046.46 126.39 1034.61Z" fill="#DEEBE5"/>
<path d="M126.39 999.613C126.22 987.763 144.83 987.763 144.66 999.613C144.829 1011.46 126.221 1011.46 126.39 999.613Z" fill="#DEEBE5"/>
<path d="M116.84 1139.61C116.691 1129.56 132.48 1129.56 132.33 1139.61C132.48 1149.66 116.69 1149.66 116.84 1139.61Z" fill="#DEEBE5"/>
<path d="M116.84 1069.61C116.691 1059.56 132.48 1059.56 132.33 1069.61C132.48 1079.66 116.69 1079.66 116.84 1069.61Z" fill="#DEEBE5"/>
<path d="M116.84 964.613C116.691 954.563 132.48 954.563 132.33 964.613C132.48 974.662 116.691 974.662 116.84 964.613Z" fill="#DEEBE5"/>
<path d="M126 1209.61C125.941 1205.52 132.359 1205.52 132.3 1209.61C132.36 1213.7 125.94 1213.7 126 1209.61Z" fill="#DEEBE5"/>
<path d="M126 889.612C125.941 885.523 132.36 885.523 132.3 889.612C132.36 893.702 125.941 893.702 126 889.612Z" fill="#DEEBE5"/>
<path d="M109.25 1174.6C109.171 1168.92 118.09 1168.92 118 1174.6C118.08 1180.28 109.16 1180.28 109.25 1174.6Z" fill="#DEEBE5"/>
<path d="M109.25 1104.6C109.171 1098.92 118.09 1098.92 118 1104.6C118.08 1110.28 109.16 1110.28 109.25 1104.6Z" fill="#DEEBE5"/>
<path d="M109.25 929.622C109.161 923.943 118.08 923.943 118 929.622C118.09 935.302 109.17 935.302 109.25 929.622Z" fill="#DEEBE5"/>
<path d="M100.46 1034.6C100.301 1023.45 117.809 1023.45 117.65 1034.6C117.81 1045.75 100.3 1045.75 100.46 1034.6Z" fill="#DEEBE5"/>
<path d="M100.46 999.623C100.3 988.473 117.81 988.473 117.65 999.623C117.809 1010.77 100.301 1010.77 100.46 999.623Z" fill="#DEEBE5"/>
<path d="M92.4799 1139.61C92.3706 1132.32 103.829 1132.32 103.72 1139.61C103.83 1146.9 92.3699 1146.9 92.4799 1139.61Z" fill="#DEEBE5"/>
<path d="M92.4799 1069.61C92.3706 1062.32 103.829 1062.32 103.72 1069.61C103.83 1076.9 92.3699 1076.9 92.4799 1069.61Z" fill="#DEEBE5"/>
<path d="M92.4799 964.613C92.3704 957.323 103.83 957.323 103.72 964.613C103.83 971.902 92.3702 971.902 92.4799 964.613Z" fill="#DEEBE5"/>
<path d="M74.8403 1034.61C74.691 1024.56 90.4797 1024.56 90.3305 1034.61C90.4805 1044.66 74.6903 1044.66 74.8403 1034.61Z" fill="#DEEBE5"/>
<path d="M74.8403 999.613C74.6903 989.563 90.4805 989.563 90.3305 999.613C90.4796 1009.66 74.6911 1009.66 74.8403 999.613Z" fill="#DEEBE5"/>
<path d="M84.0004 1174.61C83.9412 1170.52 90.3594 1170.52 90.3002 1174.61C90.3602 1178.7 83.9404 1178.7 84.0004 1174.61Z" fill="#DEEBE5"/>
<path d="M84.0004 1104.61C83.9412 1100.52 90.3594 1100.52 90.3002 1104.61C90.3602 1108.7 83.9404 1108.7 84.0004 1104.61Z" fill="#DEEBE5"/>
<path d="M84.0004 929.612C83.9409 925.523 90.3597 925.523 90.3002 929.612C90.3598 933.702 83.9408 933.702 84.0004 929.612Z" fill="#DEEBE5"/>
<path d="M67.2504 1139.6C67.1708 1133.92 76.09 1133.92 76.0004 1139.6C76.0804 1145.28 67.1604 1145.28 67.2504 1139.6Z" fill="#DEEBE5"/>
<path d="M67.2504 1069.6C67.1708 1063.92 76.09 1063.92 76.0004 1069.6C76.0804 1075.28 67.1604 1075.28 67.2504 1069.6Z" fill="#DEEBE5"/>
<path d="M67.2504 964.622C67.1609 958.943 76.0799 958.943 76.0004 964.622C76.0904 970.302 67.1704 970.302 67.2504 964.622Z" fill="#DEEBE5"/>
<path d="M50.4799 1034.61C50.3706 1027.32 61.8294 1027.32 61.7201 1034.61C61.8301 1041.9 50.3699 1041.9 50.4799 1034.61Z" fill="#DEEBE5"/>
<path d="M50.4799 999.613C50.3699 992.323 61.8301 992.323 61.7201 999.613C61.8293 1006.9 50.3707 1006.9 50.4799 999.613Z" fill="#DEEBE5"/>
<path d="M42.0004 1139.61C41.9412 1135.52 48.3594 1135.52 48.3002 1139.61C48.3602 1143.7 41.9404 1143.7 42.0004 1139.61Z" fill="#DEEBE5"/>
<path d="M42.0004 1069.61C41.9412 1065.52 48.3594 1065.52 48.3002 1069.61C48.3602 1073.7 41.9404 1073.7 42.0004 1069.61Z" fill="#DEEBE5"/>
<path d="M42.0004 964.613C41.9409 960.523 48.3597 960.523 48.3002 964.613C48.3598 968.702 41.9408 968.702 42.0004 964.613Z" fill="#DEEBE5"/>
<path d="M25.2504 1034.6C25.1708 1028.92 34.09 1028.92 34.0004 1034.6C34.0804 1040.28 25.1604 1040.28 25.2504 1034.6Z" fill="#DEEBE5"/>
<path d="M25.2504 999.623C25.1604 993.943 34.0804 993.943 34.0004 999.623C34.0899 1005.3 25.1709 1005.3 25.2504 999.623Z" fill="#DEEBE5"/>
<path d="M0.000417974 1034.61C-0.0587721 1030.52 6.35941 1030.52 6.30022 1034.61C6.36022 1038.7 -0.059582 1038.7 0.000417974 1034.61Z" fill="#DEEBE5"/>
<path d="M0.000417974 999.613C-0.059582 995.523 6.36022 995.523 6.30022 999.613C6.35931 1003.7 -0.0586745 1003.7 0.000417974 999.613Z" fill="#DEEBE5"/>
<path d="M383.32 828.613C383.38 814.763 404.45 814.763 404.51 828.613C404.45 842.463 383.38 842.463 383.32 828.613Z" fill="#DEEBE5"/>
<path d="M383.32 508.612C383.38 494.763 404.45 494.763 404.51 508.612C404.45 522.462 383.38 522.462 383.32 508.612Z" fill="#DEEBE5"/>
<path d="M356.86 828.613C356.921 814.783 377.949 814.783 378.01 828.613C377.95 842.443 356.92 842.443 356.86 828.613Z" fill="#DEEBE5"/>
<path d="M356.86 508.612C356.92 494.783 377.95 494.783 378.01 508.612C377.95 522.442 356.92 522.442 356.86 508.612Z" fill="#DEEBE5"/>
<path d="M341.32 793.613C341.38 779.763 362.45 779.763 362.51 793.613C362.45 807.463 341.38 807.463 341.32 793.613Z" fill="#DEEBE5"/>
<path d="M341.32 723.613C341.38 709.763 362.45 709.763 362.51 723.613C362.45 737.463 341.38 737.463 341.32 723.613Z" fill="#DEEBE5"/>
<path d="M341.32 548.612C341.38 534.763 362.45 534.763 362.51 548.612C362.45 562.462 341.38 562.462 341.32 548.612Z" fill="#DEEBE5"/>
<path d="M330.8 828.613C330.611 815.433 351.319 815.433 351.12 828.613C351.31 841.793 330.6 841.793 330.8 828.613Z" fill="#DEEBE5"/>
<path d="M330.8 508.612C330.601 495.433 351.309 495.433 351.12 508.612C351.319 521.792 330.611 521.792 330.8 508.612Z" fill="#DEEBE5"/>
<path d="M314.86 793.613C314.921 779.783 335.949 779.783 336.01 793.613C335.95 807.443 314.92 807.443 314.86 793.613Z" fill="#DEEBE5"/>
<path d="M314.86 723.613C314.921 709.783 335.949 709.783 336.01 723.613C335.95 737.443 314.92 737.443 314.86 723.613Z" fill="#DEEBE5"/>
<path d="M314.86 548.612C314.92 534.783 335.95 534.783 336.01 548.612C335.95 562.442 314.92 562.442 314.86 548.612Z" fill="#DEEBE5"/>
<path d="M304.48 828.613C304.291 815.643 324.669 815.643 324.48 828.613C324.67 841.583 304.29 841.583 304.48 828.613Z" fill="#DEEBE5"/>
<path d="M304.48 508.612C304.29 495.643 324.669 495.643 324.48 508.612C324.67 521.582 304.29 521.582 304.48 508.612Z" fill="#DEEBE5"/>
<path d="M299.32 758.613C299.38 744.763 320.45 744.763 320.51 758.613C320.45 772.463 299.38 772.463 299.32 758.613Z" fill="#DEEBE5"/>
<path d="M299.32 688.613C299.38 674.763 320.45 674.763 320.51 688.613C320.45 702.463 299.38 702.463 299.32 688.613Z" fill="#DEEBE5"/>
<path d="M299.32 583.613C299.38 569.763 320.45 569.763 320.51 583.613C320.45 597.462 299.38 597.462 299.32 583.613Z" fill="#DEEBE5"/>
<path d="M288.8 793.613C288.611 780.433 309.319 780.433 309.12 793.613C309.31 806.793 288.6 806.793 288.8 793.613Z" fill="#DEEBE5"/>
<path d="M288.8 723.613C288.611 710.433 309.319 710.433 309.12 723.613C309.31 736.793 288.6 736.793 288.8 723.613Z" fill="#DEEBE5"/>
<path d="M288.8 548.612C288.601 535.433 309.309 535.433 309.12 548.612C309.319 561.792 288.611 561.792 288.8 548.612Z" fill="#DEEBE5"/>
<path d="M278.55 828.613C278.371 816.344 297.649 816.344 297.47 828.613C297.65 840.883 278.37 840.883 278.55 828.613Z" fill="#DEEBE5"/>
<path d="M278.55 508.612C278.371 496.343 297.65 496.343 297.47 508.612C297.65 520.882 278.371 520.882 278.55 508.612Z" fill="#DEEBE5"/>
<path d="M272.86 758.613C272.921 744.783 293.949 744.783 294.01 758.613C293.95 772.443 272.92 772.443 272.86 758.613Z" fill="#DEEBE5"/>
<path d="M272.86 688.613C272.921 674.783 293.949 674.783 294.01 688.613C293.95 702.443 272.92 702.443 272.86 688.613Z" fill="#DEEBE5"/>
<path d="M272.86 583.613C272.92 569.783 293.95 569.783 294.01 583.613C293.95 597.442 272.92 597.442 272.86 583.613Z" fill="#DEEBE5"/>
<path d="M262.48 793.613C262.291 780.643 282.669 780.643 282.48 793.613C282.67 806.583 262.29 806.583 262.48 793.613Z" fill="#DEEBE5"/>
<path d="M262.48 723.613C262.291 710.643 282.669 710.643 282.48 723.613C282.67 736.583 262.29 736.583 262.48 723.613Z" fill="#DEEBE5"/>
<path d="M262.48 548.612C262.29 535.643 282.669 535.643 282.48 548.612C282.67 561.582 262.29 561.582 262.48 548.612Z" fill="#DEEBE5"/>
<path d="M257.32 653.613C257.38 639.763 278.45 639.763 278.51 653.613C278.45 667.463 257.38 667.463 257.32 653.613Z" fill="#DEEBE5"/>
<path d="M257.32 618.614C257.38 604.764 278.45 604.764 278.51 618.614C278.449 632.463 257.38 632.463 257.32 618.614Z" fill="#DEEBE5"/>
<path d="M252.39 828.613C252.221 816.763 270.829 816.763 270.66 828.613C270.83 840.463 252.22 840.463 252.39 828.613Z" fill="#DEEBE5"/>
<path d="M252.39 508.612C252.221 496.763 270.829 496.763 270.66 508.612C270.829 520.462 252.22 520.462 252.39 508.612Z" fill="#DEEBE5"/>
<path d="M246.8 758.613C246.611 745.433 267.319 745.433 267.12 758.613C267.31 771.793 246.6 771.793 246.8 758.613Z" fill="#DEEBE5"/>
<path d="M246.8 688.613C246.611 675.433 267.319 675.433 267.12 688.613C267.31 701.793 246.6 701.793 246.8 688.613Z" fill="#DEEBE5"/>
<path d="M246.8 583.613C246.601 570.433 267.309 570.433 267.12 583.613C267.319 596.792 246.61 596.792 246.8 583.613Z" fill="#DEEBE5"/>
<path d="M236.55 793.613C236.371 781.344 255.649 781.344 255.47 793.613C255.65 805.883 236.37 805.883 236.55 793.613Z" fill="#DEEBE5"/>
<path d="M236.55 723.613C236.371 711.344 255.649 711.344 255.47 723.613C255.65 735.883 236.37 735.883 236.55 723.613Z" fill="#DEEBE5"/>
<path d="M236.55 548.612C236.371 536.343 255.65 536.343 255.47 548.612C255.65 560.882 236.371 560.882 236.55 548.612Z" fill="#DEEBE5"/>
<path d="M230.86 653.613C230.92 639.783 251.949 639.783 252.01 653.613C251.95 667.443 230.92 667.443 230.86 653.613Z" fill="#DEEBE5"/>
<path d="M230.86 618.614C230.92 604.784 251.95 604.784 252.01 618.614C251.949 632.443 230.921 632.443 230.86 618.614Z" fill="#DEEBE5"/>
<path d="M226.46 828.603C226.301 817.453 243.809 817.453 243.65 828.603C243.81 839.753 226.3 839.753 226.46 828.603Z" fill="#DEEBE5"/>
<path d="M226.46 508.622C226.301 497.473 243.809 497.473 243.65 508.622C243.81 519.772 226.3 519.772 226.46 508.622Z" fill="#DEEBE5"/>
<path d="M220.48 758.613C220.291 745.643 240.669 745.643 240.48 758.613C240.67 771.583 220.29 771.583 220.48 758.613Z" fill="#DEEBE5"/>
<path d="M220.48 688.613C220.291 675.643 240.669 675.643 240.48 688.613C240.67 701.583 220.29 701.583 220.48 688.613Z" fill="#DEEBE5"/>
<path d="M220.48 583.613C220.29 570.643 240.669 570.643 240.48 583.613C240.67 596.582 220.29 596.582 220.48 583.613Z" fill="#DEEBE5"/>
<path d="M210.39 793.613C210.221 781.763 228.829 781.763 228.66 793.613C228.83 805.463 210.22 805.463 210.39 793.613Z" fill="#DEEBE5"/>
<path d="M210.39 723.613C210.221 711.763 228.829 711.763 228.66 723.613C228.83 735.463 210.22 735.463 210.39 723.613Z" fill="#DEEBE5"/>
<path d="M210.39 548.612C210.221 536.763 228.829 536.763 228.66 548.612C228.829 560.462 210.22 560.462 210.39 548.612Z" fill="#DEEBE5"/>
<path d="M204.8 653.613C204.611 640.433 225.319 640.433 225.12 653.613C225.31 666.793 204.6 666.793 204.8 653.613Z" fill="#DEEBE5"/>
<path d="M204.8 618.614C204.6 605.434 225.31 605.434 225.12 618.614C225.319 631.793 204.611 631.793 204.8 618.614Z" fill="#DEEBE5"/>
<path d="M200.84 828.613C200.691 818.563 216.48 818.564 216.33 828.613C216.48 838.663 200.69 838.663 200.84 828.613Z" fill="#DEEBE5"/>
<path d="M200.84 508.612C200.691 498.563 216.48 498.563 216.33 508.612C216.48 518.662 200.691 518.662 200.84 508.612Z" fill="#DEEBE5"/>
<path d="M194.55 758.613C194.371 746.344 213.649 746.344 213.47 758.613C213.65 770.883 194.37 770.883 194.55 758.613Z" fill="#DEEBE5"/>
<path d="M194.55 688.613C194.371 676.344 213.649 676.344 213.47 688.613C213.65 700.883 194.37 700.883 194.55 688.613Z" fill="#DEEBE5"/>
<path d="M194.55 583.613C194.371 571.343 213.65 571.343 213.47 583.613C213.65 595.882 194.371 595.882 194.55 583.613Z" fill="#DEEBE5"/>
<path d="M184.46 793.603C184.301 782.453 201.809 782.453 201.65 793.603C201.81 804.753 184.3 804.753 184.46 793.603Z" fill="#DEEBE5"/>
<path d="M184.46 723.603C184.301 712.453 201.809 712.453 201.65 723.603C201.81 734.753 184.3 734.753 184.46 723.603Z" fill="#DEEBE5"/>
<path d="M184.46 548.622C184.301 537.473 201.809 537.473 201.65 548.622C201.81 559.772 184.3 559.772 184.46 548.622Z" fill="#DEEBE5"/>
<path d="M178.48 653.613C178.291 640.643 198.669 640.643 198.48 653.613C198.67 666.583 178.29 666.583 178.48 653.613Z" fill="#DEEBE5"/>
<path d="M178.48 618.614C178.29 605.644 198.67 605.644 198.48 618.614C198.669 631.583 178.291 631.583 178.48 618.614Z" fill="#DEEBE5"/>
<path d="M176.48 828.613C176.371 821.323 187.829 821.323 187.72 828.613C187.83 835.903 176.37 835.903 176.48 828.613Z" fill="#DEEBE5"/>
<path d="M176.48 508.612C176.37 501.323 187.83 501.323 187.72 508.612C187.83 515.902 176.37 515.902 176.48 508.612Z" fill="#DEEBE5"/>
<path d="M168.39 758.613C168.221 746.763 186.829 746.763 186.66 758.613C186.83 770.463 168.22 770.463 168.39 758.613Z" fill="#DEEBE5"/>
<path d="M168.39 688.613C168.221 676.763 186.829 676.763 186.66 688.613C186.83 700.463 168.22 700.463 168.39 688.613Z" fill="#DEEBE5"/>
<path d="M168.39 583.613C168.221 571.763 186.829 571.763 186.66 583.613C186.829 595.462 168.22 595.462 168.39 583.613Z" fill="#DEEBE5"/>
<path d="M158.84 793.613C158.691 783.563 174.48 783.564 174.33 793.613C174.48 803.663 158.69 803.663 158.84 793.613Z" fill="#DEEBE5"/>
<path d="M158.84 723.613C158.691 713.564 174.48 713.564 174.33 723.613C174.48 733.663 158.69 733.663 158.84 723.613Z" fill="#DEEBE5"/>
<path d="M158.84 548.612C158.691 538.563 174.48 538.563 174.33 548.612C174.48 558.662 158.691 558.662 158.84 548.612Z" fill="#DEEBE5"/>
<path d="M152.55 653.613C152.371 641.344 171.649 641.344 171.47 653.613C171.65 665.883 152.37 665.883 152.55 653.613Z" fill="#DEEBE5"/>
<path d="M152.55 618.614C152.37 606.344 171.65 606.344 171.47 618.614C171.649 630.882 152.371 630.882 152.55 618.614Z" fill="#DEEBE5"/>
<path d="M151.25 828.603C151.171 822.923 160.09 822.923 160 828.603C160.08 834.283 151.16 834.283 151.25 828.603Z" fill="#DEEBE5"/>
<path d="M151.25 508.622C151.161 502.943 160.08 502.943 160 508.622C160.09 514.302 151.17 514.302 151.25 508.622Z" fill="#DEEBE5"/>
<path d="M142.46 758.603C142.301 747.453 159.809 747.453 159.65 758.603C159.81 769.753 142.3 769.753 142.46 758.603Z" fill="#DEEBE5"/>
<path d="M142.46 688.603C142.301 677.453 159.809 677.453 159.65 688.603C159.81 699.753 142.3 699.753 142.46 688.603Z" fill="#DEEBE5"/>
<path d="M142.46 583.622C142.301 572.473 159.809 572.473 159.65 583.622C159.81 594.772 142.3 594.772 142.46 583.622Z" fill="#DEEBE5"/>
<path d="M134.48 793.613C134.371 786.323 145.829 786.323 145.72 793.613C145.83 800.903 134.37 800.903 134.48 793.613Z" fill="#DEEBE5"/>
<path d="M134.48 723.613C134.371 716.323 145.829 716.323 145.72 723.613C145.83 730.903 134.37 730.903 134.48 723.613Z" fill="#DEEBE5"/>
<path d="M134.48 548.612C134.37 541.323 145.83 541.323 145.72 548.612C145.83 555.902 134.37 555.902 134.48 548.612Z" fill="#DEEBE5"/>
<path d="M126.39 653.613C126.221 641.763 144.829 641.763 144.66 653.613C144.83 665.463 126.22 665.463 126.39 653.613Z" fill="#DEEBE5"/>
<path d="M126.39 618.614C126.22 606.764 144.83 606.764 144.66 618.614C144.829 630.463 126.221 630.463 126.39 618.614Z" fill="#DEEBE5"/>
<path d="M116.84 758.613C116.691 748.564 132.48 748.564 132.33 758.613C132.48 768.663 116.69 768.663 116.84 758.613Z" fill="#DEEBE5"/>
<path d="M116.84 688.613C116.691 678.564 132.48 678.564 132.33 688.613C132.48 698.663 116.69 698.663 116.84 688.613Z" fill="#DEEBE5"/>
<path d="M116.84 583.613C116.691 573.563 132.48 573.563 132.33 583.613C132.48 593.662 116.691 593.662 116.84 583.613Z" fill="#DEEBE5"/>
<path d="M126 828.613C125.941 824.524 132.359 824.524 132.3 828.613C132.36 832.703 125.94 832.703 126 828.613Z" fill="#DEEBE5"/>
<path d="M126 508.612C125.941 504.523 132.36 504.523 132.3 508.612C132.36 512.702 125.941 512.702 126 508.612Z" fill="#DEEBE5"/>
<path d="M109.25 793.603C109.171 787.923 118.09 787.923 118 793.603C118.08 799.283 109.16 799.283 109.25 793.603Z" fill="#DEEBE5"/>
<path d="M109.25 723.603C109.171 717.923 118.09 717.923 118 723.603C118.08 729.283 109.16 729.283 109.25 723.603Z" fill="#DEEBE5"/>
<path d="M109.25 548.622C109.161 542.943 118.08 542.943 118 548.622C118.09 554.302 109.17 554.302 109.25 548.622Z" fill="#DEEBE5"/>
<path d="M100.46 653.603C100.301 642.453 117.809 642.453 117.65 653.603C117.81 664.753 100.3 664.753 100.46 653.603Z" fill="#DEEBE5"/>
<path d="M100.46 618.623C100.3 607.473 117.81 607.473 117.65 618.623C117.809 629.773 100.301 629.773 100.46 618.623Z" fill="#DEEBE5"/>
<path d="M92.4799 758.613C92.3706 751.323 103.829 751.323 103.72 758.613C103.83 765.903 92.3699 765.903 92.4799 758.613Z" fill="#DEEBE5"/>
<path d="M92.4799 688.613C92.3706 681.323 103.829 681.323 103.72 688.613C103.83 695.903 92.3699 695.903 92.4799 688.613Z" fill="#DEEBE5"/>
<path d="M92.4799 583.613C92.3704 576.323 103.83 576.323 103.72 583.613C103.83 590.902 92.3702 590.902 92.4799 583.613Z" fill="#DEEBE5"/>
<path d="M74.8403 653.613C74.691 643.564 90.4797 643.564 90.3305 653.613C90.4805 663.663 74.6903 663.663 74.8403 653.613Z" fill="#DEEBE5"/>
<path d="M74.8403 618.614C74.6903 608.564 90.4805 608.564 90.3305 618.614C90.4796 628.662 74.6911 628.662 74.8403 618.614Z" fill="#DEEBE5"/>
<path d="M84.0004 793.613C83.9412 789.524 90.3594 789.524 90.3002 793.613C90.3602 797.703 83.9404 797.703 84.0004 793.613Z" fill="#DEEBE5"/>
<path d="M84.0004 723.613C83.9412 719.524 90.3594 719.524 90.3002 723.613C90.3602 727.703 83.9404 727.703 84.0004 723.613Z" fill="#DEEBE5"/>
<path d="M84.0004 548.612C83.9409 544.523 90.3597 544.523 90.3002 548.612C90.3598 552.702 83.9408 552.702 84.0004 548.612Z" fill="#DEEBE5"/>
<path d="M67.2504 758.603C67.1708 752.923 76.09 752.923 76.0004 758.603C76.0804 764.283 67.1604 764.283 67.2504 758.603Z" fill="#DEEBE5"/>
<path d="M67.2504 688.603C67.1708 682.923 76.09 682.923 76.0004 688.603C76.0804 694.283 67.1604 694.283 67.2504 688.603Z" fill="#DEEBE5"/>
<path d="M67.2504 583.622C67.1609 577.943 76.0799 577.943 76.0004 583.622C76.0904 589.302 67.1704 589.302 67.2504 583.622Z" fill="#DEEBE5"/>
<path d="M50.4799 653.613C50.3706 646.323 61.8294 646.323 61.7201 653.613C61.8301 660.903 50.3699 660.903 50.4799 653.613Z" fill="#DEEBE5"/>
<path d="M50.4799 618.614C50.3699 611.324 61.8301 611.324 61.7201 618.614C61.8293 625.903 50.3707 625.903 50.4799 618.614Z" fill="#DEEBE5"/>
<path d="M42.0004 758.613C41.9412 754.524 48.3594 754.524 48.3002 758.613C48.3602 762.703 41.9404 762.703 42.0004 758.613Z" fill="#DEEBE5"/>
<path d="M42.0004 688.613C41.9412 684.524 48.3594 684.524 48.3002 688.613C48.3602 692.703 41.9404 692.703 42.0004 688.613Z" fill="#DEEBE5"/>
<path d="M42.0004 583.613C41.9409 579.523 48.3597 579.523 48.3002 583.613C48.3598 587.702 41.9408 587.702 42.0004 583.613Z" fill="#DEEBE5"/>
<path d="M25.2504 653.603C25.1708 647.923 34.09 647.923 34.0004 653.603C34.0804 659.283 25.1604 659.283 25.2504 653.603Z" fill="#DEEBE5"/>
<path d="M25.2504 618.623C25.1604 612.943 34.0804 612.943 34.0004 618.623C34.0899 624.303 25.1709 624.303 25.2504 618.623Z" fill="#DEEBE5"/>
<path d="M0.000417974 653.613C-0.0587721 649.524 6.35941 649.524 6.30022 653.613C6.36022 657.703 -0.059582 657.703 0.000417974 653.613Z" fill="#DEEBE5"/>
<path d="M0.000417974 618.614C-0.059582 614.524 6.36022 614.524 6.30022 618.614C6.35931 622.702 -0.0586745 622.702 0.000417974 618.614Z" fill="#DEEBE5"/>
<path d="M383.32 407.612C383.38 393.763 404.45 393.763 404.51 407.612C404.45 421.462 383.38 421.462 383.32 407.612Z" fill="#DEEBE5"/>
<path d="M383.32 87.6125C383.38 73.7632 404.45 73.7632 404.51 87.6125C404.45 101.462 383.38 101.462 383.32 87.6125Z" fill="#DEEBE5"/>
<path d="M356.86 407.612C356.921 393.783 377.949 393.783 378.01 407.612C377.95 421.443 356.92 421.443 356.86 407.612Z" fill="#DEEBE5"/>
<path d="M356.86 87.6125C356.92 73.7832 377.95 73.7832 378.01 87.6125C377.95 101.442 356.92 101.442 356.86 87.6125Z" fill="#DEEBE5"/>
<path d="M341.32 372.612C341.38 358.763 362.45 358.763 362.51 372.612C362.45 386.462 341.38 386.462 341.32 372.612Z" fill="#DEEBE5"/>
<path d="M341.32 302.613C341.38 288.763 362.45 288.763 362.51 302.613C362.45 316.463 341.38 316.463 341.32 302.613Z" fill="#DEEBE5"/>
<path d="M341.32 127.613C341.38 113.763 362.45 113.763 362.51 127.613C362.45 141.462 341.38 141.462 341.32 127.613Z" fill="#DEEBE5"/>
<path d="M330.8 407.612C330.611 394.433 351.319 394.433 351.12 407.612C351.31 420.792 330.6 420.792 330.8 407.612Z" fill="#DEEBE5"/>
<path d="M330.8 87.6125C330.601 74.4332 351.309 74.4332 351.12 87.6125C351.319 100.792 330.611 100.792 330.8 87.6125Z" fill="#DEEBE5"/>
<path d="M314.86 372.612C314.921 358.783 335.949 358.783 336.01 372.612C335.95 386.443 314.92 386.443 314.86 372.612Z" fill="#DEEBE5"/>
<path d="M314.86 302.613C314.921 288.783 335.949 288.783 336.01 302.613C335.95 316.443 314.92 316.443 314.86 302.613Z" fill="#DEEBE5"/>
<path d="M314.86 127.613C314.92 113.783 335.95 113.783 336.01 127.613C335.95 141.442 314.92 141.442 314.86 127.613Z" fill="#DEEBE5"/>
<path d="M304.48 407.612C304.291 394.643 324.669 394.643 324.48 407.612C324.67 420.583 304.29 420.583 304.48 407.612Z" fill="#DEEBE5"/>
<path d="M304.48 87.6125C304.29 74.6432 324.669 74.6432 324.48 87.6125C324.67 100.582 304.29 100.582 304.48 87.6125Z" fill="#DEEBE5"/>
<path d="M299.32 337.613C299.38 323.763 320.45 323.763 320.51 337.613C320.45 351.463 299.38 351.463 299.32 337.613Z" fill="#DEEBE5"/>
<path d="M299.32 267.613C299.38 253.763 320.45 253.763 320.51 267.613C320.45 281.463 299.38 281.463 299.32 267.613Z" fill="#DEEBE5"/>
<path d="M299.32 162.613C299.38 148.763 320.45 148.763 320.51 162.613C320.45 176.462 299.38 176.462 299.32 162.613Z" fill="#DEEBE5"/>
<path d="M288.8 372.612C288.611 359.433 309.319 359.433 309.12 372.612C309.31 385.792 288.6 385.792 288.8 372.612Z" fill="#DEEBE5"/>
<path d="M288.8 302.613C288.611 289.433 309.319 289.433 309.12 302.613C309.31 315.793 288.6 315.793 288.8 302.613Z" fill="#DEEBE5"/>
<path d="M288.8 127.613C288.601 114.433 309.309 114.433 309.12 127.613C309.319 140.792 288.611 140.792 288.8 127.613Z" fill="#DEEBE5"/>
<path d="M278.55 407.612C278.371 395.344 297.649 395.344 297.47 407.612C297.65 419.883 278.37 419.883 278.55 407.612Z" fill="#DEEBE5"/>
<path d="M278.55 87.6125C278.371 75.3431 297.65 75.3431 297.47 87.6125C297.65 99.8821 278.371 99.8821 278.55 87.6125Z" fill="#DEEBE5"/>
<path d="M272.86 337.613C272.921 323.783 293.949 323.783 294.01 337.613C293.95 351.443 272.92 351.443 272.86 337.613Z" fill="#DEEBE5"/>
<path d="M272.86 267.613C272.921 253.783 293.949 253.783 294.01 267.613C293.95 281.443 272.92 281.443 272.86 267.613Z" fill="#DEEBE5"/>
<path d="M272.86 162.613C272.92 148.783 293.95 148.783 294.01 162.613C293.95 176.442 272.92 176.442 272.86 162.613Z" fill="#DEEBE5"/>
<path d="M262.48 372.612C262.291 359.643 282.669 359.643 282.48 372.612C282.67 385.583 262.29 385.583 262.48 372.612Z" fill="#DEEBE5"/>
<path d="M262.48 302.613C262.291 289.643 282.669 289.643 282.48 302.613C282.67 315.583 262.29 315.583 262.48 302.613Z" fill="#DEEBE5"/>
<path d="M262.48 127.613C262.29 114.643 282.669 114.643 282.48 127.613C282.67 140.582 262.29 140.582 262.48 127.613Z" fill="#DEEBE5"/>
<path d="M257.32 232.613C257.38 218.763 278.45 218.763 278.51 232.613C278.45 246.463 257.38 246.463 257.32 232.613Z" fill="#DEEBE5"/>
<path d="M257.32 197.614C257.38 183.764 278.45 183.764 278.51 197.614C278.449 211.463 257.38 211.463 257.32 197.614Z" fill="#DEEBE5"/>
<path d="M252.39 407.612C252.221 395.763 270.829 395.763 270.66 407.612C270.83 419.462 252.22 419.462 252.39 407.612Z" fill="#DEEBE5"/>
<path d="M252.39 87.6125C252.221 75.7632 270.829 75.7632 270.66 87.6125C270.829 99.4623 252.22 99.4623 252.39 87.6125Z" fill="#DEEBE5"/>
<path d="M246.8 337.613C246.611 324.433 267.319 324.433 267.12 337.613C267.31 350.793 246.6 350.793 246.8 337.613Z" fill="#DEEBE5"/>
<path d="M246.8 267.613C246.611 254.433 267.319 254.433 267.12 267.613C267.31 280.793 246.6 280.793 246.8 267.613Z" fill="#DEEBE5"/>
<path d="M246.8 162.613C246.601 149.433 267.309 149.433 267.12 162.613C267.319 175.792 246.61 175.792 246.8 162.613Z" fill="#DEEBE5"/>
<path d="M236.55 372.612C236.371 360.344 255.649 360.344 255.47 372.612C255.65 384.883 236.37 384.883 236.55 372.612Z" fill="#DEEBE5"/>
<path d="M236.55 302.613C236.371 290.344 255.649 290.344 255.47 302.613C255.65 314.883 236.37 314.883 236.55 302.613Z" fill="#DEEBE5"/>
<path d="M236.55 127.613C236.371 115.343 255.65 115.343 255.47 127.613C255.65 139.882 236.371 139.882 236.55 127.613Z" fill="#DEEBE5"/>
<path d="M230.86 232.613C230.92 218.783 251.949 218.783 252.01 232.613C251.95 246.443 230.92 246.443 230.86 232.613Z" fill="#DEEBE5"/>
<path d="M230.86 197.614C230.92 183.784 251.95 183.784 252.01 197.614C251.949 211.443 230.921 211.443 230.86 197.614Z" fill="#DEEBE5"/>
<path d="M226.46 407.603C226.301 396.453 243.809 396.453 243.65 407.603C243.81 418.753 226.3 418.753 226.46 407.603Z" fill="#DEEBE5"/>
<path d="M226.46 87.6223C226.301 76.4729 243.809 76.4729 243.65 87.6223C243.81 98.7722 226.3 98.7722 226.46 87.6223Z" fill="#DEEBE5"/>
<path d="M220.48 337.613C220.291 324.643 240.669 324.643 240.48 337.613C240.67 350.583 220.29 350.583 220.48 337.613Z" fill="#DEEBE5"/>
<path d="M220.48 267.613C220.291 254.643 240.669 254.643 240.48 267.613C240.67 280.583 220.29 280.583 220.48 267.613Z" fill="#DEEBE5"/>
<path d="M220.48 162.613C220.29 149.643 240.669 149.643 240.48 162.613C240.67 175.582 220.29 175.582 220.48 162.613Z" fill="#DEEBE5"/>
<path d="M210.39 372.612C210.221 360.763 228.829 360.763 228.66 372.612C228.83 384.462 210.22 384.462 210.39 372.612Z" fill="#DEEBE5"/>
<path d="M210.39 302.613C210.221 290.763 228.829 290.763 228.66 302.613C228.83 314.463 210.22 314.463 210.39 302.613Z" fill="#DEEBE5"/>
<path d="M210.39 127.613C210.221 115.763 228.829 115.763 228.66 127.613C228.829 139.462 210.22 139.462 210.39 127.613Z" fill="#DEEBE5"/>
<path d="M204.8 232.613C204.611 219.433 225.319 219.433 225.12 232.613C225.31 245.793 204.6 245.793 204.8 232.613Z" fill="#DEEBE5"/>
<path d="M204.8 197.614C204.6 184.434 225.31 184.434 225.12 197.614C225.319 210.793 204.611 210.793 204.8 197.614Z" fill="#DEEBE5"/>
<path d="M200.84 407.612C200.691 397.563 216.48 397.563 216.33 407.612C216.48 417.662 200.69 417.662 200.84 407.612Z" fill="#DEEBE5"/>
<path d="M200.84 87.6125C200.691 77.5632 216.48 77.5632 216.33 87.6125C216.48 97.6621 200.691 97.6621 200.84 87.6125Z" fill="#DEEBE5"/>
<path d="M194.55 337.613C194.371 325.344 213.649 325.344 213.47 337.613C213.65 349.883 194.37 349.883 194.55 337.613Z" fill="#DEEBE5"/>
<path d="M194.55 267.613C194.371 255.344 213.649 255.344 213.47 267.613C213.65 279.883 194.37 279.883 194.55 267.613Z" fill="#DEEBE5"/>
<path d="M194.55 162.613C194.371 150.343 213.65 150.343 213.47 162.613C213.65 174.882 194.371 174.882 194.55 162.613Z" fill="#DEEBE5"/>
<path d="M184.46 372.603C184.301 361.453 201.809 361.453 201.65 372.603C201.81 383.753 184.3 383.753 184.46 372.603Z" fill="#DEEBE5"/>
<path d="M184.46 302.603C184.301 291.453 201.809 291.453 201.65 302.603C201.81 313.753 184.3 313.753 184.46 302.603Z" fill="#DEEBE5"/>
<path d="M184.46 127.622C184.301 116.473 201.809 116.473 201.65 127.622C201.81 138.772 184.3 138.772 184.46 127.622Z" fill="#DEEBE5"/>
<path d="M178.48 232.613C178.291 219.643 198.669 219.643 198.48 232.613C198.67 245.583 178.29 245.583 178.48 232.613Z" fill="#DEEBE5"/>
<path d="M178.48 197.614C178.29 184.644 198.67 184.644 198.48 197.614C198.669 210.583 178.291 210.583 178.48 197.614Z" fill="#DEEBE5"/>
<path d="M176.48 407.612C176.371 400.323 187.829 400.323 187.72 407.612C187.83 414.902 176.37 414.902 176.48 407.612Z" fill="#DEEBE5"/>
<path d="M176.48 87.6125C176.37 80.3232 187.83 80.3232 187.72 87.6125C187.83 94.9022 176.37 94.9022 176.48 87.6125Z" fill="#DEEBE5"/>
<path d="M168.39 337.613C168.221 325.763 186.829 325.763 186.66 337.613C186.83 349.463 168.22 349.463 168.39 337.613Z" fill="#DEEBE5"/>
<path d="M168.39 267.613C168.221 255.763 186.829 255.763 186.66 267.613C186.83 279.463 168.22 279.463 168.39 267.613Z" fill="#DEEBE5"/>
<path d="M168.39 162.613C168.221 150.763 186.829 150.763 186.66 162.613C186.829 174.462 168.22 174.462 168.39 162.613Z" fill="#DEEBE5"/>
<path d="M158.84 372.612C158.691 362.563 174.48 362.563 174.33 372.612C174.48 382.662 158.69 382.662 158.84 372.612Z" fill="#DEEBE5"/>
<path d="M158.84 302.613C158.691 292.564 174.48 292.564 174.33 302.613C174.48 312.663 158.69 312.663 158.84 302.613Z" fill="#DEEBE5"/>
<path d="M158.84 127.613C158.691 117.563 174.48 117.563 174.33 127.613C174.48 137.662 158.691 137.662 158.84 127.613Z" fill="#DEEBE5"/>
<path d="M152.55 232.613C152.371 220.344 171.649 220.344 171.47 232.613C171.65 244.883 152.37 244.883 152.55 232.613Z" fill="#DEEBE5"/>
<path d="M152.55 197.614C152.37 185.344 171.65 185.344 171.47 197.614C171.649 209.882 152.371 209.882 152.55 197.614Z" fill="#DEEBE5"/>
<path d="M151.25 407.603C151.171 401.923 160.09 401.923 160 407.603C160.08 413.283 151.16 413.283 151.25 407.603Z" fill="#DEEBE5"/>
<path d="M151.25 87.6223C151.161 81.943 160.08 81.943 160 87.6223C160.09 93.3022 151.17 93.3022 151.25 87.6223Z" fill="#DEEBE5"/>
<path d="M142.46 337.603C142.301 326.453 159.809 326.453 159.65 337.603C159.81 348.753 142.3 348.753 142.46 337.603Z" fill="#DEEBE5"/>
<path d="M142.46 267.603C142.301 256.453 159.809 256.453 159.65 267.603C159.81 278.753 142.3 278.753 142.46 267.603Z" fill="#DEEBE5"/>
<path d="M142.46 162.622C142.301 151.473 159.809 151.473 159.65 162.622C159.81 173.772 142.3 173.772 142.46 162.622Z" fill="#DEEBE5"/>
<path d="M134.48 372.612C134.371 365.323 145.829 365.323 145.72 372.612C145.83 379.902 134.37 379.902 134.48 372.612Z" fill="#DEEBE5"/>
<path d="M134.48 302.613C134.371 295.323 145.829 295.323 145.72 302.613C145.83 309.903 134.37 309.903 134.48 302.613Z" fill="#DEEBE5"/>
<path d="M134.48 127.613C134.37 120.323 145.83 120.323 145.72 127.613C145.83 134.902 134.37 134.902 134.48 127.613Z" fill="#DEEBE5"/>
<path d="M126.39 232.613C126.221 220.763 144.829 220.763 144.66 232.613C144.83 244.463 126.22 244.463 126.39 232.613Z" fill="#DEEBE5"/>
<path d="M126.39 197.614C126.22 185.764 144.83 185.764 144.66 197.614C144.829 209.463 126.221 209.463 126.39 197.614Z" fill="#DEEBE5"/>
<path d="M116.84 337.613C116.691 327.564 132.48 327.564 132.33 337.613C132.48 347.663 116.69 347.663 116.84 337.613Z" fill="#DEEBE5"/>
<path d="M116.84 267.613C116.691 257.564 132.48 257.564 132.33 267.613C132.48 277.663 116.69 277.663 116.84 267.613Z" fill="#DEEBE5"/>
<path d="M116.84 162.613C116.691 152.563 132.48 152.563 132.33 162.613C132.48 172.662 116.691 172.662 116.84 162.613Z" fill="#DEEBE5"/>
<path d="M126 407.612C125.941 403.523 132.359 403.523 132.3 407.612C132.36 411.703 125.94 411.703 126 407.612Z" fill="#DEEBE5"/>
<path d="M126 87.6125C125.941 83.5232 132.36 83.5232 132.3 87.6125C132.36 91.702 125.941 91.702 126 87.6125Z" fill="#DEEBE5"/>
<path d="M109.25 372.603C109.171 366.923 118.09 366.923 118 372.603C118.08 378.283 109.16 378.283 109.25 372.603Z" fill="#DEEBE5"/>
<path d="M109.25 302.603C109.171 296.923 118.09 296.923 118 302.603C118.08 308.283 109.16 308.283 109.25 302.603Z" fill="#DEEBE5"/>
<path d="M109.25 127.622C109.161 121.943 118.08 121.943 118 127.622C118.09 133.302 109.17 133.302 109.25 127.622Z" fill="#DEEBE5"/>
<path d="M100.46 232.603C100.301 221.453 117.809 221.453 117.65 232.603C117.81 243.753 100.3 243.753 100.46 232.603Z" fill="#DEEBE5"/>
<path d="M100.46 197.623C100.3 186.473 117.81 186.473 117.65 197.623C117.809 208.773 100.301 208.773 100.46 197.623Z" fill="#DEEBE5"/>
<path d="M92.4799 337.613C92.3706 330.323 103.829 330.323 103.72 337.613C103.83 344.903 92.3699 344.903 92.4799 337.613Z" fill="#DEEBE5"/>
<path d="M92.4799 267.613C92.3706 260.323 103.829 260.323 103.72 267.613C103.83 274.903 92.3699 274.903 92.4799 267.613Z" fill="#DEEBE5"/>
<path d="M92.4799 162.613C92.3704 155.323 103.83 155.323 103.72 162.613C103.83 169.902 92.3702 169.902 92.4799 162.613Z" fill="#DEEBE5"/>
<path d="M74.8403 232.613C74.691 222.564 90.4797 222.564 90.3305 232.613C90.4805 242.663 74.6903 242.663 74.8403 232.613Z" fill="#DEEBE5"/>
<path d="M74.8403 197.614C74.6903 187.563 90.4805 187.563 90.3305 197.614C90.4796 207.662 74.6911 207.662 74.8403 197.614Z" fill="#DEEBE5"/>
<path d="M84.0004 372.612C83.9412 368.523 90.3594 368.523 90.3002 372.612C90.3602 376.703 83.9404 376.703 84.0004 372.612Z" fill="#DEEBE5"/>
<path d="M84.0004 302.613C83.9412 298.524 90.3594 298.524 90.3002 302.613C90.3602 306.703 83.9404 306.703 84.0004 302.613Z" fill="#DEEBE5"/>
<path d="M84.0004 127.613C83.9409 123.523 90.3597 123.523 90.3002 127.613C90.3598 131.702 83.9408 131.702 84.0004 127.613Z" fill="#DEEBE5"/>
<path d="M67.2504 337.603C67.1708 331.923 76.09 331.923 76.0004 337.603C76.0804 343.283 67.1604 343.283 67.2504 337.603Z" fill="#DEEBE5"/>
<path d="M67.2504 267.603C67.1708 261.923 76.09 261.923 76.0004 267.603C76.0804 273.283 67.1604 273.283 67.2504 267.603Z" fill="#DEEBE5"/>
<path d="M67.2504 162.622C67.1609 156.943 76.0799 156.943 76.0004 162.622C76.0904 168.302 67.1704 168.302 67.2504 162.622Z" fill="#DEEBE5"/>
<path d="M50.4799 232.613C50.3706 225.323 61.8294 225.323 61.7201 232.613C61.8301 239.903 50.3699 239.903 50.4799 232.613Z" fill="#DEEBE5"/>
<path d="M50.4799 197.614C50.3699 190.323 61.8301 190.323 61.7201 197.614C61.8293 204.903 50.3707 204.903 50.4799 197.614Z" fill="#DEEBE5"/>
<path d="M42.0004 337.613C41.9412 333.524 48.3594 333.524 48.3002 337.613C48.3602 341.703 41.9404 341.703 42.0004 337.613Z" fill="#DEEBE5"/>
<path d="M42.0004 267.613C41.9412 263.524 48.3594 263.524 48.3002 267.613C48.3602 271.703 41.9404 271.703 42.0004 267.613Z" fill="#DEEBE5"/>
<path d="M42.0004 162.613C41.9409 158.523 48.3597 158.523 48.3002 162.613C48.3598 166.702 41.9408 166.702 42.0004 162.613Z" fill="#DEEBE5"/>
<path d="M25.2504 232.603C25.1708 226.923 34.09 226.923 34.0004 232.603C34.0804 238.283 25.1604 238.283 25.2504 232.603Z" fill="#DEEBE5"/>
<path d="M25.2504 197.623C25.1604 191.943 34.0804 191.943 34.0004 197.623C34.0899 203.303 25.1709 203.303 25.2504 197.623Z" fill="#DEEBE5"/>
<path d="M0.000417974 232.613C-0.0587721 228.524 6.35941 228.524 6.30022 232.613C6.36022 236.703 -0.059582 236.703 0.000417974 232.613Z" fill="#DEEBE5"/>
<path d="M0.000417974 197.614C-0.059582 193.524 6.36022 193.524 6.30022 197.614C6.35931 201.702 -0.0586745 201.702 0.000417974 197.614Z" fill="#DEEBE5"/>
<path d="M418.32 -41.3876C418.38 -55.2368 439.45 -55.2368 439.51 -41.3876C439.45 -27.5376 418.38 -27.5376 418.32 -41.3876Z" fill="#DEEBE5"/>
<path d="M418.32 -361.388C418.38 -375.237 439.45 -375.237 439.51 -361.388C439.45 -347.538 418.38 -347.538 418.32 -361.388Z" fill="#DEEBE5"/>
<path d="M391.86 -41.3876C391.921 -55.2167 412.949 -55.2167 413.01 -41.3876C412.95 -27.5576 391.92 -27.5576 391.86 -41.3876Z" fill="#DEEBE5"/>
<path d="M391.86 -361.388C391.92 -375.217 412.95 -375.217 413.01 -361.388C412.95 -347.558 391.92 -347.558 391.86 -361.388Z" fill="#DEEBE5"/>
<path d="M376.32 -76.3876C376.38 -90.2368 397.45 -90.2368 397.51 -76.3876C397.45 -62.5376 376.38 -62.5376 376.32 -76.3876Z" fill="#DEEBE5"/>
<path d="M376.32 -146.388C376.38 -160.237 397.45 -160.237 397.51 -146.388C397.45 -132.538 376.38 -132.538 376.32 -146.388Z" fill="#DEEBE5"/>
<path d="M376.32 -321.388C376.38 -335.237 397.45 -335.237 397.51 -321.388C397.45 -307.538 376.38 -307.538 376.32 -321.388Z" fill="#DEEBE5"/>
<path d="M365.8 -41.3876C365.611 -54.5668 386.319 -54.5668 386.12 -41.3876C386.31 -28.2075 365.6 -28.2075 365.8 -41.3876Z" fill="#DEEBE5"/>
<path d="M365.8 -361.388C365.601 -374.567 386.309 -374.567 386.12 -361.388C386.319 -348.208 365.611 -348.208 365.8 -361.388Z" fill="#DEEBE5"/>
<path d="M349.86 -76.3876C349.921 -90.2167 370.949 -90.2167 371.01 -76.3876C370.95 -62.5576 349.92 -62.5576 349.86 -76.3876Z" fill="#DEEBE5"/>
<path d="M349.86 -146.388C349.921 -160.217 370.949 -160.217 371.01 -146.388C370.95 -132.558 349.92 -132.558 349.86 -146.388Z" fill="#DEEBE5"/>
<path d="M349.86 -321.388C349.92 -335.217 370.95 -335.217 371.01 -321.388C370.95 -307.558 349.92 -307.558 349.86 -321.388Z" fill="#DEEBE5"/>
<path d="M339.48 -41.3876C339.291 -54.3567 359.669 -54.3567 359.48 -41.3876C359.67 -28.4176 339.29 -28.4176 339.48 -41.3876Z" fill="#DEEBE5"/>
<path d="M339.48 -361.388C339.29 -374.357 359.669 -374.357 359.48 -361.388C359.67 -348.418 339.29 -348.418 339.48 -361.388Z" fill="#DEEBE5"/>
<path d="M334.32 -111.388C334.38 -125.237 355.45 -125.237 355.51 -111.388C355.45 -97.5376 334.38 -97.5376 334.32 -111.388Z" fill="#DEEBE5"/>
<path d="M334.32 -181.388C334.38 -195.237 355.45 -195.237 355.51 -181.388C355.45 -167.538 334.38 -167.538 334.32 -181.388Z" fill="#DEEBE5"/>
<path d="M334.32 -286.388C334.38 -300.237 355.45 -300.237 355.51 -286.388C355.45 -272.538 334.38 -272.538 334.32 -286.388Z" fill="#DEEBE5"/>
<path d="M323.8 -76.3876C323.611 -89.5668 344.319 -89.5668 344.12 -76.3876C344.31 -63.2075 323.6 -63.2075 323.8 -76.3876Z" fill="#DEEBE5"/>
<path d="M323.8 -146.388C323.611 -159.567 344.319 -159.567 344.12 -146.388C344.31 -133.208 323.6 -133.208 323.8 -146.388Z" fill="#DEEBE5"/>
<path d="M323.8 -321.388C323.601 -334.567 344.309 -334.567 344.12 -321.388C344.319 -308.208 323.611 -308.208 323.8 -321.388Z" fill="#DEEBE5"/>
<path d="M313.55 -41.3876C313.371 -53.6565 332.649 -53.6565 332.47 -41.3876C332.65 -29.1176 313.37 -29.1176 313.55 -41.3876Z" fill="#DEEBE5"/>
<path d="M313.55 -361.388C313.371 -373.657 332.65 -373.657 332.47 -361.388C332.65 -349.118 313.371 -349.118 313.55 -361.388Z" fill="#DEEBE5"/>
<path d="M307.86 -111.388C307.921 -125.217 328.949 -125.217 329.01 -111.388C328.95 -97.5576 307.92 -97.5576 307.86 -111.388Z" fill="#DEEBE5"/>
<path d="M307.86 -181.388C307.921 -195.217 328.949 -195.217 329.01 -181.388C328.95 -167.558 307.92 -167.558 307.86 -181.388Z" fill="#DEEBE5"/>
<path d="M307.86 -286.388C307.92 -300.217 328.95 -300.217 329.01 -286.388C328.95 -272.558 307.92 -272.558 307.86 -286.388Z" fill="#DEEBE5"/>
<path d="M297.48 -76.3876C297.291 -89.3567 317.669 -89.3567 317.48 -76.3876C317.67 -63.4176 297.29 -63.4176 297.48 -76.3876Z" fill="#DEEBE5"/>
<path d="M297.48 -146.388C297.291 -159.357 317.669 -159.357 317.48 -146.388C317.67 -133.418 297.29 -133.418 297.48 -146.388Z" fill="#DEEBE5"/>
<path d="M297.48 -321.388C297.29 -334.357 317.669 -334.357 317.48 -321.388C317.67 -308.418 297.29 -308.418 297.48 -321.388Z" fill="#DEEBE5"/>
<path d="M292.32 -216.388C292.38 -230.237 313.45 -230.237 313.51 -216.388C313.45 -202.538 292.38 -202.538 292.32 -216.388Z" fill="#DEEBE5"/>
<path d="M292.32 -251.387C292.38 -265.237 313.45 -265.237 313.51 -251.387C313.449 -237.537 292.38 -237.537 292.32 -251.387Z" fill="#DEEBE5"/>
<path d="M287.39 -41.3876C287.221 -53.2368 305.829 -53.2368 305.66 -41.3876C305.83 -29.5376 287.22 -29.5376 287.39 -41.3876Z" fill="#DEEBE5"/>
<path d="M287.39 -361.388C287.221 -373.237 305.829 -373.237 305.66 -361.388C305.829 -349.538 287.22 -349.538 287.39 -361.388Z" fill="#DEEBE5"/>
<path d="M281.8 -111.388C281.611 -124.567 302.319 -124.567 302.12 -111.388C302.31 -98.2075 281.6 -98.2075 281.8 -111.388Z" fill="#DEEBE5"/>
<path d="M281.8 -181.388C281.611 -194.567 302.319 -194.567 302.12 -181.388C302.31 -168.208 281.6 -168.208 281.8 -181.388Z" fill="#DEEBE5"/>
<path d="M281.8 -286.388C281.601 -299.567 302.309 -299.567 302.12 -286.388C302.319 -273.208 281.61 -273.208 281.8 -286.388Z" fill="#DEEBE5"/>
<path d="M271.55 -76.3876C271.371 -88.6565 290.649 -88.6565 290.47 -76.3876C290.65 -64.1176 271.37 -64.1176 271.55 -76.3876Z" fill="#DEEBE5"/>
<path d="M271.55 -146.388C271.371 -158.656 290.649 -158.656 290.47 -146.388C290.65 -134.118 271.37 -134.118 271.55 -146.388Z" fill="#DEEBE5"/>
<path d="M271.55 -321.388C271.371 -333.657 290.65 -333.657 290.47 -321.388C290.65 -309.118 271.371 -309.118 271.55 -321.388Z" fill="#DEEBE5"/>
<path d="M265.86 -216.388C265.92 -230.217 286.949 -230.217 287.01 -216.388C286.95 -202.558 265.92 -202.558 265.86 -216.388Z" fill="#DEEBE5"/>
<path d="M265.86 -251.387C265.92 -265.217 286.95 -265.217 287.01 -251.387C286.949 -237.558 265.921 -237.558 265.86 -251.387Z" fill="#DEEBE5"/>
<path d="M261.46 -41.3973C261.301 -52.5468 278.809 -52.5468 278.65 -41.3973C278.81 -30.2473 261.3 -30.2473 261.46 -41.3973Z" fill="#DEEBE5"/>
<path d="M261.46 -361.378C261.301 -372.527 278.809 -372.527 278.65 -361.378C278.81 -350.228 261.3 -350.228 261.46 -361.378Z" fill="#DEEBE5"/>
<path d="M255.48 -111.388C255.291 -124.357 275.669 -124.357 275.48 -111.388C275.67 -98.4176 255.29 -98.4176 255.48 -111.388Z" fill="#DEEBE5"/>
<path d="M255.48 -181.388C255.291 -194.357 275.669 -194.357 275.48 -181.388C275.67 -168.418 255.29 -168.418 255.48 -181.388Z" fill="#DEEBE5"/>
<path d="M255.48 -286.388C255.29 -299.357 275.669 -299.357 275.48 -286.388C275.67 -273.418 255.29 -273.418 255.48 -286.388Z" fill="#DEEBE5"/>
<path d="M245.39 -76.3876C245.221 -88.2368 263.829 -88.2368 263.66 -76.3876C263.83 -64.5376 245.22 -64.5376 245.39 -76.3876Z" fill="#DEEBE5"/>
<path d="M245.39 -146.388C245.221 -158.237 263.829 -158.237 263.66 -146.388C263.83 -134.538 245.22 -134.538 245.39 -146.388Z" fill="#DEEBE5"/>
<path d="M245.39 -321.388C245.221 -333.237 263.829 -333.237 263.66 -321.388C263.829 -309.538 245.22 -309.538 245.39 -321.388Z" fill="#DEEBE5"/>
<path d="M239.8 -216.388C239.611 -229.567 260.319 -229.567 260.12 -216.388C260.31 -203.208 239.6 -203.208 239.8 -216.388Z" fill="#DEEBE5"/>
<path d="M239.8 -251.387C239.6 -264.567 260.31 -264.567 260.12 -251.387C260.319 -238.208 239.611 -238.208 239.8 -251.387Z" fill="#DEEBE5"/>
<path d="M235.84 -41.3876C235.691 -51.4366 251.48 -51.4366 251.33 -41.3876C251.48 -31.3375 235.69 -31.3375 235.84 -41.3876Z" fill="#DEEBE5"/>
<path d="M235.84 -361.388C235.691 -371.437 251.48 -371.437 251.33 -361.388C251.48 -351.338 235.691 -351.338 235.84 -361.388Z" fill="#DEEBE5"/>
<path d="M229.55 -111.388C229.371 -123.656 248.649 -123.656 248.47 -111.388C248.65 -99.1176 229.37 -99.1176 229.55 -111.388Z" fill="#DEEBE5"/>
<path d="M229.55 -181.388C229.371 -193.656 248.649 -193.656 248.47 -181.388C248.65 -169.118 229.37 -169.118 229.55 -181.388Z" fill="#DEEBE5"/>
<path d="M229.55 -286.388C229.371 -298.657 248.65 -298.657 248.47 -286.388C248.65 -274.118 229.371 -274.118 229.55 -286.388Z" fill="#DEEBE5"/>
<path d="M219.46 -76.3973C219.301 -87.5468 236.809 -87.5468 236.65 -76.3973C236.81 -65.2473 219.3 -65.2473 219.46 -76.3973Z" fill="#DEEBE5"/>
<path d="M219.46 -146.397C219.301 -157.547 236.809 -157.547 236.65 -146.397C236.81 -135.247 219.3 -135.247 219.46 -146.397Z" fill="#DEEBE5"/>
<path d="M219.46 -321.378C219.301 -332.527 236.809 -332.527 236.65 -321.378C236.81 -310.228 219.3 -310.228 219.46 -321.378Z" fill="#DEEBE5"/>
<path d="M213.48 -216.388C213.291 -229.357 233.669 -229.357 233.48 -216.388C233.67 -203.418 213.29 -203.418 213.48 -216.388Z" fill="#DEEBE5"/>
<path d="M213.48 -251.387C213.29 -264.357 233.67 -264.357 233.48 -251.387C233.669 -238.418 213.291 -238.418 213.48 -251.387Z" fill="#DEEBE5"/>
<path d="M211.48 -41.3876C211.371 -48.6766 222.829 -48.6766 222.72 -41.3876C222.83 -34.0975 211.37 -34.0975 211.48 -41.3876Z" fill="#DEEBE5"/>
<path d="M211.48 -361.388C211.37 -368.677 222.83 -368.677 222.72 -361.388C222.83 -354.098 211.37 -354.098 211.48 -361.388Z" fill="#DEEBE5"/>
<path d="M203.39 -111.388C203.221 -123.237 221.829 -123.237 221.66 -111.388C221.83 -99.5376 203.22 -99.5376 203.39 -111.388Z" fill="#DEEBE5"/>
<path d="M203.39 -181.388C203.221 -193.237 221.829 -193.237 221.66 -181.388C221.83 -169.538 203.22 -169.538 203.39 -181.388Z" fill="#DEEBE5"/>
<path d="M203.39 -286.388C203.221 -298.237 221.829 -298.237 221.66 -286.388C221.829 -274.538 203.22 -274.538 203.39 -286.388Z" fill="#DEEBE5"/>
<path d="M193.84 -76.3876C193.691 -86.4366 209.48 -86.4366 209.33 -76.3876C209.48 -66.3375 193.69 -66.3375 193.84 -76.3876Z" fill="#DEEBE5"/>
<path d="M193.84 -146.388C193.691 -156.437 209.48 -156.437 209.33 -146.388C209.48 -136.338 193.69 -136.338 193.84 -146.388Z" fill="#DEEBE5"/>
<path d="M193.84 -321.388C193.691 -331.437 209.48 -331.437 209.33 -321.388C209.48 -311.338 193.691 -311.338 193.84 -321.388Z" fill="#DEEBE5"/>
<path d="M187.55 -216.388C187.371 -228.656 206.649 -228.656 206.47 -216.388C206.65 -204.118 187.37 -204.118 187.55 -216.388Z" fill="#DEEBE5"/>
<path d="M187.55 -251.387C187.37 -263.657 206.65 -263.657 206.47 -251.387C206.649 -239.118 187.371 -239.118 187.55 -251.387Z" fill="#DEEBE5"/>
<path d="M186.25 -41.3973C186.171 -47.0768 195.09 -47.0768 195 -41.3973C195.08 -35.7173 186.16 -35.7173 186.25 -41.3973Z" fill="#DEEBE5"/>
<path d="M186.25 -361.378C186.161 -367.057 195.08 -367.057 195 -361.378C195.09 -355.698 186.17 -355.698 186.25 -361.378Z" fill="#DEEBE5"/>
<path d="M177.46 -111.397C177.301 -122.547 194.809 -122.547 194.65 -111.397C194.81 -100.247 177.3 -100.247 177.46 -111.397Z" fill="#DEEBE5"/>
<path d="M177.46 -181.397C177.301 -192.547 194.809 -192.547 194.65 -181.397C194.81 -170.247 177.3 -170.247 177.46 -181.397Z" fill="#DEEBE5"/>
<path d="M177.46 -286.378C177.301 -297.527 194.809 -297.527 194.65 -286.378C194.81 -275.228 177.3 -275.228 177.46 -286.378Z" fill="#DEEBE5"/>
<path d="M169.48 -76.3876C169.371 -83.6766 180.829 -83.6766 180.72 -76.3876C180.83 -69.0975 169.37 -69.0975 169.48 -76.3876Z" fill="#DEEBE5"/>
<path d="M169.48 -146.388C169.371 -153.677 180.829 -153.677 180.72 -146.388C180.83 -139.098 169.37 -139.098 169.48 -146.388Z" fill="#DEEBE5"/>
<path d="M169.48 -321.388C169.37 -328.677 180.83 -328.677 180.72 -321.388C180.83 -314.098 169.37 -314.098 169.48 -321.388Z" fill="#DEEBE5"/>
<path d="M161.39 -216.388C161.221 -228.237 179.829 -228.237 179.66 -216.388C179.83 -204.538 161.22 -204.538 161.39 -216.388Z" fill="#DEEBE5"/>
<path d="M161.39 -251.387C161.22 -263.237 179.83 -263.237 179.66 -251.387C179.829 -239.537 161.221 -239.537 161.39 -251.387Z" fill="#DEEBE5"/>
<path d="M151.84 -111.388C151.691 -121.437 167.48 -121.437 167.33 -111.388C167.48 -101.338 151.69 -101.338 151.84 -111.388Z" fill="#DEEBE5"/>
<path d="M151.84 -181.388C151.691 -191.437 167.48 -191.437 167.33 -181.388C167.48 -171.338 151.69 -171.338 151.84 -181.388Z" fill="#DEEBE5"/>
<path d="M151.84 -286.388C151.691 -296.437 167.48 -296.437 167.33 -286.388C167.48 -276.338 151.691 -276.338 151.84 -286.388Z" fill="#DEEBE5"/>
<path d="M161 -41.3876C160.941 -45.4766 167.359 -45.4766 167.3 -41.3876C167.36 -37.2976 160.94 -37.2976 161 -41.3876Z" fill="#DEEBE5"/>
<path d="M161 -361.388C160.941 -365.477 167.36 -365.477 167.3 -361.388C167.36 -357.298 160.941 -357.298 161 -361.388Z" fill="#DEEBE5"/>
<path d="M144.25 -76.3973C144.171 -82.0768 153.09 -82.0768 153 -76.3973C153.08 -70.7173 144.16 -70.7173 144.25 -76.3973Z" fill="#DEEBE5"/>
<path d="M144.25 -146.397C144.171 -152.077 153.09 -152.077 153 -146.397C153.08 -140.717 144.16 -140.717 144.25 -146.397Z" fill="#DEEBE5"/>
<path d="M144.25 -321.378C144.161 -327.057 153.08 -327.057 153 -321.378C153.09 -315.698 144.17 -315.698 144.25 -321.378Z" fill="#DEEBE5"/>
<path d="M135.46 -216.397C135.301 -227.547 152.809 -227.547 152.65 -216.397C152.81 -205.247 135.3 -205.247 135.46 -216.397Z" fill="#DEEBE5"/>
<path d="M135.46 -251.377C135.3 -262.527 152.81 -262.527 152.65 -251.377C152.809 -240.228 135.301 -240.228 135.46 -251.377Z" fill="#DEEBE5"/>
<path d="M127.48 -111.388C127.371 -118.677 138.829 -118.677 138.72 -111.388C138.83 -104.098 127.37 -104.098 127.48 -111.388Z" fill="#DEEBE5"/>
<path d="M127.48 -181.388C127.371 -188.677 138.829 -188.677 138.72 -181.388C138.83 -174.098 127.37 -174.098 127.48 -181.388Z" fill="#DEEBE5"/>
<path d="M127.48 -286.388C127.37 -293.677 138.83 -293.677 138.72 -286.388C138.83 -279.098 127.37 -279.098 127.48 -286.388Z" fill="#DEEBE5"/>
<path d="M109.84 -216.388C109.691 -226.437 125.48 -226.437 125.33 -216.388C125.48 -206.338 109.69 -206.338 109.84 -216.388Z" fill="#DEEBE5"/>
<path d="M109.84 -251.387C109.69 -261.437 125.48 -261.437 125.33 -251.387C125.48 -241.338 109.691 -241.338 109.84 -251.387Z" fill="#DEEBE5"/>
<path d="M119 -76.3876C118.941 -80.4766 125.359 -80.4766 125.3 -76.3876C125.36 -72.2976 118.94 -72.2976 119 -76.3876Z" fill="#DEEBE5"/>
<path d="M119 -146.388C118.941 -150.477 125.359 -150.477 125.3 -146.388C125.36 -142.298 118.94 -142.298 119 -146.388Z" fill="#DEEBE5"/>
<path d="M119 -321.388C118.941 -325.477 125.36 -325.477 125.3 -321.388C125.36 -317.298 118.941 -317.298 119 -321.388Z" fill="#DEEBE5"/>
<path d="M102.25 -111.397C102.171 -117.077 111.09 -117.077 111 -111.397C111.08 -105.717 102.16 -105.717 102.25 -111.397Z" fill="#DEEBE5"/>
<path d="M102.25 -181.397C102.171 -187.077 111.09 -187.077 111 -181.397C111.08 -175.717 102.16 -175.717 102.25 -181.397Z" fill="#DEEBE5"/>
<path d="M102.25 -286.378C102.161 -292.057 111.08 -292.057 111 -286.378C111.09 -280.698 102.17 -280.698 102.25 -286.378Z" fill="#DEEBE5"/>
<path d="M85.4799 -216.388C85.3706 -223.677 96.8294 -223.677 96.7201 -216.388C96.8301 -209.098 85.3699 -209.098 85.4799 -216.388Z" fill="#DEEBE5"/>
<path d="M85.4799 -251.387C85.3699 -258.677 96.8301 -258.677 96.7201 -251.387C96.8293 -244.098 85.3707 -244.098 85.4799 -251.387Z" fill="#DEEBE5"/>
<path d="M77.0004 -111.388C76.9412 -115.477 83.3594 -115.477 83.3002 -111.388C83.3602 -107.298 76.9404 -107.298 77.0004 -111.388Z" fill="#DEEBE5"/>
<path d="M77.0004 -181.388C76.9412 -185.477 83.3594 -185.477 83.3002 -181.388C83.3602 -177.298 76.9404 -177.298 77.0004 -181.388Z" fill="#DEEBE5"/>
<path d="M77.0004 -286.388C76.9409 -290.477 83.3597 -290.477 83.3002 -286.388C83.3598 -282.298 76.9408 -282.298 77.0004 -286.388Z" fill="#DEEBE5"/>
<path d="M60.2504 -216.397C60.1708 -222.077 69.09 -222.077 69.0004 -216.397C69.0804 -210.717 60.1604 -210.717 60.2504 -216.397Z" fill="#DEEBE5"/>
<path d="M60.2504 -251.377C60.1604 -257.057 69.0804 -257.057 69.0004 -251.377C69.0899 -245.698 60.1709 -245.698 60.2504 -251.377Z" fill="#DEEBE5"/>
<path d="M35.0004 -216.388C34.9412 -220.477 41.3594 -220.477 41.3002 -216.388C41.3602 -212.298 34.9404 -212.298 35.0004 -216.388Z" fill="#DEEBE5"/>
<path d="M35.0004 -251.387C34.9404 -255.477 41.3602 -255.477 41.3002 -251.387C41.3593 -247.298 34.9413 -247.298 35.0004 -251.387Z" fill="#DEEBE5"/>
</g>
<defs>
<clipPath id="clip0_2968_11080">
<rect width="1522" height="279" fill="white" transform="matrix(0 -1 1 0 0 1193)"/>
</clipPath>
</defs>
</svg>
