<svg width="1440" height="358" viewBox="0 0 1440 358" fill="none" xmlns="http://www.w3.org/2000/svg">
<path d="M-100.612 384.32C-86.763 384.38 -86.763 405.45 -100.612 405.51C-114.462 405.45 -114.462 384.38 -100.612 384.32Z" fill="#007A4E"/>
<path d="M219.388 384.32C233.237 384.38 233.237 405.45 219.388 405.51C205.538 405.45 205.538 384.38 219.388 384.32Z" fill="#007A4E"/>
<path d="M-100.612 357.86C-86.7832 357.921 -86.7832 378.95 -100.612 379.01C-114.442 378.95 -114.442 357.92 -100.612 357.86Z" fill="#007A4E"/>
<path d="M219.388 357.86C233.217 357.92 233.217 378.95 219.388 379.01C205.558 378.95 205.558 357.92 219.388 357.86Z" fill="#007A4E"/>
<path d="M-65.6125 342.32C-51.763 342.38 -51.763 363.45 -65.6125 363.51C-79.4625 363.45 -79.4625 342.38 -65.6125 342.32Z" fill="#007A4E"/>
<path d="M4.3875 342.32C18.237 342.38 18.237 363.45 4.3875 363.51C-9.4625 363.45 -9.4625 342.38 4.3875 342.32Z" fill="#007A4E"/>
<path d="M179.388 342.32C193.237 342.38 193.237 363.45 179.388 363.51C165.538 363.45 165.538 342.38 179.388 342.32Z" fill="#007A4E"/>
<path d="M-100.612 331.8C-87.4331 331.611 -87.4331 352.319 -100.612 352.12C-113.792 352.31 -113.792 331.6 -100.612 331.8Z" fill="#007A4E"/>
<path d="M219.388 331.8C232.567 331.601 232.567 352.309 219.388 352.12C206.208 352.32 206.208 331.611 219.388 331.8Z" fill="#007A4E"/>
<path d="M-65.6125 315.86C-51.7832 315.921 -51.7832 336.95 -65.6125 337.01C-79.4425 336.95 -79.4425 315.92 -65.6125 315.86Z" fill="#007A4E"/>
<path d="M4.3875 315.86C18.2168 315.921 18.2168 336.95 4.3875 337.01C-9.4425 336.95 -9.4425 315.92 4.3875 315.86Z" fill="#007A4E"/>
<path d="M179.388 315.86C193.217 315.92 193.217 336.95 179.388 337.01C165.558 336.95 165.558 315.92 179.388 315.86Z" fill="#007A4E"/>
<path d="M-100.612 305.48C-87.6431 305.291 -87.6431 325.67 -100.612 325.48C-113.583 325.67 -113.583 305.29 -100.612 305.48Z" fill="#007A4E"/>
<path d="M219.388 305.48C232.357 305.29 232.357 325.67 219.388 325.48C206.418 325.67 206.418 305.29 219.388 305.48Z" fill="#007A4E"/>
<path d="M-30.6125 300.32C-16.763 300.38 -16.763 321.45 -30.6125 321.51C-44.4625 321.45 -44.4625 300.38 -30.6125 300.32Z" fill="#007A4E"/>
<path d="M39.3875 300.32C53.237 300.38 53.237 321.45 39.3875 321.51C25.5375 321.45 25.5375 300.38 39.3875 300.32Z" fill="#007A4E"/>
<path d="M144.387 300.32C158.237 300.38 158.237 321.45 144.387 321.51C130.538 321.45 130.538 300.38 144.387 300.32Z" fill="#007A4E"/>
<path d="M-65.6125 289.8C-52.4331 289.611 -52.4331 310.319 -65.6125 310.12C-78.7925 310.31 -78.7925 289.6 -65.6125 289.8Z" fill="#007A4E"/>
<path d="M4.3875 289.8C17.5669 289.611 17.5669 310.319 4.3875 310.12C-8.7925 310.31 -8.7925 289.6 4.3875 289.8Z" fill="#007A4E"/>
<path d="M179.388 289.8C192.567 289.601 192.567 310.309 179.388 310.12C166.208 310.32 166.208 289.611 179.388 289.8Z" fill="#007A4E"/>
<path d="M-100.612 279.55C-88.3433 279.371 -88.3433 298.65 -100.612 298.47C-112.882 298.65 -112.882 279.37 -100.612 279.55Z" fill="#007A4E"/>
<path d="M219.388 279.55C231.657 279.371 231.657 298.65 219.388 298.47C207.118 298.65 207.118 279.371 219.388 279.55Z" fill="#007A4E"/>
<path d="M-30.6125 273.86C-16.7832 273.921 -16.7832 294.95 -30.6125 295.01C-44.4425 294.95 -44.4425 273.92 -30.6125 273.86Z" fill="#007A4E"/>
<path d="M39.3875 273.86C53.2168 273.921 53.2168 294.95 39.3875 295.01C25.5575 294.95 25.5575 273.92 39.3875 273.86Z" fill="#007A4E"/>
<path d="M144.387 273.86C158.217 273.92 158.217 294.95 144.387 295.01C130.558 294.95 130.558 273.92 144.387 273.86Z" fill="#007A4E"/>
<path d="M-65.6125 263.48C-52.6431 263.291 -52.6431 283.67 -65.6125 283.48C-78.5825 283.67 -78.5825 263.29 -65.6125 263.48Z" fill="#007A4E"/>
<path d="M4.3875 263.48C17.3569 263.291 17.3569 283.67 4.3875 283.48C-8.5825 283.67 -8.5825 263.29 4.3875 263.48Z" fill="#007A4E"/>
<path d="M179.388 263.48C192.357 263.29 192.357 283.67 179.388 283.48C166.418 283.67 166.418 263.29 179.388 263.48Z" fill="#007A4E"/>
<path d="M74.3875 258.32C88.237 258.38 88.237 279.45 74.3875 279.51C60.5375 279.45 60.5375 258.38 74.3875 258.32Z" fill="#007A4E"/>
<path d="M109.387 258.32C123.237 258.38 123.237 279.45 109.387 279.51C95.5378 279.45 95.5378 258.38 109.387 258.32Z" fill="#007A4E"/>
<path d="M-100.612 253.39C-88.763 253.221 -88.763 271.829 -100.612 271.66C-112.462 271.83 -112.462 253.22 -100.612 253.39Z" fill="#007A4E"/>
<path d="M219.388 253.39C231.237 253.221 231.237 271.83 219.388 271.66C207.538 271.83 207.538 253.22 219.388 253.39Z" fill="#007A4E"/>
<path d="M-30.6125 247.8C-17.4331 247.611 -17.4331 268.319 -30.6125 268.12C-43.7925 268.31 -43.7925 247.6 -30.6125 247.8Z" fill="#007A4E"/>
<path d="M39.3875 247.8C52.5669 247.611 52.5669 268.319 39.3875 268.12C26.2075 268.31 26.2075 247.6 39.3875 247.8Z" fill="#007A4E"/>
<path d="M144.387 247.8C157.567 247.601 157.567 268.309 144.387 268.12C131.208 268.32 131.208 247.611 144.387 247.8Z" fill="#007A4E"/>
<path d="M-65.6125 237.55C-53.3433 237.371 -53.3433 256.65 -65.6125 256.47C-77.8825 256.65 -77.8825 237.37 -65.6125 237.55Z" fill="#007A4E"/>
<path d="M4.3875 237.55C16.6567 237.371 16.6567 256.65 4.3875 256.47C-7.88251 256.65 -7.88251 237.37 4.3875 237.55Z" fill="#007A4E"/>
<path d="M179.388 237.55C191.657 237.371 191.657 256.65 179.388 256.47C167.118 256.65 167.118 237.371 179.388 237.55Z" fill="#007A4E"/>
<path d="M74.3875 231.86C88.2168 231.921 88.2168 252.95 74.3875 253.01C60.5575 252.95 60.5575 231.92 74.3875 231.86Z" fill="#007A4E"/>
<path d="M109.387 231.86C123.217 231.92 123.217 252.95 109.387 253.01C95.5579 252.95 95.5579 231.92 109.387 231.86Z" fill="#007A4E"/>
<path d="M-100.603 227.461C-89.4531 227.301 -89.4531 244.81 -100.603 244.65C-111.753 244.81 -111.753 227.301 -100.603 227.461Z" fill="#007A4E"/>
<path d="M219.378 227.461C230.527 227.301 230.527 244.81 219.378 244.65C208.228 244.81 208.228 227.301 219.378 227.461Z" fill="#007A4E"/>
<path d="M-30.6125 221.48C-17.6431 221.291 -17.6431 241.67 -30.6125 241.48C-43.5825 241.67 -43.5825 221.29 -30.6125 221.48Z" fill="#007A4E"/>
<path d="M39.3875 221.48C52.3569 221.291 52.3569 241.67 39.3875 241.48C26.4175 241.67 26.4175 221.29 39.3875 221.48Z" fill="#007A4E"/>
<path d="M144.387 221.48C157.357 221.29 157.357 241.67 144.387 241.48C131.418 241.67 131.418 221.29 144.387 221.48Z" fill="#007A4E"/>
<path d="M-65.6125 211.39C-53.763 211.221 -53.763 229.829 -65.6125 229.66C-77.4625 229.83 -77.4625 211.22 -65.6125 211.39Z" fill="#007A4E"/>
<path d="M4.3875 211.39C16.237 211.221 16.237 229.829 4.3875 229.66C-7.4625 229.83 -7.4625 211.22 4.3875 211.39Z" fill="#007A4E"/>
<path d="M179.388 211.39C191.237 211.221 191.237 229.829 179.388 229.66C167.538 229.83 167.538 211.22 179.388 211.39Z" fill="#007A4E"/>
<path d="M74.3875 205.8C87.5669 205.611 87.5669 226.319 74.3875 226.12C61.2075 226.31 61.2075 205.6 74.3875 205.8Z" fill="#007A4E"/>
<path d="M109.387 205.8C122.567 205.601 122.567 226.309 109.387 226.12C96.2078 226.32 96.2078 205.611 109.387 205.8Z" fill="#007A4E"/>
<path d="M-100.612 201.84C-90.5632 201.691 -90.5632 217.48 -100.612 217.331C-110.663 217.481 -110.663 201.69 -100.612 201.84Z" fill="#007A4E"/>
<path d="M219.388 201.84C229.437 201.691 229.437 217.48 219.388 217.331C209.338 217.48 209.338 201.691 219.388 201.84Z" fill="#007A4E"/>
<path d="M-30.6125 195.55C-18.3433 195.371 -18.3433 214.65 -30.6125 214.47C-42.8825 214.65 -42.8825 195.37 -30.6125 195.55Z" fill="#007A4E"/>
<path d="M39.3875 195.55C51.6567 195.371 51.6567 214.65 39.3875 214.47C27.1175 214.65 27.1175 195.37 39.3875 195.55Z" fill="#007A4E"/>
<path d="M144.387 195.55C156.657 195.371 156.657 214.65 144.387 214.47C132.118 214.65 132.118 195.371 144.387 195.55Z" fill="#007A4E"/>
<path d="M-65.6027 185.461C-54.453 185.301 -54.4531 202.81 -65.6027 202.65C-76.7527 202.81 -76.7527 185.301 -65.6027 185.461Z" fill="#007A4E"/>
<path d="M4.39726 185.461C15.5469 185.301 15.5469 202.81 4.39726 202.65C-6.75274 202.81 -6.75274 185.301 4.39726 185.461Z" fill="#007A4E"/>
<path d="M179.378 185.461C190.527 185.301 190.527 202.81 179.378 202.65C168.228 202.81 168.228 185.301 179.378 185.461Z" fill="#007A4E"/>
<path d="M74.3875 179.48C87.3569 179.291 87.3569 199.67 74.3875 199.48C61.4175 199.67 61.4175 179.29 74.3875 179.48Z" fill="#007A4E"/>
<path d="M109.387 179.48C122.357 179.29 122.357 199.67 109.387 199.48C96.4179 199.67 96.4179 179.29 109.387 179.48Z" fill="#007A4E"/>
<path d="M-100.612 177.48C-93.3231 177.371 -93.3231 188.83 -100.612 188.72C-107.902 188.83 -107.902 177.37 -100.612 177.48Z" fill="#007A4E"/>
<path d="M219.388 177.48C226.677 177.37 226.677 188.83 219.388 188.72C212.098 188.83 212.098 177.37 219.388 177.48Z" fill="#007A4E"/>
<path d="M-30.6125 169.39C-18.763 169.221 -18.763 187.829 -30.6125 187.66C-42.4625 187.83 -42.4625 169.22 -30.6125 169.39Z" fill="#007A4E"/>
<path d="M39.3875 169.39C51.237 169.221 51.237 187.829 39.3875 187.66C27.5375 187.83 27.5375 169.22 39.3875 169.39Z" fill="#007A4E"/>
<path d="M144.387 169.39C156.237 169.221 156.237 187.829 144.387 187.66C132.538 187.83 132.538 169.22 144.387 169.39Z" fill="#007A4E"/>
<path d="M-65.6125 159.84C-55.5632 159.691 -55.5632 175.48 -65.6125 175.331C-75.6625 175.481 -75.6625 159.69 -65.6125 159.84Z" fill="#007A4E"/>
<path d="M4.3875 159.84C14.4368 159.691 14.4368 175.48 4.3875 175.331C-5.66251 175.481 -5.66251 159.69 4.3875 159.84Z" fill="#007A4E"/>
<path d="M179.388 159.84C189.437 159.691 189.437 175.48 179.388 175.331C169.338 175.48 169.338 159.691 179.388 159.84Z" fill="#007A4E"/>
<path d="M74.3875 153.55C86.6567 153.371 86.6567 172.65 74.3875 172.47C62.1175 172.65 62.1175 153.37 74.3875 153.55Z" fill="#007A4E"/>
<path d="M109.387 153.55C121.657 153.371 121.657 172.65 109.387 172.47C97.118 172.65 97.118 153.371 109.387 153.55Z" fill="#007A4E"/>
<path d="M-100.603 152.251C-94.923 152.171 -94.923 161.09 -100.603 161.001C-106.283 161.081 -106.283 152.161 -100.603 152.251Z" fill="#007A4E"/>
<path d="M219.378 152.251C225.057 152.161 225.057 161.08 219.378 161.001C213.698 161.091 213.698 152.171 219.378 152.251Z" fill="#007A4E"/>
<path d="M-30.6027 143.461C-19.4531 143.301 -19.4531 160.81 -30.6027 160.65C-41.7527 160.81 -41.7527 143.301 -30.6027 143.461Z" fill="#007A4E"/>
<path d="M39.3973 143.461C50.547 143.301 50.5469 160.81 39.3973 160.65C28.2473 160.81 28.2473 143.301 39.3973 143.461Z" fill="#007A4E"/>
<path d="M144.378 143.461C155.527 143.301 155.527 160.81 144.378 160.65C133.228 160.81 133.228 143.301 144.378 143.461Z" fill="#007A4E"/>
<path d="M-65.6125 135.48C-58.3231 135.371 -58.3231 146.83 -65.6125 146.72C-72.9025 146.83 -72.9025 135.37 -65.6125 135.48Z" fill="#007A4E"/>
<path d="M4.3875 135.48C11.6769 135.371 11.6769 146.83 4.3875 146.72C-2.9025 146.83 -2.9025 135.37 4.3875 135.48Z" fill="#007A4E"/>
<path d="M179.388 135.48C186.677 135.37 186.677 146.83 179.388 146.72C172.098 146.83 172.098 135.37 179.388 135.48Z" fill="#007A4E"/>
<path d="M74.3875 127.39C86.237 127.221 86.237 145.829 74.3875 145.66C62.5375 145.83 62.5375 127.22 74.3875 127.39Z" fill="#007A4E"/>
<path d="M109.387 127.39C121.237 127.221 121.237 145.829 109.387 145.66C97.5378 145.83 97.5378 127.22 109.387 127.39Z" fill="#007A4E"/>
<path d="M-30.6125 117.84C-20.5632 117.691 -20.5632 133.48 -30.6125 133.331C-40.6625 133.481 -40.6625 117.69 -30.6125 117.84Z" fill="#007A4E"/>
<path d="M39.3875 117.84C49.4368 117.691 49.4368 133.48 39.3875 133.331C29.3375 133.481 29.3375 117.69 39.3875 117.84Z" fill="#007A4E"/>
<path d="M144.387 117.84C154.437 117.691 154.437 133.48 144.387 133.331C134.338 133.48 134.338 117.691 144.387 117.84Z" fill="#007A4E"/>
<path d="M-100.612 127.001C-96.5232 126.941 -96.5233 133.36 -100.612 133.3C-104.702 133.36 -104.702 126.941 -100.612 127.001Z" fill="#007A4E"/>
<path d="M219.388 127.001C223.477 126.941 223.477 133.36 219.388 133.3C215.298 133.36 215.298 126.941 219.388 127.001Z" fill="#007A4E"/>
<path d="M-65.6027 110.251C-59.923 110.171 -59.923 119.09 -65.6027 119.001C-71.2827 119.081 -71.2827 110.161 -65.6027 110.251Z" fill="#007A4E"/>
<path d="M4.39726 110.251C10.077 110.171 10.077 119.09 4.39726 119.001C-1.28274 119.081 -1.28274 110.161 4.39726 110.251Z" fill="#007A4E"/>
<path d="M179.378 110.251C185.057 110.161 185.057 119.08 179.378 119.001C173.698 119.091 173.698 110.171 179.378 110.251Z" fill="#007A4E"/>
<path d="M74.3973 101.461C85.547 101.301 85.5469 118.81 74.3973 118.65C63.2473 118.81 63.2473 101.301 74.3973 101.461Z" fill="#007A4E"/>
<path d="M109.378 101.461C120.527 101.301 120.527 118.81 109.378 118.65C98.2278 118.81 98.2278 101.301 109.378 101.461Z" fill="#007A4E"/>
<path d="M-30.6125 93.4801C-23.3231 93.3706 -23.3231 104.83 -30.6125 104.72C-37.9025 104.83 -37.9025 93.3701 -30.6125 93.4801Z" fill="#007A4E"/>
<path d="M39.3875 93.4801C46.6769 93.3706 46.6769 104.83 39.3875 104.72C32.0975 104.83 32.0975 93.3701 39.3875 93.4801Z" fill="#007A4E"/>
<path d="M144.387 93.4801C151.677 93.3704 151.677 104.83 144.387 104.72C137.098 104.83 137.098 93.3704 144.387 93.4801Z" fill="#007A4E"/>
<path d="M74.3875 75.8405C84.4368 75.691 84.4368 91.4801 74.3875 91.3307C64.3375 91.4807 64.3375 75.6905 74.3875 75.8405Z" fill="#007A4E"/>
<path d="M109.387 75.8405C119.437 75.6908 119.437 91.4804 109.387 91.3307C99.338 91.4803 99.338 75.6909 109.387 75.8405Z" fill="#007A4E"/>
<path d="M-65.6125 85.0006C-61.5232 84.9412 -61.5233 91.3598 -65.6125 91.3004C-69.7025 91.3604 -69.7025 84.9406 -65.6125 85.0006Z" fill="#007A4E"/>
<path d="M4.3875 85.0006C8.47675 84.9412 8.47674 91.3598 4.3875 91.3004C0.297501 91.3604 0.297501 84.9406 4.3875 85.0006Z" fill="#007A4E"/>
<path d="M179.388 85.0006C183.477 84.9409 183.477 91.3601 179.388 91.3004C175.298 91.36 175.298 84.941 179.388 85.0006Z" fill="#007A4E"/>
<path d="M-30.6027 68.2506C-24.923 68.1708 -24.923 77.0904 -30.6027 77.0006C-36.2827 77.0806 -36.2827 68.1606 -30.6027 68.2506Z" fill="#007A4E"/>
<path d="M39.3973 68.2506C45.077 68.1708 45.077 77.0904 39.3973 77.0006C33.7173 77.0806 33.7173 68.1606 39.3973 68.2506Z" fill="#007A4E"/>
<path d="M144.378 68.2506C150.057 68.1609 150.057 77.0803 144.378 77.0006C138.698 77.0906 138.698 68.1707 144.378 68.2506Z" fill="#007A4E"/>
<path d="M74.3875 51.4801C81.6769 51.3706 81.6769 62.8299 74.3875 62.7204C67.0975 62.8304 67.0975 51.3701 74.3875 51.4801Z" fill="#007A4E"/>
<path d="M109.387 51.4801C116.677 51.3705 116.677 62.83 109.387 62.7204C102.098 62.8301 102.098 51.3704 109.387 51.4801Z" fill="#007A4E"/>
<path d="M-30.6125 43.0006C-26.5232 42.9412 -26.5233 49.3598 -30.6125 49.3004C-34.7025 49.3604 -34.7025 42.9406 -30.6125 43.0006Z" fill="#007A4E"/>
<path d="M39.3875 43.0006C43.4767 42.9412 43.4767 49.3598 39.3875 49.3004C35.2975 49.3604 35.2975 42.9406 39.3875 43.0006Z" fill="#007A4E"/>
<path d="M144.387 43.0006C148.477 42.9409 148.477 49.3601 144.387 49.3004C140.298 49.36 140.298 42.941 144.387 43.0006Z" fill="#007A4E"/>
<path d="M74.3973 26.2506C80.077 26.1708 80.077 35.0904 74.3973 35.0006C68.7173 35.0806 68.7173 26.1606 74.3973 26.2506Z" fill="#007A4E"/>
<path d="M109.378 26.2506C115.057 26.1609 115.057 35.0803 109.378 35.0006C103.698 35.0906 103.698 26.1707 109.378 26.2506Z" fill="#007A4E"/>
<path d="M74.3875 1.00064C78.4767 0.941238 78.4767 7.35983 74.3875 7.30045C70.2975 7.36044 70.2975 0.940643 74.3875 1.00064Z" fill="#007A4E"/>
<path d="M109.387 1.00064C113.477 0.940948 113.477 7.36014 109.387 7.30045C105.298 7.36005 105.298 0.941025 109.387 1.00064Z" fill="#007A4E"/>
<path d="M778.388 586.32C792.237 586.38 792.237 607.45 778.388 607.51C764.538 607.45 764.538 586.38 778.388 586.32Z" fill="#007A4E"/>
<path d="M1098.39 586.32C1112.24 586.38 1112.24 607.45 1098.39 607.51C1084.54 607.45 1084.54 586.38 1098.39 586.32Z" fill="#007A4E"/>
<path d="M778.388 559.86C792.217 559.921 792.217 580.95 778.388 581.01C764.557 580.95 764.557 559.92 778.388 559.86Z" fill="#007A4E"/>
<path d="M1098.39 559.86C1112.22 559.92 1112.22 580.95 1098.39 581.01C1084.56 580.95 1084.56 559.92 1098.39 559.86Z" fill="#007A4E"/>
<path d="M813.388 544.32C827.237 544.38 827.237 565.45 813.388 565.51C799.538 565.45 799.538 544.38 813.388 544.32Z" fill="#007A4E"/>
<path d="M883.388 544.32C897.237 544.38 897.237 565.45 883.388 565.51C869.538 565.45 869.538 544.38 883.388 544.32Z" fill="#007A4E"/>
<path d="M1058.39 544.32C1072.24 544.38 1072.24 565.45 1058.39 565.51C1044.54 565.45 1044.54 544.38 1058.39 544.32Z" fill="#007A4E"/>
<path d="M778.388 533.8C791.567 533.611 791.567 554.319 778.388 554.12C765.208 554.31 765.208 533.6 778.388 533.8Z" fill="#007A4E"/>
<path d="M1098.39 533.8C1111.57 533.601 1111.57 554.309 1098.39 554.12C1085.21 554.32 1085.21 533.611 1098.39 533.8Z" fill="#007A4E"/>
<path d="M813.388 517.86C827.217 517.921 827.217 538.95 813.388 539.01C799.557 538.95 799.557 517.92 813.388 517.86Z" fill="#007A4E"/>
<path d="M883.388 517.86C897.217 517.921 897.217 538.95 883.388 539.01C869.557 538.95 869.557 517.92 883.388 517.86Z" fill="#007A4E"/>
<path d="M1058.39 517.86C1072.22 517.92 1072.22 538.95 1058.39 539.01C1044.56 538.95 1044.56 517.92 1058.39 517.86Z" fill="#007A4E"/>
<path d="M778.388 507.48C791.357 507.291 791.357 527.67 778.388 527.48C765.417 527.67 765.417 507.29 778.388 507.48Z" fill="#007A4E"/>
<path d="M1098.39 507.48C1111.36 507.29 1111.36 527.67 1098.39 527.48C1085.42 527.67 1085.42 507.29 1098.39 507.48Z" fill="#007A4E"/>
<path d="M848.388 502.32C862.237 502.38 862.237 523.45 848.388 523.51C834.538 523.45 834.538 502.38 848.388 502.32Z" fill="#007A4E"/>
<path d="M918.387 502.32C932.237 502.38 932.237 523.45 918.387 523.51C904.537 523.45 904.537 502.38 918.387 502.32Z" fill="#007A4E"/>
<path d="M1023.39 502.32C1037.24 502.38 1037.24 523.45 1023.39 523.51C1009.54 523.45 1009.54 502.38 1023.39 502.32Z" fill="#007A4E"/>
<path d="M813.388 491.8C826.567 491.611 826.567 512.319 813.388 512.12C800.208 512.31 800.208 491.6 813.388 491.8Z" fill="#007A4E"/>
<path d="M883.388 491.8C896.567 491.611 896.567 512.319 883.388 512.12C870.208 512.31 870.208 491.6 883.388 491.8Z" fill="#007A4E"/>
<path d="M1058.39 491.8C1071.57 491.601 1071.57 512.309 1058.39 512.12C1045.21 512.32 1045.21 491.611 1058.39 491.8Z" fill="#007A4E"/>
<path d="M778.388 481.55C790.657 481.371 790.657 500.65 778.388 500.47C766.117 500.65 766.117 481.37 778.388 481.55Z" fill="#007A4E"/>
<path d="M1098.39 481.55C1110.66 481.371 1110.66 500.65 1098.39 500.47C1086.12 500.65 1086.12 481.371 1098.39 481.55Z" fill="#007A4E"/>
<path d="M848.388 475.86C862.217 475.921 862.217 496.95 848.388 497.01C834.557 496.95 834.557 475.92 848.388 475.86Z" fill="#007A4E"/>
<path d="M918.387 475.86C932.217 475.921 932.217 496.95 918.387 497.01C904.557 496.95 904.557 475.92 918.387 475.86Z" fill="#007A4E"/>
<path d="M1023.39 475.86C1037.22 475.92 1037.22 496.95 1023.39 497.01C1009.56 496.95 1009.56 475.92 1023.39 475.86Z" fill="#007A4E"/>
<path d="M813.388 465.48C826.357 465.291 826.357 485.67 813.388 485.48C800.417 485.67 800.417 465.29 813.388 465.48Z" fill="#007A4E"/>
<path d="M883.388 465.48C896.357 465.291 896.357 485.67 883.388 485.48C870.417 485.67 870.417 465.29 883.388 465.48Z" fill="#007A4E"/>
<path d="M1058.39 465.48C1071.36 465.29 1071.36 485.67 1058.39 485.48C1045.42 485.67 1045.42 465.29 1058.39 465.48Z" fill="#007A4E"/>
<path d="M953.387 460.32C967.237 460.38 967.237 481.45 953.387 481.51C939.537 481.45 939.537 460.38 953.387 460.32Z" fill="#007A4E"/>
<path d="M988.387 460.32C1002.24 460.38 1002.24 481.45 988.387 481.51C974.538 481.45 974.538 460.38 988.387 460.32Z" fill="#007A4E"/>
<path d="M778.388 455.39C790.237 455.221 790.237 473.829 778.388 473.66C766.538 473.83 766.538 455.22 778.388 455.39Z" fill="#007A4E"/>
<path d="M1098.39 455.39C1110.24 455.221 1110.24 473.83 1098.39 473.66C1086.54 473.83 1086.54 455.22 1098.39 455.39Z" fill="#007A4E"/>
<path d="M848.388 449.8C861.567 449.611 861.567 470.319 848.388 470.12C835.208 470.31 835.208 449.6 848.388 449.8Z" fill="#007A4E"/>
<path d="M918.387 449.8C931.567 449.611 931.567 470.319 918.387 470.12C905.207 470.31 905.207 449.6 918.387 449.8Z" fill="#007A4E"/>
<path d="M1023.39 449.8C1036.57 449.601 1036.57 470.309 1023.39 470.12C1010.21 470.32 1010.21 449.611 1023.39 449.8Z" fill="#007A4E"/>
<path d="M813.388 439.55C825.657 439.371 825.657 458.65 813.388 458.47C801.117 458.65 801.117 439.37 813.388 439.55Z" fill="#007A4E"/>
<path d="M883.388 439.55C895.657 439.371 895.657 458.65 883.388 458.47C871.117 458.65 871.117 439.37 883.388 439.55Z" fill="#007A4E"/>
<path d="M1058.39 439.55C1070.66 439.371 1070.66 458.65 1058.39 458.47C1046.12 458.65 1046.12 439.371 1058.39 439.55Z" fill="#007A4E"/>
<path d="M953.387 433.86C967.217 433.92 967.217 454.95 953.387 455.01C939.557 454.95 939.557 433.92 953.387 433.86Z" fill="#007A4E"/>
<path d="M988.387 433.86C1002.22 433.92 1002.22 454.95 988.387 455.01C974.558 454.95 974.558 433.92 988.387 433.86Z" fill="#007A4E"/>
<path d="M778.397 429.461C789.547 429.301 789.547 446.81 778.397 446.65C767.247 446.81 767.247 429.301 778.397 429.461Z" fill="#007A4E"/>
<path d="M1098.38 429.461C1109.53 429.301 1109.53 446.81 1098.38 446.65C1087.23 446.81 1087.23 429.301 1098.38 429.461Z" fill="#007A4E"/>
<path d="M848.388 423.48C861.357 423.291 861.357 443.67 848.388 443.48C835.417 443.67 835.417 423.29 848.388 423.48Z" fill="#007A4E"/>
<path d="M918.387 423.48C931.357 423.291 931.357 443.67 918.387 443.48C905.417 443.67 905.417 423.29 918.387 423.48Z" fill="#007A4E"/>
<path d="M1023.39 423.48C1036.36 423.29 1036.36 443.67 1023.39 443.48C1010.42 443.67 1010.42 423.29 1023.39 423.48Z" fill="#007A4E"/>
<path d="M813.388 413.39C825.237 413.221 825.237 431.829 813.388 431.66C801.538 431.83 801.538 413.22 813.388 413.39Z" fill="#007A4E"/>
<path d="M883.388 413.39C895.237 413.221 895.237 431.829 883.388 431.66C871.538 431.83 871.538 413.22 883.388 413.39Z" fill="#007A4E"/>
<path d="M1058.39 413.39C1070.24 413.221 1070.24 431.829 1058.39 431.66C1046.54 431.83 1046.54 413.22 1058.39 413.39Z" fill="#007A4E"/>
<path d="M953.387 407.8C966.567 407.611 966.567 428.319 953.387 428.12C940.208 428.31 940.208 407.6 953.387 407.8Z" fill="#007A4E"/>
<path d="M988.387 407.8C1001.57 407.601 1001.57 428.309 988.387 428.12C975.208 428.319 975.208 407.611 988.387 407.8Z" fill="#007A4E"/>
<path d="M778.388 403.84C788.437 403.691 788.437 419.48 778.388 419.331C768.338 419.481 768.338 403.69 778.388 403.84Z" fill="#007A4E"/>
<path d="M1098.39 403.84C1108.44 403.691 1108.44 419.48 1098.39 419.331C1088.34 419.48 1088.34 403.691 1098.39 403.84Z" fill="#007A4E"/>
<path d="M848.388 397.55C860.657 397.371 860.657 416.65 848.388 416.47C836.117 416.65 836.117 397.37 848.388 397.55Z" fill="#007A4E"/>
<path d="M918.387 397.55C930.657 397.371 930.657 416.65 918.387 416.47C906.117 416.65 906.117 397.37 918.387 397.55Z" fill="#007A4E"/>
<path d="M1023.39 397.55C1035.66 397.371 1035.66 416.65 1023.39 416.47C1011.12 416.65 1011.12 397.371 1023.39 397.55Z" fill="#007A4E"/>
<path d="M813.397 387.461C824.547 387.301 824.547 404.81 813.397 404.65C802.247 404.81 802.247 387.301 813.397 387.461Z" fill="#007A4E"/>
<path d="M883.397 387.461C894.547 387.301 894.547 404.81 883.397 404.65C872.247 404.81 872.247 387.301 883.397 387.461Z" fill="#007A4E"/>
<path d="M1058.38 387.461C1069.53 387.301 1069.53 404.81 1058.38 404.65C1047.23 404.81 1047.23 387.301 1058.38 387.461Z" fill="#007A4E"/>
<path d="M953.387 381.48C966.357 381.291 966.357 401.67 953.387 401.48C940.417 401.67 940.417 381.29 953.387 381.48Z" fill="#007A4E"/>
<path d="M988.387 381.48C1001.36 381.29 1001.36 401.67 988.387 401.48C975.418 401.67 975.418 381.29 988.387 381.48Z" fill="#007A4E"/>
<path d="M778.388 379.48C785.677 379.371 785.677 390.83 778.388 390.72C771.098 390.83 771.098 379.37 778.388 379.48Z" fill="#007A4E"/>
<path d="M1098.39 379.48C1105.68 379.37 1105.68 390.83 1098.39 390.72C1091.1 390.83 1091.1 379.37 1098.39 379.48Z" fill="#007A4E"/>
<path d="M848.388 371.39C860.237 371.221 860.237 389.829 848.388 389.66C836.538 389.83 836.538 371.22 848.388 371.39Z" fill="#007A4E"/>
<path d="M918.387 371.39C930.237 371.221 930.237 389.829 918.387 389.66C906.537 389.83 906.537 371.22 918.387 371.39Z" fill="#007A4E"/>
<path d="M1023.39 371.39C1035.24 371.221 1035.24 389.829 1023.39 389.66C1011.54 389.83 1011.54 371.22 1023.39 371.39Z" fill="#007A4E"/>
<path d="M813.388 361.84C823.437 361.691 823.437 377.48 813.388 377.331C803.338 377.481 803.338 361.69 813.388 361.84Z" fill="#007A4E"/>
<path d="M883.388 361.84C893.437 361.691 893.437 377.48 883.388 377.331C873.338 377.481 873.338 361.69 883.388 361.84Z" fill="#007A4E"/>
<path d="M1058.39 361.84C1068.44 361.691 1068.44 377.48 1058.39 377.331C1048.34 377.48 1048.34 361.691 1058.39 361.84Z" fill="#007A4E"/>
<path d="M953.387 355.55C965.657 355.371 965.657 374.65 953.387 374.47C941.117 374.65 941.117 355.37 953.387 355.55Z" fill="#007A4E"/>
<path d="M988.387 355.55C1000.66 355.371 1000.66 374.65 988.387 374.47C976.118 374.65 976.118 355.371 988.387 355.55Z" fill="#007A4E"/>
<path d="M778.397 354.251C784.077 354.171 784.077 363.09 778.397 363.001C772.717 363.081 772.717 354.161 778.397 354.251Z" fill="#007A4E"/>
<path d="M1098.38 354.251C1104.06 354.161 1104.06 363.08 1098.38 363.001C1092.7 363.091 1092.7 354.171 1098.38 354.251Z" fill="#007A4E"/>
<path d="M848.397 345.461C859.547 345.301 859.547 362.81 848.397 362.65C837.247 362.81 837.247 345.301 848.397 345.461Z" fill="#007A4E"/>
<path d="M918.397 345.461C929.547 345.301 929.547 362.81 918.397 362.65C907.247 362.81 907.247 345.301 918.397 345.461Z" fill="#007A4E"/>
<path d="M1023.38 345.461C1034.53 345.301 1034.53 362.81 1023.38 362.65C1012.23 362.81 1012.23 345.301 1023.38 345.461Z" fill="#007A4E"/>
<path d="M813.388 337.48C820.677 337.371 820.677 348.83 813.388 348.72C806.098 348.83 806.098 337.37 813.388 337.48Z" fill="#007A4E"/>
<path d="M883.388 337.48C890.677 337.371 890.677 348.83 883.388 348.72C876.098 348.83 876.098 337.37 883.388 337.48Z" fill="#007A4E"/>
<path d="M1058.39 337.48C1065.68 337.37 1065.68 348.83 1058.39 348.72C1051.1 348.83 1051.1 337.37 1058.39 337.48Z" fill="#007A4E"/>
<path d="M953.387 329.39C965.237 329.221 965.237 347.829 953.387 347.66C941.537 347.83 941.537 329.22 953.387 329.39Z" fill="#007A4E"/>
<path d="M988.387 329.39C1000.24 329.221 1000.24 347.829 988.387 347.66C976.538 347.83 976.538 329.22 988.387 329.39Z" fill="#007A4E"/>
<path d="M848.388 319.84C858.437 319.691 858.437 335.48 848.388 335.331C838.338 335.481 838.338 319.69 848.388 319.84Z" fill="#007A4E"/>
<path d="M918.387 319.84C928.437 319.691 928.437 335.48 918.387 335.331C908.337 335.481 908.337 319.69 918.387 319.84Z" fill="#007A4E"/>
<path d="M1023.39 319.84C1033.44 319.691 1033.44 335.48 1023.39 335.331C1013.34 335.48 1013.34 319.691 1023.39 319.84Z" fill="#007A4E"/>
<path d="M778.388 329.001C782.477 328.941 782.477 335.36 778.388 335.3C774.297 335.36 774.297 328.941 778.388 329.001Z" fill="#007A4E"/>
<path d="M1098.39 329.001C1102.48 328.941 1102.48 335.36 1098.39 335.3C1094.3 335.36 1094.3 328.941 1098.39 329.001Z" fill="#007A4E"/>
<path d="M813.397 312.251C819.077 312.171 819.077 321.09 813.397 321.001C807.717 321.081 807.717 312.161 813.397 312.251Z" fill="#007A4E"/>
<path d="M883.397 312.251C889.077 312.171 889.077 321.09 883.397 321.001C877.717 321.081 877.717 312.161 883.397 312.251Z" fill="#007A4E"/>
<path d="M1058.38 312.251C1064.06 312.161 1064.06 321.08 1058.38 321.001C1052.7 321.091 1052.7 312.171 1058.38 312.251Z" fill="#007A4E"/>
<path d="M953.397 303.461C964.547 303.301 964.547 320.81 953.397 320.65C942.247 320.81 942.247 303.301 953.397 303.461Z" fill="#007A4E"/>
<path d="M988.378 303.461C999.527 303.301 999.527 320.81 988.378 320.65C977.228 320.81 977.228 303.301 988.378 303.461Z" fill="#007A4E"/>
<path d="M848.388 295.48C855.677 295.371 855.677 306.83 848.388 306.72C841.098 306.83 841.098 295.37 848.388 295.48Z" fill="#007A4E"/>
<path d="M918.387 295.48C925.677 295.371 925.677 306.83 918.387 306.72C911.097 306.83 911.097 295.37 918.387 295.48Z" fill="#007A4E"/>
<path d="M1023.39 295.48C1030.68 295.37 1030.68 306.83 1023.39 306.72C1016.1 306.83 1016.1 295.37 1023.39 295.48Z" fill="#007A4E"/>
<path d="M953.387 277.84C963.437 277.691 963.437 293.48 953.387 293.331C943.337 293.481 943.337 277.69 953.387 277.84Z" fill="#007A4E"/>
<path d="M988.387 277.84C998.437 277.691 998.437 293.48 988.387 293.331C978.338 293.48 978.338 277.691 988.387 277.84Z" fill="#007A4E"/>
<path d="M813.388 287.001C817.477 286.941 817.477 293.36 813.388 293.3C809.297 293.36 809.297 286.941 813.388 287.001Z" fill="#007A4E"/>
<path d="M883.388 287.001C887.477 286.941 887.477 293.36 883.388 293.3C879.297 293.36 879.297 286.941 883.388 287.001Z" fill="#007A4E"/>
<path d="M1058.39 287.001C1062.48 286.941 1062.48 293.36 1058.39 293.3C1054.3 293.36 1054.3 286.941 1058.39 287.001Z" fill="#007A4E"/>
<path d="M848.397 270.251C854.077 270.171 854.077 279.09 848.397 279.001C842.717 279.081 842.717 270.161 848.397 270.251Z" fill="#007A4E"/>
<path d="M918.397 270.251C924.077 270.171 924.077 279.09 918.397 279.001C912.717 279.081 912.717 270.161 918.397 270.251Z" fill="#007A4E"/>
<path d="M1023.38 270.251C1029.06 270.161 1029.06 279.08 1023.38 279.001C1017.7 279.091 1017.7 270.171 1023.38 270.251Z" fill="#007A4E"/>
<path d="M953.387 253.48C960.677 253.371 960.677 264.83 953.387 264.72C946.097 264.83 946.097 253.37 953.387 253.48Z" fill="#007A4E"/>
<path d="M988.387 253.48C995.677 253.37 995.677 264.83 988.387 264.72C981.098 264.83 981.098 253.37 988.387 253.48Z" fill="#007A4E"/>
<path d="M848.388 245.001C852.477 244.941 852.477 251.36 848.388 251.3C844.297 251.36 844.297 244.941 848.388 245.001Z" fill="#007A4E"/>
<path d="M918.387 245.001C922.477 244.941 922.477 251.36 918.387 251.3C914.297 251.36 914.297 244.941 918.387 245.001Z" fill="#007A4E"/>
<path d="M1023.39 245.001C1027.48 244.941 1027.48 251.36 1023.39 251.3C1019.3 251.36 1019.3 244.941 1023.39 245.001Z" fill="#007A4E"/>
<path d="M953.397 228.251C959.077 228.171 959.077 237.09 953.397 237.001C947.717 237.081 947.717 228.161 953.397 228.251Z" fill="#007A4E"/>
<path d="M988.378 228.251C994.057 228.161 994.057 237.08 988.378 237.001C982.698 237.091 982.698 228.171 988.378 228.251Z" fill="#007A4E"/>
<path d="M953.387 203.001C957.477 202.941 957.477 209.36 953.387 209.3C949.297 209.36 949.297 202.941 953.387 203.001Z" fill="#007A4E"/>
<path d="M988.387 203.001C992.477 202.941 992.477 209.36 988.387 209.3C984.298 209.36 984.298 202.941 988.387 203.001Z" fill="#007A4E"/>
<path d="M1220.39 -228.81C1234.24 -228.87 1234.24 -249.94 1220.39 -250C1206.54 -249.94 1206.54 -228.87 1220.39 -228.81Z" fill="#007A4E"/>
<path d="M1540.39 -228.81C1554.24 -228.87 1554.24 -249.94 1540.39 -250C1526.54 -249.94 1526.54 -228.87 1540.39 -228.81Z" fill="#007A4E"/>
<path d="M1220.39 -202.35C1234.22 -202.41 1234.22 -223.44 1220.39 -223.5C1206.56 -223.44 1206.56 -202.41 1220.39 -202.35Z" fill="#007A4E"/>
<path d="M1540.39 -202.35C1554.22 -202.41 1554.22 -223.44 1540.39 -223.5C1526.56 -223.44 1526.56 -202.41 1540.39 -202.35Z" fill="#007A4E"/>
<path d="M1255.39 -186.81C1269.24 -186.87 1269.24 -207.94 1255.39 -208C1241.54 -207.94 1241.54 -186.87 1255.39 -186.81Z" fill="#007A4E"/>
<path d="M1325.39 -186.81C1339.24 -186.87 1339.24 -207.94 1325.39 -208C1311.54 -207.94 1311.54 -186.87 1325.39 -186.81Z" fill="#007A4E"/>
<path d="M1500.39 -186.81C1514.24 -186.87 1514.24 -207.94 1500.39 -208C1486.54 -207.94 1486.54 -186.87 1500.39 -186.81Z" fill="#007A4E"/>
<path d="M1220.39 -176.29C1233.57 -176.1 1233.57 -196.809 1220.39 -196.609C1207.21 -196.799 1207.21 -176.09 1220.39 -176.29Z" fill="#007A4E"/>
<path d="M1540.39 -176.29C1553.57 -176.09 1553.57 -196.799 1540.39 -196.609C1527.21 -196.809 1527.21 -176.1 1540.39 -176.29Z" fill="#007A4E"/>
<path d="M1255.39 -160.35C1269.22 -160.41 1269.22 -181.44 1255.39 -181.5C1241.56 -181.44 1241.56 -160.41 1255.39 -160.35Z" fill="#007A4E"/>
<path d="M1325.39 -160.35C1339.22 -160.41 1339.22 -181.44 1325.39 -181.5C1311.56 -181.44 1311.56 -160.41 1325.39 -160.35Z" fill="#007A4E"/>
<path d="M1500.39 -160.35C1514.22 -160.41 1514.22 -181.44 1500.39 -181.5C1486.56 -181.44 1486.56 -160.41 1500.39 -160.35Z" fill="#007A4E"/>
<path d="M1220.39 -149.97C1233.36 -149.78 1233.36 -170.159 1220.39 -169.97C1207.42 -170.16 1207.42 -149.78 1220.39 -149.97Z" fill="#007A4E"/>
<path d="M1540.39 -149.97C1553.36 -149.78 1553.36 -170.159 1540.39 -169.97C1527.42 -170.159 1527.42 -149.78 1540.39 -149.97Z" fill="#007A4E"/>
<path d="M1290.39 -144.81C1304.24 -144.87 1304.24 -165.94 1290.39 -166C1276.54 -165.94 1276.54 -144.87 1290.39 -144.81Z" fill="#007A4E"/>
<path d="M1360.39 -144.81C1374.24 -144.87 1374.24 -165.94 1360.39 -166C1346.54 -165.94 1346.54 -144.87 1360.39 -144.81Z" fill="#007A4E"/>
<path d="M1465.39 -144.81C1479.24 -144.87 1479.24 -165.94 1465.39 -166C1451.54 -165.94 1451.54 -144.87 1465.39 -144.81Z" fill="#007A4E"/>
<path d="M1255.39 -134.29C1268.57 -134.1 1268.57 -154.809 1255.39 -154.609C1242.21 -154.799 1242.21 -134.09 1255.39 -134.29Z" fill="#007A4E"/>
<path d="M1325.39 -134.29C1338.57 -134.1 1338.57 -154.809 1325.39 -154.609C1312.21 -154.799 1312.21 -134.09 1325.39 -134.29Z" fill="#007A4E"/>
<path d="M1500.39 -134.29C1513.57 -134.09 1513.57 -154.799 1500.39 -154.609C1487.21 -154.809 1487.21 -134.1 1500.39 -134.29Z" fill="#007A4E"/>
<path d="M1220.39 -124.04C1232.66 -123.861 1232.66 -143.139 1220.39 -142.96C1208.12 -143.14 1208.12 -123.86 1220.39 -124.04Z" fill="#007A4E"/>
<path d="M1540.39 -124.04C1552.66 -123.86 1552.66 -143.14 1540.39 -142.96C1528.12 -143.14 1528.12 -123.86 1540.39 -124.04Z" fill="#007A4E"/>
<path d="M1290.39 -118.35C1304.22 -118.41 1304.22 -139.44 1290.39 -139.5C1276.56 -139.44 1276.56 -118.41 1290.39 -118.35Z" fill="#007A4E"/>
<path d="M1360.39 -118.35C1374.22 -118.41 1374.22 -139.44 1360.39 -139.5C1346.56 -139.44 1346.56 -118.41 1360.39 -118.35Z" fill="#007A4E"/>
<path d="M1465.39 -118.35C1479.22 -118.41 1479.22 -139.44 1465.39 -139.5C1451.56 -139.44 1451.56 -118.41 1465.39 -118.35Z" fill="#007A4E"/>
<path d="M1255.39 -107.97C1268.36 -107.78 1268.36 -128.159 1255.39 -127.97C1242.42 -128.16 1242.42 -107.78 1255.39 -107.97Z" fill="#007A4E"/>
<path d="M1325.39 -107.97C1338.36 -107.78 1338.36 -128.159 1325.39 -127.97C1312.42 -128.16 1312.42 -107.78 1325.39 -107.97Z" fill="#007A4E"/>
<path d="M1500.39 -107.97C1513.36 -107.78 1513.36 -128.159 1500.39 -127.97C1487.42 -128.159 1487.42 -107.78 1500.39 -107.97Z" fill="#007A4E"/>
<path d="M1395.39 -102.81C1409.24 -102.87 1409.24 -123.94 1395.39 -124C1381.54 -123.94 1381.54 -102.87 1395.39 -102.81Z" fill="#007A4E"/>
<path d="M1430.39 -102.81C1444.24 -102.87 1444.24 -123.94 1430.39 -124C1416.54 -123.94 1416.54 -102.87 1430.39 -102.81Z" fill="#007A4E"/>
<path d="M1220.39 -97.8799C1232.24 -97.7103 1232.24 -116.319 1220.39 -116.149C1208.54 -116.319 1208.54 -97.7099 1220.39 -97.8799Z" fill="#007A4E"/>
<path d="M1540.39 -97.8799C1552.24 -97.7102 1552.24 -116.319 1540.39 -116.149C1528.54 -116.319 1528.54 -97.7101 1540.39 -97.8799Z" fill="#007A4E"/>
<path d="M1290.39 -92.29C1303.57 -92.1005 1303.57 -112.809 1290.39 -112.609C1277.21 -112.799 1277.21 -92.09 1290.39 -92.29Z" fill="#007A4E"/>
<path d="M1360.39 -92.29C1373.57 -92.1005 1373.57 -112.809 1360.39 -112.609C1347.21 -112.799 1347.21 -92.09 1360.39 -92.29Z" fill="#007A4E"/>
<path d="M1465.39 -92.29C1478.57 -92.0903 1478.57 -112.799 1465.39 -112.609C1452.21 -112.809 1452.21 -92.1003 1465.39 -92.29Z" fill="#007A4E"/>
<path d="M1255.39 -82.04C1267.66 -81.8606 1267.66 -101.139 1255.39 -100.96C1243.12 -101.14 1243.12 -81.86 1255.39 -82.04Z" fill="#007A4E"/>
<path d="M1325.39 -82.04C1337.66 -81.8606 1337.66 -101.139 1325.39 -100.96C1313.12 -101.14 1313.12 -81.86 1325.39 -82.04Z" fill="#007A4E"/>
<path d="M1500.39 -82.04C1512.66 -81.8603 1512.66 -101.14 1500.39 -100.96C1488.12 -101.14 1488.12 -81.8604 1500.39 -82.04Z" fill="#007A4E"/>
<path d="M1395.39 -76.3496C1409.22 -76.4101 1409.22 -97.4395 1395.39 -97.5C1381.56 -97.44 1381.56 -76.4096 1395.39 -76.3496Z" fill="#007A4E"/>
<path d="M1430.39 -76.3496C1444.22 -76.4099 1444.22 -97.4397 1430.39 -97.5C1416.56 -97.4397 1416.56 -76.4099 1430.39 -76.3496Z" fill="#007A4E"/>
<path d="M1220.4 -71.9502C1231.55 -71.7904 1231.55 -89.2994 1220.4 -89.1396C1209.25 -89.2996 1209.25 -71.7902 1220.4 -71.9502Z" fill="#007A4E"/>
<path d="M1540.38 -71.9502C1551.53 -71.7905 1551.53 -89.2993 1540.38 -89.1396C1529.23 -89.2996 1529.23 -71.7902 1540.38 -71.9502Z" fill="#007A4E"/>
<path d="M1290.39 -65.9697C1303.36 -65.7802 1303.36 -86.1592 1290.39 -85.9697C1277.42 -86.1597 1277.42 -65.7797 1290.39 -65.9697Z" fill="#007A4E"/>
<path d="M1360.39 -65.9697C1373.36 -65.7802 1373.36 -86.1592 1360.39 -85.9697C1347.42 -86.1597 1347.42 -65.7797 1360.39 -65.9697Z" fill="#007A4E"/>
<path d="M1465.39 -65.9697C1478.36 -65.78 1478.36 -86.1594 1465.39 -85.9697C1452.42 -86.1594 1452.42 -65.78 1465.39 -65.9697Z" fill="#007A4E"/>
<path d="M1255.39 -55.8799C1267.24 -55.7103 1267.24 -74.319 1255.39 -74.1494C1243.54 -74.3194 1243.54 -55.7099 1255.39 -55.8799Z" fill="#007A4E"/>
<path d="M1325.39 -55.8799C1337.24 -55.7103 1337.24 -74.319 1325.39 -74.1494C1313.54 -74.3194 1313.54 -55.7099 1325.39 -55.8799Z" fill="#007A4E"/>
<path d="M1500.39 -55.8799C1512.24 -55.7102 1512.24 -74.3191 1500.39 -74.1494C1488.54 -74.3192 1488.54 -55.7101 1500.39 -55.8799Z" fill="#007A4E"/>
<path d="M1395.39 -50.29C1408.57 -50.1005 1408.57 -70.8089 1395.39 -70.6094C1382.21 -70.7994 1382.21 -50.09 1395.39 -50.29Z" fill="#007A4E"/>
<path d="M1430.39 -50.29C1443.57 -50.0903 1443.57 -70.799 1430.39 -70.6094C1417.21 -70.8091 1417.21 -50.1003 1430.39 -50.29Z" fill="#007A4E"/>
<path d="M1220.39 -46.3301C1230.44 -46.1806 1230.44 -61.9697 1220.39 -61.8203C1210.34 -61.9703 1210.34 -46.1801 1220.39 -46.3301Z" fill="#007A4E"/>
<path d="M1540.39 -46.3301C1550.44 -46.1804 1550.44 -61.97 1540.39 -61.8203C1530.34 -61.9699 1530.34 -46.1804 1540.39 -46.3301Z" fill="#007A4E"/>
<path d="M1290.39 -40.04C1302.66 -39.8606 1302.66 -59.1393 1290.39 -58.9599C1278.12 -59.1399 1278.12 -39.86 1290.39 -40.04Z" fill="#007A4E"/>
<path d="M1360.39 -40.04C1372.66 -39.8606 1372.66 -59.1393 1360.39 -58.9599C1348.12 -59.1399 1348.12 -39.86 1360.39 -40.04Z" fill="#007A4E"/>
<path d="M1465.39 -40.04C1477.66 -39.8603 1477.66 -59.1396 1465.39 -58.9599C1453.12 -59.1395 1453.12 -39.8604 1465.39 -40.04Z" fill="#007A4E"/>
<path d="M1255.4 -29.9502C1266.55 -29.7904 1266.55 -47.2994 1255.4 -47.1396C1244.25 -47.2996 1244.25 -29.7902 1255.4 -29.9502Z" fill="#007A4E"/>
<path d="M1325.4 -29.9502C1336.55 -29.7904 1336.55 -47.2994 1325.4 -47.1396C1314.25 -47.2996 1314.25 -29.7902 1325.4 -29.9502Z" fill="#007A4E"/>
<path d="M1500.38 -29.9502C1511.53 -29.7905 1511.53 -47.2993 1500.38 -47.1396C1489.23 -47.2996 1489.23 -29.7902 1500.38 -29.9502Z" fill="#007A4E"/>
<path d="M1395.39 -23.9697C1408.36 -23.7802 1408.36 -44.1592 1395.39 -43.9697C1382.42 -44.1597 1382.42 -23.7797 1395.39 -23.9697Z" fill="#007A4E"/>
<path d="M1430.39 -23.9697C1443.36 -23.78 1443.36 -44.1594 1430.39 -43.9697C1417.42 -44.1594 1417.42 -23.78 1430.39 -23.9697Z" fill="#007A4E"/>
<path d="M1220.39 -21.9697C1227.68 -21.8602 1227.68 -33.3194 1220.39 -33.2099C1213.1 -33.3199 1213.1 -21.8597 1220.39 -21.9697Z" fill="#007A4E"/>
<path d="M1540.39 -21.9697C1547.68 -21.86 1547.68 -33.3196 1540.39 -33.2099C1533.1 -33.3197 1533.1 -21.86 1540.39 -21.9697Z" fill="#007A4E"/>
<path d="M1290.39 -13.8799C1302.24 -13.7103 1302.24 -32.319 1290.39 -32.1494C1278.54 -32.3194 1278.54 -13.7099 1290.39 -13.8799Z" fill="#007A4E"/>
<path d="M1360.39 -13.8799C1372.24 -13.7103 1372.24 -32.319 1360.39 -32.1494C1348.54 -32.3194 1348.54 -13.7099 1360.39 -13.8799Z" fill="#007A4E"/>
<path d="M1465.39 -13.8799C1477.24 -13.7102 1477.24 -32.3191 1465.39 -32.1494C1453.54 -32.3192 1453.54 -13.7101 1465.39 -13.8799Z" fill="#007A4E"/>
<path d="M1255.39 -4.33006C1265.44 -4.18063 1265.44 -19.9697 1255.39 -19.8203C1245.34 -19.9703 1245.34 -4.18007 1255.39 -4.33006Z" fill="#007A4E"/>
<path d="M1325.39 -4.33006C1335.44 -4.18063 1335.44 -19.9697 1325.39 -19.8203C1315.34 -19.9703 1315.34 -4.18007 1325.39 -4.33006Z" fill="#007A4E"/>
<path d="M1500.39 -4.33006C1510.44 -4.18037 1510.44 -19.97 1500.39 -19.8203C1490.34 -19.9699 1490.34 -4.18042 1500.39 -4.33006Z" fill="#007A4E"/>
<path d="M1395.39 1.95998C1407.66 2.13937 1407.66 -17.1393 1395.39 -16.9599C1383.12 -17.1399 1383.12 2.13997 1395.39 1.95998Z" fill="#007A4E"/>
<path d="M1430.39 1.95998C1442.66 2.13966 1442.66 -17.1396 1430.39 -16.9599C1418.12 -17.1395 1418.12 2.13957 1430.39 1.95998Z" fill="#007A4E"/>
<path d="M1220.4 3.25978C1226.08 3.33957 1226.08 -5.57999 1220.4 -5.49022C1214.72 -5.57022 1214.72 3.34978 1220.4 3.25978Z" fill="#007A4E"/>
<path d="M1540.38 3.25978C1546.06 3.34947 1546.06 -5.5699 1540.38 -5.49022C1534.7 -5.5802 1534.7 3.33978 1540.38 3.25978Z" fill="#007A4E"/>
<path d="M1290.4 12.0498C1301.55 12.2095 1301.55 -5.29936 1290.4 -5.13963C1279.25 -5.29964 1279.25 12.2098 1290.4 12.0498Z" fill="#007A4E"/>
<path d="M1360.4 12.0498C1371.55 12.2095 1371.55 -5.29936 1360.4 -5.13963C1349.25 -5.29964 1349.25 12.2098 1360.4 12.0498Z" fill="#007A4E"/>
<path d="M1465.38 12.0498C1476.53 12.2095 1476.53 -5.29932 1465.38 -5.13963C1454.23 -5.29958 1454.23 12.2098 1465.38 12.0498Z" fill="#007A4E"/>
<path d="M1255.39 20.0303C1262.68 20.1398 1262.68 8.68054 1255.39 8.79004C1248.1 8.68005 1248.1 20.1403 1255.39 20.0303Z" fill="#007A4E"/>
<path d="M1325.39 20.0303C1332.68 20.1398 1332.68 8.68054 1325.39 8.79004C1318.1 8.68005 1318.1 20.1403 1325.39 20.0303Z" fill="#007A4E"/>
<path d="M1500.39 20.0303C1507.68 20.14 1507.68 8.68036 1500.39 8.79004C1493.1 8.68033 1493.1 20.14 1500.39 20.0303Z" fill="#007A4E"/>
<path d="M1395.39 28.1201C1407.24 28.2897 1407.24 9.681 1395.39 9.85059C1383.54 9.6806 1383.54 28.2901 1395.39 28.1201Z" fill="#007A4E"/>
<path d="M1430.39 28.1201C1442.24 28.2898 1442.24 9.68091 1430.39 9.85059C1418.54 9.68079 1418.54 28.2899 1430.39 28.1201Z" fill="#007A4E"/>
<path d="M1290.39 37.6699C1300.44 37.8194 1300.44 22.0303 1290.39 22.1797C1280.34 22.0297 1280.34 37.8199 1290.39 37.6699Z" fill="#007A4E"/>
<path d="M1360.39 37.6699C1370.44 37.8194 1370.44 22.0303 1360.39 22.1797C1350.34 22.0297 1350.34 37.8199 1360.39 37.6699Z" fill="#007A4E"/>
<path d="M1465.39 37.6699C1475.44 37.8196 1475.44 22.03 1465.39 22.1797C1455.34 22.0301 1455.34 37.8196 1465.39 37.6699Z" fill="#007A4E"/>
<path d="M1220.39 28.5098C1224.48 28.5692 1224.48 22.1506 1220.39 22.21C1216.3 22.15 1216.3 28.5698 1220.39 28.5098Z" fill="#007A4E"/>
<path d="M1540.39 28.5098C1544.48 28.5695 1544.48 22.1503 1540.39 22.21C1536.3 22.1504 1536.3 28.5694 1540.39 28.5098Z" fill="#007A4E"/>
<path d="M1255.4 45.2598C1261.08 45.3396 1261.08 36.42 1255.4 36.5098C1249.72 36.4297 1249.72 45.3498 1255.4 45.2598Z" fill="#007A4E"/>
<path d="M1325.4 45.2598C1331.08 45.3396 1331.08 36.42 1325.4 36.5098C1319.72 36.4297 1319.72 45.3498 1325.4 45.2598Z" fill="#007A4E"/>
<path d="M1500.38 45.2598C1506.06 45.3495 1506.06 36.4301 1500.38 36.5098C1494.7 36.4198 1494.7 45.3398 1500.38 45.2598Z" fill="#007A4E"/>
<path d="M1395.4 54.0498C1406.55 54.2096 1406.55 36.7006 1395.4 36.8604C1384.25 36.7003 1384.25 54.2098 1395.4 54.0498Z" fill="#007A4E"/>
<path d="M1430.38 54.0498C1441.53 54.2095 1441.53 36.7007 1430.38 36.8604C1419.23 36.7004 1419.23 54.2097 1430.38 54.0498Z" fill="#007A4E"/>
<path d="M1290.39 62.0303C1297.68 62.1398 1297.68 50.6805 1290.39 50.79C1283.1 50.6801 1283.1 62.1403 1290.39 62.0303Z" fill="#007A4E"/>
<path d="M1360.39 62.0303C1367.68 62.1398 1367.68 50.6805 1360.39 50.79C1353.1 50.6801 1353.1 62.1403 1360.39 62.0303Z" fill="#007A4E"/>
<path d="M1465.39 62.0303C1472.68 62.14 1472.68 50.6804 1465.39 50.79C1458.1 50.6803 1458.1 62.14 1465.39 62.0303Z" fill="#007A4E"/>
<path d="M1395.39 79.6699C1405.44 79.8194 1405.44 64.0303 1395.39 64.1797C1385.34 64.0297 1385.34 79.8199 1395.39 79.6699Z" fill="#007A4E"/>
<path d="M1430.39 79.6699C1440.44 79.8196 1440.44 64.03 1430.39 64.1797C1420.34 64.0301 1420.34 79.8196 1430.39 79.6699Z" fill="#007A4E"/>
<path d="M1255.39 70.5098C1259.48 70.5692 1259.48 64.1506 1255.39 64.21C1251.3 64.15 1251.3 70.5698 1255.39 70.5098Z" fill="#007A4E"/>
<path d="M1325.39 70.5098C1329.48 70.5692 1329.48 64.1506 1325.39 64.21C1321.3 64.15 1321.3 70.5698 1325.39 70.5098Z" fill="#007A4E"/>
<path d="M1500.39 70.5098C1504.48 70.5695 1504.48 64.1503 1500.39 64.21C1496.3 64.1504 1496.3 70.5694 1500.39 70.5098Z" fill="#007A4E"/>
<path d="M1290.4 87.2598C1296.08 87.3396 1296.08 78.42 1290.4 78.5098C1284.72 78.4297 1284.72 87.3498 1290.4 87.2598Z" fill="#007A4E"/>
<path d="M1360.4 87.2598C1366.08 87.3396 1366.08 78.42 1360.4 78.5098C1354.72 78.4297 1354.72 87.3498 1360.4 87.2598Z" fill="#007A4E"/>
<path d="M1465.38 87.2598C1471.06 87.3495 1471.06 78.4301 1465.38 78.5098C1459.7 78.4198 1459.7 87.3398 1465.38 87.2598Z" fill="#007A4E"/>
<path d="M1395.39 104.03C1402.68 104.14 1402.68 92.6805 1395.39 92.79C1388.1 92.6801 1388.1 104.14 1395.39 104.03Z" fill="#007A4E"/>
<path d="M1430.39 104.03C1437.68 104.14 1437.68 92.6804 1430.39 92.79C1423.1 92.6803 1423.1 104.14 1430.39 104.03Z" fill="#007A4E"/>
<path d="M1290.39 112.51C1294.48 112.569 1294.48 106.151 1290.39 106.21C1286.3 106.15 1286.3 112.57 1290.39 112.51Z" fill="#007A4E"/>
<path d="M1360.39 112.51C1364.48 112.569 1364.48 106.151 1360.39 106.21C1356.3 106.15 1356.3 112.57 1360.39 112.51Z" fill="#007A4E"/>
<path d="M1465.39 112.51C1469.48 112.569 1469.48 106.15 1465.39 106.21C1461.3 106.15 1461.3 112.569 1465.39 112.51Z" fill="#007A4E"/>
<path d="M1395.4 129.26C1401.08 129.34 1401.08 120.42 1395.4 120.51C1389.72 120.43 1389.72 129.35 1395.4 129.26Z" fill="#007A4E"/>
<path d="M1430.38 129.26C1436.06 129.349 1436.06 120.43 1430.38 120.51C1424.7 120.42 1424.7 129.34 1430.38 129.26Z" fill="#007A4E"/>
<path d="M1395.39 154.51C1399.48 154.569 1399.48 148.151 1395.39 148.21C1391.3 148.15 1391.3 154.57 1395.39 154.51Z" fill="#007A4E"/>
<path d="M1430.39 154.51C1434.48 154.569 1434.48 148.15 1430.39 148.21C1426.3 148.15 1426.3 154.569 1430.39 154.51Z" fill="#007A4E"/>
</svg>
