<svg width="1440" height="279" viewBox="0 0 1440 279" fill="none" xmlns="http://www.w3.org/2000/svg">
<g clip-path="url(#clip0_2313_565625)">
<path d="M-57.6125 383.32C-43.7633 383.38 -43.7633 404.45 -57.6125 404.51C-71.4625 404.45 -71.4625 383.38 -57.6125 383.32Z" fill="#DEEBE5"/>
<path d="M262.388 383.32C276.237 383.38 276.237 404.45 262.388 404.51C248.538 404.45 248.538 383.38 262.388 383.32Z" fill="#DEEBE5"/>
<path d="M-57.6125 356.86C-43.7834 356.921 -43.7834 377.949 -57.6125 378.01C-71.4425 377.95 -71.4425 356.92 -57.6125 356.86Z" fill="#DEEBE5"/>
<path d="M262.388 356.86C276.217 356.92 276.217 377.95 262.388 378.01C248.558 377.95 248.558 356.92 262.388 356.86Z" fill="#DEEBE5"/>
<path d="M-22.6125 341.32C-8.76328 341.38 -8.76328 362.45 -22.6125 362.51C-36.4625 362.45 -36.4625 341.38 -22.6125 341.32Z" fill="#DEEBE5"/>
<path d="M47.3875 341.32C61.2367 341.38 61.2367 362.45 47.3875 362.51C33.5375 362.45 33.5375 341.38 47.3875 341.32Z" fill="#DEEBE5"/>
<path d="M222.388 341.32C236.237 341.38 236.237 362.45 222.388 362.51C208.538 362.45 208.538 341.38 222.388 341.32Z" fill="#DEEBE5"/>
<path d="M-57.6125 330.8C-44.4334 330.611 -44.4333 351.319 -57.6125 351.12C-70.7925 351.31 -70.7925 330.6 -57.6125 330.8Z" fill="#DEEBE5"/>
<path d="M262.388 330.8C275.567 330.601 275.567 351.309 262.388 351.12C249.208 351.319 249.208 330.611 262.388 330.8Z" fill="#DEEBE5"/>
<path d="M-22.6125 314.86C-8.78342 314.921 -8.78342 335.949 -22.6125 336.01C-36.4425 335.95 -36.4425 314.92 -22.6125 314.86Z" fill="#DEEBE5"/>
<path d="M47.3875 314.86C61.2166 314.921 61.2166 335.949 47.3875 336.01C33.5575 335.95 33.5575 314.92 47.3875 314.86Z" fill="#DEEBE5"/>
<path d="M222.388 314.86C236.217 314.92 236.217 335.95 222.388 336.01C208.558 335.95 208.558 314.92 222.388 314.86Z" fill="#DEEBE5"/>
<path d="M-57.6125 304.48C-44.6434 304.291 -44.6434 324.669 -57.6125 324.48C-70.5825 324.67 -70.5825 304.29 -57.6125 304.48Z" fill="#DEEBE5"/>
<path d="M262.388 304.48C275.357 304.29 275.357 324.669 262.388 324.48C249.418 324.67 249.418 304.29 262.388 304.48Z" fill="#DEEBE5"/>
<path d="M12.3875 299.32C26.2367 299.38 26.2367 320.45 12.3875 320.51C-1.4625 320.45 -1.4625 299.38 12.3875 299.32Z" fill="#DEEBE5"/>
<path d="M82.3875 299.32C96.2367 299.38 96.2367 320.45 82.3875 320.51C68.5375 320.45 68.5375 299.38 82.3875 299.32Z" fill="#DEEBE5"/>
<path d="M187.387 299.32C201.237 299.38 201.237 320.45 187.387 320.51C173.538 320.45 173.538 299.38 187.387 299.32Z" fill="#DEEBE5"/>
<path d="M-22.6125 288.8C-9.43335 288.611 -9.43335 309.319 -22.6125 309.12C-35.7925 309.31 -35.7925 288.6 -22.6125 288.8Z" fill="#DEEBE5"/>
<path d="M47.3875 288.8C60.5666 288.611 60.5666 309.319 47.3875 309.12C34.2075 309.31 34.2075 288.6 47.3875 288.8Z" fill="#DEEBE5"/>
<path d="M222.388 288.8C235.567 288.601 235.567 309.309 222.388 309.12C209.208 309.319 209.208 288.611 222.388 288.8Z" fill="#DEEBE5"/>
<path d="M-57.6125 278.55C-45.3435 278.371 -45.3435 297.649 -57.6125 297.47C-69.8825 297.65 -69.8825 278.37 -57.6125 278.55Z" fill="#DEEBE5"/>
<path d="M262.388 278.55C274.657 278.371 274.657 297.65 262.388 297.47C250.118 297.65 250.118 278.371 262.388 278.55Z" fill="#DEEBE5"/>
<path d="M12.3875 272.86C26.2166 272.921 26.2166 293.949 12.3875 294.01C-1.4425 293.95 -1.4425 272.92 12.3875 272.86Z" fill="#DEEBE5"/>
<path d="M82.3875 272.86C96.2166 272.921 96.2166 293.949 82.3875 294.01C68.5575 293.95 68.5575 272.92 82.3875 272.86Z" fill="#DEEBE5"/>
<path d="M187.387 272.86C201.217 272.92 201.217 293.95 187.387 294.01C173.558 293.95 173.558 272.92 187.387 272.86Z" fill="#DEEBE5"/>
<path d="M-22.6125 262.48C-9.6434 262.291 -9.64339 282.669 -22.6125 282.48C-35.5825 282.67 -35.5825 262.29 -22.6125 262.48Z" fill="#DEEBE5"/>
<path d="M47.3875 262.48C60.3566 262.291 60.3566 282.669 47.3875 282.48C34.4175 282.67 34.4175 262.29 47.3875 262.48Z" fill="#DEEBE5"/>
<path d="M222.388 262.48C235.357 262.29 235.357 282.669 222.388 282.48C209.418 282.67 209.418 262.29 222.388 262.48Z" fill="#DEEBE5"/>
<path d="M117.387 257.32C131.237 257.38 131.237 278.45 117.387 278.51C103.537 278.45 103.537 257.38 117.387 257.32Z" fill="#DEEBE5"/>
<path d="M152.387 257.32C166.237 257.38 166.237 278.45 152.387 278.51C138.537 278.449 138.537 257.38 152.387 257.32Z" fill="#DEEBE5"/>
<path d="M-57.6125 252.39C-45.7633 252.221 -45.7633 270.829 -57.6125 270.66C-69.4625 270.83 -69.4625 252.22 -57.6125 252.39Z" fill="#DEEBE5"/>
<path d="M262.388 252.39C274.237 252.221 274.237 270.829 262.388 270.66C250.538 270.829 250.538 252.22 262.388 252.39Z" fill="#DEEBE5"/>
<path d="M12.3875 246.8C25.5666 246.611 25.5666 267.319 12.3875 267.12C-0.792503 267.31 -0.792503 246.6 12.3875 246.8Z" fill="#DEEBE5"/>
<path d="M82.3875 246.8C95.5666 246.611 95.5666 267.319 82.3875 267.12C69.2075 267.31 69.2075 246.6 82.3875 246.8Z" fill="#DEEBE5"/>
<path d="M187.387 246.8C200.567 246.601 200.567 267.309 187.387 267.12C174.208 267.319 174.208 246.61 187.387 246.8Z" fill="#DEEBE5"/>
<path d="M-22.6125 236.55C-10.3435 236.371 -10.3435 255.649 -22.6125 255.47C-34.8825 255.65 -34.8825 236.37 -22.6125 236.55Z" fill="#DEEBE5"/>
<path d="M47.3875 236.55C59.6565 236.371 59.6565 255.649 47.3875 255.47C35.1175 255.65 35.1175 236.37 47.3875 236.55Z" fill="#DEEBE5"/>
<path d="M222.388 236.55C234.657 236.371 234.657 255.65 222.388 255.47C210.118 255.65 210.118 236.371 222.388 236.55Z" fill="#DEEBE5"/>
<path d="M117.387 230.86C131.217 230.92 131.217 251.949 117.387 252.01C103.557 251.95 103.557 230.92 117.387 230.86Z" fill="#DEEBE5"/>
<path d="M152.387 230.86C166.217 230.92 166.217 251.95 152.387 252.01C138.558 251.949 138.558 230.921 152.387 230.86Z" fill="#DEEBE5"/>
<path d="M-57.6027 226.46C-46.4533 226.301 -46.4533 243.809 -57.6027 243.65C-68.7527 243.81 -68.7527 226.3 -57.6027 226.46Z" fill="#DEEBE5"/>
<path d="M262.378 226.46C273.527 226.301 273.527 243.809 262.378 243.65C251.228 243.81 251.228 226.3 262.378 226.46Z" fill="#DEEBE5"/>
<path d="M12.3875 220.48C25.3566 220.291 25.3566 240.669 12.3875 240.48C-0.582504 240.67 -0.582504 220.29 12.3875 220.48Z" fill="#DEEBE5"/>
<path d="M82.3875 220.48C95.3566 220.291 95.3566 240.669 82.3875 240.48C69.4175 240.67 69.4175 220.29 82.3875 220.48Z" fill="#DEEBE5"/>
<path d="M187.387 220.48C200.357 220.29 200.357 240.669 187.387 240.48C174.418 240.67 174.418 220.29 187.387 220.48Z" fill="#DEEBE5"/>
<path d="M-22.6125 210.39C-10.7633 210.221 -10.7633 228.829 -22.6125 228.66C-34.4625 228.83 -34.4625 210.22 -22.6125 210.39Z" fill="#DEEBE5"/>
<path d="M47.3875 210.39C59.2367 210.221 59.2367 228.829 47.3875 228.66C35.5375 228.83 35.5375 210.22 47.3875 210.39Z" fill="#DEEBE5"/>
<path d="M222.388 210.39C234.237 210.221 234.237 228.829 222.388 228.66C210.538 228.829 210.538 210.22 222.388 210.39Z" fill="#DEEBE5"/>
<path d="M117.387 204.8C130.567 204.611 130.567 225.319 117.387 225.12C104.208 225.31 104.208 204.6 117.387 204.8Z" fill="#DEEBE5"/>
<path d="M152.387 204.8C165.567 204.6 165.567 225.31 152.387 225.12C139.208 225.319 139.208 204.611 152.387 204.8Z" fill="#DEEBE5"/>
<path d="M-57.6125 200.84C-47.5635 200.691 -47.5635 216.48 -57.6125 216.33C-67.6625 216.48 -67.6625 200.69 -57.6125 200.84Z" fill="#DEEBE5"/>
<path d="M262.388 200.84C272.437 200.691 272.437 216.48 262.388 216.33C252.338 216.48 252.338 200.691 262.388 200.84Z" fill="#DEEBE5"/>
<path d="M12.3875 194.55C24.6565 194.371 24.6565 213.649 12.3875 213.47C0.117493 213.65 0.117493 194.37 12.3875 194.55Z" fill="#DEEBE5"/>
<path d="M82.3875 194.55C94.6565 194.371 94.6565 213.649 82.3875 213.47C70.1175 213.65 70.1175 194.37 82.3875 194.55Z" fill="#DEEBE5"/>
<path d="M187.387 194.55C199.657 194.371 199.657 213.65 187.387 213.47C175.118 213.65 175.118 194.371 187.387 194.55Z" fill="#DEEBE5"/>
<path d="M-22.6027 184.46C-11.4533 184.301 -11.4533 201.809 -22.6027 201.65C-33.7527 201.81 -33.7527 184.3 -22.6027 184.46Z" fill="#DEEBE5"/>
<path d="M47.3973 184.46C58.5467 184.301 58.5467 201.809 47.3973 201.65C36.2473 201.81 36.2473 184.3 47.3973 184.46Z" fill="#DEEBE5"/>
<path d="M222.378 184.46C233.527 184.301 233.527 201.809 222.378 201.65C211.228 201.81 211.228 184.3 222.378 184.46Z" fill="#DEEBE5"/>
<path d="M117.387 178.48C130.357 178.291 130.357 198.669 117.387 198.48C104.417 198.67 104.417 178.29 117.387 178.48Z" fill="#DEEBE5"/>
<path d="M152.387 178.48C165.357 178.29 165.357 198.67 152.387 198.48C139.418 198.669 139.418 178.291 152.387 178.48Z" fill="#DEEBE5"/>
<path d="M-57.6125 176.48C-50.3234 176.371 -50.3234 187.829 -57.6125 187.72C-64.9025 187.83 -64.9025 176.37 -57.6125 176.48Z" fill="#DEEBE5"/>
<path d="M262.388 176.48C269.677 176.37 269.677 187.83 262.388 187.72C255.098 187.83 255.098 176.37 262.388 176.48Z" fill="#DEEBE5"/>
<path d="M12.3875 168.39C24.2367 168.221 24.2367 186.829 12.3875 186.66C0.537498 186.83 0.537498 168.22 12.3875 168.39Z" fill="#DEEBE5"/>
<path d="M82.3875 168.39C94.2367 168.221 94.2367 186.829 82.3875 186.66C70.5375 186.83 70.5375 168.22 82.3875 168.39Z" fill="#DEEBE5"/>
<path d="M187.387 168.39C199.237 168.221 199.237 186.829 187.387 186.66C175.538 186.829 175.538 168.22 187.387 168.39Z" fill="#DEEBE5"/>
<path d="M-22.6125 158.84C-12.5635 158.691 -12.5635 174.48 -22.6125 174.33C-32.6625 174.48 -32.6625 158.69 -22.6125 158.84Z" fill="#DEEBE5"/>
<path d="M47.3875 158.84C57.4365 158.691 57.4365 174.48 47.3875 174.33C37.3375 174.48 37.3375 158.69 47.3875 158.84Z" fill="#DEEBE5"/>
<path d="M222.388 158.84C232.437 158.691 232.437 174.48 222.388 174.33C212.338 174.48 212.338 158.691 222.388 158.84Z" fill="#DEEBE5"/>
<path d="M117.387 152.55C129.656 152.371 129.656 171.649 117.387 171.47C105.117 171.65 105.117 152.37 117.387 152.55Z" fill="#DEEBE5"/>
<path d="M152.387 152.55C164.657 152.37 164.657 171.65 152.387 171.47C140.118 171.649 140.118 152.371 152.387 152.55Z" fill="#DEEBE5"/>
<path d="M-57.6027 151.25C-51.9233 151.171 -51.9233 160.09 -57.6027 160C-63.2827 160.08 -63.2827 151.16 -57.6027 151.25Z" fill="#DEEBE5"/>
<path d="M262.378 151.25C268.057 151.161 268.057 160.08 262.378 160C256.698 160.09 256.698 151.17 262.378 151.25Z" fill="#DEEBE5"/>
<path d="M12.3973 142.46C23.5467 142.301 23.5467 159.809 12.3973 159.65C1.24726 159.81 1.24726 142.3 12.3973 142.46Z" fill="#DEEBE5"/>
<path d="M82.3973 142.46C93.5467 142.301 93.5467 159.809 82.3973 159.65C71.2473 159.81 71.2473 142.3 82.3973 142.46Z" fill="#DEEBE5"/>
<path d="M187.378 142.46C198.527 142.301 198.527 159.809 187.378 159.65C176.228 159.81 176.228 142.3 187.378 142.46Z" fill="#DEEBE5"/>
<path d="M-22.6125 134.48C-15.3234 134.371 -15.3234 145.829 -22.6125 145.72C-29.9025 145.83 -29.9025 134.37 -22.6125 134.48Z" fill="#DEEBE5"/>
<path d="M47.3875 134.48C54.6766 134.371 54.6766 145.829 47.3875 145.72C40.0975 145.83 40.0975 134.37 47.3875 134.48Z" fill="#DEEBE5"/>
<path d="M222.388 134.48C229.677 134.37 229.677 145.83 222.388 145.72C215.098 145.83 215.098 134.37 222.388 134.48Z" fill="#DEEBE5"/>
<path d="M117.387 126.39C129.237 126.221 129.237 144.829 117.387 144.66C105.537 144.83 105.537 126.22 117.387 126.39Z" fill="#DEEBE5"/>
<path d="M152.387 126.39C164.237 126.22 164.237 144.83 152.387 144.66C140.537 144.829 140.537 126.221 152.387 126.39Z" fill="#DEEBE5"/>
<path d="M12.3875 116.84C22.4365 116.691 22.4365 132.48 12.3875 132.33C2.33749 132.48 2.33749 116.69 12.3875 116.84Z" fill="#DEEBE5"/>
<path d="M82.3875 116.84C92.4365 116.691 92.4365 132.48 82.3875 132.33C72.3375 132.48 72.3375 116.69 82.3875 116.84Z" fill="#DEEBE5"/>
<path d="M187.387 116.84C197.437 116.691 197.437 132.48 187.387 132.33C177.338 132.48 177.338 116.691 187.387 116.84Z" fill="#DEEBE5"/>
<path d="M-57.6125 126C-53.5235 125.941 -53.5235 132.359 -57.6125 132.3C-61.7025 132.36 -61.7025 125.94 -57.6125 126Z" fill="#DEEBE5"/>
<path d="M262.388 126C266.477 125.941 266.477 132.36 262.388 132.3C258.298 132.36 258.298 125.941 262.388 126Z" fill="#DEEBE5"/>
<path d="M-22.6027 109.25C-16.9233 109.171 -16.9233 118.09 -22.6027 118C-28.2827 118.08 -28.2827 109.16 -22.6027 109.25Z" fill="#DEEBE5"/>
<path d="M47.3973 109.25C53.0767 109.171 53.0767 118.09 47.3973 118C41.7173 118.08 41.7173 109.16 47.3973 109.25Z" fill="#DEEBE5"/>
<path d="M222.378 109.25C228.057 109.161 228.057 118.08 222.378 118C216.698 118.09 216.698 109.17 222.378 109.25Z" fill="#DEEBE5"/>
<path d="M117.397 100.46C128.547 100.301 128.547 117.809 117.397 117.65C106.247 117.81 106.247 100.3 117.397 100.46Z" fill="#DEEBE5"/>
<path d="M152.377 100.46C163.527 100.3 163.527 117.81 152.377 117.65C141.227 117.809 141.227 100.301 152.377 100.46Z" fill="#DEEBE5"/>
<path d="M12.3875 92.4799C19.6766 92.3706 19.6766 103.829 12.3875 103.72C5.0975 103.83 5.0975 92.3699 12.3875 92.4799Z" fill="#DEEBE5"/>
<path d="M82.3875 92.4799C89.6766 92.3706 89.6766 103.829 82.3875 103.72C75.0975 103.83 75.0975 92.3699 82.3875 92.4799Z" fill="#DEEBE5"/>
<path d="M187.387 92.4799C194.677 92.3704 194.677 103.83 187.387 103.72C180.098 103.83 180.098 92.3702 187.387 92.4799Z" fill="#DEEBE5"/>
<path d="M117.387 74.8403C127.437 74.691 127.437 90.4797 117.387 90.3305C107.337 90.4805 107.337 74.6903 117.387 74.8403Z" fill="#DEEBE5"/>
<path d="M152.387 74.8403C162.437 74.6903 162.437 90.4805 152.387 90.3305C142.338 90.4796 142.338 74.6911 152.387 74.8403Z" fill="#DEEBE5"/>
<path d="M-22.6125 84.0004C-18.5235 83.9412 -18.5235 90.3594 -22.6125 90.3002C-26.7025 90.3602 -26.7025 83.9404 -22.6125 84.0004Z" fill="#DEEBE5"/>
<path d="M47.3875 84.0004C51.4765 83.9412 51.4765 90.3594 47.3875 90.3002C43.2975 90.3602 43.2975 83.9404 47.3875 84.0004Z" fill="#DEEBE5"/>
<path d="M222.388 84.0004C226.477 83.9409 226.477 90.3597 222.388 90.3002C218.298 90.3598 218.298 83.9408 222.388 84.0004Z" fill="#DEEBE5"/>
<path d="M12.3973 67.2504C18.0767 67.1708 18.0767 76.09 12.3973 76.0004C6.71726 76.0804 6.71726 67.1604 12.3973 67.2504Z" fill="#DEEBE5"/>
<path d="M82.3973 67.2504C88.0767 67.1708 88.0767 76.09 82.3973 76.0004C76.7173 76.0804 76.7173 67.1604 82.3973 67.2504Z" fill="#DEEBE5"/>
<path d="M187.378 67.2504C193.057 67.1609 193.057 76.0799 187.378 76.0004C181.698 76.0904 181.698 67.1704 187.378 67.2504Z" fill="#DEEBE5"/>
<path d="M117.387 50.4799C124.677 50.3706 124.677 61.8294 117.387 61.7201C110.098 61.8301 110.098 50.3699 117.387 50.4799Z" fill="#DEEBE5"/>
<path d="M152.387 50.4799C159.677 50.3699 159.677 61.8301 152.387 61.7201C145.098 61.8293 145.098 50.3707 152.387 50.4799Z" fill="#DEEBE5"/>
<path d="M12.3875 42.0004C16.4765 41.9412 16.4765 48.3594 12.3875 48.3002C8.2975 48.3602 8.2975 41.9404 12.3875 42.0004Z" fill="#DEEBE5"/>
<path d="M82.3875 42.0004C86.4765 41.9412 86.4765 48.3594 82.3875 48.3002C78.2975 48.3602 78.2975 41.9404 82.3875 42.0004Z" fill="#DEEBE5"/>
<path d="M187.387 42.0004C191.477 41.9409 191.477 48.3597 187.387 48.3002C183.298 48.3598 183.298 41.9408 187.387 42.0004Z" fill="#DEEBE5"/>
<path d="M117.397 25.2504C123.077 25.1708 123.077 34.09 117.397 34.0004C111.717 34.0804 111.717 25.1604 117.397 25.2504Z" fill="#DEEBE5"/>
<path d="M152.377 25.2504C158.057 25.1604 158.057 34.0804 152.377 34.0004C146.697 34.0899 146.697 25.1709 152.377 25.2504Z" fill="#DEEBE5"/>
<path d="M117.387 0.000417974C121.476 -0.0587721 121.476 6.35941 117.387 6.30022C113.298 6.36022 113.298 -0.059582 117.387 0.000417974Z" fill="#DEEBE5"/>
<path d="M152.387 0.000417974C156.477 -0.059582 156.477 6.36022 152.387 6.30022C148.298 6.35931 148.298 -0.0586745 152.387 0.000417974Z" fill="#DEEBE5"/>
<path d="M323.387 383.32C337.237 383.38 337.237 404.45 323.387 404.51C309.537 404.45 309.537 383.38 323.387 383.32Z" fill="#DEEBE5"/>
<path d="M643.388 383.32C657.237 383.38 657.237 404.45 643.388 404.51C629.538 404.45 629.538 383.38 643.388 383.32Z" fill="#DEEBE5"/>
<path d="M323.387 356.86C337.217 356.921 337.217 377.949 323.387 378.01C309.557 377.95 309.557 356.92 323.387 356.86Z" fill="#DEEBE5"/>
<path d="M643.388 356.86C657.217 356.92 657.217 377.95 643.388 378.01C629.558 377.95 629.558 356.92 643.388 356.86Z" fill="#DEEBE5"/>
<path d="M358.387 341.32C372.237 341.38 372.237 362.45 358.387 362.51C344.537 362.45 344.537 341.38 358.387 341.32Z" fill="#DEEBE5"/>
<path d="M428.387 341.32C442.237 341.38 442.237 362.45 428.387 362.51C414.537 362.45 414.537 341.38 428.387 341.32Z" fill="#DEEBE5"/>
<path d="M603.388 341.32C617.237 341.38 617.237 362.45 603.388 362.51C589.538 362.45 589.538 341.38 603.388 341.32Z" fill="#DEEBE5"/>
<path d="M323.387 330.8C336.567 330.611 336.567 351.319 323.387 351.12C310.207 351.31 310.207 330.6 323.387 330.8Z" fill="#DEEBE5"/>
<path d="M643.388 330.8C656.567 330.601 656.567 351.309 643.388 351.12C630.208 351.319 630.208 330.611 643.388 330.8Z" fill="#DEEBE5"/>
<path d="M358.387 314.86C372.217 314.921 372.217 335.949 358.387 336.01C344.557 335.95 344.557 314.92 358.387 314.86Z" fill="#DEEBE5"/>
<path d="M428.387 314.86C442.217 314.921 442.217 335.949 428.387 336.01C414.557 335.95 414.557 314.92 428.387 314.86Z" fill="#DEEBE5"/>
<path d="M603.388 314.86C617.217 314.92 617.217 335.95 603.388 336.01C589.558 335.95 589.558 314.92 603.388 314.86Z" fill="#DEEBE5"/>
<path d="M323.387 304.48C336.357 304.291 336.357 324.669 323.387 324.48C310.417 324.67 310.417 304.29 323.387 304.48Z" fill="#DEEBE5"/>
<path d="M643.388 304.48C656.357 304.29 656.357 324.669 643.388 324.48C630.418 324.67 630.418 304.29 643.388 304.48Z" fill="#DEEBE5"/>
<path d="M393.387 299.32C407.237 299.38 407.237 320.45 393.387 320.51C379.537 320.45 379.537 299.38 393.387 299.32Z" fill="#DEEBE5"/>
<path d="M463.387 299.32C477.237 299.38 477.237 320.45 463.387 320.51C449.537 320.45 449.537 299.38 463.387 299.32Z" fill="#DEEBE5"/>
<path d="M568.387 299.32C582.237 299.38 582.237 320.45 568.387 320.51C554.538 320.45 554.538 299.38 568.387 299.32Z" fill="#DEEBE5"/>
<path d="M358.387 288.8C371.567 288.611 371.567 309.319 358.387 309.12C345.207 309.31 345.207 288.6 358.387 288.8Z" fill="#DEEBE5"/>
<path d="M428.387 288.8C441.567 288.611 441.567 309.319 428.387 309.12C415.207 309.31 415.207 288.6 428.387 288.8Z" fill="#DEEBE5"/>
<path d="M603.388 288.8C616.567 288.601 616.567 309.309 603.388 309.12C590.208 309.319 590.208 288.611 603.388 288.8Z" fill="#DEEBE5"/>
<path d="M323.387 278.55C335.656 278.371 335.656 297.649 323.387 297.47C311.117 297.65 311.117 278.37 323.387 278.55Z" fill="#DEEBE5"/>
<path d="M643.388 278.55C655.657 278.371 655.657 297.65 643.388 297.47C631.118 297.65 631.118 278.371 643.388 278.55Z" fill="#DEEBE5"/>
<path d="M393.387 272.86C407.217 272.921 407.217 293.949 393.387 294.01C379.557 293.95 379.557 272.92 393.387 272.86Z" fill="#DEEBE5"/>
<path d="M463.387 272.86C477.217 272.921 477.217 293.949 463.387 294.01C449.557 293.95 449.557 272.92 463.387 272.86Z" fill="#DEEBE5"/>
<path d="M568.387 272.86C582.217 272.92 582.217 293.95 568.387 294.01C554.558 293.95 554.558 272.92 568.387 272.86Z" fill="#DEEBE5"/>
<path d="M358.387 262.48C371.357 262.291 371.357 282.669 358.387 282.48C345.417 282.67 345.417 262.29 358.387 262.48Z" fill="#DEEBE5"/>
<path d="M428.387 262.48C441.357 262.291 441.357 282.669 428.387 282.48C415.417 282.67 415.417 262.29 428.387 262.48Z" fill="#DEEBE5"/>
<path d="M603.388 262.48C616.357 262.29 616.357 282.669 603.388 282.48C590.418 282.67 590.418 262.29 603.388 262.48Z" fill="#DEEBE5"/>
<path d="M498.387 257.32C512.237 257.38 512.237 278.45 498.387 278.51C484.537 278.45 484.537 257.38 498.387 257.32Z" fill="#DEEBE5"/>
<path d="M533.386 257.32C547.236 257.38 547.236 278.45 533.386 278.51C519.537 278.449 519.537 257.38 533.386 257.32Z" fill="#DEEBE5"/>
<path d="M323.387 252.39C335.237 252.221 335.237 270.829 323.387 270.66C311.537 270.83 311.537 252.22 323.387 252.39Z" fill="#DEEBE5"/>
<path d="M643.388 252.39C655.237 252.221 655.237 270.829 643.388 270.66C631.538 270.829 631.538 252.22 643.388 252.39Z" fill="#DEEBE5"/>
<path d="M393.387 246.8C406.567 246.611 406.567 267.319 393.387 267.12C380.207 267.31 380.207 246.6 393.387 246.8Z" fill="#DEEBE5"/>
<path d="M463.387 246.8C476.567 246.611 476.567 267.319 463.387 267.12C450.207 267.31 450.207 246.6 463.387 246.8Z" fill="#DEEBE5"/>
<path d="M568.387 246.8C581.567 246.601 581.567 267.309 568.387 267.12C555.208 267.319 555.208 246.61 568.387 246.8Z" fill="#DEEBE5"/>
<path d="M358.387 236.55C370.656 236.371 370.656 255.649 358.387 255.47C346.117 255.65 346.117 236.37 358.387 236.55Z" fill="#DEEBE5"/>
<path d="M428.387 236.55C440.656 236.371 440.656 255.649 428.387 255.47C416.117 255.65 416.117 236.37 428.387 236.55Z" fill="#DEEBE5"/>
<path d="M603.388 236.55C615.657 236.371 615.657 255.65 603.388 255.47C591.118 255.65 591.118 236.371 603.388 236.55Z" fill="#DEEBE5"/>
<path d="M498.387 230.86C512.217 230.92 512.217 251.949 498.387 252.01C484.557 251.95 484.557 230.92 498.387 230.86Z" fill="#DEEBE5"/>
<path d="M533.386 230.86C547.216 230.92 547.216 251.95 533.386 252.01C519.557 251.949 519.557 230.921 533.386 230.86Z" fill="#DEEBE5"/>
<path d="M323.397 226.46C334.547 226.301 334.547 243.809 323.397 243.65C312.247 243.81 312.247 226.3 323.397 226.46Z" fill="#DEEBE5"/>
<path d="M643.378 226.46C654.527 226.301 654.527 243.809 643.378 243.65C632.228 243.81 632.228 226.3 643.378 226.46Z" fill="#DEEBE5"/>
<path d="M393.387 220.48C406.357 220.291 406.357 240.669 393.387 240.48C380.417 240.67 380.417 220.29 393.387 220.48Z" fill="#DEEBE5"/>
<path d="M463.387 220.48C476.357 220.291 476.357 240.669 463.387 240.48C450.417 240.67 450.417 220.29 463.387 220.48Z" fill="#DEEBE5"/>
<path d="M568.387 220.48C581.357 220.29 581.357 240.669 568.387 240.48C555.418 240.67 555.418 220.29 568.387 220.48Z" fill="#DEEBE5"/>
<path d="M358.387 210.39C370.237 210.221 370.237 228.829 358.387 228.66C346.537 228.83 346.537 210.22 358.387 210.39Z" fill="#DEEBE5"/>
<path d="M428.387 210.39C440.237 210.221 440.237 228.829 428.387 228.66C416.537 228.83 416.537 210.22 428.387 210.39Z" fill="#DEEBE5"/>
<path d="M603.388 210.39C615.237 210.221 615.237 228.829 603.388 228.66C591.538 228.829 591.538 210.22 603.388 210.39Z" fill="#DEEBE5"/>
<path d="M498.387 204.8C511.567 204.611 511.567 225.319 498.387 225.12C485.207 225.31 485.207 204.6 498.387 204.8Z" fill="#DEEBE5"/>
<path d="M533.386 204.8C546.566 204.6 546.566 225.31 533.386 225.12C520.207 225.319 520.207 204.611 533.386 204.8Z" fill="#DEEBE5"/>
<path d="M323.387 200.84C333.437 200.691 333.436 216.48 323.387 216.33C313.337 216.48 313.337 200.69 323.387 200.84Z" fill="#DEEBE5"/>
<path d="M643.388 200.84C653.437 200.691 653.437 216.48 643.388 216.33C633.338 216.48 633.338 200.691 643.388 200.84Z" fill="#DEEBE5"/>
<path d="M393.387 194.55C405.656 194.371 405.656 213.649 393.387 213.47C381.117 213.65 381.117 194.37 393.387 194.55Z" fill="#DEEBE5"/>
<path d="M463.387 194.55C475.656 194.371 475.656 213.649 463.387 213.47C451.117 213.65 451.117 194.37 463.387 194.55Z" fill="#DEEBE5"/>
<path d="M568.387 194.55C580.657 194.371 580.657 213.65 568.387 213.47C556.118 213.65 556.118 194.371 568.387 194.55Z" fill="#DEEBE5"/>
<path d="M358.397 184.46C369.547 184.301 369.547 201.809 358.397 201.65C347.247 201.81 347.247 184.3 358.397 184.46Z" fill="#DEEBE5"/>
<path d="M428.397 184.46C439.547 184.301 439.547 201.809 428.397 201.65C417.247 201.81 417.247 184.3 428.397 184.46Z" fill="#DEEBE5"/>
<path d="M603.378 184.46C614.527 184.301 614.527 201.809 603.378 201.65C592.228 201.81 592.228 184.3 603.378 184.46Z" fill="#DEEBE5"/>
<path d="M498.387 178.48C511.357 178.291 511.357 198.669 498.387 198.48C485.417 198.67 485.417 178.29 498.387 178.48Z" fill="#DEEBE5"/>
<path d="M533.386 178.48C546.356 178.29 546.356 198.67 533.386 198.48C520.417 198.669 520.417 178.291 533.386 178.48Z" fill="#DEEBE5"/>
<path d="M323.387 176.48C330.677 176.371 330.677 187.829 323.387 187.72C316.097 187.83 316.097 176.37 323.387 176.48Z" fill="#DEEBE5"/>
<path d="M643.388 176.48C650.677 176.37 650.677 187.83 643.388 187.72C636.098 187.83 636.098 176.37 643.388 176.48Z" fill="#DEEBE5"/>
<path d="M393.387 168.39C405.237 168.221 405.237 186.829 393.387 186.66C381.537 186.83 381.537 168.22 393.387 168.39Z" fill="#DEEBE5"/>
<path d="M463.387 168.39C475.237 168.221 475.237 186.829 463.387 186.66C451.537 186.83 451.537 168.22 463.387 168.39Z" fill="#DEEBE5"/>
<path d="M568.387 168.39C580.237 168.221 580.237 186.829 568.387 186.66C556.538 186.829 556.538 168.22 568.387 168.39Z" fill="#DEEBE5"/>
<path d="M358.387 158.84C368.437 158.691 368.436 174.48 358.387 174.33C348.337 174.48 348.337 158.69 358.387 158.84Z" fill="#DEEBE5"/>
<path d="M428.387 158.84C438.436 158.691 438.436 174.48 428.387 174.33C418.337 174.48 418.337 158.69 428.387 158.84Z" fill="#DEEBE5"/>
<path d="M603.388 158.84C613.437 158.691 613.437 174.48 603.388 174.33C593.338 174.48 593.338 158.691 603.388 158.84Z" fill="#DEEBE5"/>
<path d="M498.387 152.55C510.656 152.371 510.656 171.649 498.387 171.47C486.117 171.65 486.117 152.37 498.387 152.55Z" fill="#DEEBE5"/>
<path d="M533.386 152.55C545.656 152.37 545.656 171.65 533.386 171.47C521.118 171.649 521.118 152.371 533.386 152.55Z" fill="#DEEBE5"/>
<path d="M323.397 151.25C329.077 151.171 329.077 160.09 323.397 160C317.717 160.08 317.717 151.16 323.397 151.25Z" fill="#DEEBE5"/>
<path d="M643.378 151.25C649.057 151.161 649.057 160.08 643.378 160C637.698 160.09 637.698 151.17 643.378 151.25Z" fill="#DEEBE5"/>
<path d="M393.397 142.46C404.547 142.301 404.547 159.809 393.397 159.65C382.247 159.81 382.247 142.3 393.397 142.46Z" fill="#DEEBE5"/>
<path d="M463.397 142.46C474.547 142.301 474.547 159.809 463.397 159.65C452.247 159.81 452.247 142.3 463.397 142.46Z" fill="#DEEBE5"/>
<path d="M568.378 142.46C579.527 142.301 579.527 159.809 568.378 159.65C557.228 159.81 557.228 142.3 568.378 142.46Z" fill="#DEEBE5"/>
<path d="M358.387 134.48C365.677 134.371 365.677 145.829 358.387 145.72C351.097 145.83 351.097 134.37 358.387 134.48Z" fill="#DEEBE5"/>
<path d="M428.387 134.48C435.677 134.371 435.677 145.829 428.387 145.72C421.097 145.83 421.097 134.37 428.387 134.48Z" fill="#DEEBE5"/>
<path d="M603.388 134.48C610.677 134.37 610.677 145.83 603.388 145.72C596.098 145.83 596.098 134.37 603.388 134.48Z" fill="#DEEBE5"/>
<path d="M498.387 126.39C510.237 126.221 510.237 144.829 498.387 144.66C486.537 144.83 486.537 126.22 498.387 126.39Z" fill="#DEEBE5"/>
<path d="M533.386 126.39C545.236 126.22 545.236 144.83 533.386 144.66C521.537 144.829 521.537 126.221 533.386 126.39Z" fill="#DEEBE5"/>
<path d="M393.387 116.84C403.436 116.691 403.436 132.48 393.387 132.33C383.337 132.48 383.337 116.69 393.387 116.84Z" fill="#DEEBE5"/>
<path d="M463.387 116.84C473.436 116.691 473.436 132.48 463.387 132.33C453.337 132.48 453.337 116.69 463.387 116.84Z" fill="#DEEBE5"/>
<path d="M568.387 116.84C578.437 116.691 578.437 132.48 568.387 132.33C558.338 132.48 558.338 116.691 568.387 116.84Z" fill="#DEEBE5"/>
<path d="M323.387 126C327.476 125.941 327.476 132.359 323.387 132.3C319.297 132.36 319.297 125.94 323.387 126Z" fill="#DEEBE5"/>
<path d="M643.388 126C647.477 125.941 647.477 132.36 643.388 132.3C639.298 132.36 639.298 125.941 643.388 126Z" fill="#DEEBE5"/>
<path d="M358.397 109.25C364.077 109.171 364.077 118.09 358.397 118C352.717 118.08 352.717 109.16 358.397 109.25Z" fill="#DEEBE5"/>
<path d="M428.397 109.25C434.077 109.171 434.077 118.09 428.397 118C422.717 118.08 422.717 109.16 428.397 109.25Z" fill="#DEEBE5"/>
<path d="M603.378 109.25C609.057 109.161 609.057 118.08 603.378 118C597.698 118.09 597.698 109.17 603.378 109.25Z" fill="#DEEBE5"/>
<path d="M498.397 100.46C509.547 100.301 509.547 117.809 498.397 117.65C487.247 117.81 487.247 100.3 498.397 100.46Z" fill="#DEEBE5"/>
<path d="M533.377 100.46C544.527 100.3 544.527 117.81 533.377 117.65C522.227 117.809 522.227 100.301 533.377 100.46Z" fill="#DEEBE5"/>
<path d="M393.387 92.4799C400.677 92.3706 400.677 103.829 393.387 103.72C386.097 103.83 386.097 92.3699 393.387 92.4799Z" fill="#DEEBE5"/>
<path d="M463.387 92.4799C470.677 92.3706 470.677 103.829 463.387 103.72C456.097 103.83 456.097 92.3699 463.387 92.4799Z" fill="#DEEBE5"/>
<path d="M568.387 92.4799C575.677 92.3704 575.677 103.83 568.387 103.72C561.098 103.83 561.098 92.3702 568.387 92.4799Z" fill="#DEEBE5"/>
<path d="M498.387 74.8403C508.436 74.691 508.436 90.4797 498.387 90.3305C488.337 90.4805 488.337 74.6903 498.387 74.8403Z" fill="#DEEBE5"/>
<path d="M533.386 74.8403C543.436 74.6903 543.436 90.4805 533.386 90.3305C523.338 90.4796 523.338 74.6911 533.386 74.8403Z" fill="#DEEBE5"/>
<path d="M358.387 84.0004C362.476 83.9412 362.476 90.3594 358.387 90.3002C354.297 90.3602 354.297 83.9404 358.387 84.0004Z" fill="#DEEBE5"/>
<path d="M428.387 84.0004C432.476 83.9412 432.476 90.3594 428.387 90.3002C424.297 90.3602 424.297 83.9404 428.387 84.0004Z" fill="#DEEBE5"/>
<path d="M603.388 84.0004C607.477 83.9409 607.477 90.3597 603.388 90.3002C599.298 90.3598 599.298 83.9408 603.388 84.0004Z" fill="#DEEBE5"/>
<path d="M393.397 67.2504C399.077 67.1708 399.077 76.09 393.397 76.0004C387.717 76.0804 387.717 67.1604 393.397 67.2504Z" fill="#DEEBE5"/>
<path d="M463.397 67.2504C469.077 67.1708 469.077 76.09 463.397 76.0004C457.717 76.0804 457.717 67.1604 463.397 67.2504Z" fill="#DEEBE5"/>
<path d="M568.378 67.2504C574.057 67.1609 574.057 76.0799 568.378 76.0004C562.698 76.0904 562.698 67.1704 568.378 67.2504Z" fill="#DEEBE5"/>
<path d="M498.387 50.4799C505.677 50.3706 505.677 61.8294 498.387 61.7201C491.097 61.8301 491.097 50.3699 498.387 50.4799Z" fill="#DEEBE5"/>
<path d="M533.386 50.4799C540.676 50.3699 540.676 61.8301 533.386 61.7201C526.097 61.8293 526.097 50.3707 533.386 50.4799Z" fill="#DEEBE5"/>
<path d="M393.387 42.0004C397.476 41.9412 397.476 48.3594 393.387 48.3002C389.297 48.3602 389.297 41.9404 393.387 42.0004Z" fill="#DEEBE5"/>
<path d="M463.387 42.0004C467.476 41.9412 467.476 48.3594 463.387 48.3002C459.297 48.3602 459.297 41.9404 463.387 42.0004Z" fill="#DEEBE5"/>
<path d="M568.387 42.0004C572.477 41.9409 572.477 48.3597 568.387 48.3002C564.298 48.3598 564.298 41.9408 568.387 42.0004Z" fill="#DEEBE5"/>
<path d="M498.397 25.2504C504.077 25.1708 504.077 34.09 498.397 34.0004C492.717 34.0804 492.717 25.1604 498.397 25.2504Z" fill="#DEEBE5"/>
<path d="M533.377 25.2504C539.057 25.1604 539.057 34.0804 533.377 34.0004C527.697 34.0899 527.697 25.1709 533.377 25.2504Z" fill="#DEEBE5"/>
<path d="M498.387 0.000417974C502.476 -0.0587721 502.476 6.35941 498.387 6.30022C494.297 6.36022 494.297 -0.059582 498.387 0.000417974Z" fill="#DEEBE5"/>
<path d="M533.386 0.000417974C537.476 -0.059582 537.476 6.36022 533.386 6.30022C529.298 6.35931 529.298 -0.0586745 533.386 0.000417974Z" fill="#DEEBE5"/>
<path d="M744.388 383.32C758.237 383.38 758.237 404.45 744.388 404.51C730.538 404.45 730.538 383.38 744.388 383.32Z" fill="#DEEBE5"/>
<path d="M1064.39 383.32C1078.24 383.38 1078.24 404.45 1064.39 404.51C1050.54 404.45 1050.54 383.38 1064.39 383.32Z" fill="#DEEBE5"/>
<path d="M744.388 356.86C758.217 356.921 758.217 377.949 744.388 378.01C730.557 377.95 730.557 356.92 744.388 356.86Z" fill="#DEEBE5"/>
<path d="M1064.39 356.86C1078.22 356.92 1078.22 377.95 1064.39 378.01C1050.56 377.95 1050.56 356.92 1064.39 356.86Z" fill="#DEEBE5"/>
<path d="M779.388 341.32C793.237 341.38 793.237 362.45 779.388 362.51C765.538 362.45 765.538 341.38 779.388 341.32Z" fill="#DEEBE5"/>
<path d="M849.387 341.32C863.237 341.38 863.237 362.45 849.387 362.51C835.537 362.45 835.537 341.38 849.387 341.32Z" fill="#DEEBE5"/>
<path d="M1024.39 341.32C1038.24 341.38 1038.24 362.45 1024.39 362.51C1010.54 362.45 1010.54 341.38 1024.39 341.32Z" fill="#DEEBE5"/>
<path d="M744.388 330.8C757.567 330.611 757.567 351.319 744.388 351.12C731.208 351.31 731.208 330.6 744.388 330.8Z" fill="#DEEBE5"/>
<path d="M1064.39 330.8C1077.57 330.601 1077.57 351.309 1064.39 351.12C1051.21 351.319 1051.21 330.611 1064.39 330.8Z" fill="#DEEBE5"/>
<path d="M779.388 314.86C793.217 314.921 793.217 335.949 779.388 336.01C765.557 335.95 765.557 314.92 779.388 314.86Z" fill="#DEEBE5"/>
<path d="M849.387 314.86C863.217 314.921 863.217 335.949 849.387 336.01C835.557 335.95 835.557 314.92 849.387 314.86Z" fill="#DEEBE5"/>
<path d="M1024.39 314.86C1038.22 314.92 1038.22 335.95 1024.39 336.01C1010.56 335.95 1010.56 314.92 1024.39 314.86Z" fill="#DEEBE5"/>
<path d="M744.388 304.48C757.357 304.291 757.357 324.669 744.388 324.48C731.417 324.67 731.417 304.29 744.388 304.48Z" fill="#DEEBE5"/>
<path d="M1064.39 304.48C1077.36 304.29 1077.36 324.669 1064.39 324.48C1051.42 324.67 1051.42 304.29 1064.39 304.48Z" fill="#DEEBE5"/>
<path d="M814.387 299.32C828.237 299.38 828.237 320.45 814.387 320.51C800.537 320.45 800.537 299.38 814.387 299.32Z" fill="#DEEBE5"/>
<path d="M884.387 299.32C898.237 299.38 898.237 320.45 884.387 320.51C870.537 320.45 870.537 299.38 884.387 299.32Z" fill="#DEEBE5"/>
<path d="M989.387 299.32C1003.24 299.38 1003.24 320.45 989.387 320.51C975.538 320.45 975.538 299.38 989.387 299.32Z" fill="#DEEBE5"/>
<path d="M779.388 288.8C792.567 288.611 792.567 309.319 779.388 309.12C766.208 309.31 766.208 288.6 779.388 288.8Z" fill="#DEEBE5"/>
<path d="M849.387 288.8C862.567 288.611 862.567 309.319 849.387 309.12C836.207 309.31 836.207 288.6 849.387 288.8Z" fill="#DEEBE5"/>
<path d="M1024.39 288.8C1037.57 288.601 1037.57 309.309 1024.39 309.12C1011.21 309.319 1011.21 288.611 1024.39 288.8Z" fill="#DEEBE5"/>
<path d="M744.388 278.55C756.656 278.371 756.656 297.649 744.388 297.47C732.117 297.65 732.117 278.37 744.388 278.55Z" fill="#DEEBE5"/>
<path d="M1064.39 278.55C1076.66 278.371 1076.66 297.65 1064.39 297.47C1052.12 297.65 1052.12 278.371 1064.39 278.55Z" fill="#DEEBE5"/>
<path d="M814.387 272.86C828.217 272.921 828.217 293.949 814.387 294.01C800.557 293.95 800.557 272.92 814.387 272.86Z" fill="#DEEBE5"/>
<path d="M884.387 272.86C898.217 272.921 898.217 293.949 884.387 294.01C870.557 293.95 870.557 272.92 884.387 272.86Z" fill="#DEEBE5"/>
<path d="M989.387 272.86C1003.22 272.92 1003.22 293.95 989.387 294.01C975.558 293.95 975.558 272.92 989.387 272.86Z" fill="#DEEBE5"/>
<path d="M779.388 262.48C792.357 262.291 792.357 282.669 779.388 282.48C766.417 282.67 766.417 262.29 779.388 262.48Z" fill="#DEEBE5"/>
<path d="M849.387 262.48C862.357 262.291 862.357 282.669 849.387 282.48C836.417 282.67 836.417 262.29 849.387 262.48Z" fill="#DEEBE5"/>
<path d="M1024.39 262.48C1037.36 262.29 1037.36 282.669 1024.39 282.48C1011.42 282.67 1011.42 262.29 1024.39 262.48Z" fill="#DEEBE5"/>
<path d="M919.387 257.32C933.237 257.38 933.237 278.45 919.387 278.51C905.537 278.45 905.537 257.38 919.387 257.32Z" fill="#DEEBE5"/>
<path d="M954.386 257.32C968.236 257.38 968.236 278.45 954.386 278.51C940.537 278.449 940.537 257.38 954.386 257.32Z" fill="#DEEBE5"/>
<path d="M744.388 252.39C756.237 252.221 756.237 270.829 744.388 270.66C732.538 270.83 732.538 252.22 744.388 252.39Z" fill="#DEEBE5"/>
<path d="M1064.39 252.39C1076.24 252.221 1076.24 270.829 1064.39 270.66C1052.54 270.829 1052.54 252.22 1064.39 252.39Z" fill="#DEEBE5"/>
<path d="M814.387 246.8C827.567 246.611 827.567 267.319 814.387 267.12C801.207 267.31 801.207 246.6 814.387 246.8Z" fill="#DEEBE5"/>
<path d="M884.387 246.8C897.567 246.611 897.567 267.319 884.387 267.12C871.207 267.31 871.207 246.6 884.387 246.8Z" fill="#DEEBE5"/>
<path d="M989.387 246.8C1002.57 246.601 1002.57 267.309 989.387 267.12C976.208 267.319 976.208 246.61 989.387 246.8Z" fill="#DEEBE5"/>
<path d="M779.388 236.55C791.656 236.371 791.656 255.649 779.388 255.47C767.117 255.65 767.117 236.37 779.388 236.55Z" fill="#DEEBE5"/>
<path d="M849.387 236.55C861.656 236.371 861.656 255.649 849.387 255.47C837.117 255.65 837.117 236.37 849.387 236.55Z" fill="#DEEBE5"/>
<path d="M1024.39 236.55C1036.66 236.371 1036.66 255.65 1024.39 255.47C1012.12 255.65 1012.12 236.371 1024.39 236.55Z" fill="#DEEBE5"/>
<path d="M919.387 230.86C933.217 230.92 933.217 251.949 919.387 252.01C905.557 251.95 905.557 230.92 919.387 230.86Z" fill="#DEEBE5"/>
<path d="M954.386 230.86C968.216 230.92 968.216 251.95 954.386 252.01C940.557 251.949 940.557 230.921 954.386 230.86Z" fill="#DEEBE5"/>
<path d="M744.397 226.46C755.547 226.301 755.547 243.809 744.397 243.65C733.247 243.81 733.247 226.3 744.397 226.46Z" fill="#DEEBE5"/>
<path d="M1064.38 226.46C1075.53 226.301 1075.53 243.809 1064.38 243.65C1053.23 243.81 1053.23 226.3 1064.38 226.46Z" fill="#DEEBE5"/>
<path d="M814.387 220.48C827.357 220.291 827.357 240.669 814.387 240.48C801.417 240.67 801.417 220.29 814.387 220.48Z" fill="#DEEBE5"/>
<path d="M884.387 220.48C897.357 220.291 897.357 240.669 884.387 240.48C871.417 240.67 871.417 220.29 884.387 220.48Z" fill="#DEEBE5"/>
<path d="M989.387 220.48C1002.36 220.29 1002.36 240.669 989.387 240.48C976.418 240.67 976.418 220.29 989.387 220.48Z" fill="#DEEBE5"/>
<path d="M779.388 210.39C791.237 210.221 791.237 228.829 779.388 228.66C767.538 228.83 767.538 210.22 779.388 210.39Z" fill="#DEEBE5"/>
<path d="M849.387 210.39C861.237 210.221 861.237 228.829 849.387 228.66C837.537 228.83 837.537 210.22 849.387 210.39Z" fill="#DEEBE5"/>
<path d="M1024.39 210.39C1036.24 210.221 1036.24 228.829 1024.39 228.66C1012.54 228.829 1012.54 210.22 1024.39 210.39Z" fill="#DEEBE5"/>
<path d="M919.387 204.8C932.567 204.611 932.567 225.319 919.387 225.12C906.207 225.31 906.207 204.6 919.387 204.8Z" fill="#DEEBE5"/>
<path d="M954.386 204.8C967.566 204.6 967.566 225.31 954.386 225.12C941.207 225.319 941.207 204.611 954.386 204.8Z" fill="#DEEBE5"/>
<path d="M744.388 200.84C754.437 200.691 754.437 216.48 744.388 216.33C734.338 216.48 734.338 200.69 744.388 200.84Z" fill="#DEEBE5"/>
<path d="M1064.39 200.84C1074.44 200.691 1074.44 216.48 1064.39 216.33C1054.34 216.48 1054.34 200.691 1064.39 200.84Z" fill="#DEEBE5"/>
<path d="M814.387 194.55C826.656 194.371 826.656 213.649 814.387 213.47C802.117 213.65 802.117 194.37 814.387 194.55Z" fill="#DEEBE5"/>
<path d="M884.387 194.55C896.656 194.371 896.656 213.649 884.387 213.47C872.117 213.65 872.117 194.37 884.387 194.55Z" fill="#DEEBE5"/>
<path d="M989.387 194.55C1001.66 194.371 1001.66 213.65 989.387 213.47C977.118 213.65 977.118 194.371 989.387 194.55Z" fill="#DEEBE5"/>
<path d="M779.397 184.46C790.547 184.301 790.547 201.809 779.397 201.65C768.247 201.81 768.247 184.3 779.397 184.46Z" fill="#DEEBE5"/>
<path d="M849.397 184.46C860.547 184.301 860.547 201.809 849.397 201.65C838.247 201.81 838.247 184.3 849.397 184.46Z" fill="#DEEBE5"/>
<path d="M1024.38 184.46C1035.53 184.301 1035.53 201.809 1024.38 201.65C1013.23 201.81 1013.23 184.3 1024.38 184.46Z" fill="#DEEBE5"/>
<path d="M919.387 178.48C932.357 178.291 932.357 198.669 919.387 198.48C906.417 198.67 906.417 178.29 919.387 178.48Z" fill="#DEEBE5"/>
<path d="M954.386 178.48C967.356 178.29 967.356 198.67 954.386 198.48C941.417 198.669 941.417 178.291 954.386 178.48Z" fill="#DEEBE5"/>
<path d="M744.388 176.48C751.677 176.371 751.677 187.829 744.388 187.72C737.098 187.83 737.098 176.37 744.388 176.48Z" fill="#DEEBE5"/>
<path d="M1064.39 176.48C1071.68 176.37 1071.68 187.83 1064.39 187.72C1057.1 187.83 1057.1 176.37 1064.39 176.48Z" fill="#DEEBE5"/>
<path d="M814.387 168.39C826.237 168.221 826.237 186.829 814.387 186.66C802.537 186.83 802.537 168.22 814.387 168.39Z" fill="#DEEBE5"/>
<path d="M884.387 168.39C896.237 168.221 896.237 186.829 884.387 186.66C872.537 186.83 872.537 168.22 884.387 168.39Z" fill="#DEEBE5"/>
<path d="M989.387 168.39C1001.24 168.221 1001.24 186.829 989.387 186.66C977.538 186.829 977.538 168.22 989.387 168.39Z" fill="#DEEBE5"/>
<path d="M779.388 158.84C789.437 158.691 789.437 174.48 779.388 174.33C769.338 174.48 769.338 158.69 779.388 158.84Z" fill="#DEEBE5"/>
<path d="M849.387 158.84C859.436 158.691 859.436 174.48 849.387 174.33C839.337 174.48 839.337 158.69 849.387 158.84Z" fill="#DEEBE5"/>
<path d="M1024.39 158.84C1034.44 158.691 1034.44 174.48 1024.39 174.33C1014.34 174.48 1014.34 158.691 1024.39 158.84Z" fill="#DEEBE5"/>
<path d="M919.387 152.55C931.656 152.371 931.656 171.649 919.387 171.47C907.117 171.65 907.117 152.37 919.387 152.55Z" fill="#DEEBE5"/>
<path d="M954.386 152.55C966.656 152.37 966.656 171.65 954.386 171.47C942.118 171.649 942.118 152.371 954.386 152.55Z" fill="#DEEBE5"/>
<path d="M744.397 151.25C750.077 151.171 750.077 160.09 744.397 160C738.717 160.08 738.717 151.16 744.397 151.25Z" fill="#DEEBE5"/>
<path d="M1064.38 151.25C1070.06 151.161 1070.06 160.08 1064.38 160C1058.7 160.09 1058.7 151.17 1064.38 151.25Z" fill="#DEEBE5"/>
<path d="M814.397 142.46C825.547 142.301 825.547 159.809 814.397 159.65C803.247 159.81 803.247 142.3 814.397 142.46Z" fill="#DEEBE5"/>
<path d="M884.397 142.46C895.547 142.301 895.547 159.809 884.397 159.65C873.247 159.81 873.247 142.3 884.397 142.46Z" fill="#DEEBE5"/>
<path d="M989.378 142.46C1000.53 142.301 1000.53 159.809 989.378 159.65C978.228 159.81 978.228 142.3 989.378 142.46Z" fill="#DEEBE5"/>
<path d="M779.388 134.48C786.677 134.371 786.677 145.829 779.388 145.72C772.098 145.83 772.098 134.37 779.388 134.48Z" fill="#DEEBE5"/>
<path d="M849.387 134.48C856.677 134.371 856.677 145.829 849.387 145.72C842.097 145.83 842.097 134.37 849.387 134.48Z" fill="#DEEBE5"/>
<path d="M1024.39 134.48C1031.68 134.37 1031.68 145.83 1024.39 145.72C1017.1 145.83 1017.1 134.37 1024.39 134.48Z" fill="#DEEBE5"/>
<path d="M919.387 126.39C931.237 126.221 931.237 144.829 919.387 144.66C907.537 144.83 907.537 126.22 919.387 126.39Z" fill="#DEEBE5"/>
<path d="M954.386 126.39C966.236 126.22 966.236 144.83 954.386 144.66C942.537 144.829 942.537 126.221 954.386 126.39Z" fill="#DEEBE5"/>
<path d="M814.387 116.84C824.436 116.691 824.436 132.48 814.387 132.33C804.337 132.48 804.337 116.69 814.387 116.84Z" fill="#DEEBE5"/>
<path d="M884.387 116.84C894.436 116.691 894.436 132.48 884.387 132.33C874.337 132.48 874.337 116.69 884.387 116.84Z" fill="#DEEBE5"/>
<path d="M989.387 116.84C999.437 116.691 999.437 132.48 989.387 132.33C979.338 132.48 979.338 116.691 989.387 116.84Z" fill="#DEEBE5"/>
<path d="M744.388 126C748.477 125.941 748.477 132.359 744.388 132.3C740.297 132.36 740.297 125.94 744.388 126Z" fill="#DEEBE5"/>
<path d="M1064.39 126C1068.48 125.941 1068.48 132.36 1064.39 132.3C1060.3 132.36 1060.3 125.941 1064.39 126Z" fill="#DEEBE5"/>
<path d="M779.397 109.25C785.077 109.171 785.077 118.09 779.397 118C773.717 118.08 773.717 109.16 779.397 109.25Z" fill="#DEEBE5"/>
<path d="M849.397 109.25C855.077 109.171 855.077 118.09 849.397 118C843.717 118.08 843.717 109.16 849.397 109.25Z" fill="#DEEBE5"/>
<path d="M1024.38 109.25C1030.06 109.161 1030.06 118.08 1024.38 118C1018.7 118.09 1018.7 109.17 1024.38 109.25Z" fill="#DEEBE5"/>
<path d="M919.397 100.46C930.547 100.301 930.547 117.809 919.397 117.65C908.247 117.81 908.247 100.3 919.397 100.46Z" fill="#DEEBE5"/>
<path d="M954.377 100.46C965.527 100.3 965.527 117.81 954.377 117.65C943.227 117.809 943.227 100.301 954.377 100.46Z" fill="#DEEBE5"/>
<path d="M814.387 92.4799C821.677 92.3706 821.677 103.829 814.387 103.72C807.097 103.83 807.097 92.3699 814.387 92.4799Z" fill="#DEEBE5"/>
<path d="M884.387 92.4799C891.677 92.3706 891.677 103.829 884.387 103.72C877.097 103.83 877.097 92.3699 884.387 92.4799Z" fill="#DEEBE5"/>
<path d="M989.387 92.4799C996.677 92.3704 996.677 103.83 989.387 103.72C982.098 103.83 982.098 92.3702 989.387 92.4799Z" fill="#DEEBE5"/>
<path d="M919.387 74.8403C929.436 74.691 929.436 90.4797 919.387 90.3305C909.337 90.4805 909.337 74.6903 919.387 74.8403Z" fill="#DEEBE5"/>
<path d="M954.386 74.8403C964.437 74.6903 964.437 90.4805 954.386 90.3305C944.338 90.4796 944.338 74.6911 954.386 74.8403Z" fill="#DEEBE5"/>
<path d="M779.388 84.0004C783.477 83.9412 783.477 90.3594 779.388 90.3002C775.297 90.3602 775.297 83.9404 779.388 84.0004Z" fill="#DEEBE5"/>
<path d="M849.387 84.0004C853.476 83.9412 853.476 90.3594 849.387 90.3002C845.297 90.3602 845.297 83.9404 849.387 84.0004Z" fill="#DEEBE5"/>
<path d="M1024.39 84.0004C1028.48 83.9409 1028.48 90.3597 1024.39 90.3002C1020.3 90.3598 1020.3 83.9408 1024.39 84.0004Z" fill="#DEEBE5"/>
<path d="M814.397 67.2504C820.077 67.1708 820.077 76.09 814.397 76.0004C808.717 76.0804 808.717 67.1604 814.397 67.2504Z" fill="#DEEBE5"/>
<path d="M884.397 67.2504C890.077 67.1708 890.077 76.09 884.397 76.0004C878.717 76.0804 878.717 67.1604 884.397 67.2504Z" fill="#DEEBE5"/>
<path d="M989.378 67.2504C995.057 67.1609 995.057 76.0799 989.378 76.0004C983.698 76.0904 983.698 67.1704 989.378 67.2504Z" fill="#DEEBE5"/>
<path d="M919.387 50.4799C926.677 50.3706 926.677 61.8294 919.387 61.7201C912.097 61.8301 912.097 50.3699 919.387 50.4799Z" fill="#DEEBE5"/>
<path d="M954.386 50.4799C961.677 50.3699 961.677 61.8301 954.386 61.7201C947.097 61.8293 947.097 50.3707 954.386 50.4799Z" fill="#DEEBE5"/>
<path d="M814.387 42.0004C818.476 41.9412 818.476 48.3594 814.387 48.3002C810.297 48.3602 810.297 41.9404 814.387 42.0004Z" fill="#DEEBE5"/>
<path d="M884.387 42.0004C888.476 41.9412 888.476 48.3594 884.387 48.3002C880.297 48.3602 880.297 41.9404 884.387 42.0004Z" fill="#DEEBE5"/>
<path d="M989.387 42.0004C993.477 41.9409 993.477 48.3597 989.387 48.3002C985.298 48.3598 985.298 41.9408 989.387 42.0004Z" fill="#DEEBE5"/>
<path d="M919.397 25.2504C925.077 25.1708 925.077 34.09 919.397 34.0004C913.717 34.0804 913.717 25.1604 919.397 25.2504Z" fill="#DEEBE5"/>
<path d="M954.377 25.2504C960.057 25.1604 960.057 34.0804 954.377 34.0004C948.697 34.0899 948.697 25.1709 954.377 25.2504Z" fill="#DEEBE5"/>
<path d="M919.387 0.000417974C923.476 -0.0587721 923.476 6.35941 919.387 6.30022C915.297 6.36022 915.297 -0.059582 919.387 0.000417974Z" fill="#DEEBE5"/>
<path d="M954.386 0.000417974C958.476 -0.059582 958.476 6.36022 954.386 6.30022C950.298 6.35931 950.298 -0.0586745 954.386 0.000417974Z" fill="#DEEBE5"/>
<path d="M1193.39 418.32C1207.24 418.38 1207.24 439.45 1193.39 439.51C1179.54 439.45 1179.54 418.38 1193.39 418.32Z" fill="#DEEBE5"/>
<path d="M1513.39 418.32C1527.24 418.38 1527.24 439.45 1513.39 439.51C1499.54 439.45 1499.54 418.38 1513.39 418.32Z" fill="#DEEBE5"/>
<path d="M1193.39 391.86C1207.22 391.921 1207.22 412.949 1193.39 413.01C1179.56 412.95 1179.56 391.92 1193.39 391.86Z" fill="#DEEBE5"/>
<path d="M1513.39 391.86C1527.22 391.92 1527.22 412.95 1513.39 413.01C1499.56 412.95 1499.56 391.92 1513.39 391.86Z" fill="#DEEBE5"/>
<path d="M1228.39 376.32C1242.24 376.38 1242.24 397.45 1228.39 397.51C1214.54 397.45 1214.54 376.38 1228.39 376.32Z" fill="#DEEBE5"/>
<path d="M1298.39 376.32C1312.24 376.38 1312.24 397.45 1298.39 397.51C1284.54 397.45 1284.54 376.38 1298.39 376.32Z" fill="#DEEBE5"/>
<path d="M1473.39 376.32C1487.24 376.38 1487.24 397.45 1473.39 397.51C1459.54 397.45 1459.54 376.38 1473.39 376.32Z" fill="#DEEBE5"/>
<path d="M1193.39 365.8C1206.57 365.611 1206.57 386.319 1193.39 386.12C1180.21 386.31 1180.21 365.6 1193.39 365.8Z" fill="#DEEBE5"/>
<path d="M1513.39 365.8C1526.57 365.601 1526.57 386.309 1513.39 386.12C1500.21 386.319 1500.21 365.611 1513.39 365.8Z" fill="#DEEBE5"/>
<path d="M1228.39 349.86C1242.22 349.921 1242.22 370.949 1228.39 371.01C1214.56 370.95 1214.56 349.92 1228.39 349.86Z" fill="#DEEBE5"/>
<path d="M1298.39 349.86C1312.22 349.921 1312.22 370.949 1298.39 371.01C1284.56 370.95 1284.56 349.92 1298.39 349.86Z" fill="#DEEBE5"/>
<path d="M1473.39 349.86C1487.22 349.92 1487.22 370.95 1473.39 371.01C1459.56 370.95 1459.56 349.92 1473.39 349.86Z" fill="#DEEBE5"/>
<path d="M1193.39 339.48C1206.36 339.291 1206.36 359.669 1193.39 359.48C1180.42 359.67 1180.42 339.29 1193.39 339.48Z" fill="#DEEBE5"/>
<path d="M1513.39 339.48C1526.36 339.29 1526.36 359.669 1513.39 359.48C1500.42 359.67 1500.42 339.29 1513.39 339.48Z" fill="#DEEBE5"/>
<path d="M1263.39 334.32C1277.24 334.38 1277.24 355.45 1263.39 355.51C1249.54 355.45 1249.54 334.38 1263.39 334.32Z" fill="#DEEBE5"/>
<path d="M1333.39 334.32C1347.24 334.38 1347.24 355.45 1333.39 355.51C1319.54 355.45 1319.54 334.38 1333.39 334.32Z" fill="#DEEBE5"/>
<path d="M1438.39 334.32C1452.24 334.38 1452.24 355.45 1438.39 355.51C1424.54 355.45 1424.54 334.38 1438.39 334.32Z" fill="#DEEBE5"/>
<path d="M1228.39 323.8C1241.57 323.611 1241.57 344.319 1228.39 344.12C1215.21 344.31 1215.21 323.6 1228.39 323.8Z" fill="#DEEBE5"/>
<path d="M1298.39 323.8C1311.57 323.611 1311.57 344.319 1298.39 344.12C1285.21 344.31 1285.21 323.6 1298.39 323.8Z" fill="#DEEBE5"/>
<path d="M1473.39 323.8C1486.57 323.601 1486.57 344.309 1473.39 344.12C1460.21 344.319 1460.21 323.611 1473.39 323.8Z" fill="#DEEBE5"/>
<path d="M1193.39 313.55C1205.66 313.371 1205.66 332.649 1193.39 332.47C1181.12 332.65 1181.12 313.37 1193.39 313.55Z" fill="#DEEBE5"/>
<path d="M1513.39 313.55C1525.66 313.371 1525.66 332.65 1513.39 332.47C1501.12 332.65 1501.12 313.371 1513.39 313.55Z" fill="#DEEBE5"/>
<path d="M1263.39 307.86C1277.22 307.921 1277.22 328.949 1263.39 329.01C1249.56 328.95 1249.56 307.92 1263.39 307.86Z" fill="#DEEBE5"/>
<path d="M1333.39 307.86C1347.22 307.921 1347.22 328.949 1333.39 329.01C1319.56 328.95 1319.56 307.92 1333.39 307.86Z" fill="#DEEBE5"/>
<path d="M1438.39 307.86C1452.22 307.92 1452.22 328.95 1438.39 329.01C1424.56 328.95 1424.56 307.92 1438.39 307.86Z" fill="#DEEBE5"/>
<path d="M1228.39 297.48C1241.36 297.291 1241.36 317.669 1228.39 317.48C1215.42 317.67 1215.42 297.29 1228.39 297.48Z" fill="#DEEBE5"/>
<path d="M1298.39 297.48C1311.36 297.291 1311.36 317.669 1298.39 317.48C1285.42 317.67 1285.42 297.29 1298.39 297.48Z" fill="#DEEBE5"/>
<path d="M1473.39 297.48C1486.36 297.29 1486.36 317.669 1473.39 317.48C1460.42 317.67 1460.42 297.29 1473.39 297.48Z" fill="#DEEBE5"/>
<path d="M1368.39 292.32C1382.24 292.38 1382.24 313.45 1368.39 313.51C1354.54 313.45 1354.54 292.38 1368.39 292.32Z" fill="#DEEBE5"/>
<path d="M1403.39 292.32C1417.24 292.38 1417.24 313.45 1403.39 313.51C1389.54 313.449 1389.54 292.38 1403.39 292.32Z" fill="#DEEBE5"/>
<path d="M1193.39 287.39C1205.24 287.221 1205.24 305.829 1193.39 305.66C1181.54 305.83 1181.54 287.22 1193.39 287.39Z" fill="#DEEBE5"/>
<path d="M1513.39 287.39C1525.24 287.221 1525.24 305.829 1513.39 305.66C1501.54 305.829 1501.54 287.22 1513.39 287.39Z" fill="#DEEBE5"/>
<path d="M1263.39 281.8C1276.57 281.611 1276.57 302.319 1263.39 302.12C1250.21 302.31 1250.21 281.6 1263.39 281.8Z" fill="#DEEBE5"/>
<path d="M1333.39 281.8C1346.57 281.611 1346.57 302.319 1333.39 302.12C1320.21 302.31 1320.21 281.6 1333.39 281.8Z" fill="#DEEBE5"/>
<path d="M1438.39 281.8C1451.57 281.601 1451.57 302.309 1438.39 302.12C1425.21 302.319 1425.21 281.61 1438.39 281.8Z" fill="#DEEBE5"/>
<path d="M1228.39 271.55C1240.66 271.371 1240.66 290.649 1228.39 290.47C1216.12 290.65 1216.12 271.37 1228.39 271.55Z" fill="#DEEBE5"/>
<path d="M1298.39 271.55C1310.66 271.371 1310.66 290.649 1298.39 290.47C1286.12 290.65 1286.12 271.37 1298.39 271.55Z" fill="#DEEBE5"/>
<path d="M1473.39 271.55C1485.66 271.371 1485.66 290.65 1473.39 290.47C1461.12 290.65 1461.12 271.371 1473.39 271.55Z" fill="#DEEBE5"/>
<path d="M1368.39 265.86C1382.22 265.92 1382.22 286.949 1368.39 287.01C1354.56 286.95 1354.56 265.92 1368.39 265.86Z" fill="#DEEBE5"/>
<path d="M1403.39 265.86C1417.22 265.92 1417.22 286.95 1403.39 287.01C1389.56 286.949 1389.56 265.921 1403.39 265.86Z" fill="#DEEBE5"/>
<path d="M1193.4 261.46C1204.55 261.301 1204.55 278.809 1193.4 278.65C1182.25 278.81 1182.25 261.3 1193.4 261.46Z" fill="#DEEBE5"/>
<path d="M1513.38 261.46C1524.53 261.301 1524.53 278.809 1513.38 278.65C1502.23 278.81 1502.23 261.3 1513.38 261.46Z" fill="#DEEBE5"/>
<path d="M1263.39 255.48C1276.36 255.291 1276.36 275.669 1263.39 275.48C1250.42 275.67 1250.42 255.29 1263.39 255.48Z" fill="#DEEBE5"/>
<path d="M1333.39 255.48C1346.36 255.291 1346.36 275.669 1333.39 275.48C1320.42 275.67 1320.42 255.29 1333.39 255.48Z" fill="#DEEBE5"/>
<path d="M1438.39 255.48C1451.36 255.29 1451.36 275.669 1438.39 275.48C1425.42 275.67 1425.42 255.29 1438.39 255.48Z" fill="#DEEBE5"/>
<path d="M1228.39 245.39C1240.24 245.221 1240.24 263.829 1228.39 263.66C1216.54 263.83 1216.54 245.22 1228.39 245.39Z" fill="#DEEBE5"/>
<path d="M1298.39 245.39C1310.24 245.221 1310.24 263.829 1298.39 263.66C1286.54 263.83 1286.54 245.22 1298.39 245.39Z" fill="#DEEBE5"/>
<path d="M1473.39 245.39C1485.24 245.221 1485.24 263.829 1473.39 263.66C1461.54 263.829 1461.54 245.22 1473.39 245.39Z" fill="#DEEBE5"/>
<path d="M1368.39 239.8C1381.57 239.611 1381.57 260.319 1368.39 260.12C1355.21 260.31 1355.21 239.6 1368.39 239.8Z" fill="#DEEBE5"/>
<path d="M1403.39 239.8C1416.57 239.6 1416.57 260.31 1403.39 260.12C1390.21 260.319 1390.21 239.611 1403.39 239.8Z" fill="#DEEBE5"/>
<path d="M1193.39 235.84C1203.44 235.691 1203.44 251.48 1193.39 251.33C1183.34 251.48 1183.34 235.69 1193.39 235.84Z" fill="#DEEBE5"/>
<path d="M1513.39 235.84C1523.44 235.691 1523.44 251.48 1513.39 251.33C1503.34 251.48 1503.34 235.691 1513.39 235.84Z" fill="#DEEBE5"/>
<path d="M1263.39 229.55C1275.66 229.371 1275.66 248.649 1263.39 248.47C1251.12 248.65 1251.12 229.37 1263.39 229.55Z" fill="#DEEBE5"/>
<path d="M1333.39 229.55C1345.66 229.371 1345.66 248.649 1333.39 248.47C1321.12 248.65 1321.12 229.37 1333.39 229.55Z" fill="#DEEBE5"/>
<path d="M1438.39 229.55C1450.66 229.371 1450.66 248.65 1438.39 248.47C1426.12 248.65 1426.12 229.371 1438.39 229.55Z" fill="#DEEBE5"/>
<path d="M1228.4 219.46C1239.55 219.301 1239.55 236.809 1228.4 236.65C1217.25 236.81 1217.25 219.3 1228.4 219.46Z" fill="#DEEBE5"/>
<path d="M1298.4 219.46C1309.55 219.301 1309.55 236.809 1298.4 236.65C1287.25 236.81 1287.25 219.3 1298.4 219.46Z" fill="#DEEBE5"/>
<path d="M1473.38 219.46C1484.53 219.301 1484.53 236.809 1473.38 236.65C1462.23 236.81 1462.23 219.3 1473.38 219.46Z" fill="#DEEBE5"/>
<path d="M1368.39 213.48C1381.36 213.291 1381.36 233.669 1368.39 233.48C1355.42 233.67 1355.42 213.29 1368.39 213.48Z" fill="#DEEBE5"/>
<path d="M1403.39 213.48C1416.36 213.29 1416.36 233.67 1403.39 233.48C1390.42 233.669 1390.42 213.291 1403.39 213.48Z" fill="#DEEBE5"/>
<path d="M1193.39 211.48C1200.68 211.371 1200.68 222.829 1193.39 222.72C1186.1 222.83 1186.1 211.37 1193.39 211.48Z" fill="#DEEBE5"/>
<path d="M1513.39 211.48C1520.68 211.37 1520.68 222.83 1513.39 222.72C1506.1 222.83 1506.1 211.37 1513.39 211.48Z" fill="#DEEBE5"/>
<path d="M1263.39 203.39C1275.24 203.221 1275.24 221.829 1263.39 221.66C1251.54 221.83 1251.54 203.22 1263.39 203.39Z" fill="#DEEBE5"/>
<path d="M1333.39 203.39C1345.24 203.221 1345.24 221.829 1333.39 221.66C1321.54 221.83 1321.54 203.22 1333.39 203.39Z" fill="#DEEBE5"/>
<path d="M1438.39 203.39C1450.24 203.221 1450.24 221.829 1438.39 221.66C1426.54 221.829 1426.54 203.22 1438.39 203.39Z" fill="#DEEBE5"/>
<path d="M1228.39 193.84C1238.44 193.691 1238.44 209.48 1228.39 209.33C1218.34 209.48 1218.34 193.69 1228.39 193.84Z" fill="#DEEBE5"/>
<path d="M1298.39 193.84C1308.44 193.691 1308.44 209.48 1298.39 209.33C1288.34 209.48 1288.34 193.69 1298.39 193.84Z" fill="#DEEBE5"/>
<path d="M1473.39 193.84C1483.44 193.691 1483.44 209.48 1473.39 209.33C1463.34 209.48 1463.34 193.691 1473.39 193.84Z" fill="#DEEBE5"/>
<path d="M1368.39 187.55C1380.66 187.371 1380.66 206.649 1368.39 206.47C1356.12 206.65 1356.12 187.37 1368.39 187.55Z" fill="#DEEBE5"/>
<path d="M1403.39 187.55C1415.66 187.37 1415.66 206.65 1403.39 206.47C1391.12 206.649 1391.12 187.371 1403.39 187.55Z" fill="#DEEBE5"/>
<path d="M1193.4 186.25C1199.08 186.171 1199.08 195.09 1193.4 195C1187.72 195.08 1187.72 186.16 1193.4 186.25Z" fill="#DEEBE5"/>
<path d="M1513.38 186.25C1519.06 186.161 1519.06 195.08 1513.38 195C1507.7 195.09 1507.7 186.17 1513.38 186.25Z" fill="#DEEBE5"/>
<path d="M1263.4 177.46C1274.55 177.301 1274.55 194.809 1263.4 194.65C1252.25 194.81 1252.25 177.3 1263.4 177.46Z" fill="#DEEBE5"/>
<path d="M1333.4 177.46C1344.55 177.301 1344.55 194.809 1333.4 194.65C1322.25 194.81 1322.25 177.3 1333.4 177.46Z" fill="#DEEBE5"/>
<path d="M1438.38 177.46C1449.53 177.301 1449.53 194.809 1438.38 194.65C1427.23 194.81 1427.23 177.3 1438.38 177.46Z" fill="#DEEBE5"/>
<path d="M1228.39 169.48C1235.68 169.371 1235.68 180.829 1228.39 180.72C1221.1 180.83 1221.1 169.37 1228.39 169.48Z" fill="#DEEBE5"/>
<path d="M1298.39 169.48C1305.68 169.371 1305.68 180.829 1298.39 180.72C1291.1 180.83 1291.1 169.37 1298.39 169.48Z" fill="#DEEBE5"/>
<path d="M1473.39 169.48C1480.68 169.37 1480.68 180.83 1473.39 180.72C1466.1 180.83 1466.1 169.37 1473.39 169.48Z" fill="#DEEBE5"/>
<path d="M1368.39 161.39C1380.24 161.221 1380.24 179.829 1368.39 179.66C1356.54 179.83 1356.54 161.22 1368.39 161.39Z" fill="#DEEBE5"/>
<path d="M1403.39 161.39C1415.24 161.22 1415.24 179.83 1403.39 179.66C1391.54 179.829 1391.54 161.221 1403.39 161.39Z" fill="#DEEBE5"/>
<path d="M1263.39 151.84C1273.44 151.691 1273.44 167.48 1263.39 167.33C1253.34 167.48 1253.34 151.69 1263.39 151.84Z" fill="#DEEBE5"/>
<path d="M1333.39 151.84C1343.44 151.691 1343.44 167.48 1333.39 167.33C1323.34 167.48 1323.34 151.69 1333.39 151.84Z" fill="#DEEBE5"/>
<path d="M1438.39 151.84C1448.44 151.691 1448.44 167.48 1438.39 167.33C1428.34 167.48 1428.34 151.691 1438.39 151.84Z" fill="#DEEBE5"/>
<path d="M1193.39 161C1197.48 160.941 1197.48 167.359 1193.39 167.3C1189.3 167.36 1189.3 160.94 1193.39 161Z" fill="#DEEBE5"/>
<path d="M1513.39 161C1517.48 160.941 1517.48 167.36 1513.39 167.3C1509.3 167.36 1509.3 160.941 1513.39 161Z" fill="#DEEBE5"/>
<path d="M1228.4 144.25C1234.08 144.171 1234.08 153.09 1228.4 153C1222.72 153.08 1222.72 144.16 1228.4 144.25Z" fill="#DEEBE5"/>
<path d="M1298.4 144.25C1304.08 144.171 1304.08 153.09 1298.4 153C1292.72 153.08 1292.72 144.16 1298.4 144.25Z" fill="#DEEBE5"/>
<path d="M1473.38 144.25C1479.06 144.161 1479.06 153.08 1473.38 153C1467.7 153.09 1467.7 144.17 1473.38 144.25Z" fill="#DEEBE5"/>
<path d="M1368.4 135.46C1379.55 135.301 1379.55 152.809 1368.4 152.65C1357.25 152.81 1357.25 135.3 1368.4 135.46Z" fill="#DEEBE5"/>
<path d="M1403.38 135.46C1414.53 135.3 1414.53 152.81 1403.38 152.65C1392.23 152.809 1392.23 135.301 1403.38 135.46Z" fill="#DEEBE5"/>
<path d="M1263.39 127.48C1270.68 127.371 1270.68 138.829 1263.39 138.72C1256.1 138.83 1256.1 127.37 1263.39 127.48Z" fill="#DEEBE5"/>
<path d="M1333.39 127.48C1340.68 127.371 1340.68 138.829 1333.39 138.72C1326.1 138.83 1326.1 127.37 1333.39 127.48Z" fill="#DEEBE5"/>
<path d="M1438.39 127.48C1445.68 127.37 1445.68 138.83 1438.39 138.72C1431.1 138.83 1431.1 127.37 1438.39 127.48Z" fill="#DEEBE5"/>
<path d="M1368.39 109.84C1378.44 109.691 1378.44 125.48 1368.39 125.33C1358.34 125.48 1358.34 109.69 1368.39 109.84Z" fill="#DEEBE5"/>
<path d="M1403.39 109.84C1413.44 109.69 1413.44 125.48 1403.39 125.33C1393.34 125.48 1393.34 109.691 1403.39 109.84Z" fill="#DEEBE5"/>
<path d="M1228.39 119C1232.48 118.941 1232.48 125.359 1228.39 125.3C1224.3 125.36 1224.3 118.94 1228.39 119Z" fill="#DEEBE5"/>
<path d="M1298.39 119C1302.48 118.941 1302.48 125.359 1298.39 125.3C1294.3 125.36 1294.3 118.94 1298.39 119Z" fill="#DEEBE5"/>
<path d="M1473.39 119C1477.48 118.941 1477.48 125.36 1473.39 125.3C1469.3 125.36 1469.3 118.941 1473.39 119Z" fill="#DEEBE5"/>
<path d="M1263.4 102.25C1269.08 102.171 1269.08 111.09 1263.4 111C1257.72 111.08 1257.72 102.16 1263.4 102.25Z" fill="#DEEBE5"/>
<path d="M1333.4 102.25C1339.08 102.171 1339.08 111.09 1333.4 111C1327.72 111.08 1327.72 102.16 1333.4 102.25Z" fill="#DEEBE5"/>
<path d="M1438.38 102.25C1444.06 102.161 1444.06 111.08 1438.38 111C1432.7 111.09 1432.7 102.17 1438.38 102.25Z" fill="#DEEBE5"/>
<path d="M1368.39 85.4799C1375.68 85.3706 1375.68 96.8294 1368.39 96.7201C1361.1 96.8301 1361.1 85.3699 1368.39 85.4799Z" fill="#DEEBE5"/>
<path d="M1403.39 85.4799C1410.68 85.3699 1410.68 96.8301 1403.39 96.7201C1396.1 96.8293 1396.1 85.3707 1403.39 85.4799Z" fill="#DEEBE5"/>
<path d="M1263.39 77.0004C1267.48 76.9412 1267.48 83.3594 1263.39 83.3002C1259.3 83.3602 1259.3 76.9404 1263.39 77.0004Z" fill="#DEEBE5"/>
<path d="M1333.39 77.0004C1337.48 76.9412 1337.48 83.3594 1333.39 83.3002C1329.3 83.3602 1329.3 76.9404 1333.39 77.0004Z" fill="#DEEBE5"/>
<path d="M1438.39 77.0004C1442.48 76.9409 1442.48 83.3597 1438.39 83.3002C1434.3 83.3598 1434.3 76.9408 1438.39 77.0004Z" fill="#DEEBE5"/>
<path d="M1368.4 60.2504C1374.08 60.1708 1374.08 69.09 1368.4 69.0004C1362.72 69.0804 1362.72 60.1604 1368.4 60.2504Z" fill="#DEEBE5"/>
<path d="M1403.38 60.2504C1409.06 60.1604 1409.06 69.0804 1403.38 69.0004C1397.7 69.0899 1397.7 60.1709 1403.38 60.2504Z" fill="#DEEBE5"/>
<path d="M1368.39 35.0004C1372.48 34.9412 1372.48 41.3594 1368.39 41.3002C1364.3 41.3602 1364.3 34.9404 1368.39 35.0004Z" fill="#DEEBE5"/>
<path d="M1403.39 35.0004C1407.48 34.9404 1407.48 41.3602 1403.39 41.3002C1399.3 41.3593 1399.3 34.9413 1403.39 35.0004Z" fill="#DEEBE5"/>
</g>
<defs>
<clipPath id="clip0_2313_565625">
<rect width="1440" height="279" fill="white"/>
</clipPath>
</defs>
</svg>
