<svg width="883" height="332" viewBox="0 0 883 332" fill="none" xmlns="http://www.w3.org/2000/svg">
<path d="M2 96C3.10457 96 4 96.8954 4 98C4 99.1046 3.10457 100 2 100C0.89543 100 0 99.1046 0 98C0 96.8954 0.89543 96 2 96Z" fill="#DEEBE5"/>
<path d="M18 93C20.7614 93 23 95.2386 23 98C23 100.761 20.7614 103 18 103C15.2386 103 13 100.761 13 98C13 95.2386 15.2386 93 18 93Z" fill="#DEEBE5"/>
<path d="M41 89C45.9706 89 50 93.0294 50 98C50 102.971 45.9706 107 41 107C36.0294 107 32 102.971 32 98C32 93.0294 36.0294 89 41 89Z" fill="#DEEBE5"/>
<path d="M71 86C77.6274 86 83 91.3726 83 98C83 104.627 77.6274 110 71 110C64.3726 110 59 104.627 59 98C59 91.3726 64.3726 86 71 86Z" fill="#DEEBE5"/>
<path d="M101 89C105.971 89 110 93.0294 110 98C110 102.971 105.971 107 101 107C96.0294 107 92 102.971 92 98C92 93.0294 96.0294 89 101 89Z" fill="#DEEBE5"/>
<path d="M124 93C126.761 93 129 95.2386 129 98C129 100.761 126.761 103 124 103C121.239 103 119 100.761 119 98C119 95.2386 121.239 93 124 93Z" fill="#DEEBE5"/>
<path d="M140 96C141.105 96 142 96.8954 142 98C142 99.1046 141.105 100 140 100C138.895 100 138 99.1046 138 98C138 96.8954 138.895 96 140 96Z" fill="#DEEBE5"/>
<path d="M153 96C154.105 96 155 96.8954 155 98C155 99.1046 154.105 100 153 100C151.895 100 151 99.1046 151 98C151 96.8954 151.895 96 153 96Z" fill="#DEEBE5"/>
<path d="M169 93C171.761 93 174 95.2386 174 98C174 100.761 171.761 103 169 103C166.239 103 164 100.761 164 98C164 95.2386 166.239 93 169 93Z" fill="#DEEBE5"/>
<path d="M192 89C196.971 89 201 93.0294 201 98C201 102.971 196.971 107 192 107C187.029 107 183 102.971 183 98C183 93.0294 187.029 89 192 89Z" fill="#DEEBE5"/>
<path d="M222 86C228.627 86 234 91.3726 234 98C234 104.627 228.627 110 222 110C215.373 110 210 104.627 210 98C210 91.3726 215.373 86 222 86Z" fill="#DEEBE5"/>
<path d="M252 89C256.971 89 261 93.0294 261 98C261 102.971 256.971 107 252 107C247.029 107 243 102.971 243 98C243 93.0294 247.029 89 252 89Z" fill="#DEEBE5"/>
<path d="M275 93C277.761 93 280 95.2386 280 98C280 100.761 277.761 103 275 103C272.239 103 270 100.761 270 98C270 95.2386 272.239 93 275 93Z" fill="#DEEBE5"/>
<path d="M291 96C292.105 96 293 96.8954 293 98C293 99.1046 292.105 100 291 100C289.895 100 289 99.1046 289 98C289 96.8954 289.895 96 291 96Z" fill="#DEEBE5"/>
<path d="M304 96C305.105 96 306 96.8954 306 98C306 99.1046 305.105 100 304 100C302.895 100 302 99.1046 302 98C302 96.8954 302.895 96 304 96Z" fill="#DEEBE5"/>
<path d="M320 93C322.761 93 325 95.2386 325 98C325 100.761 322.761 103 320 103C317.239 103 315 100.761 315 98C315 95.2386 317.239 93 320 93Z" fill="#DEEBE5"/>
<path d="M343 89C347.971 89 352 93.0294 352 98C352 102.971 347.971 107 343 107C338.029 107 334 102.971 334 98C334 93.0294 338.029 89 343 89Z" fill="#DEEBE5"/>
<path d="M373 86C379.627 86 385 91.3726 385 98C385 104.627 379.627 110 373 110C366.373 110 361 104.627 361 98C361 91.3726 366.373 86 373 86Z" fill="#DEEBE5"/>
<path d="M403 89C407.971 89 412 93.0294 412 98C412 102.971 407.971 107 403 107C398.029 107 394 102.971 394 98C394 93.0294 398.029 89 403 89Z" fill="#DEEBE5"/>
<path d="M426 93C428.761 93 431 95.2386 431 98C431 100.761 428.761 103 426 103C423.239 103 421 100.761 421 98C421 95.2386 423.239 93 426 93Z" fill="#DEEBE5"/>
<path d="M442 96C443.105 96 444 96.8954 444 98C444 99.1046 443.105 100 442 100C440.895 100 440 99.1046 440 98C440 96.8954 440.895 96 442 96Z" fill="#DEEBE5"/>
<path d="M455 96C456.105 96 457 96.8954 457 98C457 99.1046 456.105 100 455 100C453.895 100 453 99.1046 453 98C453 96.8954 453.895 96 455 96Z" fill="#DEEBE5"/>
<path d="M471 93C473.761 93 476 95.2386 476 98C476 100.761 473.761 103 471 103C468.239 103 466 100.761 466 98C466 95.2386 468.239 93 471 93Z" fill="#DEEBE5"/>
<path d="M494 89C498.971 89 503 93.0294 503 98C503 102.971 498.971 107 494 107C489.029 107 485 102.971 485 98C485 93.0294 489.029 89 494 89Z" fill="#DEEBE5"/>
<path d="M524 86C530.627 86 536 91.3726 536 98C536 104.627 530.627 110 524 110C517.373 110 512 104.627 512 98C512 91.3726 517.373 86 524 86Z" fill="#DEEBE5"/>
<path d="M554 89C558.971 89 563 93.0294 563 98C563 102.971 558.971 107 554 107C549.029 107 545 102.971 545 98C545 93.0294 549.029 89 554 89Z" fill="#DEEBE5"/>
<path d="M577 93C579.761 93 582 95.2386 582 98C582 100.761 579.761 103 577 103C574.239 103 572 100.761 572 98C572 95.2386 574.239 93 577 93Z" fill="#DEEBE5"/>
<path d="M593 96C594.105 96 595 96.8954 595 98C595 99.1046 594.105 100 593 100C591.895 100 591 99.1046 591 98C591 96.8954 591.895 96 593 96Z" fill="#DEEBE5"/>
<path d="M606 96C607.105 96 608 96.8954 608 98C608 99.1046 607.105 100 606 100C604.895 100 604 99.1046 604 98C604 96.8954 604.895 96 606 96Z" fill="#DEEBE5"/>
<path d="M622 93C624.761 93 627 95.2386 627 98C627 100.761 624.761 103 622 103C619.239 103 617 100.761 617 98C617 95.2386 619.239 93 622 93Z" fill="#DEEBE5"/>
<path d="M645 89C649.971 89 654 93.0294 654 98C654 102.971 649.971 107 645 107C640.029 107 636 102.971 636 98C636 93.0294 640.029 89 645 89Z" fill="#DEEBE5"/>
<path d="M675 86C681.627 86 687 91.3726 687 98C687 104.627 681.627 110 675 110C668.373 110 663 104.627 663 98C663 91.3726 668.373 86 675 86Z" fill="#DEEBE5"/>
<path d="M705 89C709.971 89 714 93.0294 714 98C714 102.971 709.971 107 705 107C700.029 107 696 102.971 696 98C696 93.0294 700.029 89 705 89Z" fill="#DEEBE5"/>
<path d="M728 93C730.761 93 733 95.2386 733 98C733 100.761 730.761 103 728 103C725.239 103 723 100.761 723 98C723 95.2386 725.239 93 728 93Z" fill="#DEEBE5"/>
<path d="M744 96C745.105 96 746 96.8954 746 98C746 99.1046 745.105 100 744 100C742.895 100 742 99.1046 742 98C742 96.8954 742.895 96 744 96Z" fill="#DEEBE5"/>
<path d="M77.5 53C78.6046 53 79.5 53.8954 79.5 55C79.5 56.1046 78.6046 57 77.5 57C76.3954 57 75.5 56.1046 75.5 55C75.5 53.8954 76.3954 53 77.5 53Z" fill="#DEEBE5"/>
<path d="M93.5 50C96.2614 50 98.5 52.2386 98.5 55C98.5 57.7614 96.2614 60 93.5 60C90.7386 60 88.5 57.7614 88.5 55C88.5 52.2386 90.7386 50 93.5 50Z" fill="#DEEBE5"/>
<path d="M116.5 46C121.471 46 125.5 50.0294 125.5 55C125.5 59.9706 121.471 64 116.5 64C111.529 64 107.5 59.9706 107.5 55C107.5 50.0294 111.529 46 116.5 46Z" fill="#DEEBE5"/>
<path d="M146.5 43C153.127 43 158.5 48.3726 158.5 55C158.5 61.6274 153.127 67 146.5 67C139.873 67 134.5 61.6274 134.5 55C134.5 48.3726 139.873 43 146.5 43Z" fill="#DEEBE5"/>
<path d="M176.5 46C181.471 46 185.5 50.0294 185.5 55C185.5 59.9706 181.471 64 176.5 64C171.529 64 167.5 59.9706 167.5 55C167.5 50.0294 171.529 46 176.5 46Z" fill="#DEEBE5"/>
<path d="M199.5 50C202.261 50 204.5 52.2386 204.5 55C204.5 57.7614 202.261 60 199.5 60C196.739 60 194.5 57.7614 194.5 55C194.5 52.2386 196.739 50 199.5 50Z" fill="#DEEBE5"/>
<path d="M215.5 53C216.605 53 217.5 53.8954 217.5 55C217.5 56.1046 216.605 57 215.5 57C214.395 57 213.5 56.1046 213.5 55C213.5 53.8954 214.395 53 215.5 53Z" fill="#DEEBE5"/>
<path d="M228.5 53C229.605 53 230.5 53.8954 230.5 55C230.5 56.1046 229.605 57 228.5 57C227.395 57 226.5 56.1046 226.5 55C226.5 53.8954 227.395 53 228.5 53Z" fill="#DEEBE5"/>
<path d="M244.5 50C247.261 50 249.5 52.2386 249.5 55C249.5 57.7614 247.261 60 244.5 60C241.739 60 239.5 57.7614 239.5 55C239.5 52.2386 241.739 50 244.5 50Z" fill="#DEEBE5"/>
<path d="M267.5 46C272.471 46 276.5 50.0294 276.5 55C276.5 59.9706 272.471 64 267.5 64C262.529 64 258.5 59.9706 258.5 55C258.5 50.0294 262.529 46 267.5 46Z" fill="#DEEBE5"/>
<path d="M297.5 43C304.127 43 309.5 48.3726 309.5 55C309.5 61.6274 304.127 67 297.5 67C290.873 67 285.5 61.6274 285.5 55C285.5 48.3726 290.873 43 297.5 43Z" fill="#DEEBE5"/>
<path d="M327.5 46C332.471 46 336.5 50.0294 336.5 55C336.5 59.9706 332.471 64 327.5 64C322.529 64 318.5 59.9706 318.5 55C318.5 50.0294 322.529 46 327.5 46Z" fill="#DEEBE5"/>
<path d="M350.5 50C353.261 50 355.5 52.2386 355.5 55C355.5 57.7614 353.261 60 350.5 60C347.739 60 345.5 57.7614 345.5 55C345.5 52.2386 347.739 50 350.5 50Z" fill="#DEEBE5"/>
<path d="M366.5 53C367.605 53 368.5 53.8954 368.5 55C368.5 56.1046 367.605 57 366.5 57C365.395 57 364.5 56.1046 364.5 55C364.5 53.8954 365.395 53 366.5 53Z" fill="#DEEBE5"/>
<path d="M379.5 53C380.605 53 381.5 53.8954 381.5 55C381.5 56.1046 380.605 57 379.5 57C378.395 57 377.5 56.1046 377.5 55C377.5 53.8954 378.395 53 379.5 53Z" fill="#DEEBE5"/>
<path d="M395.5 50C398.261 50 400.5 52.2386 400.5 55C400.5 57.7614 398.261 60 395.5 60C392.739 60 390.5 57.7614 390.5 55C390.5 52.2386 392.739 50 395.5 50Z" fill="#DEEBE5"/>
<path d="M418.5 46C423.471 46 427.5 50.0294 427.5 55C427.5 59.9706 423.471 64 418.5 64C413.529 64 409.5 59.9706 409.5 55C409.5 50.0294 413.529 46 418.5 46Z" fill="#DEEBE5"/>
<path d="M448.5 43C455.127 43 460.5 48.3726 460.5 55C460.5 61.6274 455.127 67 448.5 67C441.873 67 436.5 61.6274 436.5 55C436.5 48.3726 441.873 43 448.5 43Z" fill="#DEEBE5"/>
<path d="M478.5 46C483.471 46 487.5 50.0294 487.5 55C487.5 59.9706 483.471 64 478.5 64C473.529 64 469.5 59.9706 469.5 55C469.5 50.0294 473.529 46 478.5 46Z" fill="#DEEBE5"/>
<path d="M501.5 50C504.261 50 506.5 52.2386 506.5 55C506.5 57.7614 504.261 60 501.5 60C498.739 60 496.5 57.7614 496.5 55C496.5 52.2386 498.739 50 501.5 50Z" fill="#DEEBE5"/>
<path d="M517.5 53C518.605 53 519.5 53.8954 519.5 55C519.5 56.1046 518.605 57 517.5 57C516.395 57 515.5 56.1046 515.5 55C515.5 53.8954 516.395 53 517.5 53Z" fill="#DEEBE5"/>
<path d="M530.5 53C531.605 53 532.5 53.8954 532.5 55C532.5 56.1046 531.605 57 530.5 57C529.395 57 528.5 56.1046 528.5 55C528.5 53.8954 529.395 53 530.5 53Z" fill="#DEEBE5"/>
<path d="M546.5 50C549.261 50 551.5 52.2386 551.5 55C551.5 57.7614 549.261 60 546.5 60C543.739 60 541.5 57.7614 541.5 55C541.5 52.2386 543.739 50 546.5 50Z" fill="#DEEBE5"/>
<path d="M569.5 46C574.471 46 578.5 50.0294 578.5 55C578.5 59.9706 574.471 64 569.5 64C564.529 64 560.5 59.9706 560.5 55C560.5 50.0294 564.529 46 569.5 46Z" fill="#DEEBE5"/>
<path d="M599.5 43C606.127 43 611.5 48.3726 611.5 55C611.5 61.6274 606.127 67 599.5 67C592.873 67 587.5 61.6274 587.5 55C587.5 48.3726 592.873 43 599.5 43Z" fill="#DEEBE5"/>
<path d="M629.5 46C634.471 46 638.5 50.0294 638.5 55C638.5 59.9706 634.471 64 629.5 64C624.529 64 620.5 59.9706 620.5 55C620.5 50.0294 624.529 46 629.5 46Z" fill="#DEEBE5"/>
<path d="M652.5 50C655.261 50 657.5 52.2386 657.5 55C657.5 57.7614 655.261 60 652.5 60C649.739 60 647.5 57.7614 647.5 55C647.5 52.2386 649.739 50 652.5 50Z" fill="#DEEBE5"/>
<path d="M668.5 53C669.605 53 670.5 53.8954 670.5 55C670.5 56.1046 669.605 57 668.5 57C667.395 57 666.5 56.1046 666.5 55C666.5 53.8954 667.395 53 668.5 53Z" fill="#DEEBE5"/>
<path d="M2 10C3.10457 10 4 10.8954 4 12C4 13.1046 3.10457 14 2 14C0.89543 14 0 13.1046 0 12C0 10.8954 0.89543 10 2 10Z" fill="#DEEBE5"/>
<path d="M18 7C20.7614 7 23 9.23858 23 12C23 14.7614 20.7614 17 18 17C15.2386 17 13 14.7614 13 12C13 9.23858 15.2386 7 18 7Z" fill="#DEEBE5"/>
<path d="M41 3C45.9706 3 50 7.02943 50 12C50 16.9706 45.9706 21 41 21C36.0294 21 32 16.9706 32 12C32 7.02943 36.0294 3 41 3Z" fill="#DEEBE5"/>
<path d="M71 0C77.6274 0 83 5.37258 83 12C83 18.6274 77.6274 24 71 24C64.3726 24 59 18.6274 59 12C59 5.37258 64.3726 0 71 0Z" fill="#DEEBE5"/>
<path d="M101 3C105.971 3 110 7.02943 110 12C110 16.9706 105.971 21 101 21C96.0294 21 92 16.9706 92 12C92 7.02943 96.0294 3 101 3Z" fill="#DEEBE5"/>
<path d="M124 7C126.761 7 129 9.23858 129 12C129 14.7614 126.761 17 124 17C121.239 17 119 14.7614 119 12C119 9.23858 121.239 7 124 7Z" fill="#DEEBE5"/>
<path d="M140 10C141.105 10 142 10.8954 142 12C142 13.1046 141.105 14 140 14C138.895 14 138 13.1046 138 12C138 10.8954 138.895 10 140 10Z" fill="#DEEBE5"/>
<path d="M153 10C154.105 10 155 10.8954 155 12C155 13.1046 154.105 14 153 14C151.895 14 151 13.1046 151 12C151 10.8954 151.895 10 153 10Z" fill="#DEEBE5"/>
<path d="M169 7C171.761 7 174 9.23858 174 12C174 14.7614 171.761 17 169 17C166.239 17 164 14.7614 164 12C164 9.23858 166.239 7 169 7Z" fill="#DEEBE5"/>
<path d="M192 3C196.971 3 201 7.02943 201 12C201 16.9706 196.971 21 192 21C187.029 21 183 16.9706 183 12C183 7.02943 187.029 3 192 3Z" fill="#DEEBE5"/>
<path d="M222 0C228.627 0 234 5.37258 234 12C234 18.6274 228.627 24 222 24C215.373 24 210 18.6274 210 12C210 5.37258 215.373 0 222 0Z" fill="#DEEBE5"/>
<path d="M252 3C256.971 3 261 7.02943 261 12C261 16.9706 256.971 21 252 21C247.029 21 243 16.9706 243 12C243 7.02943 247.029 3 252 3Z" fill="#DEEBE5"/>
<path d="M275 7C277.761 7 280 9.23858 280 12C280 14.7614 277.761 17 275 17C272.239 17 270 14.7614 270 12C270 9.23858 272.239 7 275 7Z" fill="#DEEBE5"/>
<path d="M291 10C292.105 10 293 10.8954 293 12C293 13.1046 292.105 14 291 14C289.895 14 289 13.1046 289 12C289 10.8954 289.895 10 291 10Z" fill="#DEEBE5"/>
<path d="M304 10C305.105 10 306 10.8954 306 12C306 13.1046 305.105 14 304 14C302.895 14 302 13.1046 302 12C302 10.8954 302.895 10 304 10Z" fill="#DEEBE5"/>
<path d="M320 7C322.761 7 325 9.23858 325 12C325 14.7614 322.761 17 320 17C317.239 17 315 14.7614 315 12C315 9.23858 317.239 7 320 7Z" fill="#DEEBE5"/>
<path d="M343 3C347.971 3 352 7.02943 352 12C352 16.9706 347.971 21 343 21C338.029 21 334 16.9706 334 12C334 7.02943 338.029 3 343 3Z" fill="#DEEBE5"/>
<path d="M373 0C379.627 0 385 5.37258 385 12C385 18.6274 379.627 24 373 24C366.373 24 361 18.6274 361 12C361 5.37258 366.373 0 373 0Z" fill="#DEEBE5"/>
<path d="M403 3C407.971 3 412 7.02943 412 12C412 16.9706 407.971 21 403 21C398.029 21 394 16.9706 394 12C394 7.02943 398.029 3 403 3Z" fill="#DEEBE5"/>
<path d="M426 7C428.761 7 431 9.23858 431 12C431 14.7614 428.761 17 426 17C423.239 17 421 14.7614 421 12C421 9.23858 423.239 7 426 7Z" fill="#DEEBE5"/>
<path d="M442 10C443.105 10 444 10.8954 444 12C444 13.1046 443.105 14 442 14C440.895 14 440 13.1046 440 12C440 10.8954 440.895 10 442 10Z" fill="#DEEBE5"/>
<path d="M455 10C456.105 10 457 10.8954 457 12C457 13.1046 456.105 14 455 14C453.895 14 453 13.1046 453 12C453 10.8954 453.895 10 455 10Z" fill="#DEEBE5"/>
<path d="M471 7C473.761 7 476 9.23858 476 12C476 14.7614 473.761 17 471 17C468.239 17 466 14.7614 466 12C466 9.23858 468.239 7 471 7Z" fill="#DEEBE5"/>
<path d="M494 3C498.971 3 503 7.02943 503 12C503 16.9706 498.971 21 494 21C489.029 21 485 16.9706 485 12C485 7.02943 489.029 3 494 3Z" fill="#DEEBE5"/>
<path d="M524 0C530.627 0 536 5.37258 536 12C536 18.6274 530.627 24 524 24C517.373 24 512 18.6274 512 12C512 5.37258 517.373 0 524 0Z" fill="#DEEBE5"/>
<path d="M554 3C558.971 3 563 7.02943 563 12C563 16.9706 558.971 21 554 21C549.029 21 545 16.9706 545 12C545 7.02943 549.029 3 554 3Z" fill="#DEEBE5"/>
<path d="M577 7C579.761 7 582 9.23858 582 12C582 14.7614 579.761 17 577 17C574.239 17 572 14.7614 572 12C572 9.23858 574.239 7 577 7Z" fill="#DEEBE5"/>
<path d="M593 10C594.105 10 595 10.8954 595 12C595 13.1046 594.105 14 593 14C591.895 14 591 13.1046 591 12C591 10.8954 591.895 10 593 10Z" fill="#DEEBE5"/>
<path d="M606 10C607.105 10 608 10.8954 608 12C608 13.1046 607.105 14 606 14C604.895 14 604 13.1046 604 12C604 10.8954 604.895 10 606 10Z" fill="#DEEBE5"/>
<path d="M622 7C624.761 7 627 9.23858 627 12C627 14.7614 624.761 17 622 17C619.239 17 617 14.7614 617 12C617 9.23858 619.239 7 622 7Z" fill="#DEEBE5"/>
<path d="M645 3C649.971 3 654 7.02943 654 12C654 16.9706 649.971 21 645 21C640.029 21 636 16.9706 636 12C636 7.02943 640.029 3 645 3Z" fill="#DEEBE5"/>
<path d="M675 0C681.627 0 687 5.37258 687 12C687 18.6274 681.627 24 675 24C668.373 24 663 18.6274 663 12C663 5.37258 668.373 0 675 0Z" fill="#DEEBE5"/>
<path d="M705 3C709.971 3 714 7.02943 714 12C714 16.9706 709.971 21 705 21C700.029 21 696 16.9706 696 12C696 7.02943 700.029 3 705 3Z" fill="#DEEBE5"/>
<path d="M728 7C730.761 7 733 9.23858 733 12C733 14.7614 730.761 17 728 17C725.239 17 723 14.7614 723 12C723 9.23858 725.239 7 728 7Z" fill="#DEEBE5"/>
<path d="M744 10C745.105 10 746 10.8954 746 12C746 13.1046 745.105 14 744 14C742.895 14 742 13.1046 742 12C742 10.8954 742.895 10 744 10Z" fill="#DEEBE5"/>
<path d="M67 208C68.1046 208 69 208.895 69 210C69 211.105 68.1046 212 67 212C65.8954 212 65 211.105 65 210C65 208.895 65.8954 208 67 208Z" fill="#DEEBE5"/>
<path d="M83 205C85.7614 205 88 207.239 88 210C88 212.761 85.7614 215 83 215C80.2386 215 78 212.761 78 210C78 207.239 80.2386 205 83 205Z" fill="#DEEBE5"/>
<path d="M106 201C110.971 201 115 205.029 115 210C115 214.971 110.971 219 106 219C101.029 219 97 214.971 97 210C97 205.029 101.029 201 106 201Z" fill="#DEEBE5"/>
<path d="M136 198C142.627 198 148 203.373 148 210C148 216.627 142.627 222 136 222C129.373 222 124 216.627 124 210C124 203.373 129.373 198 136 198Z" fill="#DEEBE5"/>
<path d="M166 201C170.971 201 175 205.029 175 210C175 214.971 170.971 219 166 219C161.029 219 157 214.971 157 210C157 205.029 161.029 201 166 201Z" fill="#DEEBE5"/>
<path d="M189 205C191.761 205 194 207.239 194 210C194 212.761 191.761 215 189 215C186.239 215 184 212.761 184 210C184 207.239 186.239 205 189 205Z" fill="#DEEBE5"/>
<path d="M205 208C206.105 208 207 208.895 207 210C207 211.105 206.105 212 205 212C203.895 212 203 211.105 203 210C203 208.895 203.895 208 205 208Z" fill="#DEEBE5"/>
<path d="M218 208C219.105 208 220 208.895 220 210C220 211.105 219.105 212 218 212C216.895 212 216 211.105 216 210C216 208.895 216.895 208 218 208Z" fill="#DEEBE5"/>
<path d="M234 205C236.761 205 239 207.239 239 210C239 212.761 236.761 215 234 215C231.239 215 229 212.761 229 210C229 207.239 231.239 205 234 205Z" fill="#DEEBE5"/>
<path d="M257 201C261.971 201 266 205.029 266 210C266 214.971 261.971 219 257 219C252.029 219 248 214.971 248 210C248 205.029 252.029 201 257 201Z" fill="#DEEBE5"/>
<path d="M287 198C293.627 198 299 203.373 299 210C299 216.627 293.627 222 287 222C280.373 222 275 216.627 275 210C275 203.373 280.373 198 287 198Z" fill="#DEEBE5"/>
<path d="M317 201C321.971 201 326 205.029 326 210C326 214.971 321.971 219 317 219C312.029 219 308 214.971 308 210C308 205.029 312.029 201 317 201Z" fill="#DEEBE5"/>
<path d="M340 205C342.761 205 345 207.239 345 210C345 212.761 342.761 215 340 215C337.239 215 335 212.761 335 210C335 207.239 337.239 205 340 205Z" fill="#DEEBE5"/>
<path d="M356 208C357.105 208 358 208.895 358 210C358 211.105 357.105 212 356 212C354.895 212 354 211.105 354 210C354 208.895 354.895 208 356 208Z" fill="#DEEBE5"/>
<path d="M369 208C370.105 208 371 208.895 371 210C371 211.105 370.105 212 369 212C367.895 212 367 211.105 367 210C367 208.895 367.895 208 369 208Z" fill="#DEEBE5"/>
<path d="M385 205C387.761 205 390 207.239 390 210C390 212.761 387.761 215 385 215C382.239 215 380 212.761 380 210C380 207.239 382.239 205 385 205Z" fill="#DEEBE5"/>
<path d="M408 201C412.971 201 417 205.029 417 210C417 214.971 412.971 219 408 219C403.029 219 399 214.971 399 210C399 205.029 403.029 201 408 201Z" fill="#DEEBE5"/>
<path d="M438 198C444.627 198 450 203.373 450 210C450 216.627 444.627 222 438 222C431.373 222 426 216.627 426 210C426 203.373 431.373 198 438 198Z" fill="#DEEBE5"/>
<path d="M468 201C472.971 201 477 205.029 477 210C477 214.971 472.971 219 468 219C463.029 219 459 214.971 459 210C459 205.029 463.029 201 468 201Z" fill="#DEEBE5"/>
<path d="M491 205C493.761 205 496 207.239 496 210C496 212.761 493.761 215 491 215C488.239 215 486 212.761 486 210C486 207.239 488.239 205 491 205Z" fill="#DEEBE5"/>
<path d="M507 208C508.105 208 509 208.895 509 210C509 211.105 508.105 212 507 212C505.895 212 505 211.105 505 210C505 208.895 505.895 208 507 208Z" fill="#DEEBE5"/>
<path d="M520 208C521.105 208 522 208.895 522 210C522 211.105 521.105 212 520 212C518.895 212 518 211.105 518 210C518 208.895 518.895 208 520 208Z" fill="#DEEBE5"/>
<path d="M536 205C538.761 205 541 207.239 541 210C541 212.761 538.761 215 536 215C533.239 215 531 212.761 531 210C531 207.239 533.239 205 536 205Z" fill="#DEEBE5"/>
<path d="M559 201C563.971 201 568 205.029 568 210C568 214.971 563.971 219 559 219C554.029 219 550 214.971 550 210C550 205.029 554.029 201 559 201Z" fill="#DEEBE5"/>
<path d="M589 198C595.627 198 601 203.373 601 210C601 216.627 595.627 222 589 222C582.373 222 577 216.627 577 210C577 203.373 582.373 198 589 198Z" fill="#DEEBE5"/>
<path d="M619 201C623.971 201 628 205.029 628 210C628 214.971 623.971 219 619 219C614.029 219 610 214.971 610 210C610 205.029 614.029 201 619 201Z" fill="#DEEBE5"/>
<path d="M642 205C644.761 205 647 207.239 647 210C647 212.761 644.761 215 642 215C639.239 215 637 212.761 637 210C637 207.239 639.239 205 642 205Z" fill="#DEEBE5"/>
<path d="M658 208C659.105 208 660 208.895 660 210C660 211.105 659.105 212 658 212C656.895 212 656 211.105 656 210C656 208.895 656.895 208 658 208Z" fill="#DEEBE5"/>
<path d="M671 208C672.105 208 673 208.895 673 210C673 211.105 672.105 212 671 212C669.895 212 669 211.105 669 210C669 208.895 669.895 208 671 208Z" fill="#DEEBE5"/>
<path d="M687 205C689.761 205 692 207.239 692 210C692 212.761 689.761 215 687 215C684.239 215 682 212.761 682 210C682 207.239 684.239 205 687 205Z" fill="#DEEBE5"/>
<path d="M710 201C714.971 201 719 205.029 719 210C719 214.971 714.971 219 710 219C705.029 219 701 214.971 701 210C701 205.029 705.029 201 710 201Z" fill="#DEEBE5"/>
<path d="M740 198C746.627 198 752 203.373 752 210C752 216.627 746.627 222 740 222C733.373 222 728 216.627 728 210C728 203.373 733.373 198 740 198Z" fill="#DEEBE5"/>
<path d="M770 201C774.971 201 779 205.029 779 210C779 214.971 774.971 219 770 219C765.029 219 761 214.971 761 210C761 205.029 765.029 201 770 201Z" fill="#DEEBE5"/>
<path d="M793 205C795.761 205 798 207.239 798 210C798 212.761 795.761 215 793 215C790.239 215 788 212.761 788 210C788 207.239 790.239 205 793 205Z" fill="#DEEBE5"/>
<path d="M809 208C810.105 208 811 208.895 811 210C811 211.105 810.105 212 809 212C807.895 212 807 211.105 807 210C807 208.895 807.895 208 809 208Z" fill="#DEEBE5"/>
<path d="M142.5 165C143.605 165 144.5 165.895 144.5 167C144.5 168.105 143.605 169 142.5 169C141.395 169 140.5 168.105 140.5 167C140.5 165.895 141.395 165 142.5 165Z" fill="#DEEBE5"/>
<path d="M158.5 162C161.261 162 163.5 164.239 163.5 167C163.5 169.761 161.261 172 158.5 172C155.739 172 153.5 169.761 153.5 167C153.5 164.239 155.739 162 158.5 162Z" fill="#DEEBE5"/>
<path d="M181.5 158C186.471 158 190.5 162.029 190.5 167C190.5 171.971 186.471 176 181.5 176C176.529 176 172.5 171.971 172.5 167C172.5 162.029 176.529 158 181.5 158Z" fill="#DEEBE5"/>
<path d="M211.5 155C218.127 155 223.5 160.373 223.5 167C223.5 173.627 218.127 179 211.5 179C204.873 179 199.5 173.627 199.5 167C199.5 160.373 204.873 155 211.5 155Z" fill="#DEEBE5"/>
<path d="M241.5 158C246.471 158 250.5 162.029 250.5 167C250.5 171.971 246.471 176 241.5 176C236.529 176 232.5 171.971 232.5 167C232.5 162.029 236.529 158 241.5 158Z" fill="#DEEBE5"/>
<path d="M264.5 162C267.261 162 269.5 164.239 269.5 167C269.5 169.761 267.261 172 264.5 172C261.739 172 259.5 169.761 259.5 167C259.5 164.239 261.739 162 264.5 162Z" fill="#DEEBE5"/>
<path d="M280.5 165C281.605 165 282.5 165.895 282.5 167C282.5 168.105 281.605 169 280.5 169C279.395 169 278.5 168.105 278.5 167C278.5 165.895 279.395 165 280.5 165Z" fill="#DEEBE5"/>
<path d="M293.5 165C294.605 165 295.5 165.895 295.5 167C295.5 168.105 294.605 169 293.5 169C292.395 169 291.5 168.105 291.5 167C291.5 165.895 292.395 165 293.5 165Z" fill="#DEEBE5"/>
<path d="M309.5 162C312.261 162 314.5 164.239 314.5 167C314.5 169.761 312.261 172 309.5 172C306.739 172 304.5 169.761 304.5 167C304.5 164.239 306.739 162 309.5 162Z" fill="#DEEBE5"/>
<path d="M332.5 158C337.471 158 341.5 162.029 341.5 167C341.5 171.971 337.471 176 332.5 176C327.529 176 323.5 171.971 323.5 167C323.5 162.029 327.529 158 332.5 158Z" fill="#DEEBE5"/>
<path d="M362.5 155C369.127 155 374.5 160.373 374.5 167C374.5 173.627 369.127 179 362.5 179C355.873 179 350.5 173.627 350.5 167C350.5 160.373 355.873 155 362.5 155Z" fill="#DEEBE5"/>
<path d="M392.5 158C397.471 158 401.5 162.029 401.5 167C401.5 171.971 397.471 176 392.5 176C387.529 176 383.5 171.971 383.5 167C383.5 162.029 387.529 158 392.5 158Z" fill="#DEEBE5"/>
<path d="M415.5 162C418.261 162 420.5 164.239 420.5 167C420.5 169.761 418.261 172 415.5 172C412.739 172 410.5 169.761 410.5 167C410.5 164.239 412.739 162 415.5 162Z" fill="#DEEBE5"/>
<path d="M431.5 165C432.605 165 433.5 165.895 433.5 167C433.5 168.105 432.605 169 431.5 169C430.395 169 429.5 168.105 429.5 167C429.5 165.895 430.395 165 431.5 165Z" fill="#DEEBE5"/>
<path d="M444.5 165C445.605 165 446.5 165.895 446.5 167C446.5 168.105 445.605 169 444.5 169C443.395 169 442.5 168.105 442.5 167C442.5 165.895 443.395 165 444.5 165Z" fill="#DEEBE5"/>
<path d="M460.5 162C463.261 162 465.5 164.239 465.5 167C465.5 169.761 463.261 172 460.5 172C457.739 172 455.5 169.761 455.5 167C455.5 164.239 457.739 162 460.5 162Z" fill="#DEEBE5"/>
<path d="M483.5 158C488.471 158 492.5 162.029 492.5 167C492.5 171.971 488.471 176 483.5 176C478.529 176 474.5 171.971 474.5 167C474.5 162.029 478.529 158 483.5 158Z" fill="#DEEBE5"/>
<path d="M513.5 155C520.127 155 525.5 160.373 525.5 167C525.5 173.627 520.127 179 513.5 179C506.873 179 501.5 173.627 501.5 167C501.5 160.373 506.873 155 513.5 155Z" fill="#DEEBE5"/>
<path d="M543.5 158C548.471 158 552.5 162.029 552.5 167C552.5 171.971 548.471 176 543.5 176C538.529 176 534.5 171.971 534.5 167C534.5 162.029 538.529 158 543.5 158Z" fill="#DEEBE5"/>
<path d="M566.5 162C569.261 162 571.5 164.239 571.5 167C571.5 169.761 569.261 172 566.5 172C563.739 172 561.5 169.761 561.5 167C561.5 164.239 563.739 162 566.5 162Z" fill="#DEEBE5"/>
<path d="M582.5 165C583.605 165 584.5 165.895 584.5 167C584.5 168.105 583.605 169 582.5 169C581.395 169 580.5 168.105 580.5 167C580.5 165.895 581.395 165 582.5 165Z" fill="#DEEBE5"/>
<path d="M595.5 165C596.605 165 597.5 165.895 597.5 167C597.5 168.105 596.605 169 595.5 169C594.395 169 593.5 168.105 593.5 167C593.5 165.895 594.395 165 595.5 165Z" fill="#DEEBE5"/>
<path d="M611.5 162C614.261 162 616.5 164.239 616.5 167C616.5 169.761 614.261 172 611.5 172C608.739 172 606.5 169.761 606.5 167C606.5 164.239 608.739 162 611.5 162Z" fill="#DEEBE5"/>
<path d="M634.5 158C639.471 158 643.5 162.029 643.5 167C643.5 171.971 639.471 176 634.5 176C629.529 176 625.5 171.971 625.5 167C625.5 162.029 629.529 158 634.5 158Z" fill="#DEEBE5"/>
<path d="M664.5 155C671.127 155 676.5 160.373 676.5 167C676.5 173.627 671.127 179 664.5 179C657.873 179 652.5 173.627 652.5 167C652.5 160.373 657.873 155 664.5 155Z" fill="#DEEBE5"/>
<path d="M694.5 158C699.471 158 703.5 162.029 703.5 167C703.5 171.971 699.471 176 694.5 176C689.529 176 685.5 171.971 685.5 167C685.5 162.029 689.529 158 694.5 158Z" fill="#DEEBE5"/>
<path d="M717.5 162C720.261 162 722.5 164.239 722.5 167C722.5 169.761 720.261 172 717.5 172C714.739 172 712.5 169.761 712.5 167C712.5 164.239 714.739 162 717.5 162Z" fill="#DEEBE5"/>
<path d="M733.5 165C734.605 165 735.5 165.895 735.5 167C735.5 168.105 734.605 169 733.5 169C732.395 169 731.5 168.105 731.5 167C731.5 165.895 732.395 165 733.5 165Z" fill="#DEEBE5"/>
<path d="M67 122C68.1046 122 69 122.895 69 124C69 125.105 68.1046 126 67 126C65.8954 126 65 125.105 65 124C65 122.895 65.8954 122 67 122Z" fill="#DEEBE5"/>
<path d="M83 119C85.7614 119 88 121.239 88 124C88 126.761 85.7614 129 83 129C80.2386 129 78 126.761 78 124C78 121.239 80.2386 119 83 119Z" fill="#DEEBE5"/>
<path d="M106 115C110.971 115 115 119.029 115 124C115 128.971 110.971 133 106 133C101.029 133 97 128.971 97 124C97 119.029 101.029 115 106 115Z" fill="#DEEBE5"/>
<path d="M136 112C142.627 112 148 117.373 148 124C148 130.627 142.627 136 136 136C129.373 136 124 130.627 124 124C124 117.373 129.373 112 136 112Z" fill="#DEEBE5"/>
<path d="M166 115C170.971 115 175 119.029 175 124C175 128.971 170.971 133 166 133C161.029 133 157 128.971 157 124C157 119.029 161.029 115 166 115Z" fill="#DEEBE5"/>
<path d="M189 119C191.761 119 194 121.239 194 124C194 126.761 191.761 129 189 129C186.239 129 184 126.761 184 124C184 121.239 186.239 119 189 119Z" fill="#DEEBE5"/>
<path d="M205 122C206.105 122 207 122.895 207 124C207 125.105 206.105 126 205 126C203.895 126 203 125.105 203 124C203 122.895 203.895 122 205 122Z" fill="#DEEBE5"/>
<path d="M218 122C219.105 122 220 122.895 220 124C220 125.105 219.105 126 218 126C216.895 126 216 125.105 216 124C216 122.895 216.895 122 218 122Z" fill="#DEEBE5"/>
<path d="M234 119C236.761 119 239 121.239 239 124C239 126.761 236.761 129 234 129C231.239 129 229 126.761 229 124C229 121.239 231.239 119 234 119Z" fill="#DEEBE5"/>
<path d="M257 115C261.971 115 266 119.029 266 124C266 128.971 261.971 133 257 133C252.029 133 248 128.971 248 124C248 119.029 252.029 115 257 115Z" fill="#DEEBE5"/>
<path d="M287 112C293.627 112 299 117.373 299 124C299 130.627 293.627 136 287 136C280.373 136 275 130.627 275 124C275 117.373 280.373 112 287 112Z" fill="#DEEBE5"/>
<path d="M317 115C321.971 115 326 119.029 326 124C326 128.971 321.971 133 317 133C312.029 133 308 128.971 308 124C308 119.029 312.029 115 317 115Z" fill="#DEEBE5"/>
<path d="M340 119C342.761 119 345 121.239 345 124C345 126.761 342.761 129 340 129C337.239 129 335 126.761 335 124C335 121.239 337.239 119 340 119Z" fill="#DEEBE5"/>
<path d="M356 122C357.105 122 358 122.895 358 124C358 125.105 357.105 126 356 126C354.895 126 354 125.105 354 124C354 122.895 354.895 122 356 122Z" fill="#DEEBE5"/>
<path d="M369 122C370.105 122 371 122.895 371 124C371 125.105 370.105 126 369 126C367.895 126 367 125.105 367 124C367 122.895 367.895 122 369 122Z" fill="#DEEBE5"/>
<path d="M385 119C387.761 119 390 121.239 390 124C390 126.761 387.761 129 385 129C382.239 129 380 126.761 380 124C380 121.239 382.239 119 385 119Z" fill="#DEEBE5"/>
<path d="M408 115C412.971 115 417 119.029 417 124C417 128.971 412.971 133 408 133C403.029 133 399 128.971 399 124C399 119.029 403.029 115 408 115Z" fill="#DEEBE5"/>
<path d="M438 112C444.627 112 450 117.373 450 124C450 130.627 444.627 136 438 136C431.373 136 426 130.627 426 124C426 117.373 431.373 112 438 112Z" fill="#DEEBE5"/>
<path d="M468 115C472.971 115 477 119.029 477 124C477 128.971 472.971 133 468 133C463.029 133 459 128.971 459 124C459 119.029 463.029 115 468 115Z" fill="#DEEBE5"/>
<path d="M491 119C493.761 119 496 121.239 496 124C496 126.761 493.761 129 491 129C488.239 129 486 126.761 486 124C486 121.239 488.239 119 491 119Z" fill="#DEEBE5"/>
<path d="M507 122C508.105 122 509 122.895 509 124C509 125.105 508.105 126 507 126C505.895 126 505 125.105 505 124C505 122.895 505.895 122 507 122Z" fill="#DEEBE5"/>
<path d="M520 122C521.105 122 522 122.895 522 124C522 125.105 521.105 126 520 126C518.895 126 518 125.105 518 124C518 122.895 518.895 122 520 122Z" fill="#DEEBE5"/>
<path d="M536 119C538.761 119 541 121.239 541 124C541 126.761 538.761 129 536 129C533.239 129 531 126.761 531 124C531 121.239 533.239 119 536 119Z" fill="#DEEBE5"/>
<path d="M559 115C563.971 115 568 119.029 568 124C568 128.971 563.971 133 559 133C554.029 133 550 128.971 550 124C550 119.029 554.029 115 559 115Z" fill="#DEEBE5"/>
<path d="M589 112C595.627 112 601 117.373 601 124C601 130.627 595.627 136 589 136C582.373 136 577 130.627 577 124C577 117.373 582.373 112 589 112Z" fill="#DEEBE5"/>
<path d="M619 115C623.971 115 628 119.029 628 124C628 128.971 623.971 133 619 133C614.029 133 610 128.971 610 124C610 119.029 614.029 115 619 115Z" fill="#DEEBE5"/>
<path d="M642 119C644.761 119 647 121.239 647 124C647 126.761 644.761 129 642 129C639.239 129 637 126.761 637 124C637 121.239 639.239 119 642 119Z" fill="#DEEBE5"/>
<path d="M658 122C659.105 122 660 122.895 660 124C660 125.105 659.105 126 658 126C656.895 126 656 125.105 656 124C656 122.895 656.895 122 658 122Z" fill="#DEEBE5"/>
<path d="M671 122C672.105 122 673 122.895 673 124C673 125.105 672.105 126 671 126C669.895 126 669 125.105 669 124C669 122.895 669.895 122 671 122Z" fill="#DEEBE5"/>
<path d="M687 119C689.761 119 692 121.239 692 124C692 126.761 689.761 129 687 129C684.239 129 682 126.761 682 124C682 121.239 684.239 119 687 119Z" fill="#DEEBE5"/>
<path d="M710 115C714.971 115 719 119.029 719 124C719 128.971 714.971 133 710 133C705.029 133 701 128.971 701 124C701 119.029 705.029 115 710 115Z" fill="#DEEBE5"/>
<path d="M740 112C746.627 112 752 117.373 752 124C752 130.627 746.627 136 740 136C733.373 136 728 130.627 728 124C728 117.373 733.373 112 740 112Z" fill="#DEEBE5"/>
<path d="M770 115C774.971 115 779 119.029 779 124C779 128.971 774.971 133 770 133C765.029 133 761 128.971 761 124C761 119.029 765.029 115 770 115Z" fill="#DEEBE5"/>
<path d="M793 119C795.761 119 798 121.239 798 124C798 126.761 795.761 129 793 129C790.239 129 788 126.761 788 124C788 121.239 790.239 119 793 119Z" fill="#DEEBE5"/>
<path d="M809 122C810.105 122 811 122.895 811 124C811 125.105 810.105 126 809 126C807.895 126 807 125.105 807 124C807 122.895 807.895 122 809 122Z" fill="#DEEBE5"/>
<path d="M139 318C140.105 318 141 318.895 141 320C141 321.105 140.105 322 139 322C137.895 322 137 321.105 137 320C137 318.895 137.895 318 139 318Z" fill="#DEEBE5"/>
<path d="M155 315C157.761 315 160 317.239 160 320C160 322.761 157.761 325 155 325C152.239 325 150 322.761 150 320C150 317.239 152.239 315 155 315Z" fill="#DEEBE5"/>
<path d="M178 311C182.971 311 187 315.029 187 320C187 324.971 182.971 329 178 329C173.029 329 169 324.971 169 320C169 315.029 173.029 311 178 311Z" fill="#DEEBE5"/>
<path d="M208 308C214.627 308 220 313.373 220 320C220 326.627 214.627 332 208 332C201.373 332 196 326.627 196 320C196 313.373 201.373 308 208 308Z" fill="#DEEBE5"/>
<path d="M238 311C242.971 311 247 315.029 247 320C247 324.971 242.971 329 238 329C233.029 329 229 324.971 229 320C229 315.029 233.029 311 238 311Z" fill="#DEEBE5"/>
<path d="M261 315C263.761 315 266 317.239 266 320C266 322.761 263.761 325 261 325C258.239 325 256 322.761 256 320C256 317.239 258.239 315 261 315Z" fill="#DEEBE5"/>
<path d="M277 318C278.105 318 279 318.895 279 320C279 321.105 278.105 322 277 322C275.895 322 275 321.105 275 320C275 318.895 275.895 318 277 318Z" fill="#DEEBE5"/>
<path d="M290 318C291.105 318 292 318.895 292 320C292 321.105 291.105 322 290 322C288.895 322 288 321.105 288 320C288 318.895 288.895 318 290 318Z" fill="#DEEBE5"/>
<path d="M306 315C308.761 315 311 317.239 311 320C311 322.761 308.761 325 306 325C303.239 325 301 322.761 301 320C301 317.239 303.239 315 306 315Z" fill="#DEEBE5"/>
<path d="M329 311C333.971 311 338 315.029 338 320C338 324.971 333.971 329 329 329C324.029 329 320 324.971 320 320C320 315.029 324.029 311 329 311Z" fill="#DEEBE5"/>
<path d="M359 308C365.627 308 371 313.373 371 320C371 326.627 365.627 332 359 332C352.373 332 347 326.627 347 320C347 313.373 352.373 308 359 308Z" fill="#DEEBE5"/>
<path d="M389 311C393.971 311 398 315.029 398 320C398 324.971 393.971 329 389 329C384.029 329 380 324.971 380 320C380 315.029 384.029 311 389 311Z" fill="#DEEBE5"/>
<path d="M412 315C414.761 315 417 317.239 417 320C417 322.761 414.761 325 412 325C409.239 325 407 322.761 407 320C407 317.239 409.239 315 412 315Z" fill="#DEEBE5"/>
<path d="M428 318C429.105 318 430 318.895 430 320C430 321.105 429.105 322 428 322C426.895 322 426 321.105 426 320C426 318.895 426.895 318 428 318Z" fill="#DEEBE5"/>
<path d="M441 318C442.105 318 443 318.895 443 320C443 321.105 442.105 322 441 322C439.895 322 439 321.105 439 320C439 318.895 439.895 318 441 318Z" fill="#DEEBE5"/>
<path d="M457 315C459.761 315 462 317.239 462 320C462 322.761 459.761 325 457 325C454.239 325 452 322.761 452 320C452 317.239 454.239 315 457 315Z" fill="#DEEBE5"/>
<path d="M480 311C484.971 311 489 315.029 489 320C489 324.971 484.971 329 480 329C475.029 329 471 324.971 471 320C471 315.029 475.029 311 480 311Z" fill="#DEEBE5"/>
<path d="M510 308C516.627 308 522 313.373 522 320C522 326.627 516.627 332 510 332C503.373 332 498 326.627 498 320C498 313.373 503.373 308 510 308Z" fill="#DEEBE5"/>
<path d="M540 311C544.971 311 549 315.029 549 320C549 324.971 544.971 329 540 329C535.029 329 531 324.971 531 320C531 315.029 535.029 311 540 311Z" fill="#DEEBE5"/>
<path d="M563 315C565.761 315 568 317.239 568 320C568 322.761 565.761 325 563 325C560.239 325 558 322.761 558 320C558 317.239 560.239 315 563 315Z" fill="#DEEBE5"/>
<path d="M579 318C580.105 318 581 318.895 581 320C581 321.105 580.105 322 579 322C577.895 322 577 321.105 577 320C577 318.895 577.895 318 579 318Z" fill="#DEEBE5"/>
<path d="M592 318C593.105 318 594 318.895 594 320C594 321.105 593.105 322 592 322C590.895 322 590 321.105 590 320C590 318.895 590.895 318 592 318Z" fill="#DEEBE5"/>
<path d="M608 315C610.761 315 613 317.239 613 320C613 322.761 610.761 325 608 325C605.239 325 603 322.761 603 320C603 317.239 605.239 315 608 315Z" fill="#DEEBE5"/>
<path d="M631 311C635.971 311 640 315.029 640 320C640 324.971 635.971 329 631 329C626.029 329 622 324.971 622 320C622 315.029 626.029 311 631 311Z" fill="#DEEBE5"/>
<path d="M661 308C667.627 308 673 313.373 673 320C673 326.627 667.627 332 661 332C654.373 332 649 326.627 649 320C649 313.373 654.373 308 661 308Z" fill="#DEEBE5"/>
<path d="M691 311C695.971 311 700 315.029 700 320C700 324.971 695.971 329 691 329C686.029 329 682 324.971 682 320C682 315.029 686.029 311 691 311Z" fill="#DEEBE5"/>
<path d="M714 315C716.761 315 719 317.239 719 320C719 322.761 716.761 325 714 325C711.239 325 709 322.761 709 320C709 317.239 711.239 315 714 315Z" fill="#DEEBE5"/>
<path d="M730 318C731.105 318 732 318.895 732 320C732 321.105 731.105 322 730 322C728.895 322 728 321.105 728 320C728 318.895 728.895 318 730 318Z" fill="#DEEBE5"/>
<path d="M743 318C744.105 318 745 318.895 745 320C745 321.105 744.105 322 743 322C741.895 322 741 321.105 741 320C741 318.895 741.895 318 743 318Z" fill="#DEEBE5"/>
<path d="M759 315C761.761 315 764 317.239 764 320C764 322.761 761.761 325 759 325C756.239 325 754 322.761 754 320C754 317.239 756.239 315 759 315Z" fill="#DEEBE5"/>
<path d="M782 311C786.971 311 791 315.029 791 320C791 324.971 786.971 329 782 329C777.029 329 773 324.971 773 320C773 315.029 777.029 311 782 311Z" fill="#DEEBE5"/>
<path d="M812 308C818.627 308 824 313.373 824 320C824 326.627 818.627 332 812 332C805.373 332 800 326.627 800 320C800 313.373 805.373 308 812 308Z" fill="#DEEBE5"/>
<path d="M842 311C846.971 311 851 315.029 851 320C851 324.971 846.971 329 842 329C837.029 329 833 324.971 833 320C833 315.029 837.029 311 842 311Z" fill="#DEEBE5"/>
<path d="M865 315C867.761 315 870 317.239 870 320C870 322.761 867.761 325 865 325C862.239 325 860 322.761 860 320C860 317.239 862.239 315 865 315Z" fill="#DEEBE5"/>
<path d="M881 318C882.105 318 883 318.895 883 320C883 321.105 882.105 322 881 322C879.895 322 879 321.105 879 320C879 318.895 879.895 318 881 318Z" fill="#DEEBE5"/>
<path d="M214.5 275C215.605 275 216.5 275.895 216.5 277C216.5 278.105 215.605 279 214.5 279C213.395 279 212.5 278.105 212.5 277C212.5 275.895 213.395 275 214.5 275Z" fill="#DEEBE5"/>
<path d="M230.5 272C233.261 272 235.5 274.239 235.5 277C235.5 279.761 233.261 282 230.5 282C227.739 282 225.5 279.761 225.5 277C225.5 274.239 227.739 272 230.5 272Z" fill="#DEEBE5"/>
<path d="M253.5 268C258.471 268 262.5 272.029 262.5 277C262.5 281.971 258.471 286 253.5 286C248.529 286 244.5 281.971 244.5 277C244.5 272.029 248.529 268 253.5 268Z" fill="#DEEBE5"/>
<path d="M283.5 265C290.127 265 295.5 270.373 295.5 277C295.5 283.627 290.127 289 283.5 289C276.873 289 271.5 283.627 271.5 277C271.5 270.373 276.873 265 283.5 265Z" fill="#DEEBE5"/>
<path d="M313.5 268C318.471 268 322.5 272.029 322.5 277C322.5 281.971 318.471 286 313.5 286C308.529 286 304.5 281.971 304.5 277C304.5 272.029 308.529 268 313.5 268Z" fill="#DEEBE5"/>
<path d="M336.5 272C339.261 272 341.5 274.239 341.5 277C341.5 279.761 339.261 282 336.5 282C333.739 282 331.5 279.761 331.5 277C331.5 274.239 333.739 272 336.5 272Z" fill="#DEEBE5"/>
<path d="M352.5 275C353.605 275 354.5 275.895 354.5 277C354.5 278.105 353.605 279 352.5 279C351.395 279 350.5 278.105 350.5 277C350.5 275.895 351.395 275 352.5 275Z" fill="#DEEBE5"/>
<path d="M365.5 275C366.605 275 367.5 275.895 367.5 277C367.5 278.105 366.605 279 365.5 279C364.395 279 363.5 278.105 363.5 277C363.5 275.895 364.395 275 365.5 275Z" fill="#DEEBE5"/>
<path d="M381.5 272C384.261 272 386.5 274.239 386.5 277C386.5 279.761 384.261 282 381.5 282C378.739 282 376.5 279.761 376.5 277C376.5 274.239 378.739 272 381.5 272Z" fill="#DEEBE5"/>
<path d="M404.5 268C409.471 268 413.5 272.029 413.5 277C413.5 281.971 409.471 286 404.5 286C399.529 286 395.5 281.971 395.5 277C395.5 272.029 399.529 268 404.5 268Z" fill="#DEEBE5"/>
<path d="M434.5 265C441.127 265 446.5 270.373 446.5 277C446.5 283.627 441.127 289 434.5 289C427.873 289 422.5 283.627 422.5 277C422.5 270.373 427.873 265 434.5 265Z" fill="#DEEBE5"/>
<path d="M464.5 268C469.471 268 473.5 272.029 473.5 277C473.5 281.971 469.471 286 464.5 286C459.529 286 455.5 281.971 455.5 277C455.5 272.029 459.529 268 464.5 268Z" fill="#DEEBE5"/>
<path d="M487.5 272C490.261 272 492.5 274.239 492.5 277C492.5 279.761 490.261 282 487.5 282C484.739 282 482.5 279.761 482.5 277C482.5 274.239 484.739 272 487.5 272Z" fill="#DEEBE5"/>
<path d="M503.5 275C504.605 275 505.5 275.895 505.5 277C505.5 278.105 504.605 279 503.5 279C502.395 279 501.5 278.105 501.5 277C501.5 275.895 502.395 275 503.5 275Z" fill="#DEEBE5"/>
<path d="M516.5 275C517.605 275 518.5 275.895 518.5 277C518.5 278.105 517.605 279 516.5 279C515.395 279 514.5 278.105 514.5 277C514.5 275.895 515.395 275 516.5 275Z" fill="#DEEBE5"/>
<path d="M532.5 272C535.261 272 537.5 274.239 537.5 277C537.5 279.761 535.261 282 532.5 282C529.739 282 527.5 279.761 527.5 277C527.5 274.239 529.739 272 532.5 272Z" fill="#DEEBE5"/>
<path d="M555.5 268C560.471 268 564.5 272.029 564.5 277C564.5 281.971 560.471 286 555.5 286C550.529 286 546.5 281.971 546.5 277C546.5 272.029 550.529 268 555.5 268Z" fill="#DEEBE5"/>
<path d="M585.5 265C592.127 265 597.5 270.373 597.5 277C597.5 283.627 592.127 289 585.5 289C578.873 289 573.5 283.627 573.5 277C573.5 270.373 578.873 265 585.5 265Z" fill="#DEEBE5"/>
<path d="M615.5 268C620.471 268 624.5 272.029 624.5 277C624.5 281.971 620.471 286 615.5 286C610.529 286 606.5 281.971 606.5 277C606.5 272.029 610.529 268 615.5 268Z" fill="#DEEBE5"/>
<path d="M638.5 272C641.261 272 643.5 274.239 643.5 277C643.5 279.761 641.261 282 638.5 282C635.739 282 633.5 279.761 633.5 277C633.5 274.239 635.739 272 638.5 272Z" fill="#DEEBE5"/>
<path d="M654.5 275C655.605 275 656.5 275.895 656.5 277C656.5 278.105 655.605 279 654.5 279C653.395 279 652.5 278.105 652.5 277C652.5 275.895 653.395 275 654.5 275Z" fill="#DEEBE5"/>
<path d="M667.5 275C668.605 275 669.5 275.895 669.5 277C669.5 278.105 668.605 279 667.5 279C666.395 279 665.5 278.105 665.5 277C665.5 275.895 666.395 275 667.5 275Z" fill="#DEEBE5"/>
<path d="M683.5 272C686.261 272 688.5 274.239 688.5 277C688.5 279.761 686.261 282 683.5 282C680.739 282 678.5 279.761 678.5 277C678.5 274.239 680.739 272 683.5 272Z" fill="#DEEBE5"/>
<path d="M706.5 268C711.471 268 715.5 272.029 715.5 277C715.5 281.971 711.471 286 706.5 286C701.529 286 697.5 281.971 697.5 277C697.5 272.029 701.529 268 706.5 268Z" fill="#DEEBE5"/>
<path d="M736.5 265C743.127 265 748.5 270.373 748.5 277C748.5 283.627 743.127 289 736.5 289C729.873 289 724.5 283.627 724.5 277C724.5 270.373 729.873 265 736.5 265Z" fill="#DEEBE5"/>
<path d="M766.5 268C771.471 268 775.5 272.029 775.5 277C775.5 281.971 771.471 286 766.5 286C761.529 286 757.5 281.971 757.5 277C757.5 272.029 761.529 268 766.5 268Z" fill="#DEEBE5"/>
<path d="M789.5 272C792.261 272 794.5 274.239 794.5 277C794.5 279.761 792.261 282 789.5 282C786.739 282 784.5 279.761 784.5 277C784.5 274.239 786.739 272 789.5 272Z" fill="#DEEBE5"/>
<path d="M805.5 275C806.605 275 807.5 275.895 807.5 277C807.5 278.105 806.605 279 805.5 279C804.395 279 803.5 278.105 803.5 277C803.5 275.895 804.395 275 805.5 275Z" fill="#DEEBE5"/>
<path d="M139 232C140.105 232 141 232.895 141 234C141 235.105 140.105 236 139 236C137.895 236 137 235.105 137 234C137 232.895 137.895 232 139 232Z" fill="#DEEBE5"/>
<path d="M155 229C157.761 229 160 231.239 160 234C160 236.761 157.761 239 155 239C152.239 239 150 236.761 150 234C150 231.239 152.239 229 155 229Z" fill="#DEEBE5"/>
<path d="M178 225C182.971 225 187 229.029 187 234C187 238.971 182.971 243 178 243C173.029 243 169 238.971 169 234C169 229.029 173.029 225 178 225Z" fill="#DEEBE5"/>
<path d="M208 222C214.627 222 220 227.373 220 234C220 240.627 214.627 246 208 246C201.373 246 196 240.627 196 234C196 227.373 201.373 222 208 222Z" fill="#DEEBE5"/>
<path d="M238 225C242.971 225 247 229.029 247 234C247 238.971 242.971 243 238 243C233.029 243 229 238.971 229 234C229 229.029 233.029 225 238 225Z" fill="#DEEBE5"/>
<path d="M261 229C263.761 229 266 231.239 266 234C266 236.761 263.761 239 261 239C258.239 239 256 236.761 256 234C256 231.239 258.239 229 261 229Z" fill="#DEEBE5"/>
<path d="M277 232C278.105 232 279 232.895 279 234C279 235.105 278.105 236 277 236C275.895 236 275 235.105 275 234C275 232.895 275.895 232 277 232Z" fill="#DEEBE5"/>
<path d="M290 232C291.105 232 292 232.895 292 234C292 235.105 291.105 236 290 236C288.895 236 288 235.105 288 234C288 232.895 288.895 232 290 232Z" fill="#DEEBE5"/>
<path d="M306 229C308.761 229 311 231.239 311 234C311 236.761 308.761 239 306 239C303.239 239 301 236.761 301 234C301 231.239 303.239 229 306 229Z" fill="#DEEBE5"/>
<path d="M329 225C333.971 225 338 229.029 338 234C338 238.971 333.971 243 329 243C324.029 243 320 238.971 320 234C320 229.029 324.029 225 329 225Z" fill="#DEEBE5"/>
<path d="M359 222C365.627 222 371 227.373 371 234C371 240.627 365.627 246 359 246C352.373 246 347 240.627 347 234C347 227.373 352.373 222 359 222Z" fill="#DEEBE5"/>
<path d="M389 225C393.971 225 398 229.029 398 234C398 238.971 393.971 243 389 243C384.029 243 380 238.971 380 234C380 229.029 384.029 225 389 225Z" fill="#DEEBE5"/>
<path d="M412 229C414.761 229 417 231.239 417 234C417 236.761 414.761 239 412 239C409.239 239 407 236.761 407 234C407 231.239 409.239 229 412 229Z" fill="#DEEBE5"/>
<path d="M428 232C429.105 232 430 232.895 430 234C430 235.105 429.105 236 428 236C426.895 236 426 235.105 426 234C426 232.895 426.895 232 428 232Z" fill="#DEEBE5"/>
<path d="M441 232C442.105 232 443 232.895 443 234C443 235.105 442.105 236 441 236C439.895 236 439 235.105 439 234C439 232.895 439.895 232 441 232Z" fill="#DEEBE5"/>
<path d="M457 229C459.761 229 462 231.239 462 234C462 236.761 459.761 239 457 239C454.239 239 452 236.761 452 234C452 231.239 454.239 229 457 229Z" fill="#DEEBE5"/>
<path d="M480 225C484.971 225 489 229.029 489 234C489 238.971 484.971 243 480 243C475.029 243 471 238.971 471 234C471 229.029 475.029 225 480 225Z" fill="#DEEBE5"/>
<path d="M510 222C516.627 222 522 227.373 522 234C522 240.627 516.627 246 510 246C503.373 246 498 240.627 498 234C498 227.373 503.373 222 510 222Z" fill="#DEEBE5"/>
<path d="M540 225C544.971 225 549 229.029 549 234C549 238.971 544.971 243 540 243C535.029 243 531 238.971 531 234C531 229.029 535.029 225 540 225Z" fill="#DEEBE5"/>
<path d="M563 229C565.761 229 568 231.239 568 234C568 236.761 565.761 239 563 239C560.239 239 558 236.761 558 234C558 231.239 560.239 229 563 229Z" fill="#DEEBE5"/>
<path d="M579 232C580.105 232 581 232.895 581 234C581 235.105 580.105 236 579 236C577.895 236 577 235.105 577 234C577 232.895 577.895 232 579 232Z" fill="#DEEBE5"/>
<path d="M592 232C593.105 232 594 232.895 594 234C594 235.105 593.105 236 592 236C590.895 236 590 235.105 590 234C590 232.895 590.895 232 592 232Z" fill="#DEEBE5"/>
<path d="M608 229C610.761 229 613 231.239 613 234C613 236.761 610.761 239 608 239C605.239 239 603 236.761 603 234C603 231.239 605.239 229 608 229Z" fill="#DEEBE5"/>
<path d="M631 225C635.971 225 640 229.029 640 234C640 238.971 635.971 243 631 243C626.029 243 622 238.971 622 234C622 229.029 626.029 225 631 225Z" fill="#DEEBE5"/>
<path d="M661 222C667.627 222 673 227.373 673 234C673 240.627 667.627 246 661 246C654.373 246 649 240.627 649 234C649 227.373 654.373 222 661 222Z" fill="#DEEBE5"/>
<path d="M691 225C695.971 225 700 229.029 700 234C700 238.971 695.971 243 691 243C686.029 243 682 238.971 682 234C682 229.029 686.029 225 691 225Z" fill="#DEEBE5"/>
<path d="M714 229C716.761 229 719 231.239 719 234C719 236.761 716.761 239 714 239C711.239 239 709 236.761 709 234C709 231.239 711.239 229 714 229Z" fill="#DEEBE5"/>
<path d="M730 232C731.105 232 732 232.895 732 234C732 235.105 731.105 236 730 236C728.895 236 728 235.105 728 234C728 232.895 728.895 232 730 232Z" fill="#DEEBE5"/>
<path d="M743 232C744.105 232 745 232.895 745 234C745 235.105 744.105 236 743 236C741.895 236 741 235.105 741 234C741 232.895 741.895 232 743 232Z" fill="#DEEBE5"/>
<path d="M759 229C761.761 229 764 231.239 764 234C764 236.761 761.761 239 759 239C756.239 239 754 236.761 754 234C754 231.239 756.239 229 759 229Z" fill="#DEEBE5"/>
<path d="M782 225C786.971 225 791 229.029 791 234C791 238.971 786.971 243 782 243C777.029 243 773 238.971 773 234C773 229.029 777.029 225 782 225Z" fill="#DEEBE5"/>
<path d="M812 222C818.627 222 824 227.373 824 234C824 240.627 818.627 246 812 246C805.373 246 800 240.627 800 234C800 227.373 805.373 222 812 222Z" fill="#DEEBE5"/>
<path d="M842 225C846.971 225 851 229.029 851 234C851 238.971 846.971 243 842 243C837.029 243 833 238.971 833 234C833 229.029 837.029 225 842 225Z" fill="#DEEBE5"/>
<path d="M865 229C867.761 229 870 231.239 870 234C870 236.761 867.761 239 865 239C862.239 239 860 236.761 860 234C860 231.239 862.239 229 865 229Z" fill="#DEEBE5"/>
<path d="M881 232C882.105 232 883 232.895 883 234C883 235.105 882.105 236 881 236C879.895 236 879 235.105 879 234C879 232.895 879.895 232 881 232Z" fill="#DEEBE5"/>
</svg>
