<svg width="1662" height="858" viewBox="0 0 1662 858" fill="none" xmlns="http://www.w3.org/2000/svg">
<path d="M10.3875 634.32C24.237 634.38 24.237 655.45 10.3875 655.51C-3.4625 655.45 -3.4625 634.38 10.3875 634.32Z" fill="#007A4E"/>
<path d="M330.388 634.32C344.237 634.38 344.237 655.45 330.388 655.51C316.538 655.45 316.538 634.38 330.388 634.32Z" fill="#007A4E"/>
<path d="M10.3875 607.86C24.2168 607.921 24.2168 628.95 10.3875 629.01C-3.4425 628.95 -3.4425 607.92 10.3875 607.86Z" fill="#007A4E"/>
<path d="M330.388 607.86C344.217 607.92 344.217 628.95 330.388 629.01C316.558 628.95 316.558 607.92 330.388 607.86Z" fill="#007A4E"/>
<path d="M45.3875 592.32C59.237 592.38 59.237 613.45 45.3875 613.51C31.5375 613.45 31.5375 592.38 45.3875 592.32Z" fill="#007A4E"/>
<path d="M115.387 592.32C129.237 592.38 129.237 613.45 115.387 613.51C101.537 613.45 101.537 592.38 115.387 592.32Z" fill="#007A4E"/>
<path d="M290.388 592.32C304.237 592.38 304.237 613.45 290.388 613.51C276.538 613.45 276.538 592.38 290.388 592.32Z" fill="#007A4E"/>
<path d="M10.3875 581.8C23.5669 581.611 23.5669 602.319 10.3875 602.12C-2.7925 602.31 -2.7925 581.6 10.3875 581.8Z" fill="#007A4E"/>
<path d="M330.388 581.8C343.567 581.601 343.567 602.309 330.388 602.12C317.208 602.32 317.208 581.611 330.388 581.8Z" fill="#007A4E"/>
<path d="M45.3875 565.86C59.2168 565.921 59.2168 586.95 45.3875 587.01C31.5575 586.95 31.5575 565.92 45.3875 565.86Z" fill="#007A4E"/>
<path d="M115.387 565.86C129.217 565.921 129.217 586.95 115.387 587.01C101.557 586.95 101.557 565.92 115.387 565.86Z" fill="#007A4E"/>
<path d="M290.388 565.86C304.217 565.92 304.217 586.95 290.388 587.01C276.558 586.95 276.558 565.92 290.388 565.86Z" fill="#007A4E"/>
<path d="M10.3875 555.48C23.3569 555.291 23.3569 575.67 10.3875 575.48C-2.5825 575.67 -2.5825 555.29 10.3875 555.48Z" fill="#007A4E"/>
<path d="M330.388 555.48C343.357 555.29 343.357 575.67 330.388 575.48C317.418 575.67 317.418 555.29 330.388 555.48Z" fill="#007A4E"/>
<path d="M80.3875 550.32C94.237 550.38 94.237 571.45 80.3875 571.51C66.5375 571.45 66.5375 550.38 80.3875 550.32Z" fill="#007A4E"/>
<path d="M150.387 550.32C164.237 550.38 164.237 571.45 150.387 571.51C136.537 571.45 136.537 550.38 150.387 550.32Z" fill="#007A4E"/>
<path d="M255.387 550.32C269.237 550.38 269.237 571.45 255.387 571.51C241.538 571.45 241.538 550.38 255.387 550.32Z" fill="#007A4E"/>
<path d="M45.3875 539.8C58.5669 539.611 58.5669 560.319 45.3875 560.12C32.2075 560.31 32.2075 539.6 45.3875 539.8Z" fill="#007A4E"/>
<path d="M115.387 539.8C128.567 539.611 128.567 560.319 115.387 560.12C102.207 560.31 102.207 539.6 115.387 539.8Z" fill="#007A4E"/>
<path d="M290.388 539.8C303.567 539.601 303.567 560.309 290.388 560.12C277.208 560.32 277.208 539.611 290.388 539.8Z" fill="#007A4E"/>
<path d="M10.3875 529.55C22.6567 529.371 22.6567 548.65 10.3875 548.47C-1.8825 548.65 -1.8825 529.37 10.3875 529.55Z" fill="#007A4E"/>
<path d="M330.388 529.55C342.657 529.371 342.657 548.65 330.388 548.47C318.118 548.65 318.118 529.371 330.388 529.55Z" fill="#007A4E"/>
<path d="M80.3875 523.86C94.2168 523.921 94.2168 544.95 80.3875 545.01C66.5575 544.95 66.5575 523.92 80.3875 523.86Z" fill="#007A4E"/>
<path d="M150.387 523.86C164.217 523.921 164.217 544.95 150.387 545.01C136.557 544.95 136.557 523.92 150.387 523.86Z" fill="#007A4E"/>
<path d="M255.387 523.86C269.217 523.92 269.217 544.95 255.387 545.01C241.558 544.95 241.558 523.92 255.387 523.86Z" fill="#007A4E"/>
<path d="M45.3875 513.48C58.3569 513.291 58.3569 533.67 45.3875 533.48C32.4175 533.67 32.4175 513.29 45.3875 513.48Z" fill="#007A4E"/>
<path d="M115.387 513.48C128.357 513.291 128.357 533.67 115.387 533.48C102.417 533.67 102.417 513.29 115.387 513.48Z" fill="#007A4E"/>
<path d="M290.388 513.48C303.357 513.29 303.357 533.67 290.388 533.48C277.418 533.67 277.418 513.29 290.388 513.48Z" fill="#007A4E"/>
<path d="M185.387 508.32C199.237 508.38 199.237 529.45 185.387 529.51C171.537 529.45 171.537 508.38 185.387 508.32Z" fill="#007A4E"/>
<path d="M220.387 508.32C234.237 508.38 234.237 529.45 220.387 529.51C206.538 529.45 206.538 508.38 220.387 508.32Z" fill="#007A4E"/>
<path d="M10.3875 503.39C22.237 503.221 22.237 521.829 10.3875 521.66C-1.4625 521.83 -1.4625 503.22 10.3875 503.39Z" fill="#007A4E"/>
<path d="M330.388 503.39C342.237 503.221 342.237 521.83 330.388 521.66C318.538 521.83 318.538 503.22 330.388 503.39Z" fill="#007A4E"/>
<path d="M80.3875 497.8C93.5669 497.611 93.5669 518.319 80.3875 518.12C67.2075 518.31 67.2075 497.6 80.3875 497.8Z" fill="#007A4E"/>
<path d="M150.387 497.8C163.567 497.611 163.567 518.319 150.387 518.12C137.208 518.31 137.208 497.6 150.387 497.8Z" fill="#007A4E"/>
<path d="M255.387 497.8C268.567 497.601 268.567 518.309 255.387 518.12C242.208 518.32 242.208 497.611 255.387 497.8Z" fill="#007A4E"/>
<path d="M45.3875 487.55C57.6567 487.371 57.6567 506.65 45.3875 506.47C33.1175 506.65 33.1175 487.37 45.3875 487.55Z" fill="#007A4E"/>
<path d="M115.387 487.55C127.657 487.371 127.657 506.65 115.387 506.47C103.117 506.65 103.117 487.37 115.387 487.55Z" fill="#007A4E"/>
<path d="M290.388 487.55C302.657 487.371 302.657 506.65 290.388 506.47C278.118 506.65 278.118 487.371 290.388 487.55Z" fill="#007A4E"/>
<path d="M185.387 481.86C199.217 481.921 199.217 502.95 185.387 503.01C171.557 502.95 171.557 481.92 185.387 481.86Z" fill="#007A4E"/>
<path d="M220.387 481.86C234.217 481.92 234.217 502.95 220.387 503.01C206.558 502.95 206.558 481.92 220.387 481.86Z" fill="#007A4E"/>
<path d="M10.3973 477.461C21.5469 477.301 21.5469 494.81 10.3973 494.65C-0.752733 494.81 -0.752733 477.301 10.3973 477.461Z" fill="#007A4E"/>
<path d="M330.378 477.461C341.527 477.301 341.527 494.81 330.378 494.65C319.228 494.81 319.228 477.301 330.378 477.461Z" fill="#007A4E"/>
<path d="M80.3875 471.48C93.3569 471.291 93.3569 491.67 80.3875 491.48C67.4175 491.67 67.4175 471.29 80.3875 471.48Z" fill="#007A4E"/>
<path d="M150.387 471.48C163.357 471.291 163.357 491.67 150.387 491.48C137.417 491.67 137.417 471.29 150.387 471.48Z" fill="#007A4E"/>
<path d="M255.387 471.48C268.357 471.29 268.357 491.67 255.387 491.48C242.418 491.67 242.418 471.29 255.387 471.48Z" fill="#007A4E"/>
<path d="M45.3875 461.39C57.237 461.221 57.237 479.829 45.3875 479.66C33.5375 479.83 33.5375 461.22 45.3875 461.39Z" fill="#007A4E"/>
<path d="M115.387 461.39C127.237 461.221 127.237 479.829 115.387 479.66C103.537 479.83 103.537 461.22 115.387 461.39Z" fill="#007A4E"/>
<path d="M290.388 461.39C302.237 461.221 302.237 479.829 290.388 479.66C278.538 479.83 278.538 461.22 290.388 461.39Z" fill="#007A4E"/>
<path d="M185.387 455.8C198.567 455.611 198.567 476.319 185.387 476.12C172.208 476.31 172.208 455.6 185.387 455.8Z" fill="#007A4E"/>
<path d="M220.387 455.8C233.567 455.601 233.567 476.309 220.387 476.12C207.208 476.32 207.208 455.611 220.387 455.8Z" fill="#007A4E"/>
<path d="M10.3875 451.84C20.4368 451.691 20.4368 467.48 10.3875 467.331C0.3375 467.481 0.3375 451.69 10.3875 451.84Z" fill="#007A4E"/>
<path d="M330.388 451.84C340.437 451.691 340.437 467.48 330.388 467.331C320.338 467.48 320.338 451.691 330.388 451.84Z" fill="#007A4E"/>
<path d="M80.3875 445.55C92.6567 445.371 92.6567 464.65 80.3875 464.47C68.1175 464.65 68.1175 445.37 80.3875 445.55Z" fill="#007A4E"/>
<path d="M150.387 445.55C162.657 445.371 162.657 464.65 150.387 464.47C138.117 464.65 138.117 445.37 150.387 445.55Z" fill="#007A4E"/>
<path d="M255.387 445.55C267.657 445.371 267.657 464.65 255.387 464.47C243.118 464.65 243.118 445.371 255.387 445.55Z" fill="#007A4E"/>
<path d="M45.3973 435.461C56.547 435.301 56.5469 452.81 45.3973 452.65C34.2473 452.81 34.2473 435.301 45.3973 435.461Z" fill="#007A4E"/>
<path d="M115.397 435.461C126.547 435.301 126.547 452.81 115.397 452.65C104.247 452.81 104.247 435.301 115.397 435.461Z" fill="#007A4E"/>
<path d="M290.378 435.461C301.527 435.301 301.527 452.81 290.378 452.65C279.228 452.81 279.228 435.301 290.378 435.461Z" fill="#007A4E"/>
<path d="M185.387 429.48C198.357 429.291 198.357 449.67 185.387 449.48C172.417 449.67 172.417 429.29 185.387 429.48Z" fill="#007A4E"/>
<path d="M220.387 429.48C233.357 429.29 233.357 449.67 220.387 449.48C207.418 449.67 207.418 429.29 220.387 429.48Z" fill="#007A4E"/>
<path d="M10.3875 427.48C17.6769 427.371 17.6769 438.83 10.3875 438.72C3.0975 438.83 3.0975 427.37 10.3875 427.48Z" fill="#007A4E"/>
<path d="M330.388 427.48C337.677 427.37 337.677 438.83 330.388 438.72C323.098 438.83 323.098 427.37 330.388 427.48Z" fill="#007A4E"/>
<path d="M80.3875 419.39C92.237 419.221 92.237 437.829 80.3875 437.66C68.5375 437.83 68.5375 419.22 80.3875 419.39Z" fill="#007A4E"/>
<path d="M150.387 419.39C162.237 419.221 162.237 437.829 150.387 437.66C138.537 437.83 138.537 419.22 150.387 419.39Z" fill="#007A4E"/>
<path d="M255.387 419.39C267.237 419.221 267.237 437.829 255.387 437.66C243.538 437.83 243.538 419.22 255.387 419.39Z" fill="#007A4E"/>
<path d="M45.3875 409.84C55.4368 409.691 55.4368 425.48 45.3875 425.331C35.3375 425.481 35.3375 409.69 45.3875 409.84Z" fill="#007A4E"/>
<path d="M115.387 409.84C125.437 409.691 125.437 425.48 115.387 425.331C105.337 425.481 105.337 409.69 115.387 409.84Z" fill="#007A4E"/>
<path d="M290.388 409.84C300.437 409.691 300.437 425.48 290.388 425.331C280.338 425.48 280.338 409.691 290.388 409.84Z" fill="#007A4E"/>
<path d="M185.387 403.55C197.657 403.371 197.657 422.65 185.387 422.47C173.117 422.65 173.117 403.37 185.387 403.55Z" fill="#007A4E"/>
<path d="M220.387 403.55C232.657 403.371 232.657 422.65 220.387 422.47C208.118 422.65 208.118 403.371 220.387 403.55Z" fill="#007A4E"/>
<path d="M10.3973 402.251C16.077 402.171 16.077 411.09 10.3973 411.001C4.71727 411.081 4.71727 402.161 10.3973 402.251Z" fill="#007A4E"/>
<path d="M330.378 402.251C336.057 402.161 336.057 411.08 330.378 411.001C324.698 411.091 324.698 402.171 330.378 402.251Z" fill="#007A4E"/>
<path d="M80.3973 393.461C91.5469 393.301 91.5469 410.81 80.3973 410.65C69.2473 410.81 69.2473 393.301 80.3973 393.461Z" fill="#007A4E"/>
<path d="M150.397 393.461C161.547 393.301 161.547 410.81 150.397 410.65C139.247 410.81 139.247 393.301 150.397 393.461Z" fill="#007A4E"/>
<path d="M255.378 393.461C266.527 393.301 266.527 410.81 255.378 410.65C244.228 410.81 244.228 393.301 255.378 393.461Z" fill="#007A4E"/>
<path d="M45.3875 385.48C52.6769 385.371 52.6769 396.83 45.3875 396.72C38.0975 396.83 38.0975 385.37 45.3875 385.48Z" fill="#007A4E"/>
<path d="M115.387 385.48C122.677 385.371 122.677 396.83 115.387 396.72C108.097 396.83 108.097 385.37 115.387 385.48Z" fill="#007A4E"/>
<path d="M290.388 385.48C297.677 385.37 297.677 396.83 290.388 396.72C283.098 396.83 283.098 385.37 290.388 385.48Z" fill="#007A4E"/>
<path d="M185.387 377.39C197.237 377.221 197.237 395.829 185.387 395.66C173.537 395.83 173.537 377.22 185.387 377.39Z" fill="#007A4E"/>
<path d="M220.387 377.39C232.237 377.221 232.237 395.829 220.387 395.66C208.538 395.83 208.538 377.22 220.387 377.39Z" fill="#007A4E"/>
<path d="M80.3875 367.84C90.4368 367.691 90.4368 383.48 80.3875 383.331C70.3375 383.481 70.3375 367.69 80.3875 367.84Z" fill="#007A4E"/>
<path d="M150.387 367.84C160.437 367.691 160.437 383.48 150.387 383.331C140.337 383.481 140.337 367.69 150.387 367.84Z" fill="#007A4E"/>
<path d="M255.387 367.84C265.437 367.691 265.437 383.48 255.387 383.331C245.338 383.48 245.338 367.691 255.387 367.84Z" fill="#007A4E"/>
<path d="M10.3875 377.001C14.4768 376.941 14.4767 383.36 10.3875 383.3C6.2975 383.36 6.2975 376.941 10.3875 377.001Z" fill="#007A4E"/>
<path d="M330.388 377.001C334.477 376.941 334.477 383.36 330.388 383.3C326.298 383.36 326.298 376.941 330.388 377.001Z" fill="#007A4E"/>
<path d="M45.3973 360.251C51.077 360.171 51.077 369.09 45.3973 369.001C39.7173 369.081 39.7173 360.161 45.3973 360.251Z" fill="#007A4E"/>
<path d="M115.397 360.251C121.077 360.171 121.077 369.09 115.397 369.001C109.717 369.081 109.717 360.161 115.397 360.251Z" fill="#007A4E"/>
<path d="M290.378 360.251C296.057 360.161 296.057 369.08 290.378 369.001C284.698 369.091 284.698 360.171 290.378 360.251Z" fill="#007A4E"/>
<path d="M185.397 351.461C196.547 351.301 196.547 368.81 185.397 368.65C174.247 368.81 174.247 351.301 185.397 351.461Z" fill="#007A4E"/>
<path d="M220.378 351.461C231.527 351.301 231.527 368.81 220.378 368.65C209.228 368.81 209.228 351.301 220.378 351.461Z" fill="#007A4E"/>
<path d="M80.3875 343.48C87.6769 343.371 87.6769 354.83 80.3875 354.72C73.0975 354.83 73.0975 343.37 80.3875 343.48Z" fill="#007A4E"/>
<path d="M150.387 343.48C157.677 343.371 157.677 354.83 150.387 354.72C143.098 354.83 143.098 343.37 150.387 343.48Z" fill="#007A4E"/>
<path d="M255.387 343.48C262.677 343.37 262.677 354.83 255.387 354.72C248.098 354.83 248.098 343.37 255.387 343.48Z" fill="#007A4E"/>
<path d="M185.387 325.84C195.437 325.691 195.437 341.48 185.387 341.331C175.337 341.481 175.337 325.69 185.387 325.84Z" fill="#007A4E"/>
<path d="M220.387 325.84C230.437 325.691 230.437 341.48 220.387 341.331C210.338 341.48 210.338 325.691 220.387 325.84Z" fill="#007A4E"/>
<path d="M45.3875 335.001C49.4768 334.941 49.4767 341.36 45.3875 341.3C41.2975 341.36 41.2975 334.941 45.3875 335.001Z" fill="#007A4E"/>
<path d="M115.387 335.001C119.477 334.941 119.477 341.36 115.387 341.3C111.298 341.36 111.298 334.941 115.387 335.001Z" fill="#007A4E"/>
<path d="M290.388 335.001C294.477 334.941 294.477 341.36 290.388 341.3C286.298 341.36 286.298 334.941 290.388 335.001Z" fill="#007A4E"/>
<path d="M80.3973 318.251C86.077 318.171 86.077 327.09 80.3973 327.001C74.7173 327.081 74.7173 318.161 80.3973 318.251Z" fill="#007A4E"/>
<path d="M150.397 318.251C156.077 318.171 156.077 327.09 150.397 327.001C144.717 327.081 144.717 318.161 150.397 318.251Z" fill="#007A4E"/>
<path d="M255.378 318.251C261.057 318.161 261.057 327.08 255.378 327.001C249.698 327.091 249.698 318.171 255.378 318.251Z" fill="#007A4E"/>
<path d="M185.387 301.48C192.677 301.371 192.677 312.83 185.387 312.72C178.098 312.83 178.098 301.37 185.387 301.48Z" fill="#007A4E"/>
<path d="M220.387 301.48C227.677 301.37 227.677 312.83 220.387 312.72C213.098 312.83 213.098 301.37 220.387 301.48Z" fill="#007A4E"/>
<path d="M80.3875 293.001C84.4768 292.941 84.4767 299.36 80.3875 299.3C76.2975 299.36 76.2975 292.941 80.3875 293.001Z" fill="#007A4E"/>
<path d="M150.387 293.001C154.477 292.941 154.477 299.36 150.387 299.3C146.298 299.36 146.298 292.941 150.387 293.001Z" fill="#007A4E"/>
<path d="M255.387 293.001C259.477 292.941 259.477 299.36 255.387 299.3C251.298 299.36 251.298 292.941 255.387 293.001Z" fill="#007A4E"/>
<path d="M185.397 276.251C191.077 276.171 191.077 285.09 185.397 285.001C179.717 285.081 179.717 276.161 185.397 276.251Z" fill="#007A4E"/>
<path d="M220.378 276.251C226.057 276.161 226.057 285.08 220.378 285.001C214.698 285.091 214.698 276.171 220.378 276.251Z" fill="#007A4E"/>
<path d="M185.387 251.001C189.477 250.941 189.477 257.36 185.387 257.3C181.298 257.36 181.298 250.941 185.387 251.001Z" fill="#007A4E"/>
<path d="M220.387 251.001C224.477 250.941 224.477 257.36 220.387 257.3C216.298 257.36 216.298 250.941 220.387 251.001Z" fill="#007A4E"/>
<path d="M889.388 836.32C903.237 836.38 903.237 857.45 889.388 857.51C875.538 857.45 875.538 836.38 889.388 836.32Z" fill="#007A4E"/>
<path d="M1209.39 836.32C1223.24 836.38 1223.24 857.45 1209.39 857.51C1195.54 857.45 1195.54 836.38 1209.39 836.32Z" fill="#007A4E"/>
<path d="M889.388 809.86C903.217 809.921 903.217 830.95 889.388 831.01C875.557 830.95 875.557 809.92 889.388 809.86Z" fill="#007A4E"/>
<path d="M1209.39 809.86C1223.22 809.92 1223.22 830.95 1209.39 831.01C1195.56 830.95 1195.56 809.92 1209.39 809.86Z" fill="#007A4E"/>
<path d="M924.388 794.32C938.237 794.38 938.237 815.45 924.388 815.51C910.538 815.45 910.538 794.38 924.388 794.32Z" fill="#007A4E"/>
<path d="M994.388 794.32C1008.24 794.38 1008.24 815.45 994.388 815.51C980.538 815.45 980.538 794.38 994.388 794.32Z" fill="#007A4E"/>
<path d="M1169.39 794.32C1183.24 794.38 1183.24 815.45 1169.39 815.51C1155.54 815.45 1155.54 794.38 1169.39 794.32Z" fill="#007A4E"/>
<path d="M889.388 783.8C902.567 783.611 902.567 804.319 889.388 804.12C876.208 804.31 876.208 783.6 889.388 783.8Z" fill="#007A4E"/>
<path d="M1209.39 783.8C1222.57 783.601 1222.57 804.309 1209.39 804.12C1196.21 804.32 1196.21 783.611 1209.39 783.8Z" fill="#007A4E"/>
<path d="M924.388 767.86C938.217 767.921 938.217 788.95 924.388 789.01C910.557 788.95 910.557 767.92 924.388 767.86Z" fill="#007A4E"/>
<path d="M994.388 767.86C1008.22 767.921 1008.22 788.95 994.388 789.01C980.557 788.95 980.557 767.92 994.388 767.86Z" fill="#007A4E"/>
<path d="M1169.39 767.86C1183.22 767.92 1183.22 788.95 1169.39 789.01C1155.56 788.95 1155.56 767.92 1169.39 767.86Z" fill="#007A4E"/>
<path d="M889.388 757.48C902.357 757.291 902.357 777.67 889.388 777.48C876.417 777.67 876.417 757.29 889.388 757.48Z" fill="#007A4E"/>
<path d="M1209.39 757.48C1222.36 757.29 1222.36 777.67 1209.39 777.48C1196.42 777.67 1196.42 757.29 1209.39 757.48Z" fill="#007A4E"/>
<path d="M959.388 752.32C973.237 752.38 973.237 773.45 959.388 773.51C945.538 773.45 945.538 752.38 959.388 752.32Z" fill="#007A4E"/>
<path d="M1029.39 752.32C1043.24 752.38 1043.24 773.45 1029.39 773.51C1015.54 773.45 1015.54 752.38 1029.39 752.32Z" fill="#007A4E"/>
<path d="M1134.39 752.32C1148.24 752.38 1148.24 773.45 1134.39 773.51C1120.54 773.45 1120.54 752.38 1134.39 752.32Z" fill="#007A4E"/>
<path d="M924.388 741.8C937.567 741.611 937.567 762.319 924.388 762.12C911.208 762.31 911.208 741.6 924.388 741.8Z" fill="#007A4E"/>
<path d="M994.388 741.8C1007.57 741.611 1007.57 762.319 994.388 762.12C981.208 762.31 981.208 741.6 994.388 741.8Z" fill="#007A4E"/>
<path d="M1169.39 741.8C1182.57 741.601 1182.57 762.309 1169.39 762.12C1156.21 762.32 1156.21 741.611 1169.39 741.8Z" fill="#007A4E"/>
<path d="M889.388 731.55C901.657 731.371 901.657 750.65 889.388 750.47C877.117 750.65 877.117 731.37 889.388 731.55Z" fill="#007A4E"/>
<path d="M1209.39 731.55C1221.66 731.371 1221.66 750.65 1209.39 750.47C1197.12 750.65 1197.12 731.371 1209.39 731.55Z" fill="#007A4E"/>
<path d="M959.388 725.86C973.217 725.921 973.217 746.95 959.388 747.01C945.557 746.95 945.557 725.92 959.388 725.86Z" fill="#007A4E"/>
<path d="M1029.39 725.86C1043.22 725.921 1043.22 746.95 1029.39 747.01C1015.56 746.95 1015.56 725.92 1029.39 725.86Z" fill="#007A4E"/>
<path d="M1134.39 725.86C1148.22 725.92 1148.22 746.95 1134.39 747.01C1120.56 746.95 1120.56 725.92 1134.39 725.86Z" fill="#007A4E"/>
<path d="M924.388 715.48C937.357 715.291 937.357 735.67 924.388 735.48C911.417 735.67 911.417 715.29 924.388 715.48Z" fill="#007A4E"/>
<path d="M994.388 715.48C1007.36 715.291 1007.36 735.67 994.388 735.48C981.417 735.67 981.417 715.29 994.388 715.48Z" fill="#007A4E"/>
<path d="M1169.39 715.48C1182.36 715.29 1182.36 735.67 1169.39 735.48C1156.42 735.67 1156.42 715.29 1169.39 715.48Z" fill="#007A4E"/>
<path d="M1064.39 710.32C1078.24 710.38 1078.24 731.45 1064.39 731.51C1050.54 731.45 1050.54 710.38 1064.39 710.32Z" fill="#007A4E"/>
<path d="M1099.39 710.32C1113.24 710.38 1113.24 731.45 1099.39 731.51C1085.54 731.45 1085.54 710.38 1099.39 710.32Z" fill="#007A4E"/>
<path d="M889.388 705.39C901.237 705.221 901.237 723.829 889.388 723.66C877.538 723.83 877.538 705.22 889.388 705.39Z" fill="#007A4E"/>
<path d="M1209.39 705.39C1221.24 705.221 1221.24 723.83 1209.39 723.66C1197.54 723.83 1197.54 705.22 1209.39 705.39Z" fill="#007A4E"/>
<path d="M959.388 699.8C972.567 699.611 972.567 720.319 959.388 720.12C946.208 720.31 946.208 699.6 959.388 699.8Z" fill="#007A4E"/>
<path d="M1029.39 699.8C1042.57 699.611 1042.57 720.319 1029.39 720.12C1016.21 720.31 1016.21 699.6 1029.39 699.8Z" fill="#007A4E"/>
<path d="M1134.39 699.8C1147.57 699.601 1147.57 720.309 1134.39 720.12C1121.21 720.32 1121.21 699.611 1134.39 699.8Z" fill="#007A4E"/>
<path d="M924.388 689.55C936.657 689.371 936.657 708.65 924.388 708.47C912.117 708.65 912.117 689.37 924.388 689.55Z" fill="#007A4E"/>
<path d="M994.388 689.55C1006.66 689.371 1006.66 708.65 994.388 708.47C982.117 708.65 982.117 689.37 994.388 689.55Z" fill="#007A4E"/>
<path d="M1169.39 689.55C1181.66 689.371 1181.66 708.65 1169.39 708.47C1157.12 708.65 1157.12 689.371 1169.39 689.55Z" fill="#007A4E"/>
<path d="M1064.39 683.86C1078.22 683.92 1078.22 704.95 1064.39 705.01C1050.56 704.95 1050.56 683.92 1064.39 683.86Z" fill="#007A4E"/>
<path d="M1099.39 683.86C1113.22 683.92 1113.22 704.95 1099.39 705.01C1085.56 704.95 1085.56 683.92 1099.39 683.86Z" fill="#007A4E"/>
<path d="M889.397 679.461C900.547 679.301 900.547 696.81 889.397 696.65C878.247 696.81 878.247 679.301 889.397 679.461Z" fill="#007A4E"/>
<path d="M1209.38 679.461C1220.53 679.301 1220.53 696.81 1209.38 696.65C1198.23 696.81 1198.23 679.301 1209.38 679.461Z" fill="#007A4E"/>
<path d="M959.388 673.48C972.357 673.291 972.357 693.67 959.388 693.48C946.417 693.67 946.417 673.29 959.388 673.48Z" fill="#007A4E"/>
<path d="M1029.39 673.48C1042.36 673.291 1042.36 693.67 1029.39 693.48C1016.42 693.67 1016.42 673.29 1029.39 673.48Z" fill="#007A4E"/>
<path d="M1134.39 673.48C1147.36 673.29 1147.36 693.67 1134.39 693.48C1121.42 693.67 1121.42 673.29 1134.39 673.48Z" fill="#007A4E"/>
<path d="M924.388 663.39C936.237 663.221 936.237 681.829 924.388 681.66C912.538 681.83 912.538 663.22 924.388 663.39Z" fill="#007A4E"/>
<path d="M994.388 663.39C1006.24 663.221 1006.24 681.829 994.388 681.66C982.538 681.83 982.538 663.22 994.388 663.39Z" fill="#007A4E"/>
<path d="M1169.39 663.39C1181.24 663.221 1181.24 681.829 1169.39 681.66C1157.54 681.83 1157.54 663.22 1169.39 663.39Z" fill="#007A4E"/>
<path d="M1064.39 657.8C1077.57 657.611 1077.57 678.319 1064.39 678.12C1051.21 678.31 1051.21 657.6 1064.39 657.8Z" fill="#007A4E"/>
<path d="M1099.39 657.8C1112.57 657.601 1112.57 678.309 1099.39 678.12C1086.21 678.319 1086.21 657.611 1099.39 657.8Z" fill="#007A4E"/>
<path d="M889.388 653.84C899.437 653.691 899.437 669.48 889.388 669.331C879.338 669.481 879.338 653.69 889.388 653.84Z" fill="#007A4E"/>
<path d="M1209.39 653.84C1219.44 653.691 1219.44 669.48 1209.39 669.331C1199.34 669.48 1199.34 653.691 1209.39 653.84Z" fill="#007A4E"/>
<path d="M959.388 647.55C971.657 647.371 971.657 666.65 959.388 666.47C947.117 666.65 947.117 647.37 959.388 647.55Z" fill="#007A4E"/>
<path d="M1029.39 647.55C1041.66 647.371 1041.66 666.65 1029.39 666.47C1017.12 666.65 1017.12 647.37 1029.39 647.55Z" fill="#007A4E"/>
<path d="M1134.39 647.55C1146.66 647.371 1146.66 666.65 1134.39 666.47C1122.12 666.65 1122.12 647.371 1134.39 647.55Z" fill="#007A4E"/>
<path d="M924.397 637.461C935.547 637.301 935.547 654.81 924.397 654.65C913.247 654.81 913.247 637.301 924.397 637.461Z" fill="#007A4E"/>
<path d="M994.397 637.461C1005.55 637.301 1005.55 654.81 994.397 654.65C983.247 654.81 983.247 637.301 994.397 637.461Z" fill="#007A4E"/>
<path d="M1169.38 637.461C1180.53 637.301 1180.53 654.81 1169.38 654.65C1158.23 654.81 1158.23 637.301 1169.38 637.461Z" fill="#007A4E"/>
<path d="M1064.39 631.48C1077.36 631.291 1077.36 651.67 1064.39 651.48C1051.42 651.67 1051.42 631.29 1064.39 631.48Z" fill="#007A4E"/>
<path d="M1099.39 631.48C1112.36 631.29 1112.36 651.67 1099.39 651.48C1086.42 651.67 1086.42 631.29 1099.39 631.48Z" fill="#007A4E"/>
<path d="M889.388 629.48C896.677 629.371 896.677 640.83 889.388 640.72C882.098 640.83 882.098 629.37 889.388 629.48Z" fill="#007A4E"/>
<path d="M1209.39 629.48C1216.68 629.37 1216.68 640.83 1209.39 640.72C1202.1 640.83 1202.1 629.37 1209.39 629.48Z" fill="#007A4E"/>
<path d="M959.388 621.39C971.237 621.221 971.237 639.829 959.388 639.66C947.538 639.83 947.538 621.22 959.388 621.39Z" fill="#007A4E"/>
<path d="M1029.39 621.39C1041.24 621.221 1041.24 639.829 1029.39 639.66C1017.54 639.83 1017.54 621.22 1029.39 621.39Z" fill="#007A4E"/>
<path d="M1134.39 621.39C1146.24 621.221 1146.24 639.829 1134.39 639.66C1122.54 639.83 1122.54 621.22 1134.39 621.39Z" fill="#007A4E"/>
<path d="M924.388 611.84C934.437 611.691 934.437 627.48 924.388 627.331C914.338 627.481 914.338 611.69 924.388 611.84Z" fill="#007A4E"/>
<path d="M994.388 611.84C1004.44 611.691 1004.44 627.48 994.388 627.331C984.338 627.481 984.338 611.69 994.388 611.84Z" fill="#007A4E"/>
<path d="M1169.39 611.84C1179.44 611.691 1179.44 627.48 1169.39 627.331C1159.34 627.48 1159.34 611.691 1169.39 611.84Z" fill="#007A4E"/>
<path d="M1064.39 605.55C1076.66 605.371 1076.66 624.65 1064.39 624.47C1052.12 624.65 1052.12 605.37 1064.39 605.55Z" fill="#007A4E"/>
<path d="M1099.39 605.55C1111.66 605.371 1111.66 624.65 1099.39 624.47C1087.12 624.65 1087.12 605.371 1099.39 605.55Z" fill="#007A4E"/>
<path d="M889.397 604.251C895.077 604.171 895.077 613.09 889.397 613.001C883.717 613.081 883.717 604.161 889.397 604.251Z" fill="#007A4E"/>
<path d="M1209.38 604.251C1215.06 604.161 1215.06 613.08 1209.38 613.001C1203.7 613.091 1203.7 604.171 1209.38 604.251Z" fill="#007A4E"/>
<path d="M959.397 595.461C970.547 595.301 970.547 612.81 959.397 612.65C948.247 612.81 948.247 595.301 959.397 595.461Z" fill="#007A4E"/>
<path d="M1029.4 595.461C1040.55 595.301 1040.55 612.81 1029.4 612.65C1018.25 612.81 1018.25 595.301 1029.4 595.461Z" fill="#007A4E"/>
<path d="M1134.38 595.461C1145.53 595.301 1145.53 612.81 1134.38 612.65C1123.23 612.81 1123.23 595.301 1134.38 595.461Z" fill="#007A4E"/>
<path d="M924.388 587.48C931.677 587.371 931.677 598.83 924.388 598.72C917.098 598.83 917.098 587.37 924.388 587.48Z" fill="#007A4E"/>
<path d="M994.388 587.48C1001.68 587.371 1001.68 598.83 994.388 598.72C987.098 598.83 987.098 587.37 994.388 587.48Z" fill="#007A4E"/>
<path d="M1169.39 587.48C1176.68 587.37 1176.68 598.83 1169.39 598.72C1162.1 598.83 1162.1 587.37 1169.39 587.48Z" fill="#007A4E"/>
<path d="M1064.39 579.39C1076.24 579.221 1076.24 597.829 1064.39 597.66C1052.54 597.83 1052.54 579.22 1064.39 579.39Z" fill="#007A4E"/>
<path d="M1099.39 579.39C1111.24 579.221 1111.24 597.829 1099.39 597.66C1087.54 597.83 1087.54 579.22 1099.39 579.39Z" fill="#007A4E"/>
<path d="M959.388 569.84C969.437 569.691 969.437 585.48 959.388 585.331C949.338 585.481 949.338 569.69 959.388 569.84Z" fill="#007A4E"/>
<path d="M1029.39 569.84C1039.44 569.691 1039.44 585.48 1029.39 585.331C1019.34 585.481 1019.34 569.69 1029.39 569.84Z" fill="#007A4E"/>
<path d="M1134.39 569.84C1144.44 569.691 1144.44 585.48 1134.39 585.331C1124.34 585.48 1124.34 569.691 1134.39 569.84Z" fill="#007A4E"/>
<path d="M889.388 579.001C893.477 578.941 893.477 585.36 889.388 585.3C885.297 585.36 885.297 578.941 889.388 579.001Z" fill="#007A4E"/>
<path d="M1209.39 579.001C1213.48 578.941 1213.48 585.36 1209.39 585.3C1205.3 585.36 1205.3 578.941 1209.39 579.001Z" fill="#007A4E"/>
<path d="M924.397 562.251C930.077 562.171 930.077 571.09 924.397 571.001C918.717 571.081 918.717 562.161 924.397 562.251Z" fill="#007A4E"/>
<path d="M994.397 562.251C1000.08 562.171 1000.08 571.09 994.397 571.001C988.717 571.081 988.717 562.161 994.397 562.251Z" fill="#007A4E"/>
<path d="M1169.38 562.251C1175.06 562.161 1175.06 571.08 1169.38 571.001C1163.7 571.091 1163.7 562.171 1169.38 562.251Z" fill="#007A4E"/>
<path d="M1064.4 553.461C1075.55 553.301 1075.55 570.81 1064.4 570.65C1053.25 570.81 1053.25 553.301 1064.4 553.461Z" fill="#007A4E"/>
<path d="M1099.38 553.461C1110.53 553.301 1110.53 570.81 1099.38 570.65C1088.23 570.81 1088.23 553.301 1099.38 553.461Z" fill="#007A4E"/>
<path d="M959.388 545.48C966.677 545.371 966.677 556.83 959.388 556.72C952.098 556.83 952.098 545.37 959.388 545.48Z" fill="#007A4E"/>
<path d="M1029.39 545.48C1036.68 545.371 1036.68 556.83 1029.39 556.72C1022.1 556.83 1022.1 545.37 1029.39 545.48Z" fill="#007A4E"/>
<path d="M1134.39 545.48C1141.68 545.37 1141.68 556.83 1134.39 556.72C1127.1 556.83 1127.1 545.37 1134.39 545.48Z" fill="#007A4E"/>
<path d="M1064.39 527.84C1074.44 527.691 1074.44 543.48 1064.39 543.331C1054.34 543.481 1054.34 527.69 1064.39 527.84Z" fill="#007A4E"/>
<path d="M1099.39 527.84C1109.44 527.691 1109.44 543.48 1099.39 543.331C1089.34 543.48 1089.34 527.691 1099.39 527.84Z" fill="#007A4E"/>
<path d="M924.388 537.001C928.477 536.941 928.477 543.36 924.388 543.3C920.297 543.36 920.297 536.941 924.388 537.001Z" fill="#007A4E"/>
<path d="M994.388 537.001C998.477 536.941 998.477 543.36 994.388 543.3C990.297 543.36 990.297 536.941 994.388 537.001Z" fill="#007A4E"/>
<path d="M1169.39 537.001C1173.48 536.941 1173.48 543.36 1169.39 543.3C1165.3 543.36 1165.3 536.941 1169.39 537.001Z" fill="#007A4E"/>
<path d="M959.397 520.251C965.077 520.171 965.077 529.09 959.397 529.001C953.717 529.081 953.717 520.161 959.397 520.251Z" fill="#007A4E"/>
<path d="M1029.4 520.251C1035.08 520.171 1035.08 529.09 1029.4 529.001C1023.72 529.081 1023.72 520.161 1029.4 520.251Z" fill="#007A4E"/>
<path d="M1134.38 520.251C1140.06 520.161 1140.06 529.08 1134.38 529.001C1128.7 529.091 1128.7 520.171 1134.38 520.251Z" fill="#007A4E"/>
<path d="M1064.39 503.48C1071.68 503.371 1071.68 514.83 1064.39 514.72C1057.1 514.83 1057.1 503.37 1064.39 503.48Z" fill="#007A4E"/>
<path d="M1099.39 503.48C1106.68 503.37 1106.68 514.83 1099.39 514.72C1092.1 514.83 1092.1 503.37 1099.39 503.48Z" fill="#007A4E"/>
<path d="M959.388 495.001C963.477 494.941 963.477 501.36 959.388 501.3C955.297 501.36 955.297 494.941 959.388 495.001Z" fill="#007A4E"/>
<path d="M1029.39 495.001C1033.48 494.941 1033.48 501.36 1029.39 501.3C1025.3 501.36 1025.3 494.941 1029.39 495.001Z" fill="#007A4E"/>
<path d="M1134.39 495.001C1138.48 494.941 1138.48 501.36 1134.39 501.3C1130.3 501.36 1130.3 494.941 1134.39 495.001Z" fill="#007A4E"/>
<path d="M1064.4 478.251C1070.08 478.171 1070.08 487.09 1064.4 487.001C1058.72 487.081 1058.72 478.161 1064.4 478.251Z" fill="#007A4E"/>
<path d="M1099.38 478.251C1105.06 478.161 1105.06 487.08 1099.38 487.001C1093.7 487.091 1093.7 478.171 1099.38 478.251Z" fill="#007A4E"/>
<path d="M1064.39 453.001C1068.48 452.941 1068.48 459.36 1064.39 459.3C1060.3 459.36 1060.3 452.941 1064.39 453.001Z" fill="#007A4E"/>
<path d="M1099.39 453.001C1103.48 452.941 1103.48 459.36 1099.39 459.3C1095.3 459.36 1095.3 452.941 1099.39 453.001Z" fill="#007A4E"/>
<path d="M1331.39 21.1904C1345.24 21.13 1345.24 0.0603943 1331.39 0C1317.54 0.0599976 1317.54 21.1304 1331.39 21.1904Z" fill="#007A4E"/>
<path d="M1651.39 21.1904C1665.24 21.1301 1665.24 0.0603027 1651.39 0C1637.54 0.0601807 1637.54 21.1302 1651.39 21.1904Z" fill="#007A4E"/>
<path d="M1331.39 47.6504C1345.22 47.5899 1345.22 26.5605 1331.39 26.5C1317.56 26.56 1317.56 47.5904 1331.39 47.6504Z" fill="#007A4E"/>
<path d="M1651.39 47.6504C1665.22 47.5901 1665.22 26.5603 1651.39 26.5C1637.56 26.5603 1637.56 47.5901 1651.39 47.6504Z" fill="#007A4E"/>
<path d="M1366.39 63.1904C1380.24 63.13 1380.24 42.0604 1366.39 42C1352.54 42.06 1352.54 63.1304 1366.39 63.1904Z" fill="#007A4E"/>
<path d="M1436.39 63.1904C1450.24 63.13 1450.24 42.0604 1436.39 42C1422.54 42.06 1422.54 63.1304 1436.39 63.1904Z" fill="#007A4E"/>
<path d="M1611.39 63.1904C1625.24 63.1301 1625.24 42.0603 1611.39 42C1597.54 42.0602 1597.54 63.1302 1611.39 63.1904Z" fill="#007A4E"/>
<path d="M1331.39 73.71C1344.57 73.8995 1344.57 53.1911 1331.39 53.3906C1318.21 53.2006 1318.21 73.91 1331.39 73.71Z" fill="#007A4E"/>
<path d="M1651.39 73.71C1664.57 73.9097 1664.57 53.201 1651.39 53.3906C1638.21 53.1909 1638.21 73.8997 1651.39 73.71Z" fill="#007A4E"/>
<path d="M1366.39 89.6504C1380.22 89.5899 1380.22 68.5605 1366.39 68.5C1352.56 68.56 1352.56 89.5904 1366.39 89.6504Z" fill="#007A4E"/>
<path d="M1436.39 89.6504C1450.22 89.5899 1450.22 68.5605 1436.39 68.5C1422.56 68.56 1422.56 89.5904 1436.39 89.6504Z" fill="#007A4E"/>
<path d="M1611.39 89.6504C1625.22 89.5901 1625.22 68.5603 1611.39 68.5C1597.56 68.5603 1597.56 89.5901 1611.39 89.6504Z" fill="#007A4E"/>
<path d="M1331.39 100.03C1344.36 100.22 1344.36 79.8408 1331.39 80.0303C1318.42 79.8403 1318.42 100.22 1331.39 100.03Z" fill="#007A4E"/>
<path d="M1651.39 100.03C1664.36 100.22 1664.36 79.8406 1651.39 80.0303C1638.42 79.8406 1638.42 100.22 1651.39 100.03Z" fill="#007A4E"/>
<path d="M1401.39 105.19C1415.24 105.13 1415.24 84.0604 1401.39 84C1387.54 84.06 1387.54 105.13 1401.39 105.19Z" fill="#007A4E"/>
<path d="M1471.39 105.19C1485.24 105.13 1485.24 84.0604 1471.39 84C1457.54 84.06 1457.54 105.13 1471.39 105.19Z" fill="#007A4E"/>
<path d="M1576.39 105.19C1590.24 105.13 1590.24 84.0603 1576.39 84C1562.54 84.0602 1562.54 105.13 1576.39 105.19Z" fill="#007A4E"/>
<path d="M1366.39 115.71C1379.57 115.9 1379.57 95.1911 1366.39 95.3906C1353.21 95.2006 1353.21 115.91 1366.39 115.71Z" fill="#007A4E"/>
<path d="M1436.39 115.71C1449.57 115.9 1449.57 95.1911 1436.39 95.3906C1423.21 95.2006 1423.21 115.91 1436.39 115.71Z" fill="#007A4E"/>
<path d="M1611.39 115.71C1624.57 115.91 1624.57 95.201 1611.39 95.3906C1598.21 95.1909 1598.21 115.9 1611.39 115.71Z" fill="#007A4E"/>
<path d="M1331.39 125.96C1343.66 126.139 1343.66 106.861 1331.39 107.04C1319.12 106.86 1319.12 126.14 1331.39 125.96Z" fill="#007A4E"/>
<path d="M1651.39 125.96C1663.66 126.14 1663.66 106.86 1651.39 107.04C1639.12 106.86 1639.12 126.14 1651.39 125.96Z" fill="#007A4E"/>
<path d="M1401.39 131.65C1415.22 131.59 1415.22 110.56 1401.39 110.5C1387.56 110.56 1387.56 131.59 1401.39 131.65Z" fill="#007A4E"/>
<path d="M1471.39 131.65C1485.22 131.59 1485.22 110.56 1471.39 110.5C1457.56 110.56 1457.56 131.59 1471.39 131.65Z" fill="#007A4E"/>
<path d="M1576.39 131.65C1590.22 131.59 1590.22 110.56 1576.39 110.5C1562.56 110.56 1562.56 131.59 1576.39 131.65Z" fill="#007A4E"/>
<path d="M1366.39 142.03C1379.36 142.22 1379.36 121.841 1366.39 122.03C1353.42 121.84 1353.42 142.22 1366.39 142.03Z" fill="#007A4E"/>
<path d="M1436.39 142.03C1449.36 142.22 1449.36 121.841 1436.39 122.03C1423.42 121.84 1423.42 142.22 1436.39 142.03Z" fill="#007A4E"/>
<path d="M1611.39 142.03C1624.36 142.22 1624.36 121.841 1611.39 122.03C1598.42 121.841 1598.42 142.22 1611.39 142.03Z" fill="#007A4E"/>
<path d="M1506.39 147.19C1520.24 147.13 1520.24 126.06 1506.39 126C1492.54 126.06 1492.54 147.13 1506.39 147.19Z" fill="#007A4E"/>
<path d="M1541.39 147.19C1555.24 147.13 1555.24 126.06 1541.39 126C1527.54 126.06 1527.54 147.13 1541.39 147.19Z" fill="#007A4E"/>
<path d="M1331.39 152.12C1343.24 152.29 1343.24 133.681 1331.39 133.851C1319.54 133.681 1319.54 152.29 1331.39 152.12Z" fill="#007A4E"/>
<path d="M1651.39 152.12C1663.24 152.29 1663.24 133.681 1651.39 133.851C1639.54 133.681 1639.54 152.29 1651.39 152.12Z" fill="#007A4E"/>
<path d="M1401.39 157.71C1414.57 157.9 1414.57 137.191 1401.39 137.391C1388.21 137.201 1388.21 157.91 1401.39 157.71Z" fill="#007A4E"/>
<path d="M1471.39 157.71C1484.57 157.9 1484.57 137.191 1471.39 137.391C1458.21 137.201 1458.21 157.91 1471.39 157.71Z" fill="#007A4E"/>
<path d="M1576.39 157.71C1589.57 157.91 1589.57 137.201 1576.39 137.391C1563.21 137.191 1563.21 157.9 1576.39 157.71Z" fill="#007A4E"/>
<path d="M1366.39 167.96C1378.66 168.139 1378.66 148.861 1366.39 149.04C1354.12 148.86 1354.12 168.14 1366.39 167.96Z" fill="#007A4E"/>
<path d="M1436.39 167.96C1448.66 168.139 1448.66 148.861 1436.39 149.04C1424.12 148.86 1424.12 168.14 1436.39 167.96Z" fill="#007A4E"/>
<path d="M1611.39 167.96C1623.66 168.14 1623.66 148.86 1611.39 149.04C1599.12 148.86 1599.12 168.14 1611.39 167.96Z" fill="#007A4E"/>
<path d="M1506.39 173.65C1520.22 173.59 1520.22 152.561 1506.39 152.5C1492.56 152.56 1492.56 173.59 1506.39 173.65Z" fill="#007A4E"/>
<path d="M1541.39 173.65C1555.22 173.59 1555.22 152.56 1541.39 152.5C1527.56 152.56 1527.56 173.59 1541.39 173.65Z" fill="#007A4E"/>
<path d="M1331.4 178.05C1342.55 178.21 1342.55 160.701 1331.4 160.86C1320.25 160.7 1320.25 178.21 1331.4 178.05Z" fill="#007A4E"/>
<path d="M1651.38 178.05C1662.53 178.21 1662.53 160.701 1651.38 160.86C1640.23 160.7 1640.23 178.21 1651.38 178.05Z" fill="#007A4E"/>
<path d="M1401.39 184.03C1414.36 184.22 1414.36 163.841 1401.39 164.03C1388.42 163.84 1388.42 184.22 1401.39 184.03Z" fill="#007A4E"/>
<path d="M1471.39 184.03C1484.36 184.22 1484.36 163.841 1471.39 164.03C1458.42 163.84 1458.42 184.22 1471.39 184.03Z" fill="#007A4E"/>
<path d="M1576.39 184.03C1589.36 184.22 1589.36 163.841 1576.39 164.03C1563.42 163.841 1563.42 184.22 1576.39 184.03Z" fill="#007A4E"/>
<path d="M1366.39 194.12C1378.24 194.29 1378.24 175.681 1366.39 175.851C1354.54 175.681 1354.54 194.29 1366.39 194.12Z" fill="#007A4E"/>
<path d="M1436.39 194.12C1448.24 194.29 1448.24 175.681 1436.39 175.851C1424.54 175.681 1424.54 194.29 1436.39 194.12Z" fill="#007A4E"/>
<path d="M1611.39 194.12C1623.24 194.29 1623.24 175.681 1611.39 175.851C1599.54 175.681 1599.54 194.29 1611.39 194.12Z" fill="#007A4E"/>
<path d="M1506.39 199.71C1519.57 199.9 1519.57 179.191 1506.39 179.391C1493.21 179.201 1493.21 199.91 1506.39 199.71Z" fill="#007A4E"/>
<path d="M1541.39 199.71C1554.57 199.91 1554.57 179.201 1541.39 179.391C1528.21 179.191 1528.21 199.9 1541.39 199.71Z" fill="#007A4E"/>
<path d="M1331.39 203.67C1341.44 203.819 1341.44 188.03 1331.39 188.18C1321.34 188.03 1321.34 203.82 1331.39 203.67Z" fill="#007A4E"/>
<path d="M1651.39 203.67C1661.44 203.82 1661.44 188.03 1651.39 188.18C1641.34 188.03 1641.34 203.82 1651.39 203.67Z" fill="#007A4E"/>
<path d="M1401.39 209.96C1413.66 210.139 1413.66 190.861 1401.39 191.04C1389.12 190.86 1389.12 210.14 1401.39 209.96Z" fill="#007A4E"/>
<path d="M1471.39 209.96C1483.66 210.139 1483.66 190.861 1471.39 191.04C1459.12 190.86 1459.12 210.14 1471.39 209.96Z" fill="#007A4E"/>
<path d="M1576.39 209.96C1588.66 210.14 1588.66 190.86 1576.39 191.04C1564.12 190.86 1564.12 210.14 1576.39 209.96Z" fill="#007A4E"/>
<path d="M1366.4 220.05C1377.55 220.21 1377.55 202.701 1366.4 202.86C1355.25 202.7 1355.25 220.21 1366.4 220.05Z" fill="#007A4E"/>
<path d="M1436.4 220.05C1447.55 220.21 1447.55 202.701 1436.4 202.86C1425.25 202.7 1425.25 220.21 1436.4 220.05Z" fill="#007A4E"/>
<path d="M1611.38 220.05C1622.53 220.21 1622.53 202.701 1611.38 202.86C1600.23 202.7 1600.23 220.21 1611.38 220.05Z" fill="#007A4E"/>
<path d="M1506.39 226.03C1519.36 226.22 1519.36 205.841 1506.39 206.03C1493.42 205.84 1493.42 226.22 1506.39 226.03Z" fill="#007A4E"/>
<path d="M1541.39 226.03C1554.36 226.22 1554.36 205.841 1541.39 206.03C1528.42 205.841 1528.42 226.22 1541.39 226.03Z" fill="#007A4E"/>
<path d="M1331.39 228.03C1338.68 228.14 1338.68 216.681 1331.39 216.79C1324.1 216.68 1324.1 228.14 1331.39 228.03Z" fill="#007A4E"/>
<path d="M1651.39 228.03C1658.68 228.14 1658.68 216.68 1651.39 216.79C1644.1 216.68 1644.1 228.14 1651.39 228.03Z" fill="#007A4E"/>
<path d="M1401.39 236.12C1413.24 236.29 1413.24 217.681 1401.39 217.851C1389.54 217.681 1389.54 236.29 1401.39 236.12Z" fill="#007A4E"/>
<path d="M1471.39 236.12C1483.24 236.29 1483.24 217.681 1471.39 217.851C1459.54 217.681 1459.54 236.29 1471.39 236.12Z" fill="#007A4E"/>
<path d="M1576.39 236.12C1588.24 236.29 1588.24 217.681 1576.39 217.851C1564.54 217.681 1564.54 236.29 1576.39 236.12Z" fill="#007A4E"/>
<path d="M1366.39 245.67C1376.44 245.819 1376.44 230.03 1366.39 230.18C1356.34 230.03 1356.34 245.82 1366.39 245.67Z" fill="#007A4E"/>
<path d="M1436.39 245.67C1446.44 245.819 1446.44 230.03 1436.39 230.18C1426.34 230.03 1426.34 245.82 1436.39 245.67Z" fill="#007A4E"/>
<path d="M1611.39 245.67C1621.44 245.82 1621.44 230.03 1611.39 230.18C1601.34 230.03 1601.34 245.82 1611.39 245.67Z" fill="#007A4E"/>
<path d="M1506.39 251.96C1518.66 252.139 1518.66 232.861 1506.39 233.04C1494.12 232.86 1494.12 252.14 1506.39 251.96Z" fill="#007A4E"/>
<path d="M1541.39 251.96C1553.66 252.14 1553.66 232.86 1541.39 233.04C1529.12 232.86 1529.12 252.14 1541.39 251.96Z" fill="#007A4E"/>
<path d="M1331.4 253.26C1337.08 253.34 1337.08 244.42 1331.4 244.51C1325.72 244.43 1325.72 253.35 1331.4 253.26Z" fill="#007A4E"/>
<path d="M1651.38 253.26C1657.06 253.349 1657.06 244.43 1651.38 244.51C1645.7 244.42 1645.7 253.34 1651.38 253.26Z" fill="#007A4E"/>
<path d="M1401.4 262.05C1412.55 262.21 1412.55 244.701 1401.4 244.86C1390.25 244.7 1390.25 262.21 1401.4 262.05Z" fill="#007A4E"/>
<path d="M1471.4 262.05C1482.55 262.21 1482.55 244.701 1471.4 244.86C1460.25 244.7 1460.25 262.21 1471.4 262.05Z" fill="#007A4E"/>
<path d="M1576.38 262.05C1587.53 262.21 1587.53 244.701 1576.38 244.86C1565.23 244.7 1565.23 262.21 1576.38 262.05Z" fill="#007A4E"/>
<path d="M1366.39 270.03C1373.68 270.14 1373.68 258.681 1366.39 258.79C1359.1 258.68 1359.1 270.14 1366.39 270.03Z" fill="#007A4E"/>
<path d="M1436.39 270.03C1443.68 270.14 1443.68 258.681 1436.39 258.79C1429.1 258.68 1429.1 270.14 1436.39 270.03Z" fill="#007A4E"/>
<path d="M1611.39 270.03C1618.68 270.14 1618.68 258.68 1611.39 258.79C1604.1 258.68 1604.1 270.14 1611.39 270.03Z" fill="#007A4E"/>
<path d="M1506.39 278.12C1518.24 278.29 1518.24 259.681 1506.39 259.851C1494.54 259.681 1494.54 278.29 1506.39 278.12Z" fill="#007A4E"/>
<path d="M1541.39 278.12C1553.24 278.29 1553.24 259.681 1541.39 259.851C1529.54 259.681 1529.54 278.29 1541.39 278.12Z" fill="#007A4E"/>
<path d="M1401.39 287.67C1411.44 287.819 1411.44 272.03 1401.39 272.18C1391.34 272.03 1391.34 287.82 1401.39 287.67Z" fill="#007A4E"/>
<path d="M1471.39 287.67C1481.44 287.819 1481.44 272.03 1471.39 272.18C1461.34 272.03 1461.34 287.82 1471.39 287.67Z" fill="#007A4E"/>
<path d="M1576.39 287.67C1586.44 287.82 1586.44 272.03 1576.39 272.18C1566.34 272.03 1566.34 287.82 1576.39 287.67Z" fill="#007A4E"/>
<path d="M1331.39 278.51C1335.48 278.569 1335.48 272.151 1331.39 272.21C1327.3 272.15 1327.3 278.57 1331.39 278.51Z" fill="#007A4E"/>
<path d="M1651.39 278.51C1655.48 278.569 1655.48 272.15 1651.39 272.21C1647.3 272.15 1647.3 278.569 1651.39 278.51Z" fill="#007A4E"/>
<path d="M1366.4 295.26C1372.08 295.34 1372.08 286.42 1366.4 286.51C1360.72 286.43 1360.72 295.35 1366.4 295.26Z" fill="#007A4E"/>
<path d="M1436.4 295.26C1442.08 295.34 1442.08 286.42 1436.4 286.51C1430.72 286.43 1430.72 295.35 1436.4 295.26Z" fill="#007A4E"/>
<path d="M1611.38 295.26C1617.06 295.349 1617.06 286.43 1611.38 286.51C1605.7 286.42 1605.7 295.34 1611.38 295.26Z" fill="#007A4E"/>
<path d="M1506.4 304.05C1517.55 304.21 1517.55 286.701 1506.4 286.86C1495.25 286.7 1495.25 304.21 1506.4 304.05Z" fill="#007A4E"/>
<path d="M1541.38 304.05C1552.53 304.21 1552.53 286.701 1541.38 286.86C1530.23 286.7 1530.23 304.21 1541.38 304.05Z" fill="#007A4E"/>
<path d="M1401.39 312.03C1408.68 312.14 1408.68 300.681 1401.39 300.79C1394.1 300.68 1394.1 312.14 1401.39 312.03Z" fill="#007A4E"/>
<path d="M1471.39 312.03C1478.68 312.14 1478.68 300.681 1471.39 300.79C1464.1 300.68 1464.1 312.14 1471.39 312.03Z" fill="#007A4E"/>
<path d="M1576.39 312.03C1583.68 312.14 1583.68 300.68 1576.39 300.79C1569.1 300.68 1569.1 312.14 1576.39 312.03Z" fill="#007A4E"/>
<path d="M1506.39 329.67C1516.44 329.819 1516.44 314.03 1506.39 314.18C1496.34 314.03 1496.34 329.82 1506.39 329.67Z" fill="#007A4E"/>
<path d="M1541.39 329.67C1551.44 329.82 1551.44 314.03 1541.39 314.18C1531.34 314.03 1531.34 329.82 1541.39 329.67Z" fill="#007A4E"/>
<path d="M1366.39 320.51C1370.48 320.569 1370.48 314.151 1366.39 314.21C1362.3 314.15 1362.3 320.57 1366.39 320.51Z" fill="#007A4E"/>
<path d="M1436.39 320.51C1440.48 320.569 1440.48 314.151 1436.39 314.21C1432.3 314.15 1432.3 320.57 1436.39 320.51Z" fill="#007A4E"/>
<path d="M1611.39 320.51C1615.48 320.569 1615.48 314.15 1611.39 314.21C1607.3 314.15 1607.3 320.569 1611.39 320.51Z" fill="#007A4E"/>
<path d="M1401.4 337.26C1407.08 337.34 1407.08 328.42 1401.4 328.51C1395.72 328.43 1395.72 337.35 1401.4 337.26Z" fill="#007A4E"/>
<path d="M1471.4 337.26C1477.08 337.34 1477.08 328.42 1471.4 328.51C1465.72 328.43 1465.72 337.35 1471.4 337.26Z" fill="#007A4E"/>
<path d="M1576.38 337.26C1582.06 337.349 1582.06 328.43 1576.38 328.51C1570.7 328.42 1570.7 337.34 1576.38 337.26Z" fill="#007A4E"/>
<path d="M1506.39 354.03C1513.68 354.14 1513.68 342.681 1506.39 342.79C1499.1 342.68 1499.1 354.14 1506.39 354.03Z" fill="#007A4E"/>
<path d="M1541.39 354.03C1548.68 354.14 1548.68 342.68 1541.39 342.79C1534.1 342.68 1534.1 354.14 1541.39 354.03Z" fill="#007A4E"/>
<path d="M1401.39 362.51C1405.48 362.569 1405.48 356.151 1401.39 356.21C1397.3 356.15 1397.3 362.57 1401.39 362.51Z" fill="#007A4E"/>
<path d="M1471.39 362.51C1475.48 362.569 1475.48 356.151 1471.39 356.21C1467.3 356.15 1467.3 362.57 1471.39 362.51Z" fill="#007A4E"/>
<path d="M1576.39 362.51C1580.48 362.569 1580.48 356.15 1576.39 356.21C1572.3 356.15 1572.3 362.569 1576.39 362.51Z" fill="#007A4E"/>
<path d="M1506.4 379.26C1512.08 379.34 1512.08 370.42 1506.4 370.51C1500.72 370.43 1500.72 379.35 1506.4 379.26Z" fill="#007A4E"/>
<path d="M1541.38 379.26C1547.06 379.349 1547.06 370.43 1541.38 370.51C1535.7 370.42 1535.7 379.34 1541.38 379.26Z" fill="#007A4E"/>
<path d="M1506.39 404.51C1510.48 404.569 1510.48 398.151 1506.39 398.21C1502.3 398.15 1502.3 404.57 1506.39 404.51Z" fill="#007A4E"/>
<path d="M1541.39 404.51C1545.48 404.569 1545.48 398.15 1541.39 398.21C1537.3 398.15 1537.3 404.569 1541.39 404.51Z" fill="#007A4E"/>
</svg>
