<svg width="370" height="419" viewBox="0 0 370 419" fill="none" xmlns="http://www.w3.org/2000/svg">
<g clip-path="url(#clip0_2299_488239)">
<path d="M266 -200C266 -198.895 265.105 -198 264 -198C262.895 -198 262 -198.895 262 -200C262 -201.105 262.895 -202 264 -202C265.105 -202 266 -201.105 266 -200Z" fill="#0C1124" fill-opacity="0.08"/>
<path d="M269 -184C269 -181.239 266.761 -179 264 -179C261.239 -179 259 -181.239 259 -184C259 -186.761 261.239 -189 264 -189C266.761 -189 269 -186.761 269 -184Z" fill="#0C1124" fill-opacity="0.08"/>
<path d="M273 -161C273 -156.029 268.971 -152 264 -152C259.029 -152 255 -156.029 255 -161C255 -165.971 259.029 -170 264 -170C268.971 -170 273 -165.971 273 -161Z" fill="#0C1124" fill-opacity="0.08"/>
<path d="M276 -131C276 -124.373 270.627 -119 264 -119C257.373 -119 252 -124.373 252 -131C252 -137.627 257.373 -143 264 -143C270.627 -143 276 -137.627 276 -131Z" fill="#0C1124" fill-opacity="0.08"/>
<path d="M273 -101C273 -96.0294 268.971 -92 264 -92C259.029 -92 255 -96.0294 255 -101C255 -105.971 259.029 -110 264 -110C268.971 -110 273 -105.971 273 -101Z" fill="#0C1124" fill-opacity="0.08"/>
<path d="M269 -78C269 -75.2386 266.761 -73 264 -73C261.239 -73 259 -75.2386 259 -78C259 -80.7614 261.239 -83 264 -83C266.761 -83 269 -80.7614 269 -78Z" fill="#0C1124" fill-opacity="0.08"/>
<path d="M266 -62C266 -60.8954 265.105 -60 264 -60C262.895 -60 262 -60.8954 262 -62C262 -63.1046 262.895 -64 264 -64C265.105 -64 266 -63.1046 266 -62Z" fill="#0C1124" fill-opacity="0.08"/>
<path d="M266 -49C266 -47.8954 265.105 -47 264 -47C262.895 -47 262 -47.8954 262 -49C262 -50.1046 262.895 -51 264 -51C265.105 -51 266 -50.1046 266 -49Z" fill="#0C1124" fill-opacity="0.08"/>
<path d="M269 -33C269 -30.2386 266.761 -28 264 -28C261.239 -28 259 -30.2386 259 -33C259 -35.7614 261.239 -38 264 -38C266.761 -38 269 -35.7614 269 -33Z" fill="#0C1124" fill-opacity="0.08"/>
<path d="M273 -10C273 -5.02943 268.971 -1 264 -1C259.029 -1 255 -5.02943 255 -10C255 -14.9706 259.029 -19 264 -19C268.971 -19 273 -14.9706 273 -10Z" fill="#0C1124" fill-opacity="0.08"/>
<path d="M276 20C276 26.6274 270.627 32 264 32C257.373 32 252 26.6274 252 20C252 13.3726 257.373 8 264 8C270.627 8 276 13.3726 276 20Z" fill="#0C1124" fill-opacity="0.08"/>
<path d="M273 50C273 54.9706 268.971 59 264 59C259.029 59 255 54.9706 255 50C255 45.0294 259.029 41 264 41C268.971 41 273 45.0294 273 50Z" fill="#0C1124" fill-opacity="0.08"/>
<path d="M269 73C269 75.7614 266.761 78 264 78C261.239 78 259 75.7614 259 73C259 70.2386 261.239 68 264 68C266.761 68 269 70.2386 269 73Z" fill="#0C1124" fill-opacity="0.08"/>
<path d="M266 89C266 90.1046 265.105 91 264 91C262.895 91 262 90.1046 262 89C262 87.8954 262.895 87 264 87C265.105 87 266 87.8954 266 89Z" fill="#0C1124" fill-opacity="0.08"/>
<path d="M266 102C266 103.105 265.105 104 264 104C262.895 104 262 103.105 262 102C262 100.895 262.895 100 264 100C265.105 100 266 100.895 266 102Z" fill="#0C1124" fill-opacity="0.08"/>
<path d="M269 118C269 120.761 266.761 123 264 123C261.239 123 259 120.761 259 118C259 115.239 261.239 113 264 113C266.761 113 269 115.239 269 118Z" fill="#0C1124" fill-opacity="0.08"/>
<path d="M273 141C273 145.971 268.971 150 264 150C259.029 150 255 145.971 255 141C255 136.029 259.029 132 264 132C268.971 132 273 136.029 273 141Z" fill="#0C1124" fill-opacity="0.08"/>
<path d="M276 171C276 177.627 270.627 183 264 183C257.373 183 252 177.627 252 171C252 164.373 257.373 159 264 159C270.627 159 276 164.373 276 171Z" fill="#0C1124" fill-opacity="0.08"/>
<path d="M273 201C273 205.971 268.971 210 264 210C259.029 210 255 205.971 255 201C255 196.029 259.029 192 264 192C268.971 192 273 196.029 273 201Z" fill="#0C1124" fill-opacity="0.08"/>
<path d="M269 224C269 226.761 266.761 229 264 229C261.239 229 259 226.761 259 224C259 221.239 261.239 219 264 219C266.761 219 269 221.239 269 224Z" fill="#0C1124" fill-opacity="0.08"/>
<path d="M266 240C266 241.105 265.105 242 264 242C262.895 242 262 241.105 262 240C262 238.895 262.895 238 264 238C265.105 238 266 238.895 266 240Z" fill="#0C1124" fill-opacity="0.08"/>
<path d="M266 253C266 254.105 265.105 255 264 255C262.895 255 262 254.105 262 253C262 251.895 262.895 251 264 251C265.105 251 266 251.895 266 253Z" fill="#0C1124" fill-opacity="0.08"/>
<path d="M269 269C269 271.761 266.761 274 264 274C261.239 274 259 271.761 259 269C259 266.239 261.239 264 264 264C266.761 264 269 266.239 269 269Z" fill="#0C1124" fill-opacity="0.08"/>
<path d="M273 292C273 296.971 268.971 301 264 301C259.029 301 255 296.971 255 292C255 287.029 259.029 283 264 283C268.971 283 273 287.029 273 292Z" fill="#0C1124" fill-opacity="0.08"/>
<path d="M276 322C276 328.627 270.627 334 264 334C257.373 334 252 328.627 252 322C252 315.373 257.373 310 264 310C270.627 310 276 315.373 276 322Z" fill="#0C1124" fill-opacity="0.08"/>
<path d="M273 352C273 356.971 268.971 361 264 361C259.029 361 255 356.971 255 352C255 347.029 259.029 343 264 343C268.971 343 273 347.029 273 352Z" fill="#0C1124" fill-opacity="0.08"/>
<path d="M269 375C269 377.761 266.761 380 264 380C261.239 380 259 377.761 259 375C259 372.239 261.239 370 264 370C266.761 370 269 372.239 269 375Z" fill="#0C1124" fill-opacity="0.08"/>
<path d="M266 391C266 392.105 265.105 393 264 393C262.895 393 262 392.105 262 391C262 389.895 262.895 389 264 389C265.105 389 266 389.895 266 391Z" fill="#0C1124" fill-opacity="0.08"/>
<path d="M266 404C266 405.105 265.105 406 264 406C262.895 406 262 405.105 262 404C262 402.895 262.895 402 264 402C265.105 402 266 402.895 266 404Z" fill="#0C1124" fill-opacity="0.08"/>
<path d="M269 420C269 422.761 266.761 425 264 425C261.239 425 259 422.761 259 420C259 417.239 261.239 415 264 415C266.761 415 269 417.239 269 420Z" fill="#0C1124" fill-opacity="0.08"/>
<path d="M273 443C273 447.971 268.971 452 264 452C259.029 452 255 447.971 255 443C255 438.029 259.029 434 264 434C268.971 434 273 438.029 273 443Z" fill="#0C1124" fill-opacity="0.08"/>
<path d="M276 473C276 479.627 270.627 485 264 485C257.373 485 252 479.627 252 473C252 466.373 257.373 461 264 461C270.627 461 276 466.373 276 473Z" fill="#0C1124" fill-opacity="0.08"/>
<path d="M273 503C273 507.971 268.971 512 264 512C259.029 512 255 507.971 255 503C255 498.029 259.029 494 264 494C268.971 494 273 498.029 273 503Z" fill="#0C1124" fill-opacity="0.08"/>
<path d="M269 526C269 528.761 266.761 531 264 531C261.239 531 259 528.761 259 526C259 523.239 261.239 521 264 521C266.761 521 269 523.239 269 526Z" fill="#0C1124" fill-opacity="0.08"/>
<path d="M266 542C266 543.105 265.105 544 264 544C262.895 544 262 543.105 262 542C262 540.895 262.895 540 264 540C265.105 540 266 540.895 266 542Z" fill="#0C1124" fill-opacity="0.08"/>
<path d="M309 -124.5C309 -123.395 308.105 -122.5 307 -122.5C305.895 -122.5 305 -123.395 305 -124.5C305 -125.605 305.895 -126.5 307 -126.5C308.105 -126.5 309 -125.605 309 -124.5Z" fill="#0C1124" fill-opacity="0.08"/>
<path d="M312 -108.5C312 -105.739 309.761 -103.5 307 -103.5C304.239 -103.5 302 -105.739 302 -108.5C302 -111.261 304.239 -113.5 307 -113.5C309.761 -113.5 312 -111.261 312 -108.5Z" fill="#0C1124" fill-opacity="0.08"/>
<path d="M316 -85.5C316 -80.5294 311.971 -76.5 307 -76.5C302.029 -76.5 298 -80.5294 298 -85.5C298 -90.4706 302.029 -94.5 307 -94.5C311.971 -94.5 316 -90.4706 316 -85.5Z" fill="#0C1124" fill-opacity="0.08"/>
<path d="M319 -55.5C319 -48.8726 313.627 -43.5 307 -43.5C300.373 -43.5 295 -48.8726 295 -55.5C295 -62.1274 300.373 -67.5 307 -67.5C313.627 -67.5 319 -62.1274 319 -55.5Z" fill="#0C1124" fill-opacity="0.08"/>
<path d="M316 -25.5C316 -20.5294 311.971 -16.5 307 -16.5C302.029 -16.5 298 -20.5294 298 -25.5C298 -30.4706 302.029 -34.5 307 -34.5C311.971 -34.5 316 -30.4706 316 -25.5Z" fill="#0C1124" fill-opacity="0.08"/>
<path d="M312 -2.5C312 0.261429 309.761 2.5 307 2.5C304.239 2.5 302 0.261429 302 -2.5C302 -5.26143 304.239 -7.5 307 -7.5C309.761 -7.5 312 -5.26143 312 -2.5Z" fill="#0C1124" fill-opacity="0.08"/>
<path d="M309 13.5C309 14.6046 308.105 15.5 307 15.5C305.895 15.5 305 14.6046 305 13.5C305 12.3954 305.895 11.5 307 11.5C308.105 11.5 309 12.3954 309 13.5Z" fill="#0C1124" fill-opacity="0.08"/>
<path d="M309 26.5C309 27.6046 308.105 28.5 307 28.5C305.895 28.5 305 27.6046 305 26.5C305 25.3954 305.895 24.5 307 24.5C308.105 24.5 309 25.3954 309 26.5Z" fill="#0C1124" fill-opacity="0.08"/>
<path d="M312 42.5C312 45.2614 309.761 47.5 307 47.5C304.239 47.5 302 45.2614 302 42.5C302 39.7386 304.239 37.5 307 37.5C309.761 37.5 312 39.7386 312 42.5Z" fill="#0C1124" fill-opacity="0.08"/>
<path d="M316 65.5C316 70.4706 311.971 74.5 307 74.5C302.029 74.5 298 70.4706 298 65.5C298 60.5294 302.029 56.5 307 56.5C311.971 56.5 316 60.5294 316 65.5Z" fill="#0C1124" fill-opacity="0.08"/>
<path d="M319 95.5C319 102.127 313.627 107.5 307 107.5C300.373 107.5 295 102.127 295 95.5C295 88.8726 300.373 83.5 307 83.5C313.627 83.5 319 88.8726 319 95.5Z" fill="#0C1124" fill-opacity="0.08"/>
<path d="M316 125.5C316 130.471 311.971 134.5 307 134.5C302.029 134.5 298 130.471 298 125.5C298 120.529 302.029 116.5 307 116.5C311.971 116.5 316 120.529 316 125.5Z" fill="#0C1124" fill-opacity="0.08"/>
<path d="M312 148.5C312 151.261 309.761 153.5 307 153.5C304.239 153.5 302 151.261 302 148.5C302 145.739 304.239 143.5 307 143.5C309.761 143.5 312 145.739 312 148.5Z" fill="#0C1124" fill-opacity="0.08"/>
<path d="M309 164.5C309 165.605 308.105 166.5 307 166.5C305.895 166.5 305 165.605 305 164.5C305 163.395 305.895 162.5 307 162.5C308.105 162.5 309 163.395 309 164.5Z" fill="#0C1124" fill-opacity="0.08"/>
<path d="M309 177.5C309 178.605 308.105 179.5 307 179.5C305.895 179.5 305 178.605 305 177.5C305 176.395 305.895 175.5 307 175.5C308.105 175.5 309 176.395 309 177.5Z" fill="#0C1124" fill-opacity="0.08"/>
<path d="M312 193.5C312 196.261 309.761 198.5 307 198.5C304.239 198.5 302 196.261 302 193.5C302 190.739 304.239 188.5 307 188.5C309.761 188.5 312 190.739 312 193.5Z" fill="#0C1124" fill-opacity="0.08"/>
<path d="M316 216.5C316 221.471 311.971 225.5 307 225.5C302.029 225.5 298 221.471 298 216.5C298 211.529 302.029 207.5 307 207.5C311.971 207.5 316 211.529 316 216.5Z" fill="#0C1124" fill-opacity="0.08"/>
<path d="M319 246.5C319 253.127 313.627 258.5 307 258.5C300.373 258.5 295 253.127 295 246.5C295 239.873 300.373 234.5 307 234.5C313.627 234.5 319 239.873 319 246.5Z" fill="#0C1124" fill-opacity="0.08"/>
<path d="M316 276.5C316 281.471 311.971 285.5 307 285.5C302.029 285.5 298 281.471 298 276.5C298 271.529 302.029 267.5 307 267.5C311.971 267.5 316 271.529 316 276.5Z" fill="#0C1124" fill-opacity="0.08"/>
<path d="M312 299.5C312 302.261 309.761 304.5 307 304.5C304.239 304.5 302 302.261 302 299.5C302 296.739 304.239 294.5 307 294.5C309.761 294.5 312 296.739 312 299.5Z" fill="#0C1124" fill-opacity="0.08"/>
<path d="M309 315.5C309 316.605 308.105 317.5 307 317.5C305.895 317.5 305 316.605 305 315.5C305 314.395 305.895 313.5 307 313.5C308.105 313.5 309 314.395 309 315.5Z" fill="#0C1124" fill-opacity="0.08"/>
<path d="M309 328.5C309 329.605 308.105 330.5 307 330.5C305.895 330.5 305 329.605 305 328.5C305 327.395 305.895 326.5 307 326.5C308.105 326.5 309 327.395 309 328.5Z" fill="#0C1124" fill-opacity="0.08"/>
<path d="M312 344.5C312 347.261 309.761 349.5 307 349.5C304.239 349.5 302 347.261 302 344.5C302 341.739 304.239 339.5 307 339.5C309.761 339.5 312 341.739 312 344.5Z" fill="#0C1124" fill-opacity="0.08"/>
<path d="M316 367.5C316 372.471 311.971 376.5 307 376.5C302.029 376.5 298 372.471 298 367.5C298 362.529 302.029 358.5 307 358.5C311.971 358.5 316 362.529 316 367.5Z" fill="#0C1124" fill-opacity="0.08"/>
<path d="M319 397.5C319 404.127 313.627 409.5 307 409.5C300.373 409.5 295 404.127 295 397.5C295 390.873 300.373 385.5 307 385.5C313.627 385.5 319 390.873 319 397.5Z" fill="#0C1124" fill-opacity="0.08"/>
<path d="M316 427.5C316 432.471 311.971 436.5 307 436.5C302.029 436.5 298 432.471 298 427.5C298 422.529 302.029 418.5 307 418.5C311.971 418.5 316 422.529 316 427.5Z" fill="#0C1124" fill-opacity="0.08"/>
<path d="M312 450.5C312 453.261 309.761 455.5 307 455.5C304.239 455.5 302 453.261 302 450.5C302 447.739 304.239 445.5 307 445.5C309.761 445.5 312 447.739 312 450.5Z" fill="#0C1124" fill-opacity="0.08"/>
<path d="M309 466.5C309 467.605 308.105 468.5 307 468.5C305.895 468.5 305 467.605 305 466.5C305 465.395 305.895 464.5 307 464.5C308.105 464.5 309 465.395 309 466.5Z" fill="#0C1124" fill-opacity="0.08"/>
<path d="M352 -200C352 -198.895 351.105 -198 350 -198C348.895 -198 348 -198.895 348 -200C348 -201.105 348.895 -202 350 -202C351.105 -202 352 -201.105 352 -200Z" fill="#0C1124" fill-opacity="0.08"/>
<path d="M355 -184C355 -181.239 352.761 -179 350 -179C347.239 -179 345 -181.239 345 -184C345 -186.761 347.239 -189 350 -189C352.761 -189 355 -186.761 355 -184Z" fill="#0C1124" fill-opacity="0.08"/>
<path d="M359 -161C359 -156.029 354.971 -152 350 -152C345.029 -152 341 -156.029 341 -161C341 -165.971 345.029 -170 350 -170C354.971 -170 359 -165.971 359 -161Z" fill="#0C1124" fill-opacity="0.08"/>
<path d="M362 -131C362 -124.373 356.627 -119 350 -119C343.373 -119 338 -124.373 338 -131C338 -137.627 343.373 -143 350 -143C356.627 -143 362 -137.627 362 -131Z" fill="#0C1124" fill-opacity="0.08"/>
<path d="M359 -101C359 -96.0294 354.971 -92 350 -92C345.029 -92 341 -96.0294 341 -101C341 -105.971 345.029 -110 350 -110C354.971 -110 359 -105.971 359 -101Z" fill="#0C1124" fill-opacity="0.08"/>
<path d="M355 -78C355 -75.2386 352.761 -73 350 -73C347.239 -73 345 -75.2386 345 -78C345 -80.7614 347.239 -83 350 -83C352.761 -83 355 -80.7614 355 -78Z" fill="#0C1124" fill-opacity="0.08"/>
<path d="M352 -62C352 -60.8954 351.105 -60 350 -60C348.895 -60 348 -60.8954 348 -62C348 -63.1046 348.895 -64 350 -64C351.105 -64 352 -63.1046 352 -62Z" fill="#0C1124" fill-opacity="0.08"/>
<path d="M352 -49C352 -47.8954 351.105 -47 350 -47C348.895 -47 348 -47.8954 348 -49C348 -50.1046 348.895 -51 350 -51C351.105 -51 352 -50.1046 352 -49Z" fill="#0C1124" fill-opacity="0.08"/>
<path d="M355 -33C355 -30.2386 352.761 -28 350 -28C347.239 -28 345 -30.2386 345 -33C345 -35.7614 347.239 -38 350 -38C352.761 -38 355 -35.7614 355 -33Z" fill="#0C1124" fill-opacity="0.08"/>
<path d="M359 -10C359 -5.02943 354.971 -1 350 -1C345.029 -1 341 -5.02943 341 -10C341 -14.9706 345.029 -19 350 -19C354.971 -19 359 -14.9706 359 -10Z" fill="#0C1124" fill-opacity="0.08"/>
<path d="M362 20C362 26.6274 356.627 32 350 32C343.373 32 338 26.6274 338 20C338 13.3726 343.373 8 350 8C356.627 8 362 13.3726 362 20Z" fill="#0C1124" fill-opacity="0.08"/>
<path d="M359 50C359 54.9706 354.971 59 350 59C345.029 59 341 54.9706 341 50C341 45.0294 345.029 41 350 41C354.971 41 359 45.0294 359 50Z" fill="#0C1124" fill-opacity="0.08"/>
<path d="M355 73C355 75.7614 352.761 78 350 78C347.239 78 345 75.7614 345 73C345 70.2386 347.239 68 350 68C352.761 68 355 70.2386 355 73Z" fill="#0C1124" fill-opacity="0.08"/>
<path d="M352 89C352 90.1046 351.105 91 350 91C348.895 91 348 90.1046 348 89C348 87.8954 348.895 87 350 87C351.105 87 352 87.8954 352 89Z" fill="#0C1124" fill-opacity="0.08"/>
<path d="M352 102C352 103.105 351.105 104 350 104C348.895 104 348 103.105 348 102C348 100.895 348.895 100 350 100C351.105 100 352 100.895 352 102Z" fill="#0C1124" fill-opacity="0.08"/>
<path d="M355 118C355 120.761 352.761 123 350 123C347.239 123 345 120.761 345 118C345 115.239 347.239 113 350 113C352.761 113 355 115.239 355 118Z" fill="#0C1124" fill-opacity="0.08"/>
<path d="M359 141C359 145.971 354.971 150 350 150C345.029 150 341 145.971 341 141C341 136.029 345.029 132 350 132C354.971 132 359 136.029 359 141Z" fill="#0C1124" fill-opacity="0.08"/>
<path d="M362 171C362 177.627 356.627 183 350 183C343.373 183 338 177.627 338 171C338 164.373 343.373 159 350 159C356.627 159 362 164.373 362 171Z" fill="#0C1124" fill-opacity="0.08"/>
<path d="M359 201C359 205.971 354.971 210 350 210C345.029 210 341 205.971 341 201C341 196.029 345.029 192 350 192C354.971 192 359 196.029 359 201Z" fill="#0C1124" fill-opacity="0.08"/>
<path d="M355 224C355 226.761 352.761 229 350 229C347.239 229 345 226.761 345 224C345 221.239 347.239 219 350 219C352.761 219 355 221.239 355 224Z" fill="#0C1124" fill-opacity="0.08"/>
<path d="M352 240C352 241.105 351.105 242 350 242C348.895 242 348 241.105 348 240C348 238.895 348.895 238 350 238C351.105 238 352 238.895 352 240Z" fill="#0C1124" fill-opacity="0.08"/>
<path d="M352 253C352 254.105 351.105 255 350 255C348.895 255 348 254.105 348 253C348 251.895 348.895 251 350 251C351.105 251 352 251.895 352 253Z" fill="#0C1124" fill-opacity="0.08"/>
<path d="M355 269C355 271.761 352.761 274 350 274C347.239 274 345 271.761 345 269C345 266.239 347.239 264 350 264C352.761 264 355 266.239 355 269Z" fill="#0C1124" fill-opacity="0.08"/>
<path d="M359 292C359 296.971 354.971 301 350 301C345.029 301 341 296.971 341 292C341 287.029 345.029 283 350 283C354.971 283 359 287.029 359 292Z" fill="#0C1124" fill-opacity="0.08"/>
<path d="M362 322C362 328.627 356.627 334 350 334C343.373 334 338 328.627 338 322C338 315.373 343.373 310 350 310C356.627 310 362 315.373 362 322Z" fill="#0C1124" fill-opacity="0.08"/>
<path d="M359 352C359 356.971 354.971 361 350 361C345.029 361 341 356.971 341 352C341 347.029 345.029 343 350 343C354.971 343 359 347.029 359 352Z" fill="#0C1124" fill-opacity="0.08"/>
<path d="M355 375C355 377.761 352.761 380 350 380C347.239 380 345 377.761 345 375C345 372.239 347.239 370 350 370C352.761 370 355 372.239 355 375Z" fill="#0C1124" fill-opacity="0.08"/>
<path d="M352 391C352 392.105 351.105 393 350 393C348.895 393 348 392.105 348 391C348 389.895 348.895 389 350 389C351.105 389 352 389.895 352 391Z" fill="#0C1124" fill-opacity="0.08"/>
<path d="M352 404C352 405.105 351.105 406 350 406C348.895 406 348 405.105 348 404C348 402.895 348.895 402 350 402C351.105 402 352 402.895 352 404Z" fill="#0C1124" fill-opacity="0.08"/>
<path d="M355 420C355 422.761 352.761 425 350 425C347.239 425 345 422.761 345 420C345 417.239 347.239 415 350 415C352.761 415 355 417.239 355 420Z" fill="#0C1124" fill-opacity="0.08"/>
<path d="M359 443C359 447.971 354.971 452 350 452C345.029 452 341 447.971 341 443C341 438.029 345.029 434 350 434C354.971 434 359 438.029 359 443Z" fill="#0C1124" fill-opacity="0.08"/>
<path d="M362 473C362 479.627 356.627 485 350 485C343.373 485 338 479.627 338 473C338 466.373 343.373 461 350 461C356.627 461 362 466.373 362 473Z" fill="#0C1124" fill-opacity="0.08"/>
<path d="M359 503C359 507.971 354.971 512 350 512C345.029 512 341 507.971 341 503C341 498.029 345.029 494 350 494C354.971 494 359 498.029 359 503Z" fill="#0C1124" fill-opacity="0.08"/>
<path d="M355 526C355 528.761 352.761 531 350 531C347.239 531 345 528.761 345 526C345 523.239 347.239 521 350 521C352.761 521 355 523.239 355 526Z" fill="#0C1124" fill-opacity="0.08"/>
<path d="M352 542C352 543.105 351.105 544 350 544C348.895 544 348 543.105 348 542C348 540.895 348.895 540 350 540C351.105 540 352 540.895 352 542Z" fill="#0C1124" fill-opacity="0.08"/>
<path d="M140 -200C140 -198.895 139.105 -198 138 -198C136.895 -198 136 -198.895 136 -200C136 -201.105 136.895 -202 138 -202C139.105 -202 140 -201.105 140 -200Z" fill="#0C1124" fill-opacity="0.08"/>
<path d="M143 -184C143 -181.239 140.761 -179 138 -179C135.239 -179 133 -181.239 133 -184C133 -186.761 135.239 -189 138 -189C140.761 -189 143 -186.761 143 -184Z" fill="#0C1124" fill-opacity="0.08"/>
<path d="M147 -161C147 -156.029 142.971 -152 138 -152C133.029 -152 129 -156.029 129 -161C129 -165.971 133.029 -170 138 -170C142.971 -170 147 -165.971 147 -161Z" fill="#0C1124" fill-opacity="0.08"/>
<path d="M150 -131C150 -124.373 144.627 -119 138 -119C131.373 -119 126 -124.373 126 -131C126 -137.627 131.373 -143 138 -143C144.627 -143 150 -137.627 150 -131Z" fill="#0C1124" fill-opacity="0.08"/>
<path d="M147 -101C147 -96.0294 142.971 -92 138 -92C133.029 -92 129 -96.0294 129 -101C129 -105.971 133.029 -110 138 -110C142.971 -110 147 -105.971 147 -101Z" fill="#0C1124" fill-opacity="0.08"/>
<path d="M143 -78C143 -75.2386 140.761 -73 138 -73C135.239 -73 133 -75.2386 133 -78C133 -80.7614 135.239 -83 138 -83C140.761 -83 143 -80.7614 143 -78Z" fill="#0C1124" fill-opacity="0.08"/>
<path d="M140 -62C140 -60.8954 139.105 -60 138 -60C136.895 -60 136 -60.8954 136 -62C136 -63.1046 136.895 -64 138 -64C139.105 -64 140 -63.1046 140 -62Z" fill="#0C1124" fill-opacity="0.08"/>
<path d="M140 -49C140 -47.8954 139.105 -47 138 -47C136.895 -47 136 -47.8954 136 -49C136 -50.1046 136.895 -51 138 -51C139.105 -51 140 -50.1046 140 -49Z" fill="#0C1124" fill-opacity="0.08"/>
<path d="M143 -33C143 -30.2386 140.761 -28 138 -28C135.239 -28 133 -30.2386 133 -33C133 -35.7614 135.239 -38 138 -38C140.761 -38 143 -35.7614 143 -33Z" fill="#0C1124" fill-opacity="0.08"/>
<path d="M147 -10C147 -5.02943 142.971 -1 138 -1C133.029 -1 129 -5.02943 129 -10C129 -14.9706 133.029 -19 138 -19C142.971 -19 147 -14.9706 147 -10Z" fill="#0C1124" fill-opacity="0.08"/>
<path d="M150 20C150 26.6274 144.627 32 138 32C131.373 32 126 26.6274 126 20C126 13.3726 131.373 8 138 8C144.627 8 150 13.3726 150 20Z" fill="#0C1124" fill-opacity="0.08"/>
<path d="M147 50C147 54.9706 142.971 59 138 59C133.029 59 129 54.9706 129 50C129 45.0294 133.029 41 138 41C142.971 41 147 45.0294 147 50Z" fill="#0C1124" fill-opacity="0.08"/>
<path d="M143 73C143 75.7614 140.761 78 138 78C135.239 78 133 75.7614 133 73C133 70.2386 135.239 68 138 68C140.761 68 143 70.2386 143 73Z" fill="#0C1124" fill-opacity="0.08"/>
<path d="M140 89C140 90.1046 139.105 91 138 91C136.895 91 136 90.1046 136 89C136 87.8954 136.895 87 138 87C139.105 87 140 87.8954 140 89Z" fill="#0C1124" fill-opacity="0.08"/>
<path d="M140 102C140 103.105 139.105 104 138 104C136.895 104 136 103.105 136 102C136 100.895 136.895 100 138 100C139.105 100 140 100.895 140 102Z" fill="#0C1124" fill-opacity="0.08"/>
<path d="M143 118C143 120.761 140.761 123 138 123C135.239 123 133 120.761 133 118C133 115.239 135.239 113 138 113C140.761 113 143 115.239 143 118Z" fill="#0C1124" fill-opacity="0.08"/>
<path d="M147 141C147 145.971 142.971 150 138 150C133.029 150 129 145.971 129 141C129 136.029 133.029 132 138 132C142.971 132 147 136.029 147 141Z" fill="#0C1124" fill-opacity="0.08"/>
<path d="M150 171C150 177.627 144.627 183 138 183C131.373 183 126 177.627 126 171C126 164.373 131.373 159 138 159C144.627 159 150 164.373 150 171Z" fill="#0C1124" fill-opacity="0.08"/>
<path d="M147 201C147 205.971 142.971 210 138 210C133.029 210 129 205.971 129 201C129 196.029 133.029 192 138 192C142.971 192 147 196.029 147 201Z" fill="#0C1124" fill-opacity="0.08"/>
<path d="M143 224C143 226.761 140.761 229 138 229C135.239 229 133 226.761 133 224C133 221.239 135.239 219 138 219C140.761 219 143 221.239 143 224Z" fill="#0C1124" fill-opacity="0.08"/>
<path d="M140 240C140 241.105 139.105 242 138 242C136.895 242 136 241.105 136 240C136 238.895 136.895 238 138 238C139.105 238 140 238.895 140 240Z" fill="#0C1124" fill-opacity="0.08"/>
<path d="M140 253C140 254.105 139.105 255 138 255C136.895 255 136 254.105 136 253C136 251.895 136.895 251 138 251C139.105 251 140 251.895 140 253Z" fill="#0C1124" fill-opacity="0.08"/>
<path d="M143 269C143 271.761 140.761 274 138 274C135.239 274 133 271.761 133 269C133 266.239 135.239 264 138 264C140.761 264 143 266.239 143 269Z" fill="#0C1124" fill-opacity="0.08"/>
<path d="M147 292C147 296.971 142.971 301 138 301C133.029 301 129 296.971 129 292C129 287.029 133.029 283 138 283C142.971 283 147 287.029 147 292Z" fill="#0C1124" fill-opacity="0.08"/>
<path d="M150 322C150 328.627 144.627 334 138 334C131.373 334 126 328.627 126 322C126 315.373 131.373 310 138 310C144.627 310 150 315.373 150 322Z" fill="#0C1124" fill-opacity="0.08"/>
<path d="M147 352C147 356.971 142.971 361 138 361C133.029 361 129 356.971 129 352C129 347.029 133.029 343 138 343C142.971 343 147 347.029 147 352Z" fill="#0C1124" fill-opacity="0.08"/>
<path d="M143 375C143 377.761 140.761 380 138 380C135.239 380 133 377.761 133 375C133 372.239 135.239 370 138 370C140.761 370 143 372.239 143 375Z" fill="#0C1124" fill-opacity="0.08"/>
<path d="M140 391C140 392.105 139.105 393 138 393C136.895 393 136 392.105 136 391C136 389.895 136.895 389 138 389C139.105 389 140 389.895 140 391Z" fill="#0C1124" fill-opacity="0.08"/>
<path d="M140 404C140 405.105 139.105 406 138 406C136.895 406 136 405.105 136 404C136 402.895 136.895 402 138 402C139.105 402 140 402.895 140 404Z" fill="#0C1124" fill-opacity="0.08"/>
<path d="M143 420C143 422.761 140.761 425 138 425C135.239 425 133 422.761 133 420C133 417.239 135.239 415 138 415C140.761 415 143 417.239 143 420Z" fill="#0C1124" fill-opacity="0.08"/>
<path d="M147 443C147 447.971 142.971 452 138 452C133.029 452 129 447.971 129 443C129 438.029 133.029 434 138 434C142.971 434 147 438.029 147 443Z" fill="#0C1124" fill-opacity="0.08"/>
<path d="M150 473C150 479.627 144.627 485 138 485C131.373 485 126 479.627 126 473C126 466.373 131.373 461 138 461C144.627 461 150 466.373 150 473Z" fill="#0C1124" fill-opacity="0.08"/>
<path d="M147 503C147 507.971 142.971 512 138 512C133.029 512 129 507.971 129 503C129 498.029 133.029 494 138 494C142.971 494 147 498.029 147 503Z" fill="#0C1124" fill-opacity="0.08"/>
<path d="M143 526C143 528.761 140.761 531 138 531C135.239 531 133 528.761 133 526C133 523.239 135.239 521 138 521C140.761 521 143 523.239 143 526Z" fill="#0C1124" fill-opacity="0.08"/>
<path d="M140 542C140 543.105 139.105 544 138 544C136.895 544 136 543.105 136 542C136 540.895 136.895 540 138 540C139.105 540 140 540.895 140 542Z" fill="#0C1124" fill-opacity="0.08"/>
<path d="M183 -124.5C183 -123.395 182.105 -122.5 181 -122.5C179.895 -122.5 179 -123.395 179 -124.5C179 -125.605 179.895 -126.5 181 -126.5C182.105 -126.5 183 -125.605 183 -124.5Z" fill="#0C1124" fill-opacity="0.08"/>
<path d="M186 -108.5C186 -105.739 183.761 -103.5 181 -103.5C178.239 -103.5 176 -105.739 176 -108.5C176 -111.261 178.239 -113.5 181 -113.5C183.761 -113.5 186 -111.261 186 -108.5Z" fill="#0C1124" fill-opacity="0.08"/>
<path d="M190 -85.5C190 -80.5294 185.971 -76.5 181 -76.5C176.029 -76.5 172 -80.5294 172 -85.5C172 -90.4706 176.029 -94.5 181 -94.5C185.971 -94.5 190 -90.4706 190 -85.5Z" fill="#0C1124" fill-opacity="0.08"/>
<path d="M193 -55.5C193 -48.8726 187.627 -43.5 181 -43.5C174.373 -43.5 169 -48.8726 169 -55.5C169 -62.1274 174.373 -67.5 181 -67.5C187.627 -67.5 193 -62.1274 193 -55.5Z" fill="#0C1124" fill-opacity="0.08"/>
<path d="M190 -25.5C190 -20.5294 185.971 -16.5 181 -16.5C176.029 -16.5 172 -20.5294 172 -25.5C172 -30.4706 176.029 -34.5 181 -34.5C185.971 -34.5 190 -30.4706 190 -25.5Z" fill="#0C1124" fill-opacity="0.08"/>
<path d="M186 -2.5C186 0.261429 183.761 2.5 181 2.5C178.239 2.5 176 0.261429 176 -2.5C176 -5.26143 178.239 -7.5 181 -7.5C183.761 -7.5 186 -5.26143 186 -2.5Z" fill="#0C1124" fill-opacity="0.08"/>
<path d="M183 13.5C183 14.6046 182.105 15.5 181 15.5C179.895 15.5 179 14.6046 179 13.5C179 12.3954 179.895 11.5 181 11.5C182.105 11.5 183 12.3954 183 13.5Z" fill="#0C1124" fill-opacity="0.08"/>
<path d="M183 26.5C183 27.6046 182.105 28.5 181 28.5C179.895 28.5 179 27.6046 179 26.5C179 25.3954 179.895 24.5 181 24.5C182.105 24.5 183 25.3954 183 26.5Z" fill="#0C1124" fill-opacity="0.08"/>
<path d="M186 42.5C186 45.2614 183.761 47.5 181 47.5C178.239 47.5 176 45.2614 176 42.5C176 39.7386 178.239 37.5 181 37.5C183.761 37.5 186 39.7386 186 42.5Z" fill="#0C1124" fill-opacity="0.08"/>
<path d="M190 65.5C190 70.4706 185.971 74.5 181 74.5C176.029 74.5 172 70.4706 172 65.5C172 60.5294 176.029 56.5 181 56.5C185.971 56.5 190 60.5294 190 65.5Z" fill="#0C1124" fill-opacity="0.08"/>
<path d="M193 95.5C193 102.127 187.627 107.5 181 107.5C174.373 107.5 169 102.127 169 95.5C169 88.8726 174.373 83.5 181 83.5C187.627 83.5 193 88.8726 193 95.5Z" fill="#0C1124" fill-opacity="0.08"/>
<path d="M190 125.5C190 130.471 185.971 134.5 181 134.5C176.029 134.5 172 130.471 172 125.5C172 120.529 176.029 116.5 181 116.5C185.971 116.5 190 120.529 190 125.5Z" fill="#0C1124" fill-opacity="0.08"/>
<path d="M186 148.5C186 151.261 183.761 153.5 181 153.5C178.239 153.5 176 151.261 176 148.5C176 145.739 178.239 143.5 181 143.5C183.761 143.5 186 145.739 186 148.5Z" fill="#0C1124" fill-opacity="0.08"/>
<path d="M183 164.5C183 165.605 182.105 166.5 181 166.5C179.895 166.5 179 165.605 179 164.5C179 163.395 179.895 162.5 181 162.5C182.105 162.5 183 163.395 183 164.5Z" fill="#0C1124" fill-opacity="0.08"/>
<path d="M183 177.5C183 178.605 182.105 179.5 181 179.5C179.895 179.5 179 178.605 179 177.5C179 176.395 179.895 175.5 181 175.5C182.105 175.5 183 176.395 183 177.5Z" fill="#0C1124" fill-opacity="0.08"/>
<path d="M186 193.5C186 196.261 183.761 198.5 181 198.5C178.239 198.5 176 196.261 176 193.5C176 190.739 178.239 188.5 181 188.5C183.761 188.5 186 190.739 186 193.5Z" fill="#0C1124" fill-opacity="0.08"/>
<path d="M190 216.5C190 221.471 185.971 225.5 181 225.5C176.029 225.5 172 221.471 172 216.5C172 211.529 176.029 207.5 181 207.5C185.971 207.5 190 211.529 190 216.5Z" fill="#0C1124" fill-opacity="0.08"/>
<path d="M193 246.5C193 253.127 187.627 258.5 181 258.5C174.373 258.5 169 253.127 169 246.5C169 239.873 174.373 234.5 181 234.5C187.627 234.5 193 239.873 193 246.5Z" fill="#0C1124" fill-opacity="0.08"/>
<path d="M190 276.5C190 281.471 185.971 285.5 181 285.5C176.029 285.5 172 281.471 172 276.5C172 271.529 176.029 267.5 181 267.5C185.971 267.5 190 271.529 190 276.5Z" fill="#0C1124" fill-opacity="0.08"/>
<path d="M186 299.5C186 302.261 183.761 304.5 181 304.5C178.239 304.5 176 302.261 176 299.5C176 296.739 178.239 294.5 181 294.5C183.761 294.5 186 296.739 186 299.5Z" fill="#0C1124" fill-opacity="0.08"/>
<path d="M183 315.5C183 316.605 182.105 317.5 181 317.5C179.895 317.5 179 316.605 179 315.5C179 314.395 179.895 313.5 181 313.5C182.105 313.5 183 314.395 183 315.5Z" fill="#0C1124" fill-opacity="0.08"/>
<path d="M183 328.5C183 329.605 182.105 330.5 181 330.5C179.895 330.5 179 329.605 179 328.5C179 327.395 179.895 326.5 181 326.5C182.105 326.5 183 327.395 183 328.5Z" fill="#0C1124" fill-opacity="0.08"/>
<path d="M186 344.5C186 347.261 183.761 349.5 181 349.5C178.239 349.5 176 347.261 176 344.5C176 341.739 178.239 339.5 181 339.5C183.761 339.5 186 341.739 186 344.5Z" fill="#0C1124" fill-opacity="0.08"/>
<path d="M190 367.5C190 372.471 185.971 376.5 181 376.5C176.029 376.5 172 372.471 172 367.5C172 362.529 176.029 358.5 181 358.5C185.971 358.5 190 362.529 190 367.5Z" fill="#0C1124" fill-opacity="0.08"/>
<path d="M193 397.5C193 404.127 187.627 409.5 181 409.5C174.373 409.5 169 404.127 169 397.5C169 390.873 174.373 385.5 181 385.5C187.627 385.5 193 390.873 193 397.5Z" fill="#0C1124" fill-opacity="0.08"/>
<path d="M190 427.5C190 432.471 185.971 436.5 181 436.5C176.029 436.5 172 432.471 172 427.5C172 422.529 176.029 418.5 181 418.5C185.971 418.5 190 422.529 190 427.5Z" fill="#0C1124" fill-opacity="0.08"/>
<path d="M186 450.5C186 453.261 183.761 455.5 181 455.5C178.239 455.5 176 453.261 176 450.5C176 447.739 178.239 445.5 181 445.5C183.761 445.5 186 447.739 186 450.5Z" fill="#0C1124" fill-opacity="0.08"/>
<path d="M183 466.5C183 467.605 182.105 468.5 181 468.5C179.895 468.5 179 467.605 179 466.5C179 465.395 179.895 464.5 181 464.5C182.105 464.5 183 465.395 183 466.5Z" fill="#0C1124" fill-opacity="0.08"/>
<path d="M226 -200C226 -198.895 225.105 -198 224 -198C222.895 -198 222 -198.895 222 -200C222 -201.105 222.895 -202 224 -202C225.105 -202 226 -201.105 226 -200Z" fill="#0C1124" fill-opacity="0.08"/>
<path d="M229 -184C229 -181.239 226.761 -179 224 -179C221.239 -179 219 -181.239 219 -184C219 -186.761 221.239 -189 224 -189C226.761 -189 229 -186.761 229 -184Z" fill="#0C1124" fill-opacity="0.08"/>
<path d="M233 -161C233 -156.029 228.971 -152 224 -152C219.029 -152 215 -156.029 215 -161C215 -165.971 219.029 -170 224 -170C228.971 -170 233 -165.971 233 -161Z" fill="#0C1124" fill-opacity="0.08"/>
<path d="M236 -131C236 -124.373 230.627 -119 224 -119C217.373 -119 212 -124.373 212 -131C212 -137.627 217.373 -143 224 -143C230.627 -143 236 -137.627 236 -131Z" fill="#0C1124" fill-opacity="0.08"/>
<path d="M233 -101C233 -96.0294 228.971 -92 224 -92C219.029 -92 215 -96.0294 215 -101C215 -105.971 219.029 -110 224 -110C228.971 -110 233 -105.971 233 -101Z" fill="#0C1124" fill-opacity="0.08"/>
<path d="M229 -78C229 -75.2386 226.761 -73 224 -73C221.239 -73 219 -75.2386 219 -78C219 -80.7614 221.239 -83 224 -83C226.761 -83 229 -80.7614 229 -78Z" fill="#0C1124" fill-opacity="0.08"/>
<path d="M226 -62C226 -60.8954 225.105 -60 224 -60C222.895 -60 222 -60.8954 222 -62C222 -63.1046 222.895 -64 224 -64C225.105 -64 226 -63.1046 226 -62Z" fill="#0C1124" fill-opacity="0.08"/>
<path d="M226 -49C226 -47.8954 225.105 -47 224 -47C222.895 -47 222 -47.8954 222 -49C222 -50.1046 222.895 -51 224 -51C225.105 -51 226 -50.1046 226 -49Z" fill="#0C1124" fill-opacity="0.08"/>
<path d="M229 -33C229 -30.2386 226.761 -28 224 -28C221.239 -28 219 -30.2386 219 -33C219 -35.7614 221.239 -38 224 -38C226.761 -38 229 -35.7614 229 -33Z" fill="#0C1124" fill-opacity="0.08"/>
<path d="M233 -10C233 -5.02943 228.971 -1 224 -1C219.029 -1 215 -5.02943 215 -10C215 -14.9706 219.029 -19 224 -19C228.971 -19 233 -14.9706 233 -10Z" fill="#0C1124" fill-opacity="0.08"/>
<path d="M236 20C236 26.6274 230.627 32 224 32C217.373 32 212 26.6274 212 20C212 13.3726 217.373 8 224 8C230.627 8 236 13.3726 236 20Z" fill="#0C1124" fill-opacity="0.08"/>
<path d="M233 50C233 54.9706 228.971 59 224 59C219.029 59 215 54.9706 215 50C215 45.0294 219.029 41 224 41C228.971 41 233 45.0294 233 50Z" fill="#0C1124" fill-opacity="0.08"/>
<path d="M229 73C229 75.7614 226.761 78 224 78C221.239 78 219 75.7614 219 73C219 70.2386 221.239 68 224 68C226.761 68 229 70.2386 229 73Z" fill="#0C1124" fill-opacity="0.08"/>
<path d="M226 89C226 90.1046 225.105 91 224 91C222.895 91 222 90.1046 222 89C222 87.8954 222.895 87 224 87C225.105 87 226 87.8954 226 89Z" fill="#0C1124" fill-opacity="0.08"/>
<path d="M226 102C226 103.105 225.105 104 224 104C222.895 104 222 103.105 222 102C222 100.895 222.895 100 224 100C225.105 100 226 100.895 226 102Z" fill="#0C1124" fill-opacity="0.08"/>
<path d="M229 118C229 120.761 226.761 123 224 123C221.239 123 219 120.761 219 118C219 115.239 221.239 113 224 113C226.761 113 229 115.239 229 118Z" fill="#0C1124" fill-opacity="0.08"/>
<path d="M233 141C233 145.971 228.971 150 224 150C219.029 150 215 145.971 215 141C215 136.029 219.029 132 224 132C228.971 132 233 136.029 233 141Z" fill="#0C1124" fill-opacity="0.08"/>
<path d="M236 171C236 177.627 230.627 183 224 183C217.373 183 212 177.627 212 171C212 164.373 217.373 159 224 159C230.627 159 236 164.373 236 171Z" fill="#0C1124" fill-opacity="0.08"/>
<path d="M233 201C233 205.971 228.971 210 224 210C219.029 210 215 205.971 215 201C215 196.029 219.029 192 224 192C228.971 192 233 196.029 233 201Z" fill="#0C1124" fill-opacity="0.08"/>
<path d="M229 224C229 226.761 226.761 229 224 229C221.239 229 219 226.761 219 224C219 221.239 221.239 219 224 219C226.761 219 229 221.239 229 224Z" fill="#0C1124" fill-opacity="0.08"/>
<path d="M226 240C226 241.105 225.105 242 224 242C222.895 242 222 241.105 222 240C222 238.895 222.895 238 224 238C225.105 238 226 238.895 226 240Z" fill="#0C1124" fill-opacity="0.08"/>
<path d="M226 253C226 254.105 225.105 255 224 255C222.895 255 222 254.105 222 253C222 251.895 222.895 251 224 251C225.105 251 226 251.895 226 253Z" fill="#0C1124" fill-opacity="0.08"/>
<path d="M229 269C229 271.761 226.761 274 224 274C221.239 274 219 271.761 219 269C219 266.239 221.239 264 224 264C226.761 264 229 266.239 229 269Z" fill="#0C1124" fill-opacity="0.08"/>
<path d="M233 292C233 296.971 228.971 301 224 301C219.029 301 215 296.971 215 292C215 287.029 219.029 283 224 283C228.971 283 233 287.029 233 292Z" fill="#0C1124" fill-opacity="0.08"/>
<path d="M236 322C236 328.627 230.627 334 224 334C217.373 334 212 328.627 212 322C212 315.373 217.373 310 224 310C230.627 310 236 315.373 236 322Z" fill="#0C1124" fill-opacity="0.08"/>
<path d="M233 352C233 356.971 228.971 361 224 361C219.029 361 215 356.971 215 352C215 347.029 219.029 343 224 343C228.971 343 233 347.029 233 352Z" fill="#0C1124" fill-opacity="0.08"/>
<path d="M229 375C229 377.761 226.761 380 224 380C221.239 380 219 377.761 219 375C219 372.239 221.239 370 224 370C226.761 370 229 372.239 229 375Z" fill="#0C1124" fill-opacity="0.08"/>
<path d="M226 391C226 392.105 225.105 393 224 393C222.895 393 222 392.105 222 391C222 389.895 222.895 389 224 389C225.105 389 226 389.895 226 391Z" fill="#0C1124" fill-opacity="0.08"/>
<path d="M226 404C226 405.105 225.105 406 224 406C222.895 406 222 405.105 222 404C222 402.895 222.895 402 224 402C225.105 402 226 402.895 226 404Z" fill="#0C1124" fill-opacity="0.08"/>
<path d="M229 420C229 422.761 226.761 425 224 425C221.239 425 219 422.761 219 420C219 417.239 221.239 415 224 415C226.761 415 229 417.239 229 420Z" fill="#0C1124" fill-opacity="0.08"/>
<path d="M233 443C233 447.971 228.971 452 224 452C219.029 452 215 447.971 215 443C215 438.029 219.029 434 224 434C228.971 434 233 438.029 233 443Z" fill="#0C1124" fill-opacity="0.08"/>
<path d="M236 473C236 479.627 230.627 485 224 485C217.373 485 212 479.627 212 473C212 466.373 217.373 461 224 461C230.627 461 236 466.373 236 473Z" fill="#0C1124" fill-opacity="0.08"/>
<path d="M233 503C233 507.971 228.971 512 224 512C219.029 512 215 507.971 215 503C215 498.029 219.029 494 224 494C228.971 494 233 498.029 233 503Z" fill="#0C1124" fill-opacity="0.08"/>
<path d="M229 526C229 528.761 226.761 531 224 531C221.239 531 219 528.761 219 526C219 523.239 221.239 521 224 521C226.761 521 229 523.239 229 526Z" fill="#0C1124" fill-opacity="0.08"/>
<path d="M226 542C226 543.105 225.105 544 224 544C222.895 544 222 543.105 222 542C222 540.895 222.895 540 224 540C225.105 540 226 540.895 226 542Z" fill="#0C1124" fill-opacity="0.08"/>
<path d="M14 -200C14 -198.895 13.1046 -198 12 -198C10.8954 -198 10 -198.895 10 -200C10 -201.105 10.8954 -202 12 -202C13.1046 -202 14 -201.105 14 -200Z" fill="#0C1124" fill-opacity="0.08"/>
<path d="M17 -184C17 -181.239 14.7614 -179 12 -179C9.23858 -179 7 -181.239 7 -184C7 -186.761 9.23858 -189 12 -189C14.7614 -189 17 -186.761 17 -184Z" fill="#0C1124" fill-opacity="0.08"/>
<path d="M21 -161C21 -156.029 16.9706 -152 12 -152C7.02944 -152 3 -156.029 3 -161C3 -165.971 7.02944 -170 12 -170C16.9706 -170 21 -165.971 21 -161Z" fill="#0C1124" fill-opacity="0.08"/>
<path d="M24 -131C24 -124.373 18.6274 -119 12 -119C5.37258 -119 0 -124.373 0 -131C0 -137.627 5.37258 -143 12 -143C18.6274 -143 24 -137.627 24 -131Z" fill="#0C1124" fill-opacity="0.08"/>
<path d="M21 -101C21 -96.0294 16.9706 -92 12 -92C7.02944 -92 3 -96.0294 3 -101C3 -105.971 7.02944 -110 12 -110C16.9706 -110 21 -105.971 21 -101Z" fill="#0C1124" fill-opacity="0.08"/>
<path d="M17 -78C17 -75.2386 14.7614 -73 12 -73C9.23858 -73 7 -75.2386 7 -78C7 -80.7614 9.23858 -83 12 -83C14.7614 -83 17 -80.7614 17 -78Z" fill="#0C1124" fill-opacity="0.08"/>
<path d="M14 -62C14 -60.8954 13.1046 -60 12 -60C10.8954 -60 10 -60.8954 10 -62C10 -63.1046 10.8954 -64 12 -64C13.1046 -64 14 -63.1046 14 -62Z" fill="#0C1124" fill-opacity="0.08"/>
<path d="M14 -49C14 -47.8954 13.1046 -47 12 -47C10.8954 -47 10 -47.8954 10 -49C10 -50.1046 10.8954 -51 12 -51C13.1046 -51 14 -50.1046 14 -49Z" fill="#0C1124" fill-opacity="0.08"/>
<path d="M17 -33C17 -30.2386 14.7614 -28 12 -28C9.23858 -28 7 -30.2386 7 -33C7 -35.7614 9.23858 -38 12 -38C14.7614 -38 17 -35.7614 17 -33Z" fill="#0C1124" fill-opacity="0.08"/>
<path d="M21 -10C21 -5.02943 16.9706 -1 12 -1C7.02944 -1 3 -5.02943 3 -10C3 -14.9706 7.02944 -19 12 -19C16.9706 -19 21 -14.9706 21 -10Z" fill="#0C1124" fill-opacity="0.08"/>
<path d="M24 20C24 26.6274 18.6274 32 12 32C5.37258 32 0 26.6274 0 20C0 13.3726 5.37258 8 12 8C18.6274 8 24 13.3726 24 20Z" fill="#0C1124" fill-opacity="0.08"/>
<path d="M21 50C21 54.9706 16.9706 59 12 59C7.02944 59 3 54.9706 3 50C3 45.0294 7.02944 41 12 41C16.9706 41 21 45.0294 21 50Z" fill="#0C1124" fill-opacity="0.08"/>
<path d="M17 73C17 75.7614 14.7614 78 12 78C9.23858 78 7 75.7614 7 73C7 70.2386 9.23858 68 12 68C14.7614 68 17 70.2386 17 73Z" fill="#0C1124" fill-opacity="0.08"/>
<path d="M14 89C14 90.1046 13.1046 91 12 91C10.8954 91 10 90.1046 10 89C10 87.8954 10.8954 87 12 87C13.1046 87 14 87.8954 14 89Z" fill="#0C1124" fill-opacity="0.08"/>
<path d="M14 102C14 103.105 13.1046 104 12 104C10.8954 104 10 103.105 10 102C10 100.895 10.8954 100 12 100C13.1046 100 14 100.895 14 102Z" fill="#0C1124" fill-opacity="0.08"/>
<path d="M17 118C17 120.761 14.7614 123 12 123C9.23858 123 7 120.761 7 118C7 115.239 9.23858 113 12 113C14.7614 113 17 115.239 17 118Z" fill="#0C1124" fill-opacity="0.08"/>
<path d="M21 141C21 145.971 16.9706 150 12 150C7.02944 150 3 145.971 3 141C3 136.029 7.02944 132 12 132C16.9706 132 21 136.029 21 141Z" fill="#0C1124" fill-opacity="0.08"/>
<path d="M24 171C24 177.627 18.6274 183 12 183C5.37258 183 0 177.627 0 171C0 164.373 5.37258 159 12 159C18.6274 159 24 164.373 24 171Z" fill="#0C1124" fill-opacity="0.08"/>
<path d="M21 201C21 205.971 16.9706 210 12 210C7.02944 210 3 205.971 3 201C3 196.029 7.02944 192 12 192C16.9706 192 21 196.029 21 201Z" fill="#0C1124" fill-opacity="0.08"/>
<path d="M17 224C17 226.761 14.7614 229 12 229C9.23858 229 7 226.761 7 224C7 221.239 9.23858 219 12 219C14.7614 219 17 221.239 17 224Z" fill="#0C1124" fill-opacity="0.08"/>
<path d="M14 240C14 241.105 13.1046 242 12 242C10.8954 242 10 241.105 10 240C10 238.895 10.8954 238 12 238C13.1046 238 14 238.895 14 240Z" fill="#0C1124" fill-opacity="0.08"/>
<path d="M14 253C14 254.105 13.1046 255 12 255C10.8954 255 10 254.105 10 253C10 251.895 10.8954 251 12 251C13.1046 251 14 251.895 14 253Z" fill="#0C1124" fill-opacity="0.08"/>
<path d="M17 269C17 271.761 14.7614 274 12 274C9.23858 274 7 271.761 7 269C7 266.239 9.23858 264 12 264C14.7614 264 17 266.239 17 269Z" fill="#0C1124" fill-opacity="0.08"/>
<path d="M21 292C21 296.971 16.9706 301 12 301C7.02944 301 3 296.971 3 292C3 287.029 7.02944 283 12 283C16.9706 283 21 287.029 21 292Z" fill="#0C1124" fill-opacity="0.08"/>
<path d="M24 322C24 328.627 18.6274 334 12 334C5.37258 334 0 328.627 0 322C0 315.373 5.37258 310 12 310C18.6274 310 24 315.373 24 322Z" fill="#0C1124" fill-opacity="0.08"/>
<path d="M21 352C21 356.971 16.9706 361 12 361C7.02944 361 3 356.971 3 352C3 347.029 7.02944 343 12 343C16.9706 343 21 347.029 21 352Z" fill="#0C1124" fill-opacity="0.08"/>
<path d="M17 375C17 377.761 14.7614 380 12 380C9.23858 380 7 377.761 7 375C7 372.239 9.23858 370 12 370C14.7614 370 17 372.239 17 375Z" fill="#0C1124" fill-opacity="0.08"/>
<path d="M14 391C14 392.105 13.1046 393 12 393C10.8954 393 10 392.105 10 391C10 389.895 10.8954 389 12 389C13.1046 389 14 389.895 14 391Z" fill="#0C1124" fill-opacity="0.08"/>
<path d="M14 404C14 405.105 13.1046 406 12 406C10.8954 406 10 405.105 10 404C10 402.895 10.8954 402 12 402C13.1046 402 14 402.895 14 404Z" fill="#0C1124" fill-opacity="0.08"/>
<path d="M17 420C17 422.761 14.7614 425 12 425C9.23858 425 7 422.761 7 420C7 417.239 9.23858 415 12 415C14.7614 415 17 417.239 17 420Z" fill="#0C1124" fill-opacity="0.08"/>
<path d="M21 443C21 447.971 16.9706 452 12 452C7.02944 452 3 447.971 3 443C3 438.029 7.02944 434 12 434C16.9706 434 21 438.029 21 443Z" fill="#0C1124" fill-opacity="0.08"/>
<path d="M24 473C24 479.627 18.6274 485 12 485C5.37258 485 0 479.627 0 473C0 466.373 5.37258 461 12 461C18.6274 461 24 466.373 24 473Z" fill="#0C1124" fill-opacity="0.08"/>
<path d="M21 503C21 507.971 16.9706 512 12 512C7.02944 512 3 507.971 3 503C3 498.029 7.02944 494 12 494C16.9706 494 21 498.029 21 503Z" fill="#0C1124" fill-opacity="0.08"/>
<path d="M17 526C17 528.761 14.7614 531 12 531C9.23858 531 7 528.761 7 526C7 523.239 9.23858 521 12 521C14.7614 521 17 523.239 17 526Z" fill="#0C1124" fill-opacity="0.08"/>
<path d="M14 542C14 543.105 13.1046 544 12 544C10.8954 544 10 543.105 10 542C10 540.895 10.8954 540 12 540C13.1046 540 14 540.895 14 542Z" fill="#0C1124" fill-opacity="0.08"/>
<path d="M57 -124.5C57 -123.395 56.1046 -122.5 55 -122.5C53.8954 -122.5 53 -123.395 53 -124.5C53 -125.605 53.8954 -126.5 55 -126.5C56.1046 -126.5 57 -125.605 57 -124.5Z" fill="#0C1124" fill-opacity="0.08"/>
<path d="M60 -108.5C60 -105.739 57.7614 -103.5 55 -103.5C52.2386 -103.5 50 -105.739 50 -108.5C50 -111.261 52.2386 -113.5 55 -113.5C57.7614 -113.5 60 -111.261 60 -108.5Z" fill="#0C1124" fill-opacity="0.08"/>
<path d="M64 -85.5C64 -80.5294 59.9706 -76.5 55 -76.5C50.0294 -76.5 46 -80.5294 46 -85.5C46 -90.4706 50.0294 -94.5 55 -94.5C59.9706 -94.5 64 -90.4706 64 -85.5Z" fill="#0C1124" fill-opacity="0.08"/>
<path d="M67 -55.5C67 -48.8726 61.6274 -43.5 55 -43.5C48.3726 -43.5 43 -48.8726 43 -55.5C43 -62.1274 48.3726 -67.5 55 -67.5C61.6274 -67.5 67 -62.1274 67 -55.5Z" fill="#0C1124" fill-opacity="0.08"/>
<path d="M64 -25.5C64 -20.5294 59.9706 -16.5 55 -16.5C50.0294 -16.5 46 -20.5294 46 -25.5C46 -30.4706 50.0294 -34.5 55 -34.5C59.9706 -34.5 64 -30.4706 64 -25.5Z" fill="#0C1124" fill-opacity="0.08"/>
<path d="M60 -2.5C60 0.261429 57.7614 2.5 55 2.5C52.2386 2.5 50 0.261429 50 -2.5C50 -5.26143 52.2386 -7.5 55 -7.5C57.7614 -7.5 60 -5.26143 60 -2.5Z" fill="#0C1124" fill-opacity="0.08"/>
<path d="M57 13.5C57 14.6046 56.1046 15.5 55 15.5C53.8954 15.5 53 14.6046 53 13.5C53 12.3954 53.8954 11.5 55 11.5C56.1046 11.5 57 12.3954 57 13.5Z" fill="#0C1124" fill-opacity="0.08"/>
<path d="M57 26.5C57 27.6046 56.1046 28.5 55 28.5C53.8954 28.5 53 27.6046 53 26.5C53 25.3954 53.8954 24.5 55 24.5C56.1046 24.5 57 25.3954 57 26.5Z" fill="#0C1124" fill-opacity="0.08"/>
<path d="M60 42.5C60 45.2614 57.7614 47.5 55 47.5C52.2386 47.5 50 45.2614 50 42.5C50 39.7386 52.2386 37.5 55 37.5C57.7614 37.5 60 39.7386 60 42.5Z" fill="#0C1124" fill-opacity="0.08"/>
<path d="M64 65.5C64 70.4706 59.9706 74.5 55 74.5C50.0294 74.5 46 70.4706 46 65.5C46 60.5294 50.0294 56.5 55 56.5C59.9706 56.5 64 60.5294 64 65.5Z" fill="#0C1124" fill-opacity="0.08"/>
<path d="M67 95.5C67 102.127 61.6274 107.5 55 107.5C48.3726 107.5 43 102.127 43 95.5C43 88.8726 48.3726 83.5 55 83.5C61.6274 83.5 67 88.8726 67 95.5Z" fill="#0C1124" fill-opacity="0.08"/>
<path d="M64 125.5C64 130.471 59.9706 134.5 55 134.5C50.0294 134.5 46 130.471 46 125.5C46 120.529 50.0294 116.5 55 116.5C59.9706 116.5 64 120.529 64 125.5Z" fill="#0C1124" fill-opacity="0.08"/>
<path d="M60 148.5C60 151.261 57.7614 153.5 55 153.5C52.2386 153.5 50 151.261 50 148.5C50 145.739 52.2386 143.5 55 143.5C57.7614 143.5 60 145.739 60 148.5Z" fill="#0C1124" fill-opacity="0.08"/>
<path d="M57 164.5C57 165.605 56.1046 166.5 55 166.5C53.8954 166.5 53 165.605 53 164.5C53 163.395 53.8954 162.5 55 162.5C56.1046 162.5 57 163.395 57 164.5Z" fill="#0C1124" fill-opacity="0.08"/>
<path d="M57 177.5C57 178.605 56.1046 179.5 55 179.5C53.8954 179.5 53 178.605 53 177.5C53 176.395 53.8954 175.5 55 175.5C56.1046 175.5 57 176.395 57 177.5Z" fill="#0C1124" fill-opacity="0.08"/>
<path d="M60 193.5C60 196.261 57.7614 198.5 55 198.5C52.2386 198.5 50 196.261 50 193.5C50 190.739 52.2386 188.5 55 188.5C57.7614 188.5 60 190.739 60 193.5Z" fill="#0C1124" fill-opacity="0.08"/>
<path d="M64 216.5C64 221.471 59.9706 225.5 55 225.5C50.0294 225.5 46 221.471 46 216.5C46 211.529 50.0294 207.5 55 207.5C59.9706 207.5 64 211.529 64 216.5Z" fill="#0C1124" fill-opacity="0.08"/>
<path d="M67 246.5C67 253.127 61.6274 258.5 55 258.5C48.3726 258.5 43 253.127 43 246.5C43 239.873 48.3726 234.5 55 234.5C61.6274 234.5 67 239.873 67 246.5Z" fill="#0C1124" fill-opacity="0.08"/>
<path d="M64 276.5C64 281.471 59.9706 285.5 55 285.5C50.0294 285.5 46 281.471 46 276.5C46 271.529 50.0294 267.5 55 267.5C59.9706 267.5 64 271.529 64 276.5Z" fill="#0C1124" fill-opacity="0.08"/>
<path d="M60 299.5C60 302.261 57.7614 304.5 55 304.5C52.2386 304.5 50 302.261 50 299.5C50 296.739 52.2386 294.5 55 294.5C57.7614 294.5 60 296.739 60 299.5Z" fill="#0C1124" fill-opacity="0.08"/>
<path d="M57 315.5C57 316.605 56.1046 317.5 55 317.5C53.8954 317.5 53 316.605 53 315.5C53 314.395 53.8954 313.5 55 313.5C56.1046 313.5 57 314.395 57 315.5Z" fill="#0C1124" fill-opacity="0.08"/>
<path d="M57 328.5C57 329.605 56.1046 330.5 55 330.5C53.8954 330.5 53 329.605 53 328.5C53 327.395 53.8954 326.5 55 326.5C56.1046 326.5 57 327.395 57 328.5Z" fill="#0C1124" fill-opacity="0.08"/>
<path d="M60 344.5C60 347.261 57.7614 349.5 55 349.5C52.2386 349.5 50 347.261 50 344.5C50 341.739 52.2386 339.5 55 339.5C57.7614 339.5 60 341.739 60 344.5Z" fill="#0C1124" fill-opacity="0.08"/>
<path d="M64 367.5C64 372.471 59.9706 376.5 55 376.5C50.0294 376.5 46 372.471 46 367.5C46 362.529 50.0294 358.5 55 358.5C59.9706 358.5 64 362.529 64 367.5Z" fill="#0C1124" fill-opacity="0.08"/>
<path d="M67 397.5C67 404.127 61.6274 409.5 55 409.5C48.3726 409.5 43 404.127 43 397.5C43 390.873 48.3726 385.5 55 385.5C61.6274 385.5 67 390.873 67 397.5Z" fill="#0C1124" fill-opacity="0.08"/>
<path d="M64 427.5C64 432.471 59.9706 436.5 55 436.5C50.0294 436.5 46 432.471 46 427.5C46 422.529 50.0294 418.5 55 418.5C59.9706 418.5 64 422.529 64 427.5Z" fill="#0C1124" fill-opacity="0.08"/>
<path d="M60 450.5C60 453.261 57.7614 455.5 55 455.5C52.2386 455.5 50 453.261 50 450.5C50 447.739 52.2386 445.5 55 445.5C57.7614 445.5 60 447.739 60 450.5Z" fill="#0C1124" fill-opacity="0.08"/>
<path d="M57 466.5C57 467.605 56.1046 468.5 55 468.5C53.8954 468.5 53 467.605 53 466.5C53 465.395 53.8954 464.5 55 464.5C56.1046 464.5 57 465.395 57 466.5Z" fill="#0C1124" fill-opacity="0.08"/>
<path d="M100 -200C100 -198.895 99.1046 -198 98 -198C96.8954 -198 96 -198.895 96 -200C96 -201.105 96.8954 -202 98 -202C99.1046 -202 100 -201.105 100 -200Z" fill="#0C1124" fill-opacity="0.08"/>
<path d="M103 -184C103 -181.239 100.761 -179 98 -179C95.2386 -179 93 -181.239 93 -184C93 -186.761 95.2386 -189 98 -189C100.761 -189 103 -186.761 103 -184Z" fill="#0C1124" fill-opacity="0.08"/>
<path d="M107 -161C107 -156.029 102.971 -152 98 -152C93.0294 -152 89 -156.029 89 -161C89 -165.971 93.0294 -170 98 -170C102.971 -170 107 -165.971 107 -161Z" fill="#0C1124" fill-opacity="0.08"/>
<path d="M110 -131C110 -124.373 104.627 -119 98 -119C91.3726 -119 86 -124.373 86 -131C86 -137.627 91.3726 -143 98 -143C104.627 -143 110 -137.627 110 -131Z" fill="#0C1124" fill-opacity="0.08"/>
<path d="M107 -101C107 -96.0294 102.971 -92 98 -92C93.0294 -92 89 -96.0294 89 -101C89 -105.971 93.0294 -110 98 -110C102.971 -110 107 -105.971 107 -101Z" fill="#0C1124" fill-opacity="0.08"/>
<path d="M103 -78C103 -75.2386 100.761 -73 98 -73C95.2386 -73 93 -75.2386 93 -78C93 -80.7614 95.2386 -83 98 -83C100.761 -83 103 -80.7614 103 -78Z" fill="#0C1124" fill-opacity="0.08"/>
<path d="M100 -62C100 -60.8954 99.1046 -60 98 -60C96.8954 -60 96 -60.8954 96 -62C96 -63.1046 96.8954 -64 98 -64C99.1046 -64 100 -63.1046 100 -62Z" fill="#0C1124" fill-opacity="0.08"/>
<path d="M100 -49C100 -47.8954 99.1046 -47 98 -47C96.8954 -47 96 -47.8954 96 -49C96 -50.1046 96.8954 -51 98 -51C99.1046 -51 100 -50.1046 100 -49Z" fill="#0C1124" fill-opacity="0.08"/>
<path d="M103 -33C103 -30.2386 100.761 -28 98 -28C95.2386 -28 93 -30.2386 93 -33C93 -35.7614 95.2386 -38 98 -38C100.761 -38 103 -35.7614 103 -33Z" fill="#0C1124" fill-opacity="0.08"/>
<path d="M107 -10C107 -5.02943 102.971 -1 98 -1C93.0294 -1 89 -5.02943 89 -10C89 -14.9706 93.0294 -19 98 -19C102.971 -19 107 -14.9706 107 -10Z" fill="#0C1124" fill-opacity="0.08"/>
<path d="M110 20C110 26.6274 104.627 32 98 32C91.3726 32 86 26.6274 86 20C86 13.3726 91.3726 8 98 8C104.627 8 110 13.3726 110 20Z" fill="#0C1124" fill-opacity="0.08"/>
<path d="M107 50C107 54.9706 102.971 59 98 59C93.0294 59 89 54.9706 89 50C89 45.0294 93.0294 41 98 41C102.971 41 107 45.0294 107 50Z" fill="#0C1124" fill-opacity="0.08"/>
<path d="M103 73C103 75.7614 100.761 78 98 78C95.2386 78 93 75.7614 93 73C93 70.2386 95.2386 68 98 68C100.761 68 103 70.2386 103 73Z" fill="#0C1124" fill-opacity="0.08"/>
<path d="M100 89C100 90.1046 99.1046 91 98 91C96.8954 91 96 90.1046 96 89C96 87.8954 96.8954 87 98 87C99.1046 87 100 87.8954 100 89Z" fill="#0C1124" fill-opacity="0.08"/>
<path d="M100 102C100 103.105 99.1046 104 98 104C96.8954 104 96 103.105 96 102C96 100.895 96.8954 100 98 100C99.1046 100 100 100.895 100 102Z" fill="#0C1124" fill-opacity="0.08"/>
<path d="M103 118C103 120.761 100.761 123 98 123C95.2386 123 93 120.761 93 118C93 115.239 95.2386 113 98 113C100.761 113 103 115.239 103 118Z" fill="#0C1124" fill-opacity="0.08"/>
<path d="M107 141C107 145.971 102.971 150 98 150C93.0294 150 89 145.971 89 141C89 136.029 93.0294 132 98 132C102.971 132 107 136.029 107 141Z" fill="#0C1124" fill-opacity="0.08"/>
<path d="M110 171C110 177.627 104.627 183 98 183C91.3726 183 86 177.627 86 171C86 164.373 91.3726 159 98 159C104.627 159 110 164.373 110 171Z" fill="#0C1124" fill-opacity="0.08"/>
<path d="M107 201C107 205.971 102.971 210 98 210C93.0294 210 89 205.971 89 201C89 196.029 93.0294 192 98 192C102.971 192 107 196.029 107 201Z" fill="#0C1124" fill-opacity="0.08"/>
<path d="M103 224C103 226.761 100.761 229 98 229C95.2386 229 93 226.761 93 224C93 221.239 95.2386 219 98 219C100.761 219 103 221.239 103 224Z" fill="#0C1124" fill-opacity="0.08"/>
<path d="M100 240C100 241.105 99.1046 242 98 242C96.8954 242 96 241.105 96 240C96 238.895 96.8954 238 98 238C99.1046 238 100 238.895 100 240Z" fill="#0C1124" fill-opacity="0.08"/>
<path d="M100 253C100 254.105 99.1046 255 98 255C96.8954 255 96 254.105 96 253C96 251.895 96.8954 251 98 251C99.1046 251 100 251.895 100 253Z" fill="#0C1124" fill-opacity="0.08"/>
<path d="M103 269C103 271.761 100.761 274 98 274C95.2386 274 93 271.761 93 269C93 266.239 95.2386 264 98 264C100.761 264 103 266.239 103 269Z" fill="#0C1124" fill-opacity="0.08"/>
<path d="M107 292C107 296.971 102.971 301 98 301C93.0294 301 89 296.971 89 292C89 287.029 93.0294 283 98 283C102.971 283 107 287.029 107 292Z" fill="#0C1124" fill-opacity="0.08"/>
<path d="M110 322C110 328.627 104.627 334 98 334C91.3726 334 86 328.627 86 322C86 315.373 91.3726 310 98 310C104.627 310 110 315.373 110 322Z" fill="#0C1124" fill-opacity="0.08"/>
<path d="M107 352C107 356.971 102.971 361 98 361C93.0294 361 89 356.971 89 352C89 347.029 93.0294 343 98 343C102.971 343 107 347.029 107 352Z" fill="#0C1124" fill-opacity="0.08"/>
<path d="M103 375C103 377.761 100.761 380 98 380C95.2386 380 93 377.761 93 375C93 372.239 95.2386 370 98 370C100.761 370 103 372.239 103 375Z" fill="#0C1124" fill-opacity="0.08"/>
<path d="M100 391C100 392.105 99.1046 393 98 393C96.8954 393 96 392.105 96 391C96 389.895 96.8954 389 98 389C99.1046 389 100 389.895 100 391Z" fill="#0C1124" fill-opacity="0.08"/>
<path d="M100 404C100 405.105 99.1046 406 98 406C96.8954 406 96 405.105 96 404C96 402.895 96.8954 402 98 402C99.1046 402 100 402.895 100 404Z" fill="#0C1124" fill-opacity="0.08"/>
<path d="M103 420C103 422.761 100.761 425 98 425C95.2386 425 93 422.761 93 420C93 417.239 95.2386 415 98 415C100.761 415 103 417.239 103 420Z" fill="#0C1124" fill-opacity="0.08"/>
<path d="M107 443C107 447.971 102.971 452 98 452C93.0294 452 89 447.971 89 443C89 438.029 93.0294 434 98 434C102.971 434 107 438.029 107 443Z" fill="#0C1124" fill-opacity="0.08"/>
<path d="M110 473C110 479.627 104.627 485 98 485C91.3726 485 86 479.627 86 473C86 466.373 91.3726 461 98 461C104.627 461 110 466.373 110 473Z" fill="#0C1124" fill-opacity="0.08"/>
<path d="M107 503C107 507.971 102.971 512 98 512C93.0294 512 89 507.971 89 503C89 498.029 93.0294 494 98 494C102.971 494 107 498.029 107 503Z" fill="#0C1124" fill-opacity="0.08"/>
<path d="M103 526C103 528.761 100.761 531 98 531C95.2386 531 93 528.761 93 526C93 523.239 95.2386 521 98 521C100.761 521 103 523.239 103 526Z" fill="#0C1124" fill-opacity="0.08"/>
<path d="M100 542C100 543.105 99.1046 544 98 544C96.8954 544 96 543.105 96 542C96 540.895 96.8954 540 98 540C99.1046 540 100 540.895 100 542Z" fill="#0C1124" fill-opacity="0.08"/>
</g>
<defs>
<clipPath id="clip0_2299_488239">
<rect width="370" height="419" fill="white"/>
</clipPath>
</defs>
</svg>
